<?xml version="1.0" encoding="utf-8"?>
<!-- Generator: Adobe Illustrator 25.4.1, SVG Export Plug-In . SVG Version: 6.00 Build 0)  -->
<svg version="1.1" id="Capa_1" xmlns="http://www.w3.org/2000/svg" xmlns:xlink="http://www.w3.org/1999/xlink" x="0px" y="0px"
	 viewBox="0 0 31 31" style="enable-background:new 0 0 31 31;" xml:space="preserve">
<style type="text/css">
	.st0{fill:#3262AC;}
	.st1{fill:#CAD52C;}
	.st2{fill:none;stroke:#FFFFFF;stroke-width:2;}
	.st3{fill:#FFFFFF;}
	.st4{fill:#FBFBFB;stroke:#3883C5;stroke-width:2;stroke-linecap:round;stroke-linejoin:round;}
	.st5{fill:#787887;}
</style>
<g id="Hamburger_Icon">
	<g id="Hamburger_Icon-2">
		<path id="Trazado_11" class="st0" d="M69.7-18.3c0-1.1,0.6-2,1.3-2h16.9c0.7,0,1.2,0.9,1.2,2s-0.6,2-1.2,2H70.9
			C70.3-16.4,69.7-17.2,69.7-18.3z"/>
		<path id="Trazado_1290" class="st0" d="M69.7-18.3c0-1.1,0.6-2,1.3-2h16.9c0.7,0,1.2,0.9,1.2,2s-0.6,2-1.2,2H70.9
			C70.3-16.4,69.7-17.2,69.7-18.3z"/>
		<path id="Trazado_1291" class="st0" d="M69.7-11.1c0-0.9,0.6-1.7,1.3-1.7h16.9c0.7,0,1.2,0.7,1.2,1.7c0,0.9-0.6,1.7-1.2,1.7H70.9
			C70.2-9.4,69.7-10.2,69.7-11.1z"/>
		<path id="Trazado_1292" class="st0" d="M69.7-25.5c0-1,0.6-1.9,1.3-1.9h16.9c0.7,0,1.2,0.8,1.2,1.9s-0.6,1.9-1.2,1.9H70.9
			C70.2-23.6,69.7-24.4,69.7-25.5z"/>
	</g>
</g>
<g>
	<g id="Elipse_21_00000122700021666481455410000011478136939818866572_">
		<circle class="st1" cx="116.2" cy="-18.3" r="12.5"/>
		<circle class="st2" cx="116.2" cy="-18.3" r="11.5"/>
	</g>
	<path id="Icon_awesome-check_00000110441766745699221180000003192436968001748644_" class="st3" d="M113.9-12.4l-4.7-4.7
		c-0.3-0.3-0.3-0.7,0-1l1-1c0.3-0.3,0.7-0.3,1,0l3.2,3.2l6.7-6.7c0.3-0.3,0.7-0.3,1,0l1,1c0.3,0.3,0.3,0.7,0,1l-8.3,8.3
		C114.6-12.1,114.2-12.1,113.9-12.4z"/>
</g>
<path id="Icon_metro-calendar" class="st0" d="M111.6,7.3h2.4v2.4h-2.4V7.3z M115.1,7.3h2.4v2.4h-2.4V7.3z M118.7,7.3h2.4v2.4h-2.4
	V7.3z M108.1,14.3h2.4v2.4h-2.4L108.1,14.3z M111.6,14.3h2.4v2.4h-2.4L111.6,14.3z M115.1,14.3h2.4v2.4h-2.4L115.1,14.3z
	 M111.6,10.8h2.4v2.4h-2.4V10.8z M115.1,10.8h2.4v2.4h-2.4V10.8z M118.7,10.8h2.4v2.4h-2.4V10.8z M108.1,10.8h2.4v2.4h-2.4
	L108.1,10.8z M121,0.2v1.2h-2.4V0.2h-8.2v1.2h-2.4V0.2h-2.4v18.8h17.7V0.2L121,0.2L121,0.2z M122.2,17.9h-15.3v-13h15.3V17.9z"/>
<g id="Grupo_2500" transform="translate(-114 -165.89)">
	<g>
		<g id="Grupo_2498" transform="translate(0 0)">
			<path id="Trazado_1475" class="st0" d="M255.6,173.5c-1.6,0-2.9,1.3-2.9,2.9c0,0.8,0.3,1.6,0.9,2.1v1.9c0,1.1,0.9,1.9,1.9,1.9
				c1.1,0,1.9-0.9,1.9-1.9c0,0,0,0,0,0v-1.9c1.2-1.1,1.3-2.9,0.2-4.1C257.2,173.8,256.4,173.5,255.6,173.5L255.6,173.5z
				 M256.4,177.5l-0.3,0.2v2.7c0,0.2-0.2,0.4-0.4,0.4c-0.2,0-0.4-0.2-0.4-0.4c0,0,0,0,0,0v-2.7l-0.3-0.2c-0.6-0.4-0.8-1.2-0.4-1.8
				c0.4-0.6,1.2-0.8,1.8-0.4c0.6,0.4,0.8,1.2,0.4,1.8C256.6,177.2,256.5,177.4,256.4,177.5L256.4,177.5z"/>
			<path id="Trazado_1476" class="st0" d="M262.5,169.9v-2.8c0-3.6-2.9-6.5-6.5-6.5h-0.8c-3.6,0-6.5,2.9-6.5,6.5v2.8
				c-1.4,0.6-2.3,1.9-2.3,3.4v9.2c0,2,1.6,3.6,3.6,3.6h11c2,0,3.6-1.6,3.6-3.6v-9.2C264.8,171.8,263.9,170.5,262.5,169.9
				L262.5,169.9z M250.3,167.1c0-2.7,2.2-4.9,4.9-4.9h0.8c2.7,0,4.9,2.2,4.9,4.9v2.5h-1.6v-2.5c0-1.8-1.5-3.3-3.3-3.3h-0.8
				c-1.8,0-3.3,1.5-3.3,3.3v2.5h-1.6L250.3,167.1z M257.8,169.7h-4.2v-2.5c0-1,0.8-1.7,1.7-1.7h0.8c1,0,1.7,0.8,1.7,1.7L257.8,169.7
				z M263.2,182.5c0,1.1-0.9,2.1-2.1,2.1h-11c-1.1,0-2.1-0.9-2.1-2.1v-9.2c0-1.1,0.9-2.1,2.1-2.1h11c1.1,0,2.1,0.9,2.1,2.1
				L263.2,182.5z"/>
		</g>
	</g>
</g>
<path id="Icon_awesome-wpforms" class="st0" d="M181.3-0.6v19.4c0,1.3-1,2.3-2.3,2.3c0,0,0,0-0.1,0h-19.4c-1.3,0-2.3-1-2.3-2.3
	c0,0,0,0,0,0V-0.6c0-1.3,1-2.3,2.3-2.3c0,0,0,0,0.1,0H179C180.3-2.9,181.3-1.9,181.3-0.6C181.3-0.6,181.3-0.6,181.3-0.6z
	 M179.3,18.8V-0.6c0-0.2-0.1-0.3-0.3-0.3h-0.5l-5.9,4l-3.3-2.7L166,3.1l-5.9-4h-0.5c-0.2,0-0.3,0.1-0.3,0.3v19.4
	c0,0.2,0.1,0.3,0.3,0.3H179C179.2,19.1,179.3,19,179.3,18.8z M165.4,5.4v2h-3.9v-2H165.4z M165.4,9.4v2h-3.9v-2H165.4z M165.9,1.5
	l2.9-2.3h-6.3C162.5-0.9,165.9,1.5,165.9,1.5z M177.2,5.4v2h-10.5v-2H177.2z M177.2,9.4v2h-10.5v-2H177.2z M172.7,1.5l3.5-2.3h-6.3
	L172.7,1.5L172.7,1.5z M177.2,13.4v2h-5.3v-2C171.9,13.4,177.2,13.4,177.2,13.4z"/>
<path id="Icon_feather-shield" class="st4" d="M198.8,22.2c0,0,11-5.5,11-13.7v-9.6l-11-4.1l-11,4.1v9.6
	C187.9,16.7,198.8,22.2,198.8,22.2z"/>
<g id="Grupo_2623" transform="translate(-34.855 -231.845)">
	<path id="Trazado_1381" class="st5" d="M45.9,249.8c0,1.4,0.6,2.6,1.7,3.4c-2.1,1.2-2.6,3.5-2.8,5.3c0,0.4,0.2,0.7,0.6,0.7
		c0,0,0,0,0,0c0,0,0.1,0,0.1,0c0.3,0,0.6-0.3,0.7-0.6c0.3-2.8,1.3-4.2,3.3-4.7c0.4-0.1,0.6-0.4,0.5-0.8c-0.1-0.2-0.2-0.4-0.5-0.5
		c-1.3-0.4-2.2-1.5-2.2-2.9c0-1.7,1.5-3.1,3.2-3c1.6,0,3,1.4,3,3c0,1.3-0.9,2.5-2.2,2.9c-0.4,0.1-0.6,0.5-0.5,0.8
		c0.1,0.2,0.3,0.4,0.5,0.5c1.9,0.4,2.9,1.8,3.3,4.7c0,0.4,0.4,0.6,0.8,0.6c0.4,0,0.6-0.4,0.6-0.7c0,0,0,0,0,0
		c-0.2-1.8-0.7-4.1-2.8-5.3c1.1-0.8,1.7-2.1,1.7-3.4c-0.1-2.5-2.1-4.4-4.6-4.4C47.9,245.5,46,247.5,45.9,249.8"/>
	<path id="Trazado_1382" class="st5" d="M39.6,256.8c0.3,0,0.6-0.3,0.7-0.6c0.3-2.8,1.3-4.2,3.3-4.7c0.4-0.1,0.6-0.4,0.5-0.8
		c-0.1-0.2-0.2-0.4-0.5-0.5c-1.3-0.4-2.2-1.5-2.2-2.9c0-1.7,1.4-3,3.1-3c0.9,0,1.7,0.4,2.3,1c0.3,0.3,0.7,0.3,1,0
		c0.3-0.2,0.3-0.7,0.1-0.9c0,0,0,0,0,0c-0.9-0.9-2.1-1.4-3.3-1.4c-2.4,0-4.4,1.9-4.5,4.4c0,1.4,0.6,2.6,1.7,3.4
		c-2.1,1.2-2.6,3.5-2.8,5.3C38.8,256.4,39.1,256.7,39.6,256.8C39.5,256.8,39.5,256.8,39.6,256.8C39.5,256.8,39.5,256.8,39.6,256.8"
		/>
	<path id="Trazado_1383" class="st5" d="M54,245.3c0.6-0.6,1.4-1,2.3-1c1.7,0,3.1,1.3,3.1,3c0,1.3-0.9,2.5-2.2,2.9
		c-0.4,0.1-0.6,0.5-0.5,0.8c0.1,0.2,0.3,0.4,0.5,0.5c1.9,0.4,2.9,1.8,3.3,4.7c0,0.3,0.3,0.6,0.7,0.6c0,0,0.1,0,0.1,0
		c0.4,0,0.6-0.4,0.6-0.7c0,0,0,0,0,0c-0.2-1.8-0.7-4.1-2.8-5.3c1.1-0.8,1.7-2.1,1.7-3.4c0-2.4-2-4.4-4.5-4.4c-1.3,0-2.5,0.5-3.3,1.4
		c-0.3,0.3-0.2,0.7,0,0.9c0,0,0,0,0,0C53.3,245.6,53.8,245.6,54,245.3"/>
	<path id="Trazado_1384" class="st5" d="M63.8,243.5l-4.2-2.3v-5.7c0-0.3-0.2-0.5-0.5-0.5c0,0,0,0,0,0h-3c-0.3,0-0.5,0.2-0.5,0.5
		v3.5l-5.1-2.8c-0.1-0.1-0.3-0.1-0.5,0l-13.2,7.3c-0.2,0.1-0.3,0.4-0.2,0.6c0,0,0,0,0,0c0.1,0.1,0.2,0.2,0.4,0.2
		c0.1,0,0.2,0,0.2-0.1l13-7.2l5.6,3.1c0,0,0,0,0,0c0.1,0,0.1,0,0.2,0c0,0,0,0,0,0c0,0,0,0,0.1,0c0,0,0.1,0,0.1,0c0,0,0.1,0,0.1,0
		c0,0,0,0,0.1,0c0,0,0,0,0.1-0.1c0,0,0,0,0,0c0,0,0,0,0,0c0,0,0-0.1,0-0.1c0,0,0-0.1,0-0.1c0,0,0,0,0,0V236h2.1v5.5c0,0,0,0,0,0.1
		c0,0.1,0,0.1,0.1,0.2c0,0,0,0,0,0.1c0,0,0,0,0.1,0.1c0,0,0,0,0,0l4.4,2.4c0.2,0.1,0.5,0,0.6-0.2C64.1,243.9,64,243.7,63.8,243.5
		C63.8,243.5,63.8,243.5,63.8,243.5"/>
</g>
</svg>
