<?xml version="1.0" encoding="utf-8"?>
<!-- Generator: Adobe Illustrator 26.0.1, SVG Export Plug-In . SVG Version: 6.00 Build 0)  -->
<svg version="1.1" id="Layer_1_xA0_Imagen_00000137103599366720870070000016704799376000780731_"
	 xmlns="http://www.w3.org/2000/svg" xmlns:xlink="http://www.w3.org/1999/xlink" x="0px" y="0px" viewBox="0 0 409.6 409.6"
	 style="enable-background:new 0 0 409.6 409.6;" xml:space="preserve">
<style type="text/css">
	.st0{fill:none;stroke:#000000;stroke-width:10;stroke-linecap:round;stroke-linejoin:round;}
</style>
<path id="Icon_feather-phone-call" class="st0" d="M246.23,97.41c33.19,6.48,59.15,32.43,65.63,65.63 M246.23,30.95
	c69.45,7.71,124.3,62.48,132.1,131.92 M361.7,295.45v49.85c0.07,18.35-14.74,33.29-33.09,33.36c-1.04,0-2.09-0.04-3.13-0.13
	c-51.13-5.56-100.23-23.03-143.38-51.01c-40.14-25.5-74.18-59.53-99.69-99.67c-28.08-43.35-45.56-92.7-51.01-144.06
	C29.75,65.5,43.23,49.35,61.5,47.69c0.99-0.09,1.98-0.13,2.97-0.13h49.85c16.68-0.16,30.9,12.06,33.23,28.58
	c2.1,15.95,6.01,31.61,11.63,46.69c4.56,12.14,1.64,25.81-7.48,35.03l-21.1,21.1c23.65,41.6,58.08,76.05,99.68,99.71l21.1-21.1
	c9.22-9.11,22.9-12.03,35.03-7.48c15.07,5.63,30.74,9.53,46.69,11.63C349.81,264.07,362.12,278.57,361.7,295.45z"/>
</svg>
