<?xml version="1.0" encoding="utf-8"?>
<!-- Generator: Adobe Illustrator 25.4.1, SVG Export Plug-In . SVG Version: 6.00 Build 0)  -->
<svg version="1.1" id="Capa_1" xmlns="http://www.w3.org/2000/svg" xmlns:xlink="http://www.w3.org/1999/xlink" x="0px" y="0px"
	 viewBox="0 0 89.1 53" style="enable-background:new 0 0 89.1 53;" xml:space="preserve">
<style type="text/css">
	.st0{fill:#3262AC;}
	.st1{fill:#CAD52C;}
	.st2{fill:none;stroke:#FFFFFF;stroke-width:2;}
	.st3{fill:#FFFFFF;}
	.st4{fill:#FBFBFB;stroke:#3883C5;stroke-width:2;stroke-linecap:round;stroke-linejoin:round;}
	.st5{fill:#787887;}
	.st6{fill:#D52D2C;}
	.st7{fill:#FDC430;}
	.st8{fill:#787887;stroke:#717070;}
	.st9{fill:none;}
	.st10{fill:none;stroke:#787887;stroke-width:1.5;}
	.st11{fill:none;stroke:#787887;stroke-linecap:round;stroke-linejoin:round;}
	.st12{clip-path:url(#SVGID_00000028318804535406364400000016101204425239470783_);}
	.st13{fill:none;stroke:#787887;stroke-width:3;stroke-linecap:round;stroke-linejoin:round;}
	.st14{fill:none;stroke:#3262AC;stroke-miterlimit:10;}
	.st15{enable-background:new    ;}
	.st16{fill:none;stroke:#787887;stroke-miterlimit:10;}
	.st17{fill:#1E3057;}
	.st18{fill:#0D99D6;}
	.st19{clip-path:url(#SVGID_00000147924887005888313720000006090855818583365511_);}
</style>
<g id="Hamburger_Icon">
	<g id="Hamburger_Icon-2">
		<path id="Trazado_11" class="st0" d="M223.8-111.4c0-1.1,0.6-2,1.3-2H242c0.7,0,1.2,0.9,1.2,2s-0.6,2-1.2,2h-17
			C224.3-109.5,223.8-110.3,223.8-111.4z"/>
		<path id="Trazado_1290" class="st0" d="M223.8-111.4c0-1.1,0.6-2,1.3-2H242c0.7,0,1.2,0.9,1.2,2s-0.6,2-1.2,2h-17
			C224.3-109.5,223.8-110.3,223.8-111.4z"/>
		<path id="Trazado_1291" class="st0" d="M223.8-104.2c0-0.9,0.6-1.7,1.3-1.7H242c0.7,0,1.2,0.7,1.2,1.7c0,0.9-0.6,1.7-1.2,1.7h-17
			C224.3-102.5,223.8-103.3,223.8-104.2z"/>
		<path id="Trazado_1292" class="st0" d="M223.8-118.6c0-1,0.6-1.9,1.3-1.9H242c0.7,0,1.2,0.8,1.2,1.9s-0.6,1.9-1.2,1.9h-17
			C224.3-116.7,223.8-117.5,223.8-118.6z"/>
	</g>
</g>
<g>
	<g id="Elipse_21_00000122700021666481455410000011478136939818866572_">
		<circle class="st1" cx="270.3" cy="-111.4" r="12.5"/>
		<circle class="st2" cx="270.3" cy="-111.4" r="11.5"/>
	</g>
	<path id="Icon_awesome-check_00000110441766745699221180000003192436968001748644_" class="st3" d="M268-105.5l-4.7-4.7
		c-0.3-0.3-0.3-0.7,0-1l1-1c0.3-0.3,0.7-0.3,1,0l3.2,3.2l6.7-6.7c0.3-0.3,0.7-0.3,1,0l1,1c0.3,0.3,0.3,0.7,0,1l-8.3,8.3
		C268.7-105.2,268.2-105.2,268-105.5z"/>
</g>
<path id="Icon_metro-calendar" class="st0" d="M266.8-79.9h2.4v2.4h-2.4V-79.9z M270.3-79.9h2.4v2.4h-2.4V-79.9z M273.9-79.9h2.4
	v2.4h-2.4V-79.9z M263.3-72.9h2.4v2.4h-2.4V-72.9z M266.8-72.9h2.4v2.4h-2.4V-72.9z M270.3-72.9h2.4v2.4h-2.4V-72.9z M266.8-76.4
	h2.4v2.4h-2.4V-76.4z M270.3-76.4h2.4v2.4h-2.4V-76.4z M273.9-76.4h2.4v2.4h-2.4V-76.4z M263.3-76.4h2.4v2.4h-2.4V-76.4z M276.2-87
	v1.2h-2.4V-87h-8.2v1.2h-2.4V-87h-2.4v18.8h17.7V-87H276.2L276.2-87z M277.4-69.3h-15.3v-13h15.3V-69.3z"/>
<g id="Grupo_2500" transform="translate(-114 -165.89)">
	<g>
		<g id="Grupo_2498" transform="translate(0 0)">
			<path id="Trazado_1475" class="st0" d="M410.8,86.3c-1.6,0-2.9,1.3-2.9,2.9c0,0.8,0.3,1.6,0.9,2.1v1.9c0,1.1,0.9,1.9,1.9,1.9
				c1.1,0,1.9-0.9,1.9-1.9l0,0v-1.9c1.2-1.1,1.3-2.9,0.2-4.1C412.4,86.6,411.7,86.3,410.8,86.3L410.8,86.3z M411.6,90.3l-0.3,0.2
				v2.7c0,0.2-0.2,0.4-0.4,0.4s-0.4-0.2-0.4-0.4l0,0v-2.7l-0.3-0.2c-0.6-0.4-0.8-1.2-0.4-1.8c0.4-0.6,1.2-0.8,1.8-0.4
				c0.6,0.4,0.8,1.2,0.4,1.8C411.9,90,411.7,90.2,411.6,90.3L411.6,90.3z"/>
			<path id="Trazado_1476" class="st0" d="M417.7,82.7v-2.8c0-3.6-2.9-6.5-6.5-6.5h-0.8c-3.6,0-6.5,2.9-6.5,6.5v2.8
				c-1.4,0.6-2.3,1.9-2.3,3.4v9.2c0,2,1.6,3.6,3.6,3.6h11c2,0,3.6-1.6,3.6-3.6v-9.2C420,84.6,419.1,83.3,417.7,82.7L417.7,82.7z
				 M405.5,79.9c0-2.7,2.2-4.9,4.9-4.9h0.8c2.7,0,4.9,2.2,4.9,4.9v2.5h-1.6v-2.5c0-1.8-1.5-3.3-3.3-3.3h-0.8c-1.8,0-3.3,1.5-3.3,3.3
				v2.5h-1.6V79.9z M413,82.5h-4.2V80c0-1,0.8-1.7,1.7-1.7h0.8c1,0,1.7,0.8,1.7,1.7V82.5z M418.4,95.3c0,1.1-0.9,2.1-2.1,2.1h-11
				c-1.1,0-2.1-0.9-2.1-2.1v-9.2c0-1.1,0.9-2.1,2.1-2.1h11c1.1,0,2.1,0.9,2.1,2.1V95.3z"/>
		</g>
	</g>
</g>
<path id="Icon_awesome-wpforms" class="st0" d="M336.5-87.8v19.4c0,1.3-1,2.3-2.3,2.3c0,0,0,0-0.1,0h-19.4c-1.3,0-2.3-1-2.3-2.3l0,0
	v-19.4c0-1.3,1-2.3,2.3-2.3c0,0,0,0,0.1,0h19.4C335.5-90.1,336.5-89.1,336.5-87.8L336.5-87.8z M334.5-68.4v-19.4
	c0-0.2-0.1-0.3-0.3-0.3h-0.5l-5.9,4l-3.3-2.7l-3.3,2.7l-5.9-4h-0.5c-0.2,0-0.3,0.1-0.3,0.3v19.4c0,0.2,0.1,0.3,0.3,0.3h19.4
	C334.4-68.1,334.5-68.2,334.5-68.4z M320.6-81.8v2h-3.9v-2H320.6z M320.6-77.8v2h-3.9v-2H320.6z M321.2-85.7l2.9-2.3h-6.3
	L321.2-85.7z M332.4-81.8v2h-10.5v-2H332.4z M332.4-77.8v2h-10.5v-2H332.4z M327.9-85.7l3.5-2.3H325L327.9-85.7L327.9-85.7z
	 M332.4-73.9v2h-5.3v-2H332.4z"/>
<path id="Icon_feather-shield" class="st4" d="M354.1-65c0,0,11-5.5,11-13.7v-9.6l-11-4.1l-11,4.1v9.6C343.1-70.5,354.1-65,354.1-65
	z"/>
<g id="Grupo_2623" transform="translate(-34.855 -231.845)">
	<path id="Trazado_1381" class="st5" d="M263.9,80.3c0,1.4,0.6,2.6,1.7,3.4c-2.1,1.2-2.6,3.5-2.8,5.3c0,0.4,0.2,0.7,0.6,0.7l0,0h0.1
		c0.3,0,0.6-0.3,0.7-0.6c0.3-2.8,1.3-4.2,3.3-4.7c0.4-0.1,0.6-0.4,0.5-0.8c-0.1-0.2-0.2-0.4-0.5-0.5c-1.3-0.4-2.2-1.5-2.2-2.9
		c0-1.7,1.5-3.1,3.2-3c1.6,0,3,1.4,3,3c0,1.3-0.9,2.5-2.2,2.9c-0.4,0.1-0.6,0.5-0.5,0.8c0.1,0.2,0.3,0.4,0.5,0.5
		c1.9,0.4,2.9,1.8,3.3,4.7c0,0.4,0.4,0.6,0.8,0.6s0.6-0.4,0.6-0.7l0,0c-0.2-1.8-0.7-4.1-2.8-5.3c1.1-0.8,1.7-2.1,1.7-3.4
		c-0.1-2.5-2.1-4.4-4.6-4.4C265.8,76,263.9,77.9,263.9,80.3"/>
	<path id="Trazado_1382" class="st5" d="M257.5,87.2c0.3,0,0.6-0.3,0.7-0.6c0.3-2.8,1.3-4.2,3.3-4.7c0.4-0.1,0.6-0.4,0.5-0.8
		c-0.1-0.2-0.2-0.4-0.5-0.5c-1.3-0.4-2.2-1.5-2.2-2.9c0-1.7,1.4-3,3.1-3c0.9,0,1.7,0.4,2.3,1c0.3,0.3,0.7,0.3,1,0
		c0.3-0.2,0.3-0.7,0.1-0.9l0,0c-0.9-0.9-2.1-1.4-3.3-1.4c-2.4,0-4.4,1.9-4.5,4.4c0,1.4,0.6,2.6,1.7,3.4c-2.1,1.2-2.6,3.5-2.8,5.3
		C256.8,86.8,257.1,87.2,257.5,87.2C257.4,87.2,257.4,87.2,257.5,87.2L257.5,87.2"/>
	<path id="Trazado_1383" class="st5" d="M272,75.7c0.6-0.6,1.4-1,2.3-1c1.7,0,3.1,1.3,3.1,3c0,1.3-0.9,2.5-2.2,2.9
		c-0.4,0.1-0.6,0.5-0.5,0.8c0.1,0.2,0.3,0.4,0.5,0.5c1.9,0.4,2.9,1.8,3.3,4.7c0,0.3,0.3,0.6,0.7,0.6h0.1c0.4,0,0.6-0.4,0.6-0.7l0,0
		c-0.2-1.8-0.7-4.1-2.8-5.3c1.1-0.8,1.7-2.1,1.7-3.4c0-2.4-2-4.4-4.5-4.4c-1.3,0-2.5,0.5-3.3,1.4c-0.3,0.3-0.2,0.7,0,0.9l0,0
		C271.3,76,271.7,76,272,75.7"/>
	<path id="Trazado_1384" class="st5" d="M281.8,74l-4.2-2.3V66c0-0.3-0.2-0.5-0.5-0.5l0,0h-3c-0.3,0-0.5,0.2-0.5,0.5v3.5l-5.1-2.8
		c-0.1-0.1-0.3-0.1-0.5,0L254.9,74c-0.2,0.1-0.3,0.4-0.2,0.6l0,0c0.1,0.1,0.2,0.2,0.4,0.2c0.1,0,0.2,0,0.2-0.1l13-7.2l5.6,3.1l0,0
		c0.1,0,0.1,0,0.2,0l0,0c0,0,0,0,0.1,0h0.1h0.1c0,0,0,0,0.1,0c0,0,0,0,0.1-0.1l0,0l0,0v-0.1v-0.1l0,0v-3.8h2.1V72c0,0,0,0,0,0.1
		s0,0.1,0.1,0.2c0,0,0,0,0,0.1c0,0,0,0,0.1,0.1l0,0l4.4,2.4c0.2,0.1,0.5,0,0.6-0.2C282.1,74.4,282,74.1,281.8,74L281.8,74"/>
</g>
<g id="Grupo_141" transform="translate(0 0)">
	<g id="Grupo_135" transform="translate(0 0)">
		<path id="Trazado_172" class="st5" d="M275.8-156.6c0,0.3,0.2,0.6,0.6,0.6c0.3,0,0.6-0.2,0.6-0.6c0-0.3-0.2-0.6-0.6-0.6l0,0
			C276.1-157.2,275.8-157,275.8-156.6L275.8-156.6"/>
		<path id="Trazado_174" class="st5" d="M260.8-158.1h-2v0.7h1.5C260.5-157.6,260.6-157.9,260.8-158.1"/>
		<path id="Trazado_173" class="st5" d="M272.9-159.4l0.2-0.7c-1.9-0.5-3.9-0.5-5.8,0l0.2,0.7C269.3-159.8,271.1-159.8,272.9-159.4"
			/>
		<path id="Trazado_177" class="st5" d="M273.5-164.2c0-0.1,0-0.1,0-0.2c0-0.1-0.1-0.3-0.1-0.4c-0.4-1.3-1.5-2.2-2.8-2.3l0,0l0,0
			l0,0h-0.7h-0.1c-0.1,0-0.2,0-0.2,0c-0.8,0.2-1.6,0.7-2.1,1.4c-1,1.4-0.6,3.4,0.8,4.4l0,0c0.6,0.4,1.2,0.6,1.9,0.6
			c1.5,0,2.8-1,3.2-2.4c0-0.1,0.1-0.2,0.1-0.4c0-0.1,0-0.1,0-0.2L273.5-164.2L273.5-164.2z M273.1-163.9c0,0.8-0.3,1.5-0.8,2
			c-0.6,0.5-1.3,0.8-2.1,0.8l0,0c-0.8,0-1.5-0.3-2.1-0.8c-0.5-0.5-0.9-1.2-0.9-2c0-1.6,1.3-2.9,2.9-2.8l0,0c0.8,0,1.5,0.3,2.1,0.8
			C272.8-165.4,273.1-164.7,273.1-163.9"/>
		<path id="Trazado_176" class="st5" d="M270.2-166.3L270.2-166.3c-0.7,0-1.3,0.3-1.8,0.7c-1,0.9-1,2.4-0.1,3.4c0,0,0,0,0.1,0.1
			c0.5,0.5,1.1,0.7,1.8,0.7l0,0c0.7,0,1.3-0.3,1.8-0.7c1-0.9,1-2.4,0.1-3.4c0,0,0,0-0.1-0.1C271.5-166.1,270.9-166.3,270.2-166.3
			 M270.2-165.9L270.2-165.9c0.6,0,1.1,0.2,1.5,0.6c0.8,0.8,0.8,2,0,2.8c0,0,0,0-0.1,0.1c-0.4,0.4-0.9,0.6-1.5,0.6l0,0
			c-0.6,0-1.1-0.2-1.5-0.6c-0.8-0.8-0.8-2,0-2.8l0,0C269.1-165.7,269.6-165.9,270.2-165.9"/>
		<path id="Trazado_175" class="st5" d="M269.8-163.9c0.1,0.1,0.2,0.1,0.3,0.2s0.2,0.1,0.3,0.2c0.1,0,0.1,0.1,0.1,0.2
			c0,0.1-0.1,0.2-0.2,0.2s-0.3,0-0.4,0s-0.2-0.1-0.2-0.2c0-0.1,0-0.1-0.1-0.2c-0.1-0.1-0.2,0-0.3,0c0,0.1-0.1,0.1,0,0.2
			c0,0.3,0.2,0.5,0.4,0.5c0.1,0,0.1,0.1,0.1,0.1s0.1,0.2,0.2,0.2l0,0h0.1c0,0,0.1-0.1,0.1-0.2v-0.1l0,0h0.1c0.3-0.1,0.5-0.3,0.5-0.5
			c0-0.3-0.1-0.5-0.3-0.6c-0.1,0-0.1-0.1-0.2-0.1l0,0c-0.1,0-0.1-0.1-0.2-0.1c-0.1-0.1-0.2-0.1-0.3-0.2c-0.1,0-0.1-0.1-0.1-0.2
			c0-0.1,0-0.2,0.1-0.2c0.1-0.1,0.3-0.1,0.4-0.1s0.2,0.1,0.3,0.3c0,0.1,0.1,0.2,0.2,0.2s0.2-0.1,0.2-0.2c0-0.3-0.2-0.5-0.5-0.6h-0.1
			l0,0l0,0c0-0.1,0-0.3-0.2-0.3l0,0c-0.2,0-0.2,0.2-0.2,0.3l0,0l0,0h-0.1c-0.3,0.1-0.5,0.4-0.5,0.7
			C269.5-164.2,269.6-164,269.8-163.9"/>
		<path id="Trazado_171" class="st5" d="M280.4-156.3h-0.8l-0.1-0.2c-0.5-1-1.2-1.9-2.1-2.7c-0.4-1-0.3-2.1,0-3.1
			c0-0.1,0-0.3-0.1-0.3c-0.1-0.1-0.2-0.1-0.3-0.1c-1.3,0.1-2.4,0.7-3.3,1.6c-0.2,0-0.3-0.1-0.5-0.1c-0.2,0.2-0.4,0.4-0.6,0.6
			c0.4,0.1,0.7,0.2,1.1,0.3c0.2,0.1,0.4,0,0.4-0.2c0.6-0.7,1.5-1.2,2.4-1.4c-0.3,1-0.2,2.2,0.2,3.1l0.1,0.1c0.8,0.7,1.5,1.5,1.9,2.5
			l0.2,0.4c0.1,0.1,0.2,0.2,0.3,0.2h1c0.3,0,0.6,0.2,0.6,0.5v2.3c0,0.3-0.3,0.6-0.6,0.5h-1c-0.1,0-0.3,0.1-0.3,0.2l-0.2,0.4
			c-0.4,0.8-1,1.6-1.6,2.2l-0.3,0.3c-0.1,0.1-0.1,0.2-0.1,0.4l0.7,2.4l-2.7,0.8l-0.5-1.6c-0.1-0.2-0.2-0.3-0.4-0.3h-0.1l-0.7,0.2
			c-2,0.5-4,0.6-6,0.1l-0.7-0.2c-0.2,0-0.4,0.1-0.5,0.2l-0.5,1.5l-2.7-0.8l0.7-2.2c0-0.1,0-0.3-0.1-0.4l-0.3-0.3
			c-1.4-1.2-2.3-2.9-2.3-4.7c0-3.3,2.9-6.1,6.8-6.9c-0.2-0.2-0.4-0.4-0.6-0.6c-4,1-7,4-7,7.5c0,2.1,1,4,2.6,5.3l0.2,0.1l-0.6,2.1
			c-0.1,0.2,0,0.3,0.1,0.5s0.2,0.3,0.4,0.3l2.8,0.8l0,0c0.1,0,0.1,0,0.2,0c0.3,0,0.6-0.2,0.6-0.5l0.4-1.3l0.3,0.1
			c2.1,0.5,4.3,0.5,6.4-0.1l0.3-0.1l0.4,1.3c0.1,0.3,0.5,0.5,0.8,0.4l2.8-0.8c0.2,0,0.3-0.2,0.4-0.3s0.1-0.3,0.1-0.5l-0.7-2.2
			l0.2-0.1c0.8-0.7,1.4-1.5,1.8-2.5l0.1-0.2h0.8c0.7,0,1.3-0.6,1.3-1.3v-2.3C281.7-155.7,281.2-156.3,280.4-156.3"/>
	</g>
</g>
<g>
	<path id="Trazado_80_00000121257661381014988110000018116535420182039974_" class="st5" d="M308.3-156.6l-1.4-0.3v-0.1v-1.9
		c0-2.5-2.4-4.6-5.4-4.6s-5.4,2.1-5.4,4.6v2l0,0l-1.4,0.3c-0.7,0.1-1.3,0.8-1.3,1.5v9.4c0,0.9,0.7,1.5,1.6,1.5h13
		c0.9,0,1.6-0.7,1.6-1.5v-9.4C309.6-155.9,309-156.5,308.3-156.6 M304.2-156.6l3.9,0.8c0.4,0.1,0.6,0.4,0.6,0.7v9.4
		c0,0.4-0.3,0.7-0.7,0.7h-13c-0.4,0-0.7-0.3-0.7-0.7v-9.4c0-0.4,0.3-0.7,0.6-0.7l3.9-0.8C300.6-156.9,302.4-156.9,304.2-156.6
		 M306.1-157.1l-1.3-0.3v-1.5c-0.4-1.8-2.1-3-3.9-2.6c-1.3,0.3-2.4,1.3-2.6,2.6v1.5l-1.3,0.3v-1.8c0-2.1,2.1-3.8,4.6-3.8
		s4.6,1.7,4.6,3.8L306.1-157.1z M299-158.9c0.4-1.4,1.8-2.2,3.1-1.8c0.9,0.2,1.6,0.9,1.8,1.8v1.4c-1.6-0.2-3.3-0.2-4.9,0V-158.9z"/>
	<path id="Trazado_81_00000032610925790339497650000003304062407716352696_" class="st5" d="M300-150v1.8c0,0.3,0.3,0.6,0.6,0.6h1.7
		c0.3,0,0.6-0.3,0.6-0.6v-1.8c0.6-0.4,1-1.2,1-1.9s-0.3-1.3-0.7-1.7c-1-0.9-2.6-0.9-3.5,0.1c-0.5,0.5-0.7,1.1-0.6,1.8
		C299.1-151.1,299.4-150.4,300-150 M302.6-153.1c0.3,0.3,0.5,0.7,0.5,1.1c0,0.6-0.3,1.1-0.8,1.4c-0.1,0.1-0.2,0.2-0.2,0.3v1.8h-1.2
		v-1.8c0-0.1-0.1-0.3-0.2-0.4c-0.5-0.2-0.8-0.7-0.8-1.3c0-0.4,0.1-0.9,0.4-1.2s0.7-0.5,1.2-0.5C301.9-153.6,302.3-153.4,302.6-153.1
		"/>
	<path id="Trazado_82_00000170959601308884974880000000549813460282830757_" class="st5" d="M319-160.8c0-0.7-0.4-1.3-0.9-1.6
		c0.5-0.4,0.9-1,0.9-1.6c0-2.1-4.1-3.6-9.6-3.6s-9.6,1.6-9.6,3.6v0.1c0.3-0.1,0.5-0.1,0.8-0.1l0,0c0-1.3,3.6-2.8,8.8-2.8
		s8.8,1.5,8.8,2.8s-3.6,2.8-8.8,2.8c-0.8,0-1.7,0-2.5-0.1c0.2,0.3,0.3,0.5,0.4,0.8c0.7,0.1,1.4,0.1,2.1,0.1c2.7,0.1,5.5-0.4,7.9-1.5
		c0.4,0.2,0.8,0.7,0.8,1.2s-0.6,1-1,1.3c-1.6,1-4.5,1.6-7.7,1.6c-0.6,0-1.2,0-1.8-0.1v0.6l0.8,0.2h0.1c0.3,0,0.6,0,0.8,0
		c2.7,0.1,5.4-0.4,7.9-1.5c0.4,0.2,0.8,0.7,0.8,1.2s-0.6,1-1,1.3l0,0l0,0c-2.1,1-4.5,1.6-6.9,1.5v0.8c2.4,0,4.9-0.5,7.1-1.5
		c0.4,0.2,0.8,0.7,0.8,1.2s-0.6,1-1.1,1.3c-2.1,1-4.5,1.5-6.9,1.5v0.8c2.4,0,4.8-0.5,7.1-1.5c0.4,0.3,0.9,0.7,0.9,1.2
		c0,1.3-3.2,2.7-7.9,2.8v0.8c2.4,0,4.9-0.5,7.1-1.5c0.4,0.2,0.8,0.7,0.8,1.2c0,1.3-3.3,2.7-8.1,2.8c-0.1,0.3-0.3,0.6-0.5,0.8
		c5.4,0,9.4-1.6,9.4-3.6c0-0.7-0.4-1.3-0.9-1.6c0.5-0.4,0.9-1,0.9-1.6c-0.9-0.5-1.2-1.6-0.7-2.6c0.2-0.3,0.4-0.6,0.7-0.7
		c-0.9-0.5-1.2-1.7-0.7-2.5c0.2-0.3,0.4-0.5,0.7-0.7c-0.9-0.5-1.2-1.7-0.7-2.5C318.4-160.4,318.7-160.6,319-160.8"/>
	<path id="Trazado_163_00000028301801452230880420000012054891796098955181_" class="st5" d="M308.3-156.6l-1.4-0.3v-0.1v-1.9
		c0-2.5-2.4-4.6-5.4-4.6s-5.4,2.1-5.4,4.6v2l0,0l-1.4,0.3c-0.7,0.1-1.3,0.8-1.3,1.5v9.4c0,0.9,0.7,1.5,1.6,1.5h13
		c0.9,0,1.6-0.7,1.6-1.5v-9.4C309.6-155.9,309-156.5,308.3-156.6 M304.2-156.6l3.9,0.8c0.4,0.1,0.6,0.4,0.6,0.7v9.4
		c0,0.4-0.3,0.7-0.7,0.7h-13c-0.4,0-0.7-0.3-0.7-0.7v-9.4c0-0.4,0.3-0.7,0.6-0.7l3.9-0.8C300.6-156.9,302.4-156.9,304.2-156.6
		 M306.1-157.1l-1.3-0.3v-1.5c-0.4-1.8-2.1-3-3.9-2.6c-1.3,0.3-2.4,1.3-2.6,2.6v1.5l-1.3,0.3v-1.8c0-2.1,2.1-3.8,4.6-3.8
		s4.6,1.7,4.6,3.8L306.1-157.1z M299-158.9c0.4-1.4,1.8-2.2,3.1-1.8c0.9,0.2,1.6,0.9,1.8,1.8v1.4c-1.6-0.2-3.3-0.2-4.9,0V-158.9z"/>
	<path id="Trazado_164_00000116217559464009847390000011752938839023324059_" class="st5" d="M300-150v1.8c0,0.3,0.3,0.6,0.6,0.6
		h1.7c0.3,0,0.6-0.3,0.6-0.6v-1.8c0.6-0.4,1-1.2,1-1.9s-0.3-1.3-0.7-1.7c-1-0.9-2.6-0.9-3.5,0.1c-0.5,0.5-0.7,1.1-0.6,1.8
		C299.1-151.1,299.4-150.4,300-150 M302.6-153.1c0.3,0.3,0.5,0.7,0.5,1.1c0,0.6-0.3,1.1-0.8,1.4c-0.1,0.1-0.2,0.2-0.2,0.3v1.8h-1.2
		v-1.8c0-0.1-0.1-0.3-0.2-0.4c-0.5-0.2-0.8-0.7-0.8-1.3c0-0.4,0.1-0.9,0.4-1.2s0.7-0.5,1.2-0.5C301.9-153.6,302.3-153.4,302.6-153.1
		"/>
</g>
<g>
	<circle id="Elipse_21" class="st6" cx="299.6" cy="-111.4" r="12.5"/>
	<path id="Icon_metro-cancel" class="st3" d="M299.7-124.5c-7.3,0.1-13.1,6-13,13.3s6,13.1,13.3,13c7.2-0.1,13-5.9,13-13.1
		C313-118.7,307-124.6,299.7-124.5z M299.7-100.7c-5.9-0.1-10.6-4.9-10.6-10.8s4.9-10.6,10.8-10.6c5.8,0.1,10.6,4.8,10.6,10.7
		C310.5-105.5,305.7-100.7,299.7-100.7L299.7-100.7z M303.9-118l-4.1,4.1l-4.1-4.1l-2.5,2.5l4.1,4.1l-4.1,4.1l2.5,2.5l4.1-4.1
		l4.1,4.1l2.5-2.5l-4.1-4.1l4.1-4.1L303.9-118z"/>
</g>
<g id="Elipse_66">
	<circle class="st7" cx="329.7" cy="-111.4" r="12.5"/>
	<circle class="st2" cx="329.7" cy="-111.4" r="11.5"/>
</g>
<path id="Icon_metro-warning" class="st3" d="M329.7-117.2l5.9,11.7h-11.8L329.7-117.2z M329.7-118.4c-0.4,0-0.7,0.3-0.8,0.6
	l-6,11.9c-0.5,0.8-0.1,1.5,0.9,1.5h11.9c0.9,0,1.3-0.7,0.9-1.5l0,0l-6-11.9C330.4-118.2,330.1-118.4,329.7-118.4L329.7-118.4z
	 M330.6-107c0,0.5-0.4,0.9-0.9,0.9s-0.9-0.4-0.9-0.9s0.4-0.9,0.9-0.9l0,0C330.2-107.9,330.6-107.5,330.6-107L330.6-107z
	 M329.7-108.8c-0.5,0-0.9-0.4-0.9-0.9v-2.6c0-0.5,0.4-0.9,0.8-0.9s0.9,0.4,0.9,0.8c0,0,0,0,0,0.1v2.6
	C330.6-109.2,330.2-108.8,329.7-108.8z"/>
<path id="Shape_2" class="st5" d="M267.8-56.1c-0.3-0.2-0.7-0.2-0.9,0l-10.3,8.8V-37c0,1.2,1,2.1,2.2,2.1h5.7c0.4,0,0.7-0.3,0.7-0.7
	l0,0v-4.3c0.1-1.2,1.1-2.1,2.2-2.1s2,0.9,2.1,2.1v4.3c0,0.4,0.3,0.7,0.7,0.7h5.7c1.2,0,2.2-1,2.2-2.1l0,0v-10.4L267.8-56.1z"/>
<path id="Shape_7" class="st8" d="M295.5-45.5c3,0,5.4-2.4,5.4-5.4s-2.4-5.4-5.4-5.4s-5.4,2.4-5.4,5.4l0,0
	C290.1-47.9,292.5-45.5,295.5-45.5L295.5-45.5z M299.3-44.1h-0.7c-1.9,0.9-4.2,0.9-6.1,0h-0.7c-3.1,0-5.6,2.5-5.6,5.6v1.7
	c0,1.1,0.9,2,2,2H303c1.1,0,2-0.9,2-2v-1.7C304.9-41.6,302.4-44.2,299.3-44.1L299.3-44.1z"/>
<path id="Trazado_1341" class="st5" d="M318.4-43.8c0.5,0,1,0.4,1,1l0,0l0,0c0,0.5-0.4,1-1,1s-1-0.4-1-1l0,0
	C317.4-43.4,317.8-43.8,318.4-43.8L318.4-43.8z M321-42.9L321-42.9c0,0.5,0.4,1,1,1c0.5,0,1-0.4,1-1l0,0c0-0.5-0.4-1-1-1
	C321.4-43.8,321-43.4,321-42.9z M322.8-35.7c0,0.5-0.4,1-1,1l0,0h-5.1c-2.1,0-3.9-1.8-3.9-3.9v-8c0-2.1,1.7-3.9,3.9-3.9h1.2V-54
	c0-3.2,2.6-5.8,5.8-5.8c3.2,0,5.8,2.6,5.8,5.8v3.4h1.2c2.1,0,3.9,1.8,3.9,3.9v1c0,0.5-0.4,1-1,1s-1-0.4-1-1v-1c0-1.1-0.9-1.9-1.9-2
	h-13.9c-1.1,0-1.9,0.9-1.9,2v8c0,1.1,0.9,1.9,1.9,2h5.1C322.4-36.7,322.9-36.3,322.8-35.7L322.8-35.7z M319.9-50.6h7.7V-54
	c0-2.1-1.8-3.8-3.9-3.8s-3.8,1.7-3.8,3.8L319.9-50.6L319.9-50.6z M335.9-38.9c0,0-0.1,0.2-0.2,0.3c-0.6,0.8-1.3,1.6-2.1,2.2
	c-1.1,1-2.6,1.6-4.1,1.6c-1.5-0.1-3-0.6-4.1-1.6c-0.8-0.7-1.5-1.4-2.1-2.2c-0.1-0.1-0.2-0.3-0.2-0.3c-0.2-0.3-0.2-0.8,0-1.1
	c0,0,0.2-0.2,0.2-0.3c0.6-0.8,1.3-1.6,2.1-2.2c1.1-1,2.6-1.6,4.1-1.6c1.5,0.1,3,0.6,4.1,1.6c0.8,0.7,1.5,1.4,2.1,2.2
	c0.1,0.1,0.2,0.3,0.2,0.3C336.2-39.7,336.2-39.3,335.9-38.9z M333.9-39.5c-1.5-1.8-3-2.8-4.5-2.8c-1.4,0-2.9,0.9-4.5,2.8
	c1.5,1.8,3,2.8,4.5,2.8S332.4-37.6,333.9-39.5z M329.5-41.4c-1,0-1.9,0.8-1.9,1.8s0.8,1.9,1.8,1.9s1.9-0.8,1.9-1.8l0,0
	C331.3-40.5,330.5-41.3,329.5-41.4L329.5-41.4z"/>
<g id="Grupo_2464" transform="translate(-6902 -2053)">
	<g id="Rectángulo_218" transform="translate(6902 2053)">
		<path class="st9" d="M347.1-58.7h11.7c1.7,0,3,1.3,3,3v16.8c0,1.7-1.3,3-3,3h-11.7c-1.7,0-3-1.3-3-3v-16.8
			C344.1-57.3,345.4-58.7,347.1-58.7z"/>
		<path class="st10" d="M347.1-57.9h11.7c1.2,0,2.2,1,2.2,2.2v16.8c0,1.2-1,2.2-2.2,2.2h-11.7c-1.2,0-2.2-1-2.2-2.2v-16.8
			C344.9-56.9,345.9-57.9,347.1-57.9z"/>
	</g>
	<line id="Línea_1" class="st10" x1="7248.6" y1="2000" x2="7260.3" y2="2000"/>
	<line id="Línea_2" class="st10" x1="7248.6" y1="2003.8" x2="7260.3" y2="2003.8"/>
	<line id="Línea_3" class="st10" x1="7249.6" y1="2007.6" x2="7254.6" y2="2007.6"/>
</g>
<g id="Grupo_2465" transform="translate(-92 -237.89)">
	<path id="Trazado_1350" class="st5" d="M474.8,179.9c-0.3,0-0.5,0.2-0.5,0.5s0.2,0.5,0.5,0.5s0.5-0.2,0.5-0.5
		S475.1,179.9,474.8,179.9z"/>
	<path id="Trazado_1351" class="st5" d="M464.7,190.1c0.3,0,0.5-0.2,0.5-0.5s-0.2-0.5-0.5-0.5s-0.5,0.2-0.5,0.5
		S464.4,190.1,464.7,190.1z"/>
	<path id="Trazado_1352" class="st5" d="M479.3,174.2c-5.1,0-9.4,3.5-9.7,8c-4.9,0.2-9.5,3.8-9.5,8.5c0,2,0.8,4,2.2,5.5
		c0.3,1.2-0.1,2.4-0.9,3.3c-0.2,0.2-0.2,0.6,0,0.8c0.1,0.1,0.3,0.2,0.4,0.2c1.6,0,3.2-0.6,4.4-1.8c1.3,0.4,2.6,0.6,4,0.6
		c5.1,0,9.3-3.5,9.7-8c1.2,0,2.3-0.3,3.4-0.6c1.2,1.1,2.7,1.8,4.4,1.8c0.3,0,0.6-0.3,0.6-0.6c0-0.2-0.1-0.3-0.2-0.4
		c-0.9-0.9-1.2-2.1-0.9-3.3c1.4-1.5,2.2-3.4,2.2-5.5C489.4,177.8,484.4,174.2,479.3,174.2L479.3,174.2z M470.2,198.1
		c-1.3,0-2.7-0.2-3.9-0.7c-0.2-0.1-0.5,0-0.6,0.1c-0.7,0.7-1.6,1.3-2.6,1.5c0.5-1,0.7-2.3,0.3-3.4c0-0.1-0.1-0.2-0.1-0.2
		c-1.3-1.3-2-3-2-4.8c0-4,4.1-7.4,8.9-7.4c4.6,0,8.6,3.2,8.6,7.4C478.8,194.8,474.9,198.1,470.2,198.1L470.2,198.1z M486.2,187.5
		c-0.1,0.1-0.1,0.2-0.1,0.2c-0.3,1.1-0.2,2.3,0.3,3.4c-1-0.2-1.9-0.8-2.6-1.5c-0.2-0.2-0.4-0.2-0.6-0.1c-1.1,0.4-2.2,0.6-3.4,0.7
		c-0.2-2.2-1.3-4.3-3.1-5.7h7.4c0.3,0,0.6-0.3,0.6-0.6s-0.3-0.6-0.6-0.6h-9.2c-1.3-0.7-2.8-1-4.2-1.1c0.3-3.8,4-6.9,8.5-6.9
		c4.8,0,8.9,3.4,8.9,7.4C488.2,184.5,487.5,186.3,486.2,187.5L486.2,187.5z"/>
	<path id="Trazado_1353" class="st5" d="M474.2,189.1h-6.4c-0.3,0-0.5,0.2-0.5,0.5s0.2,0.5,0.5,0.5h6.4c0.3,0,0.5-0.2,0.5-0.5
		S474.5,189.1,474.2,189.1L474.2,189.1z"/>
	<path id="Trazado_1354" class="st5" d="M473.9,192.5h-8.4c-0.3,0-0.5,0.2-0.5,0.5s0.2,0.5,0.5,0.5h8.4c0.3,0,0.5-0.2,0.5-0.5
		C474.4,192.8,474.2,192.5,473.9,192.5L473.9,192.5z"/>
	<path id="Trazado_1355" class="st5" d="M484.1,179.9h-6.4c-0.3,0-0.5,0.2-0.5,0.5s0.2,0.5,0.5,0.5h6.4c0.3,0,0.5-0.2,0.5-0.5
		C484.6,180.2,484.4,179.9,484.1,179.9z"/>
</g>
<path id="Icon_feather-phone-call" class="st11" d="M419.2-58.6c2.4,0.5,4.3,2.3,4.7,4.7 M419.2-63.4c5,0.6,8.9,4.5,9.5,9.5
	 M427.5-44.4v3.6c0,1.3-1.1,2.4-2.4,2.4c-0.1,0-0.1,0-0.2,0c-3.7-0.4-7.2-1.7-10.3-3.7c-2.9-1.8-5.3-4.3-7.2-7.2
	c-2-3.1-3.3-6.7-3.7-10.4c-0.1-1.3,0.9-2.5,2.2-2.6c0.1,0,0.1,0,0.2,0h3.6c1.2,0,2.2,0.9,2.4,2.1c0.2,1.1,0.4,2.3,0.8,3.4
	c0.3,0.9,0.1,1.9-0.5,2.5l-1.5,1.5c1.7,3,4.2,5.5,7.2,7.2l1.5-1.5c0.7-0.7,1.6-0.9,2.5-0.5c1.1,0.4,2.2,0.7,3.4,0.8
	C426.6-46.6,427.5-45.6,427.5-44.4L427.5-44.4z"/>
<g id="Icon_ionic-ios-notifications-outline" transform="translate(-6.775 -3.93)">
	<path id="Trazado_1372" class="st5" d="M452.6-39.6c-0.4,0-0.8,0.3-0.9,0.7c-0.1,0.3-0.2,0.5-0.4,0.8c-0.3,0.3-0.7,0.5-1.1,0.4
		c-0.4,0-0.8-0.1-1.1-0.4c-0.2-0.2-0.3-0.5-0.4-0.8c-0.1-0.4-0.5-0.7-0.9-0.7l0,0c-0.5,0-0.9,0.4-0.9,0.9c0,0.1,0,0.1,0,0.2
		c0.3,1.6,1.7,2.7,3.3,2.6c1.6,0.1,3-1,3.3-2.6c0.1-0.5-0.2-1-0.7-1.1C452.7-39.6,452.6-39.6,452.6-39.6z"/>
	<path id="Trazado_1373" class="st5" d="M458.4-42.4c-0.8-1-2.4-1.6-2.4-6c0-4.5-2.2-6.4-4.2-6.8c-0.2,0-0.3-0.1-0.3-0.3v-0.1
		c0-0.7-0.6-1.2-1.3-1.2l0,0c-0.7,0-1.2,0.5-1.3,1.2v0.1c0,0.2-0.1,0.2-0.3,0.3c-2,0.4-4.2,2.3-4.2,6.8c0,4.4-1.6,5-2.4,6
		c-0.3,0.4-0.2,1,0.2,1.3c0.2,0.1,0.4,0.2,0.7,0.2h14.7c0.5,0,1-0.4,1-0.9C458.6-42,458.5-42.3,458.4-42.4z M456.4-42.2h-12.2
		c-0.1,0-0.2-0.1-0.2-0.2c0-0.1,0-0.1,0.1-0.2c0.5-0.5,0.8-1,1.1-1.6c0.6-1.4,0.8-2.8,0.8-4.3c-0.1-1.5,0.3-3,1.1-4.2
		c0.5-0.7,1.2-1.2,2-1.3c0.4-0.1,0.7-0.2,1-0.5c0.2-0.2,0.4-0.2,0.6,0l0,0c0.3,0.3,0.6,0.4,1,0.5c0.8,0.2,1.5,0.7,2,1.3
		c0.8,1.3,1.2,2.7,1.1,4.2s0.2,2.9,0.8,4.3c0.3,0.6,0.7,1.2,1.1,1.6c0.1,0.1,0.1,0.2,0,0.3C456.5-42.2,456.4-42.2,456.4-42.2
		L456.4-42.2z"/>
</g>
<path id="Trazado_1374" class="st5" d="M483.3-48.3c0-6.9-5.6-12.5-12.5-12.5l0,0l0,0c-6.9,0-12.6,5.6-12.6,12.5
	c0,1.7,0.3,3.3,1,4.9c1.3,3,3.7,5.4,6.7,6.7c1.5,0.7,3.2,1,4.9,1l0,0C477.7-35.8,483.3-41.4,483.3-48.3z M459.7-47.6h4.1
	c0.1,1.5,0.4,3.1,0.9,4.5H461C460.2-44.5,459.8-46,459.7-47.6z M461-53.5h3.7c-0.5,1.4-0.8,2.9-0.9,4.4h-4.1
	C459.8-50.6,460.2-52.1,461-53.5L461-53.5z M481.8-49.1h-4c-0.1-1.5-0.4-3-0.9-4.4h3.6C481.3-52.1,481.7-50.6,481.8-49.1L481.8-49.1
	z M476.3-49.1h-4.8v-4.4h3.8C475.9-52.1,476.3-50.6,476.3-49.1L476.3-49.1z M471.5-54.9v-3.7c1.2,1,2.3,2.3,3.1,3.7H471.5z
	 M470.1-58.6v3.7H467C467.8-56.4,468.8-57.6,470.1-58.6z M470.1-53.5v4.4h-4.8c0.1-1.5,0.4-3,1-4.4H470.1z M465.3-47.6h4.8v4.5h-3.8
	C465.7-44.5,465.3-46,465.3-47.6z M470.1-41.6v3.7c-1.2-1-2.3-2.3-3.1-3.7H470.1z M471.5-37.9v-3.7h3.1
	C473.8-40.2,472.8-39,471.5-37.9z M471.5-43.1v-4.5h4.8c-0.1,1.6-0.4,3.1-1,4.5H471.5z M477.8-47.6h4c-0.1,1.6-0.5,3.1-1.3,4.5h-3.6
	C477.4-44.5,477.7-46.1,477.8-47.6L477.8-47.6z M479.6-54.9h-3.3c-0.8-1.6-1.8-3-3.1-4.1C475.8-58.5,478.1-57,479.6-54.9L479.6-54.9
	z M468.4-59.1c-1.3,1.2-2.3,2.6-3.1,4.1h-3.4C463.5-57.1,465.8-58.5,468.4-59.1z M461.9-41.6h3.4c0.8,1.6,1.8,3,3,4.1
	C465.8-38,463.5-39.5,461.9-41.6z M473.2-37.5c1.3-1.2,2.3-2.6,3-4.1h3.3C478-39.5,475.8-38.1,473.2-37.5z"/>
<g id="Grupo_2490" transform="translate(0 0.365)">
	<g>
		<g>
			<defs>
				<rect id="SVGID_1_" x="486.9" y="-61.4" width="27" height="23"/>
			</defs>
			<clipPath id="SVGID_00000155112163281893617950000000040736838625017529_">
				<use xlink:href="#SVGID_1_"  style="overflow:visible;"/>
			</clipPath>
			
				<g id="Grupo_2458" transform="translate(0 -0.332)" style="clip-path:url(#SVGID_00000155112163281893617950000000040736838625017529_);">
				<path id="Trazado_1338" class="st5" d="M501.2-44.5c-0.2,0-0.3-0.1-0.4-0.2l-0.8-1.6l-1.7,0.3c-0.2,0-0.5-0.1-0.5-0.4
					c0-0.1,0-0.3,0.1-0.4l1.2-1.2l-0.8-1.6c-0.1-0.2,0-0.5,0.2-0.6c0.1-0.1,0.3-0.1,0.4,0l1.6,0.8l1.2-1.2c0.2-0.2,0.4-0.2,0.6,0
					c0.1,0.1,0.1,0.2,0.1,0.4l-0.3,1.7l1.6,0.8c0.2,0.1,0.3,0.4,0.2,0.6c-0.1,0.1-0.2,0.2-0.3,0.2l-1.7,0.3l-0.3,1.7
					C501.6-44.7,501.4-44.5,501.2-44.5L501.2-44.5L501.2-44.5z M500.2-47.2c0.2,0,0.3,0.1,0.4,0.2l0.3,0.6l0.1-0.7
					c0-0.2,0.2-0.3,0.4-0.4l0.7-0.1l-0.6-0.3c-0.2-0.1-0.3-0.3-0.2-0.5l0.1-0.7l-0.5,0.5c-0.1,0.1-0.3,0.2-0.5,0.1l-0.6-0.3l0.3,0.6
					c0.1,0.2,0.1,0.4-0.1,0.5l-0.5,0.5L500.2-47.2L500.2-47.2L500.2-47.2z"/>
				<path id="Trazado_1339" class="st5" d="M513.2-54l-2.2-2.2l-0.3,0.3c-0.5,0.5-1.3,0.5-1.9,0s-0.5-1.3,0-1.9l0,0l0.3-0.3
					l-2.2-2.2c-0.5-0.5-1.4-0.5-1.9,0l0,0l-1.6,1.6l-0.9-0.9c-0.5-0.5-1.4-0.5-1.9,0l0,0l-13.4,13.4c-0.5,0.5-0.5,1.4,0,1.9l0,0
					l2.2,2.2l0.3-0.3c0.5-0.5,1.3-0.5,1.9,0c0.5,0.5,0.5,1.4,0,1.9l0,0l-0.3,0.3l2.2,2.2c0.5,0.5,1.4,0.5,1.9,0l1.6-1.6l0.9,0.9
					c0.5,0.5,1.4,0.5,1.9,0l0,0l13.4-13.4C513.7-52.6,513.7-53.5,513.2-54L513.2-54z M494.8-38.7c-0.2,0.2-0.4,0.2-0.6,0l0,0
					l-1.6-1.6c0.7-1,0.4-2.4-0.6-3.1c-0.7-0.5-1.7-0.5-2.4,0L488-45c-0.2-0.2-0.2-0.5,0-0.6L501.4-59c0.2-0.2,0.5-0.2,0.6,0l0,0
					l0.9,0.9l-11.3,11.3c-0.5,0.5-0.5,1.4,0,1.9l2.2,2.2l0.3-0.3c0.5-0.5,1.4-0.5,1.9,0s0.5,1.4,0,1.9l-0.3,0.3l0.6,0.6L494.8-38.7z
					 M512.6-52.7l-13.4,13.4c-0.2,0.2-0.5,0.2-0.6,0l-1.6-1.6c0.7-1,0.4-2.4-0.6-3c-0.7-0.5-1.7-0.5-2.4,0l-1.6-1.6
					c-0.2-0.2-0.2-0.5,0-0.6l13.4-13.4c0.2-0.2,0.5-0.2,0.6,0l0,0l1.6,1.6c-0.7,1-0.4,2.4,0.6,3c0.7,0.5,1.7,0.5,2.4,0l1.6,1.6
					C512.7-53.2,512.7-52.9,512.6-52.7L512.6-52.7z"/>
			</g>
		</g>
	</g>
</g>
<path id="Icon_map-bank" class="st5" d="M534.2-49.9c-1-0.7-2.2-1.2-3.4-1.4l-1.2-0.3v-4.9l0.2,0.1c0.9,0.5,1.5,1.4,1.6,2.5h3.9
	c0-1.9-0.8-3.6-2.3-4.7c-1-0.7-2.1-1.2-3.3-1.4v-2.7H526v2.6c-1.5,0.1-2.9,0.7-4,1.6c-1.3,1.1-2,2.7-1.9,4.3c-0.1,1.7,0.6,3.3,2,4.2
	c1.2,0.7,2.6,1.2,4,1.4v5.3c-0.6-0.1-1.2-0.5-1.6-1c-0.5-0.6-0.7-1.2-0.7-2h-3.9c-0.1,1.8,0.7,3.6,2.2,4.7c1.2,0.9,2.6,1.4,4,1.6v2
	h3.6v-2c1.5-0.1,3-0.7,4.2-1.7c1.3-1.1,2.1-2.7,2.1-4.4C536-47.4,535.4-48.9,534.2-49.9z M524.8-52.9c-0.6-0.3-1-0.9-0.9-1.6
	c0-0.7,0.3-1.4,1-1.8c0.4-0.2,0.8-0.4,1.2-0.5v4.3C525.6-52.5,525.2-52.7,524.8-52.9z M530.3-43.3c-0.2,0.1-0.4,0.1-0.6,0.2v-4.5
	c0.5,0.1,1,0.3,1.5,0.6s0.9,0.9,0.9,1.5C532-44.5,531.3-43.6,530.3-43.3L530.3-43.3z"/>
<path id="Icon_ionic-md-download" class="st5" d="M557-51.5h-4.3v-6.4h-6.5v6.4h-4.3l7.6,7.5L557-51.5z M541.8-41.8v2.1H557v-2.1
	H541.8z"/>
<path id="Icon_material-payment" class="st5" d="M275.2-22.8h-16.7c-1.1,0-2.1,0.9-2.1,2.1l0,0v12.5c0,1.1,0.9,2.1,2.1,2.1l0,0h16.7
	c1.1,0,2.1-0.9,2.1-2.1l0,0v-12.5C277.2-21.9,276.3-22.8,275.2-22.8L275.2-22.8z M275.2-8.2h-16.7v-6.3h16.7V-8.2z M275.2-18.7
	h-16.7v-2.1h16.7V-18.7z"/>
<path id="Icon_awesome-building" class="st5" d="M304.6-4.9h-0.9v-19.5c0-0.6-0.5-1-1-1l0,0h-14.4c-0.6,0-1,0.5-1,1v19.5h-0.9
	c-0.3,0-0.5,0.2-0.5,0.5l0,0v0.9H305v-0.9C305.1-4.7,304.8-4.9,304.6-4.9L304.6-4.9z M291.4-22.2c0-0.3,0.2-0.5,0.5-0.5h1.7
	c0.3,0,0.5,0.2,0.5,0.5l0,0v1.7c0,0.3-0.2,0.5-0.5,0.5h-1.7c-0.3,0-0.5-0.2-0.5-0.5V-22.2z M291.4-18.1c0-0.3,0.2-0.5,0.5-0.5h1.7
	c0.3,0,0.5,0.2,0.5,0.5l0,0v1.7c0,0.3-0.2,0.5-0.5,0.5h-1.7c-0.3,0-0.5-0.2-0.5-0.5l0,0V-18.1z M293.6-11.8h-1.7
	c-0.3,0-0.5-0.2-0.5-0.5l0,0V-14c0-0.3,0.2-0.5,0.5-0.5h1.7c0.3,0,0.5,0.2,0.5,0.5l0,0v1.7C294.1-12,293.9-11.8,293.6-11.8
	L293.6-11.8L293.6-11.8z M296.9-4.9h-2.7v-3.6c0-0.3,0.2-0.5,0.5-0.5h1.7c0.3,0,0.5,0.2,0.5,0.5V-4.9z M299.6-12.3
	c0,0.3-0.2,0.5-0.5,0.5h-1.7c-0.3,0-0.5-0.2-0.5-0.5V-14c0-0.3,0.2-0.5,0.5-0.5h1.7c0.3,0,0.5,0.2,0.5,0.5V-12.3z M299.6-16.4
	c0,0.3-0.2,0.5-0.5,0.5h-1.7c-0.3,0-0.5-0.2-0.5-0.5v-1.7c0-0.3,0.2-0.5,0.5-0.5l0,0h1.7c0.3,0,0.5,0.2,0.5,0.5V-16.4z M299.6-20.5
	c0,0.3-0.2,0.5-0.5,0.5h-1.7c-0.3,0-0.5-0.2-0.5-0.5v-1.7c0-0.3,0.2-0.5,0.5-0.5l0,0h1.7c0.3,0,0.5,0.2,0.5,0.5V-20.5z"/>
<g id="Grupo_2489" transform="translate(-37.993 -15.328)">
	<g id="Icon_feather-book-open" transform="translate(39.493 16.828)">
		<path id="Trazado_1375" class="st13" d="M313.7-25.3h7.1c2.6,0,4.7,2.1,4.7,4.7l0,0V-4c0-2-1.6-3.6-3.6-3.6h-8.3L313.7-25.3
			L313.7-25.3z"/>
		<path id="Trazado_1376" class="st13" d="M337.4-25.3h-7.1c-2.6,0-4.7,2.1-4.7,4.7l0,0V-4c0-2,1.6-3.6,3.6-3.6l0,0h8.3L337.4-25.3z
			"/>
	</g>
</g>
<path id="Shape_13" class="st5" d="M351.5-5.8c-1,0-2-0.4-2.7-1.1c-0.7-0.8-1.2-1.8-1.2-2.9v-12.1c0-1.1,0.4-2.1,1.2-2.8
	c0.7-0.8,1.7-1.2,2.7-1.2h5.9v2.5h-5.9c-0.8,0-1.4,0.7-1.4,1.4l0,0v12.1c0,0.8,0.6,1.5,1.4,1.5l0,0h5.9v2.5h-5.9V-5.8z M360.9-7.9
	c-0.3-0.1-0.5-0.4-0.5-0.8v-3.8H355c-0.6,0-1-0.5-1-1v-4.8c0-0.6,0.5-1,1-1h5.4v-3.8c0-0.4,0.3-0.8,0.8-0.8c0.2,0,0.4,0.1,0.5,0.2
	l7,7.2c0.3,0.3,0.3,0.8,0,1.1l-7,7.3c-0.1,0.1-0.3,0.2-0.5,0.2C361.1-7.8,361-7.8,360.9-7.9L360.9-7.9z"/>
<g id="Hamburger_Icon_00000167379193073895695260000013747475723738720161_">
	<g id="Hamburger_Icon-2_00000022552893056208219110000003413774105623943564_">
		<path id="Trazado_11_00000019650781392247429880000001550833776153144479_" class="st0" d="M198.4-110.9c0-1.1,0.6-2,1.3-2h16.9
			c0.7,0,1.2,0.9,1.2,2s-0.6,2-1.2,2h-16.9C199-109,198.4-109.8,198.4-110.9z"/>
		<path id="Trazado_1290_00000047759206796726563080000007030617159809476241_" class="st0" d="M198.4-110.9c0-1.1,0.6-2,1.3-2h16.9
			c0.7,0,1.2,0.9,1.2,2s-0.6,2-1.2,2h-16.9C199-109,198.4-109.8,198.4-110.9z"/>
		<path id="Trazado_1291_00000111167687858538567270000009980171718157960634_" class="st0" d="M198.4-103.7c0-0.9,0.6-1.7,1.3-1.7
			h16.9c0.7,0,1.2,0.7,1.2,1.7s-0.6,1.7-1.2,1.7h-16.9C198.9-102,198.4-102.8,198.4-103.7z"/>
		<path id="Trazado_1292_00000127029685144603788110000009994733822614004098_" class="st0" d="M198.4-118.1c0-1,0.6-1.9,1.3-1.9
			h16.9c0.7,0,1.2,0.8,1.2,1.9s-0.6,1.9-1.2,1.9h-16.9C198.9-116.2,198.4-117,198.4-118.1z"/>
	</g>
</g>
<g id="Grupo_2461" transform="translate(0.299 0.213)">
	<path id="Trazado_1342" class="st0" d="M276.6,32.9h-13.5c-0.9,0-1.5-0.7-1.5-1.5v-9.3c0-0.9,0.7-1.5,1.5-1.5h13.5
		c0.9,0,1.5,0.7,1.5,1.5v9.3C278.2,32.2,277.5,32.9,276.6,32.9z M263.1,21.3c-0.4,0-0.8,0.3-0.8,0.8v9.3c0,0.4,0.3,0.8,0.8,0.8h13.5
		c0.4,0,0.8-0.3,0.8-0.8v-9.3c0-0.4-0.3-0.8-0.8-0.8H263.1z"/>
	<path id="Trazado_1343" class="st0" d="M277.8,25.5H262c-0.2,0-0.4-0.1-0.4-0.3l0,0v-2.3c0-0.2,0.1-0.4,0.3-0.4l0,0h15.8
		c0.2,0,0.4,0.1,0.4,0.3l0,0v2.3C278.2,25.4,278,25.5,277.8,25.5L277.8,25.5z M262.3,24.8h15.1v-1.5h-15.1V24.8z"/>
	<path id="Trazado_1344" class="st0" d="M276.2,31.3h-5c-0.2,0-0.4-0.1-0.4-0.3l0,0v-2.7c0-0.2,0.1-0.4,0.3-0.4l0,0h5
		c0.2,0,0.4,0.1,0.4,0.3l0,0v2.7C276.6,31.1,276.5,31.3,276.2,31.3C276.3,31.3,276.3,31.3,276.2,31.3z M271.6,30.6h4.2v-1.9h-4.2
		V30.6z"/>
	<path id="Trazado_1345" class="st0" d="M265.4,27.5h-1.9c-0.2,0-0.4-0.2-0.4-0.4s0.2-0.4,0.4-0.4h1.9c0.2,0,0.4,0.2,0.4,0.4
		S265.6,27.5,265.4,27.5L265.4,27.5z"/>
	<path id="Trazado_1346" class="st0" d="M269.3,27.5h-2.5c-0.2,0-0.4-0.2-0.4-0.4s0.2-0.4,0.4-0.4h2.5c0.2,0,0.4,0.2,0.4,0.4
		S269.5,27.5,269.3,27.5z"/>
	<path id="Trazado_1347" class="st0" d="M267.3,29h-3.8c-0.2,0-0.4-0.2-0.4-0.4s0.2-0.4,0.4-0.4h3.8c0.2,0,0.4,0.1,0.4,0.3l0,0
		C267.7,28.8,267.5,29,267.3,29z"/>
	<path id="Trazado_1348" class="st0" d="M269.3,29h-0.7c-0.2,0-0.4-0.2-0.4-0.4s0.2-0.4,0.4-0.4h0.7c0.2,0,0.4,0.2,0.4,0.4
		S269.5,29,269.3,29L269.3,29z"/>
	<path id="Trazado_1349" class="st0" d="M274.7,36h-17.8c-0.2,0-0.4-0.1-0.4-0.3l0,0V34c0-0.2,0.1-0.4,0.3-0.4l0,0h0.4V22.8h-1.5
		c-0.4,0-0.7-0.2-0.8-0.5s0-0.7,0.2-1l2-1.8v-4.4h-0.4c-0.2,0-0.4-0.2-0.4-0.4v-1.5c0-0.2,0.1-0.4,0.3-0.4l0,0h4.6
		c0.2,0,0.4,0.1,0.4,0.3l0,0v1.5c0,0.2-0.1,0.4-0.3,0.4l0,0h-0.4v1l3-2.7c0.9-0.9,2.4-0.9,3.3,0l8.1,7.1c0.1,0.1,0.2,0.3,0.1,0.4
		c-0.1,0.2-0.2,0.3-0.4,0.3h-12.2c-0.4,0-0.8,0.3-0.8,0.8v9.3c0,0.4,0.3,0.8,0.8,0.8h10.8c0.2,0,0.4,0.1,0.4,0.3l0,0v1.2h0.4
		c0.2,0,0.4,0.2,0.4,0.4v1.5C275.1,35.8,274.9,36,274.7,36L274.7,36z M257.3,35.2h17v-0.8h-0.4c-0.2,0-0.4-0.1-0.4-0.3l0,0v-1.2
		h-10.4c-0.9,0-1.5-0.7-1.5-1.5v-9.3c0-0.9,0.7-1.5,1.5-1.5h11.1l-7.3-6.5c-0.6-0.6-1.6-0.6-2.2,0l-3.6,3.3c-0.2,0.1-0.4,0.1-0.5,0
		s-0.1-0.2-0.1-0.3v-2.3c0-0.2,0.1-0.4,0.3-0.4l0,0h0.4v-0.8h-3.9v0.8h0.4c0.2,0,0.4,0.1,0.4,0.3l0,0v5c0,0.1,0,0.2-0.1,0.3
		l-2.2,1.9V22c0,0,0,0,0.1,0h1.9c0.2,0,0.4,0.1,0.4,0.3l0,0V34c0,0.2-0.1,0.4-0.3,0.4l0,0h-0.4v0.8H257.3z"/>
</g>
<g id="Grupo_2460" transform="translate(-55 -212.558)">
	<path id="Trazado_1333" class="st0" d="M356.8,234.6l0.6-0.6l0.6,0.6l-0.6,0.6L356.8,234.6z"/>
	<path id="Trazado_1334" class="st0" d="M355.5,233.4l0.6-0.6l0.6,0.6l-0.6,0.6L355.5,233.4z"/>
	<path id="Trazado_1335" class="st0" d="M354.3,232.1l0.6-0.6l0.6,0.6l-0.6,0.6L354.3,232.1z"/>
	<path id="Trazado_1336" class="st0" d="M359.3,237.1l0.6-0.6l0.6,0.6l-0.6,0.6L359.3,237.1z"/>
	<path id="Trazado_1337" class="st0" d="M358,235.9l0.6-0.6l0.6,0.6l-0.6,0.6L358,235.9z"/>
	<g id="Grupo_2459" transform="translate(55 212.89)">
		<g>
			<g id="Grupo_2458_00000057109052369476762810000006675841834833737883_" transform="translate(0 0)">
				<path id="Trazado_1338_00000105424002959075555950000006370108931856145336_" class="st0" d="M297.8,30.1
					c-0.2,0-0.3-0.1-0.4-0.2l-0.8-1.6l-1.7,0.3c-0.2,0-0.5-0.1-0.5-0.4c0-0.1,0-0.3,0.1-0.4l1.2-1.2l-0.8-1.6
					c-0.1-0.2,0-0.5,0.2-0.6c0.1-0.1,0.3-0.1,0.4,0l1.6,0.8l1.2-1.2c0.2-0.2,0.5-0.2,0.6,0c0.1,0.1,0.2,0.2,0.1,0.4l-0.3,1.7
					l1.6,0.8c0.2,0.1,0.3,0.4,0.2,0.6c-0.1,0.1-0.2,0.2-0.3,0.2l-1.7,0.3l-0.3,1.7C298.2,29.9,298,30.1,297.8,30.1L297.8,30.1
					L297.8,30.1z M296.8,27.3c0.2,0,0.3,0.1,0.4,0.2l0.3,0.6l0.1-0.7c0-0.2,0.2-0.3,0.4-0.4l0.7-0.1l-0.6-0.3
					c-0.2-0.1-0.3-0.3-0.2-0.5l0.1-0.7l-0.5,0.5c-0.1,0.1-0.3,0.2-0.5,0.1l-0.6-0.3l0.3,0.6c0.1,0.2,0.1,0.4-0.1,0.5l-0.5,0.5
					L296.8,27.3L296.8,27.3L296.8,27.3z"/>
				<path id="Trazado_1339_00000051343931626775863080000016770176638426383022_" class="st0" d="M309.9,20.5l-2.2-2.2l-0.3,0.3
					c-0.5,0.5-1.4,0.5-1.9,0s-0.5-1.4,0-1.9l0,0l0.3-0.3l-2.2-2.2c-0.5-0.5-1.4-0.5-1.9,0l0,0l-1.6,1.6l-0.9-0.9
					c-0.5-0.5-1.4-0.5-1.9,0l0,0l-13.5,13.5c-0.5,0.5-0.5,1.4,0,1.9l0,0l2.2,2.2l0.3-0.3c0.5-0.5,1.4-0.5,1.9,0s0.5,1.4,0,1.9l0,0
					l-0.3,0.3l2.2,2.2c0.5,0.5,1.4,0.5,1.9,0l0,0l1.6-1.6l0.9,0.9c0.5,0.5,1.4,0.5,1.9,0l0,0l13.5-13.5
					C310.4,21.9,310.4,21.1,309.9,20.5L309.9,20.5L309.9,20.5z M291.3,36c-0.2,0.2-0.5,0.2-0.6,0l0,0l-1.6-1.6
					c0.7-1,0.4-2.4-0.6-3.1c-0.7-0.5-1.7-0.5-2.5,0l-1.6-1.6c-0.2-0.2-0.2-0.5,0-0.6l0,0L298,15.5c0.2-0.2,0.5-0.2,0.6,0l0,0
					l0.9,0.9l-11.3,11.3c-0.5,0.5-0.5,1.4,0,1.9l0,0l2.2,2.2l0.3-0.3c0.5-0.5,1.4-0.5,1.9,0c0.5,0.5,0.5,1.4,0,1.9l0,0l-0.3,0.3
					l0.6,0.6L291.3,36z M309.3,21.8l-13.5,13.5c-0.2,0.2-0.5,0.2-0.6,0l0,0l-1.6-1.6c0.7-1,0.4-2.4-0.6-3.1c-0.7-0.5-1.7-0.5-2.4,0
					L289,29c-0.2-0.2-0.2-0.5,0-0.6l0,0l13.5-13.5c0.2-0.2,0.5-0.2,0.6,0l0,0l1.6,1.6c-0.7,1-0.4,2.4,0.6,3.1c0.7,0.5,1.7,0.5,2.4,0
					l1.6,1.6C309.4,21.3,309.4,21.6,309.3,21.8L309.3,21.8L309.3,21.8z"/>
			</g>
		</g>
	</g>
</g>
<path id="Icon_feather-phone-call_00000068650561255578699720000000038707863935249045_" class="st14" d="M330.4,15.8
	c2.3,0.5,4.2,2.3,4.6,4.6 M330.4,11.1c4.9,0.5,8.8,4.4,9.3,9.3 M338.5,29.7v3.5c0,1.3-1,2.3-2.3,2.4c-0.1,0-0.1,0-0.2,0
	c-3.6-0.4-7.1-1.6-10.1-3.6c-2.8-1.8-5.2-4.2-7-7c-2-3.1-3.2-6.5-3.6-10.2c-0.1-1.3,0.8-2.4,2.1-2.5c0.1,0,0.1,0,0.2,0h3.5
	c1.2,0,2.2,0.9,2.3,2c0.1,1.1,0.4,2.2,0.8,3.3c0.3,0.9,0.1,1.8-0.5,2.5l-1.5,1.5c1.7,2.9,4.1,5.4,7,7l1.5-1.5
	c0.7-0.6,1.6-0.8,2.5-0.5c1.1,0.4,2.2,0.7,3.3,0.8C337.7,27.5,338.5,28.5,338.5,29.7z"/>
<path id="Icon_material-person-pin" class="st0" d="M366,11.1h-15.4c-1.2,0-2.2,1-2.2,2.2l0,0v15.4c0,1.2,1,2.2,2.2,2.2l0,0h4.4
	l3.3,3.3l3.3-3.3h4.4c1.2,0,2.2-1,2.2-2.2V13.3C368.2,12.1,367.2,11.1,366,11.1z M358.3,14.7c1.6,0,3,1.3,3,3c0,1.6-1.3,3-3,3
	c-1.6,0-3-1.3-3-3C355.4,16.1,356.7,14.7,358.3,14.7z M364.9,26.5h-13.2v-1c0-2.2,4.4-3.4,6.6-3.4s6.6,1.2,6.6,3.4V26.5z"/>
<g>
	<path id="Shape_2_00000098915821844619272140000006932604565132637829_" class="st0" d="M291.1,53.2c-0.2-0.2-0.5-0.2-0.7,0
		l-7.5,6.4v7.6c0,0.9,0.7,1.6,1.6,1.6h4.2c0.3,0,0.5-0.2,0.5-0.5V65c0-0.9,0.7-1.6,1.6-1.6s1.6,0.7,1.6,1.6l0,0v3.1
		c0,0.3,0.2,0.5,0.5,0.5h4.2c0.9,0,1.6-0.7,1.6-1.6v-7.6L291.1,53.2z"/>
	<text transform="matrix(1 0 0 1 281.5891 79.139)" class="st0" style="font-family:'TrebuchetMS'; font-size:7.8918px;">Inicio</text>
</g>
<g>
	<path id="Shape_2_00000059286844449011535170000010626928920289075343_" class="st5" d="M264.1,53.2c-0.2-0.2-0.5-0.2-0.7,0
		l-7.5,6.4v7.6c0,0.9,0.7,1.6,1.6,1.6h4.2c0.3,0,0.5-0.2,0.5-0.5V65c0-0.9,0.7-1.6,1.6-1.6s1.6,0.7,1.6,1.6l0,0v3.1
		c0,0.3,0.2,0.5,0.5,0.5h4.2c0.9,0,1.6-0.7,1.6-1.6v-7.6L264.1,53.2z"/>
	<text transform="matrix(1 0 0 1 254.535 79.139)" style="fill:#575760; font-family:'TrebuchetMS'; font-size:7.8918px;">Inicio</text>
</g>
<g>
	<g class="st15">
		<path class="st5" d="M314.5,75.7v1.7h-0.6V73c0.5,0,0.7,0,0.8,0c1.3,0,1.9,0.4,1.9,1.3c0,1-0.6,1.5-1.7,1.5
			C314.8,75.7,314.7,75.7,314.5,75.7z M314.5,73.5v1.6c0.3,0,0.4,0,0.4,0c0.7,0,1.1-0.3,1.1-0.9c0-0.5-0.4-0.8-1.2-0.8
			C314.7,73.5,314.6,73.5,314.5,73.5z"/>
		<path class="st5" d="M318.7,74.7c-0.1-0.1-0.2-0.1-0.4-0.1c-0.2,0-0.4,0.1-0.5,0.3c-0.1,0.2-0.2,0.4-0.2,0.7v1.8H317v-3.2h0.6v0.5
			c0.2-0.4,0.5-0.6,0.9-0.6c0.1,0,0.2,0,0.4,0.1L318.7,74.7z"/>
		<path class="st5" d="M319.1,75.7c0-0.5,0.1-0.9,0.4-1.2c0.3-0.3,0.6-0.5,1-0.5c0.5,0,0.8,0.1,1.1,0.4c0.3,0.3,0.4,0.7,0.4,1.2
			s-0.1,0.9-0.4,1.2s-0.6,0.4-1.1,0.4s-0.8-0.1-1.1-0.4C319.2,76.6,319.1,76.2,319.1,75.7z M319.7,75.7c0,0.8,0.3,1.2,0.8,1.2
			c0.3,0,0.5-0.1,0.6-0.3s0.2-0.5,0.2-0.9c0-0.8-0.3-1.2-0.8-1.2c-0.3,0-0.5,0.1-0.6,0.3C319.8,75.1,319.7,75.4,319.7,75.7z"/>
		<path class="st5" d="M324.6,77.3v-0.2c-0.2,0.2-0.5,0.3-0.9,0.3s-0.7-0.1-1-0.4s-0.4-0.7-0.4-1.1c0-0.5,0.1-0.9,0.4-1.2
			c0.3-0.3,0.6-0.5,1-0.5c0.3,0,0.6,0.1,0.7,0.2v-1.5h0.6v4.5h-0.4V77.3z M324.6,74.9c-0.1-0.2-0.3-0.3-0.6-0.3
			c-0.3,0-0.5,0.1-0.7,0.3c-0.2,0.2-0.3,0.5-0.3,0.9c0,0.8,0.3,1.2,1,1.2c0.1,0,0.2,0,0.3-0.1s0.2-0.1,0.2-0.2v-1.8H324.6z"/>
		<path class="st5" d="M326.5,74.2v2c0,0.5,0.2,0.7,0.6,0.7c0.2,0,0.4-0.1,0.5-0.2c0.2-0.1,0.3-0.2,0.3-0.4v-2.2h0.6v3.2H328v-0.4
			c-0.1,0.1-0.2,0.2-0.4,0.3s-0.4,0.2-0.6,0.2c-0.3,0-0.6-0.1-0.8-0.3c-0.2-0.2-0.3-0.5-0.3-0.9v-2.1h0.6V74.2z"/>
		<path class="st5" d="M331.7,74.4l-0.3,0.4c-0.1-0.1-0.2-0.1-0.3-0.2c-0.1-0.1-0.3-0.1-0.4-0.1c-0.3,0-0.6,0.1-0.7,0.3
			c-0.2,0.2-0.3,0.5-0.3,0.9s0.1,0.7,0.3,0.9c0.2,0.2,0.4,0.3,0.8,0.3c0.3,0,0.5-0.1,0.8-0.3l0.2,0.5c-0.3,0.2-0.7,0.3-1.1,0.3
			s-0.8-0.1-1.1-0.4s-0.4-0.7-0.4-1.2s0.1-0.9,0.4-1.2c0.3-0.3,0.7-0.5,1.2-0.5c0.2,0,0.3,0,0.5,0.1S331.6,74.3,331.7,74.4z"/>
		<path class="st5" d="M332.5,74.6h-0.4v-0.4h0.4v-0.7l0.6-0.2v0.9h0.9v0.4h-0.9v1.6c0,0.3,0,0.5,0.1,0.6s0.2,0.2,0.4,0.2
			c0.1,0,0.3,0,0.4-0.1l0.1,0.5c-0.2,0.1-0.5,0.1-0.8,0.1s-0.5-0.1-0.6-0.3c-0.2-0.2-0.3-0.4-0.3-0.7L332.5,74.6L332.5,74.6z"/>
		<path class="st5" d="M334.5,75.7c0-0.5,0.1-0.9,0.4-1.2c0.3-0.3,0.6-0.5,1-0.5c0.5,0,0.8,0.1,1.1,0.4c0.3,0.3,0.4,0.7,0.4,1.2
			s-0.1,0.9-0.4,1.2s-0.6,0.4-1.1,0.4s-0.8-0.1-1.1-0.4C334.6,76.6,334.5,76.2,334.5,75.7z M335.1,75.7c0,0.8,0.3,1.2,0.8,1.2
			c0.3,0,0.5-0.1,0.6-0.3s0.2-0.5,0.2-0.9c0-0.8-0.3-1.2-0.8-1.2c-0.3,0-0.5,0.1-0.6,0.3C335.2,75.1,335.1,75.4,335.1,75.7z"/>
		<path class="st5" d="M337.8,77.1l0.2-0.5c0.3,0.2,0.6,0.3,0.8,0.3c0.3,0,0.5-0.1,0.5-0.4c0-0.2-0.2-0.4-0.5-0.5s-0.4-0.2-0.5-0.3
			c-0.1-0.1-0.2-0.1-0.2-0.2c-0.1-0.1-0.1-0.2-0.1-0.2s0-0.2,0-0.3c0-0.3,0.1-0.5,0.3-0.6c0.2-0.1,0.4-0.2,0.7-0.2
			c0.2,0,0.5,0.1,0.9,0.2l-0.2,0.5c-0.2-0.2-0.4-0.3-0.7-0.3c-0.1,0-0.2,0-0.3,0.1s-0.1,0.1-0.1,0.2c0,0.2,0.1,0.4,0.3,0.5l0.4,0.2
			c0.2,0.1,0.4,0.2,0.5,0.4c0.1,0.1,0.2,0.3,0.2,0.5c0,0.3-0.1,0.5-0.3,0.7s-0.5,0.2-0.8,0.2C338.4,77.4,338.1,77.3,337.8,77.1z"/>
	</g>
	<g id="Grupo_2444" transform="translate(-6889.528 -2053)">
		<g id="Rectángulo_218_00000068672389913697309440000006397855229397199524_" transform="translate(6902 2053)">
			<path class="st16" d="M311.7,57.2h5.4c1.1,0,2,0.9,2,2v8.1c0,1.1-0.9,2-2,2h-5.4c-1.1,0-2-0.9-2-2v-8.1
				C309.7,58.1,310.6,57.2,311.7,57.2z"/>
			<path class="st16" d="M311.7,57.7h5.4c0.8,0,1.5,0.7,1.5,1.5v8.1c0,0.8-0.7,1.5-1.5,1.5h-5.4c-0.8,0-1.5-0.7-1.5-1.5v-8.1
				C310.2,58.4,310.8,57.7,311.7,57.7z"/>
		</g>
		
			<line id="Línea_1_00000109740643489609401030000001599951685242473654_" class="st16" x1="7213.3" y1="2113.2" x2="7218.8" y2="2113.2"/>
		
			<line id="Línea_2_00000065782021636344459030000000940456387443764153_" class="st16" x1="7213.3" y1="2115.3" x2="7218.8" y2="2115.3"/>
		
			<line id="Línea_3_00000183928055493191241730000010879317270828705933_" class="st16" x1="7213.3" y1="2117.3" x2="7216.7" y2="2117.3"/>
	</g>
</g>
<g>
	<text transform="matrix(1 0 0 1 345.806 75.8453)" class="st0" style="font-family:'TrebuchetMS'; font-size:4.689px;">Certificados</text>
	<path id="Icon_ionic-md-download_00000152265023092650580440000012976264115534591124_" class="st0" d="M362.3,63.6H360v-3.3h-3.4
		v3.3h-2.3l4,3.9L362.3,63.6z M354.4,68.6v1.1h7.9v-1.1H354.4z"/>
</g>
<g>
	<g class="st15">
		<path class="st5" d="M376.6,73.8v1.1h-0.4V72c0.3,0,0.5,0,0.5,0c0.8,0,1.3,0.3,1.3,0.9c0,0.7-0.4,1-1.1,1
			C376.8,73.8,376.7,73.8,376.6,73.8z M376.6,72.3v1.1c0.2,0,0.3,0,0.3,0c0.5,0,0.7-0.2,0.7-0.6s-0.3-0.5-0.8-0.5
			C376.7,72.3,376.6,72.3,376.6,72.3z"/>
		<path class="st5" d="M379.4,74.6c-0.2,0.2-0.4,0.3-0.7,0.3c-0.2,0-0.3-0.1-0.4-0.2s-0.2-0.3-0.2-0.5s0.1-0.4,0.3-0.5
			c0.2-0.1,0.4-0.2,0.7-0.2c0.1,0,0.2,0,0.3,0.1c0-0.3-0.2-0.5-0.5-0.5c-0.2,0-0.4,0.1-0.5,0.2l-0.2-0.3c0.1-0.1,0.2-0.1,0.3-0.2
			c0.1,0,0.2-0.1,0.4-0.1c0.3,0,0.5,0.1,0.7,0.2c0.1,0.1,0.2,0.4,0.2,0.7v0.8c0,0.2,0.1,0.3,0.2,0.4V75c-0.2,0-0.3,0-0.3-0.1
			S379.4,74.7,379.4,74.6z M379.4,73.8c-0.1,0-0.2,0-0.3,0c-0.2,0-0.3,0-0.5,0.1s-0.2,0.2-0.2,0.3c0,0.2,0.1,0.3,0.4,0.3
			c0.2,0,0.4-0.1,0.5-0.3v-0.4H379.4z"/>
		<path class="st5" d="M380.3,75.5l0.2-0.3c0.2,0.1,0.4,0.2,0.6,0.2s0.3,0,0.4-0.1s0.1-0.1,0.1-0.2c0-0.2-0.1-0.3-0.4-0.3
			c0,0-0.1,0-0.2,0s-0.2,0-0.3,0c-0.3,0-0.5-0.1-0.5-0.3c0-0.1,0-0.1,0.1-0.2s0.2-0.1,0.3-0.1c-0.3-0.1-0.5-0.4-0.5-0.7
			c0-0.2,0.1-0.4,0.2-0.6c0.2-0.1,0.3-0.2,0.6-0.2c0.2,0,0.4,0,0.5,0.1l0.2-0.2l0.2,0.2l-0.2,0.2c0.1,0.1,0.1,0.3,0.1,0.5
			s-0.1,0.4-0.2,0.5s-0.3,0.2-0.5,0.3h-0.3h-0.1c-0.1,0-0.1,0.1-0.1,0.1c0,0.1,0.1,0.1,0.2,0.1s0.1,0,0.3,0c0.1,0,0.2,0,0.3,0
			c0.2,0,0.4,0.1,0.5,0.2s0.2,0.2,0.2,0.4c0,0.2-0.1,0.4-0.3,0.5c-0.2,0.1-0.4,0.2-0.7,0.2c-0.1,0-0.3,0-0.4-0.1
			C380.5,75.6,380.4,75.5,380.3,75.5z M381.1,73c-0.1,0-0.2,0-0.3,0.1c-0.1,0.1-0.1,0.2-0.1,0.3c0,0.1,0,0.3,0.1,0.4
			s0.2,0.1,0.3,0.1c0.1,0,0.2,0,0.3-0.1c0.1-0.1,0.1-0.2,0.1-0.4c0-0.1,0-0.2-0.1-0.3C381.3,73.1,381.2,73,381.1,73z"/>
		<path class="st5" d="M382.3,73.8c0-0.3,0.1-0.6,0.3-0.8c0.2-0.2,0.4-0.3,0.7-0.3c0.3,0,0.5,0.1,0.7,0.3c0.2,0.2,0.3,0.5,0.3,0.8
			s-0.1,0.6-0.3,0.8c-0.2,0.2-0.4,0.3-0.7,0.3c-0.3,0-0.5-0.1-0.7-0.3C382.4,74.4,382.3,74.2,382.3,73.8z M382.7,73.8
			c0,0.5,0.2,0.8,0.6,0.8c0.2,0,0.3-0.1,0.4-0.2s0.2-0.3,0.2-0.6c0-0.5-0.2-0.8-0.6-0.8c-0.2,0-0.3,0.1-0.4,0.2
			S382.7,73.6,382.7,73.8z"/>
		<path class="st5" d="M384.5,74.8l0.1-0.4c0.2,0.1,0.4,0.2,0.5,0.2c0.2,0,0.4-0.1,0.4-0.3c0-0.1-0.1-0.3-0.3-0.4
			c-0.2-0.1-0.3-0.1-0.4-0.2c-0.1,0-0.1-0.1-0.2-0.1c0-0.1-0.1-0.1-0.1-0.2s0-0.1,0-0.2c0-0.2,0.1-0.3,0.2-0.4s0.3-0.1,0.5-0.1
			s0.4,0,0.6,0.1l-0.1,0.4c-0.2-0.1-0.3-0.2-0.5-0.2c-0.1,0-0.2,0-0.2,0.1c-0.1,0-0.1,0.1-0.1,0.2s0.1,0.2,0.2,0.3l0.3,0.1
			c0.2,0.1,0.3,0.2,0.4,0.3c0.1,0.1,0.1,0.2,0.1,0.4c0,0.2-0.1,0.3-0.2,0.4s-0.3,0.2-0.6,0.2C384.9,74.9,384.7,74.9,384.5,74.8z"/>
		<path class="st5" d="M389.3,73.9h-1.5c0,0.2,0.1,0.4,0.2,0.6c0.1,0.1,0.3,0.2,0.5,0.2s0.4-0.1,0.5-0.2l0.2,0.3
			c-0.1,0.1-0.1,0.1-0.3,0.2c-0.2,0.1-0.3,0.1-0.5,0.1c-0.3,0-0.5-0.1-0.7-0.3c-0.2-0.2-0.3-0.5-0.3-0.8c0-0.4,0.1-0.6,0.3-0.8
			c0.2-0.2,0.4-0.3,0.7-0.3c0.3,0,0.5,0.1,0.7,0.3c0.2,0.2,0.3,0.4,0.3,0.7C389.3,73.7,389.3,73.8,389.3,73.9z M388.4,73
			c-0.2,0-0.3,0.1-0.4,0.2s-0.2,0.2-0.2,0.4h1.2c0-0.2,0-0.3-0.1-0.4C388.7,73.1,388.5,73,388.4,73z"/>
		<path class="st5" d="M391,74.9v-1.2c0-0.2,0-0.4-0.1-0.5s-0.2-0.1-0.3-0.1c-0.1,0-0.2,0-0.3,0.1s-0.2,0.1-0.2,0.2V75h-0.4v-2.1
			h0.3l0.1,0.3c0.1-0.2,0.3-0.3,0.6-0.3c0.5,0,0.7,0.3,0.7,0.9v1.3H391V74.9z"/>
		<path class="st5" d="M393.2,74.3v-2.4h0.4v2.3c0,0.1,0,0.2,0.1,0.3c0.1,0.1,0.2,0.1,0.3,0.1v0.3C393.4,74.9,393.2,74.7,393.2,74.3
			z"/>
		<path class="st5" d="M394.6,74.9v-1.8h-0.3v-0.3h0.7v2.1C395,74.9,394.6,74.9,394.6,74.9z M395.2,71.7l-0.5,0.7h-0.3l0.3-0.7
			H395.2z"/>
		<path class="st5" d="M396.8,74.9v-1.2c0-0.2,0-0.4-0.1-0.5s-0.2-0.1-0.3-0.1c-0.1,0-0.2,0-0.3,0.1c-0.1,0.1-0.2,0.1-0.2,0.2V75
			h-0.4v-2.1h0.3l0.1,0.3c0.1-0.2,0.3-0.3,0.6-0.3c0.5,0,0.7,0.3,0.7,0.9v1.3h-0.4V74.9z"/>
		<path class="st5" d="M399.6,73.9H398c0,0.2,0.1,0.4,0.2,0.6c0.1,0.1,0.3,0.2,0.5,0.2s0.4-0.1,0.5-0.2l0.2,0.3
			c-0.1,0.1-0.1,0.1-0.3,0.2c-0.2,0.1-0.3,0.1-0.5,0.1c-0.3,0-0.5-0.1-0.7-0.3c-0.2-0.2-0.3-0.5-0.3-0.8c0-0.4,0.1-0.6,0.3-0.8
			c0.2-0.2,0.4-0.3,0.7-0.3c0.3,0,0.5,0.1,0.7,0.3C399.5,73.4,399.6,73.6,399.6,73.9C399.6,73.7,399.6,73.8,399.6,73.9z M398.6,73
			c-0.2,0-0.3,0.1-0.4,0.2s-0.2,0.2-0.2,0.4h1.2c0-0.2,0-0.3-0.1-0.4S398.8,73,398.6,73z"/>
		<path class="st5" d="M401.2,74.6c-0.2,0.2-0.4,0.3-0.7,0.3c-0.2,0-0.3-0.1-0.4-0.2s-0.2-0.3-0.2-0.5s0.1-0.4,0.3-0.5
			c0.2-0.1,0.4-0.2,0.7-0.2c0.1,0,0.2,0,0.3,0.1c0-0.3-0.2-0.5-0.5-0.5c-0.2,0-0.4,0.1-0.5,0.2L400,73c0.1-0.1,0.2-0.1,0.3-0.2
			c0.1,0,0.2-0.1,0.4-0.1c0.3,0,0.5,0.1,0.7,0.2c0.1,0.1,0.2,0.4,0.2,0.7v0.8c0,0.2,0.1,0.3,0.2,0.4V75c-0.2,0-0.3,0-0.3-0.1
			C401.3,74.8,401.2,74.7,401.2,74.6z M401.2,73.8c-0.1,0-0.2,0-0.3,0c-0.2,0-0.3,0-0.5,0.1s-0.2,0.2-0.2,0.3c0,0.2,0.1,0.3,0.4,0.3
			c0.2,0,0.4-0.1,0.5-0.3v-0.4H401.2z"/>
	</g>
	<path id="Icon_material-payment_00000093163514079279099890000013171863866964217505_" class="st5" d="M392.6,62H385
		c-0.5,0-0.9,0.4-0.9,0.9l0,0v5.7c0,0.5,0.4,0.9,0.9,0.9l0,0h7.6c0.5,0,0.9-0.4,0.9-0.9l0,0v-5.7C393.5,62.4,393.1,62,392.6,62
		L392.6,62z M392.6,68.6H385v-2.8h7.6V68.6z M392.6,63.9H385V63h7.6V63.9z"/>
</g>
<g id="Grupo_2592" transform="translate(-14072.655 -2868.839)">
	<path id="Trazado_80" class="st17" d="M14339.2,2966.3l-1-0.2c0,0,0,0,0-0.1v-1.4c0-1.8-1.8-3.3-3.9-3.3s-3.9,1.5-3.9,3.3v1.4l0,0
		l-1,0.2c-0.5,0.1-0.9,0.5-0.9,1.1v6.7c0,0.6,0.5,1.1,1.1,1.1h9.4c0.6,0,1.1-0.5,1.1-1.1v-6.7
		C14340.1,2966.8,14339.7,2966.3,14339.2,2966.3 M14336.2,2966.3l2.8,0.6c0.3,0,0.4,0.3,0.4,0.5v6.7c0,0.3-0.2,0.5-0.5,0.5h-9.4
		c-0.3,0-0.5-0.2-0.5-0.5v-6.7c0-0.3,0.2-0.5,0.5-0.5l2.8-0.6C14333.6,2966,14335,2966,14336.2,2966.3 M14337.6,2965.9l-1-0.2v-1.1
		c-0.3-1.3-1.5-2.1-2.8-1.9c-1,0.2-1.7,0.9-1.9,1.9v1.1l-1,0.2v-1.3c0-1.5,1.5-2.7,3.3-2.7s3.3,1.2,3.3,2.7v1.3H14337.6z
		 M14332.5,2964.6c0.3-1,1.3-1.5,2.2-1.3c0.6,0.2,1.1,0.7,1.3,1.3v1c-1.2-0.2-2.3-0.2-3.5,0V2964.6z"/>
	<path id="Trazado_81" class="st18" d="M14333.2,2971v1.3c0,0.2,0.2,0.4,0.4,0.4h1.2c0.2,0,0.4-0.2,0.4-0.4v-1.3
		c0.4-0.3,0.7-0.8,0.7-1.4c0-0.5-0.2-0.9-0.5-1.2c-0.7-0.7-1.9-0.6-2.5,0.1c-0.3,0.3-0.5,0.8-0.5,1.3
		C14332.5,2970.2,14332.8,2970.7,14333.2,2971 M14335.1,2968.8c0.2,0.2,0.4,0.5,0.4,0.8c0,0.4-0.2,0.8-0.6,1
		c-0.1,0.1-0.1,0.1-0.1,0.2v1.3h-0.9v-1.3c0-0.1-0.1-0.2-0.2-0.3c-0.3-0.2-0.6-0.5-0.6-0.9c0-0.3,0.1-0.6,0.3-0.9
		c0.2-0.2,0.5-0.4,0.8-0.4C14334.6,2968.4,14334.9,2968.5,14335.1,2968.8"/>
	<path id="Trazado_82" class="st17" d="M14346.8,2963.2c0-0.5-0.3-0.9-0.7-1.2c0.4-0.3,0.6-0.7,0.7-1.2c0-1.5-3-2.6-6.9-2.6
		s-6.9,1.1-6.9,2.6v0.1c0.2,0,0.4-0.1,0.6-0.1l0,0c0-1,2.6-2,6.3-2s6.3,1.1,6.3,2s-2.6,2-6.3,2c-0.6,0-1.2,0-1.8-0.1
		c0.1,0.2,0.2,0.4,0.3,0.6c0.5,0,1,0.1,1.5,0.1c2,0.1,3.9-0.3,5.7-1.1c0.3,0.2,0.5,0.5,0.6,0.8c0,0.4-0.4,0.7-0.7,0.9
		c-1.7,0.8-3.6,1.2-5.5,1.1c-0.4,0-0.9,0-1.3,0v0.5l0.6,0.1h0.1c0.2,0,0.4,0,0.6,0c2,0.1,3.9-0.3,5.7-1.1c0.3,0.2,0.5,0.5,0.6,0.8
		c0,0.4-0.4,0.7-0.7,0.9l0,0l0,0c-1.5,0.7-3.2,1.1-4.9,1.1v0.6c1.8,0,3.5-0.4,5.1-1.1c0.3,0.2,0.5,0.5,0.6,0.8
		c0,0.4-0.4,0.7-0.8,0.9c-1.5,0.7-3.2,1.1-4.9,1.1v0.6c1.7,0,3.5-0.4,5.1-1.1c0.3,0.2,0.6,0.5,0.6,0.8c0,0.9-2.3,1.9-5.7,2v0.6
		c1.8,0,3.5-0.4,5.1-1.1c0.3,0.2,0.5,0.5,0.6,0.8c0,0.9-2.3,1.9-5.8,2c-0.1,0.2-0.2,0.4-0.4,0.6c3.8,0,6.7-1.1,6.7-2.6
		c0-0.5-0.3-0.9-0.7-1.2c0.4-0.3,0.6-0.7,0.7-1.2c-0.6-0.4-0.9-1.2-0.5-1.8c0.1-0.2,0.3-0.4,0.5-0.5c-0.6-0.4-0.9-1.2-0.5-1.8
		c0.1-0.2,0.3-0.4,0.5-0.5c-0.6-0.4-0.9-1.2-0.5-1.8C14346.4,2963.5,14346.6,2963.4,14346.8,2963.2"/>
	<path id="Trazado_163" class="st17" d="M14339.2,2966.3l-1-0.2c0,0,0,0,0-0.1v-1.4c0-1.8-1.8-3.3-3.9-3.3s-3.9,1.5-3.9,3.3v1.4l0,0
		l-1,0.2c-0.5,0.1-0.9,0.5-0.9,1.1v6.7c0,0.6,0.5,1.1,1.1,1.1h9.4c0.6,0,1.1-0.5,1.1-1.1v-6.7
		C14340.1,2966.8,14339.7,2966.3,14339.2,2966.3 M14336.2,2966.3l2.8,0.6c0.3,0,0.4,0.3,0.4,0.5v6.7c0,0.3-0.2,0.5-0.5,0.5h-9.4
		c-0.3,0-0.5-0.2-0.5-0.5v-6.7c0-0.3,0.2-0.5,0.5-0.5l2.8-0.6C14333.6,2966,14335,2966,14336.2,2966.3 M14337.6,2965.9l-1-0.2v-1.1
		c-0.3-1.3-1.5-2.1-2.8-1.9c-1,0.2-1.7,0.9-1.9,1.9v1.1l-1,0.2v-1.3c0-1.5,1.5-2.7,3.3-2.7s3.3,1.2,3.3,2.7v1.3H14337.6z
		 M14332.5,2964.6c0.3-1,1.3-1.5,2.2-1.3c0.6,0.2,1.1,0.7,1.3,1.3v1c-1.2-0.2-2.3-0.2-3.5,0V2964.6z"/>
	<path id="Trazado_164" class="st18" d="M14333.2,2971v1.3c0,0.2,0.2,0.4,0.4,0.4h1.2c0.2,0,0.4-0.2,0.4-0.4v-1.3
		c0.4-0.3,0.7-0.8,0.7-1.4c0-0.5-0.2-0.9-0.5-1.2c-0.7-0.7-1.9-0.6-2.5,0.1c-0.3,0.3-0.5,0.8-0.5,1.3
		C14332.5,2970.2,14332.8,2970.7,14333.2,2971 M14335.1,2968.8c0.2,0.2,0.4,0.5,0.4,0.8c0,0.4-0.2,0.8-0.6,1
		c-0.1,0.1-0.1,0.1-0.1,0.2v1.3h-0.9v-1.3c0-0.1-0.1-0.2-0.2-0.3c-0.3-0.2-0.6-0.5-0.6-0.9c0-0.3,0.1-0.6,0.3-0.9
		c0.2-0.2,0.5-0.4,0.8-0.4C14334.6,2968.4,14334.9,2968.5,14335.1,2968.8"/>
</g>
<g id="Grupo_2595" transform="translate(-14457.678 -2939.639)">
	<path id="Trazado_193" class="st17" d="M14752.4,3035c0,0.3,0.2,0.5,0.5,0.5s0.5-0.2,0.5-0.5s-0.2-0.5-0.5-0.5l0,0
		C14752.6,3034.5,14752.4,3034.7,14752.4,3035"/>
	<path id="Trazado_195" class="st17" d="M14739.3,3033.7h-1.7v0.6h1.3C14739.1,3034.1,14739.2,3033.9,14739.3,3033.7"/>
	<path id="Trazado_196" class="st17" d="M14749.9,3032.6l0.2-0.6c-1.7-0.4-3.4-0.4-5,0l0.1,0.6
		C14746.7,3032.2,14748.3,3032.3,14749.9,3032.6"/>
	<path id="Trazado_197" class="st17" d="M14737.1,3037.7c0-0.1,0.1-0.2,0.2-0.2l0,0c0.2,0,0.3-0.1,0.5-0.2c-0.2-0.1-0.4-0.3-0.5-0.5
		s-0.2-0.4-0.2-0.6c0-0.3,0.2-0.5,0.5-0.6s0.5,0,0.7,0.3c0.3,0.3,0.4,0.8,0.2,1.3c0.1,0,0.2,0,0.3,0l0,0c0-0.1,0.2-0.2,0.3-0.1
		c0.1,0,0.1,0.1,0.1,0.2c0,0.1,0,0.2-0.1,0.2c-0.1,0.1-0.2,0.1-0.3,0.1c-0.2,0-0.4,0-0.6-0.1c-0.2,0.2-0.6,0.4-0.9,0.4l0,0
		C14737.2,3037.9,14737.2,3037.8,14737.1,3037.7 M14737.7,3036.1c-0.1,0-0.1,0.1-0.1,0.2c0,0.1,0.1,0.3,0.2,0.4
		c0.1,0.2,0.3,0.3,0.4,0.4c0.1-0.3,0.1-0.6-0.2-0.8C14737.9,3036.1,14737.8,3036.1,14737.7,3036.1L14737.7,3036.1"/>
	<path id="Trazado_198" class="st18" d="M14750.4,3028.4c0-0.1,0-0.1,0-0.2c0-0.1,0-0.2-0.1-0.3c-0.3-1.1-1.3-1.9-2.4-2l0,0l0,0l0,0
		h-0.6h-0.1c-0.1,0-0.1,0-0.2,0c-0.7,0.1-1.4,0.6-1.8,1.2c-0.9,1.3-0.6,3,0.7,3.8l0,0c0.5,0.3,1.1,0.5,1.6,0.5
		c1.3,0,2.4-0.8,2.8-2.1c0-0.1,0.1-0.2,0.1-0.3v-0.1V3028.4L14750.4,3028.4z M14750.1,3028.7c0,0.7-0.3,1.3-0.7,1.7
		c-0.5,0.5-1.1,0.7-1.8,0.7l0,0c-0.7,0-1.3-0.3-1.8-0.7c-0.5-0.5-0.7-1.1-0.7-1.7c0-1.4,1.1-2.5,2.5-2.5l0,0c0.7,0,1.3,0.3,1.8,0.7
		C14749.8,3027.4,14750.1,3028,14750.1,3028.7"/>
	<path id="Trazado_199" class="st18" d="M14747.5,3026.6L14747.5,3026.6c-0.6,0-1.1,0.2-1.5,0.6c-0.8,0.8-0.8,2.1,0,2.9l0,0
		c0.4,0.4,1,0.6,1.5,0.6l0,0c0.6,0,1.1-0.2,1.5-0.6c0.8-0.8,0.8-2.1,0-2.9l0,0C14748.7,3026.8,14748.1,3026.6,14747.5,3026.6
		 M14747.5,3026.9L14747.5,3026.9c0.5,0,0.9,0.2,1.3,0.5c0.7,0.7,0.7,1.8,0,2.5l0,0c-0.3,0.3-0.8,0.5-1.3,0.5l0,0
		c-0.5,0-0.9-0.2-1.3-0.5c-0.7-0.7-0.7-1.8,0-2.5l0,0C14746.6,3027.1,14747,3026.9,14747.5,3026.9"/>
	<path id="Trazado_200" class="st18" d="M14747.2,3028.7c0.1,0,0.2,0.1,0.3,0.1s0.2,0.1,0.3,0.2c0.1,0,0.1,0.1,0.1,0.2
		c0,0.1,0,0.2-0.1,0.2s-0.2,0-0.4,0c-0.1,0-0.2-0.1-0.2-0.2c0-0.1,0-0.1-0.1-0.1c-0.1-0.1-0.2,0-0.2,0s0,0.1,0,0.2
		c0,0.2,0.2,0.4,0.4,0.5c0.1,0,0.1,0.1,0.1,0.1c0,0.1,0.1,0.2,0.2,0.2l0,0h0.1l0.1-0.1v-0.1l0,0h0.1c0.2-0.1,0.4-0.2,0.4-0.5
		c0-0.2-0.1-0.4-0.3-0.5c-0.1,0-0.1-0.1-0.2-0.1l0,0c0,0-0.1,0-0.1-0.1c-0.1,0-0.2-0.1-0.3-0.2c-0.1,0-0.1-0.1-0.1-0.2
		c0-0.1,0-0.1,0.1-0.2c0.1-0.1,0.2-0.1,0.4-0.1c0.1,0,0.2,0.1,0.2,0.2c0,0.1,0.1,0.2,0.2,0.2c0.1,0,0.2-0.1,0.2-0.2
		c0-0.2-0.2-0.5-0.4-0.5h-0.1l0,0l0,0c0-0.1,0-0.2-0.2-0.2l0,0c-0.2,0-0.2,0.1-0.2,0.2l0,0l0,0h-0.1c-0.3,0.1-0.4,0.3-0.4,0.6
		C14746.9,3028.4,14747,3028.6,14747.2,3028.7"/>
	<path id="Trazado_201" class="st17" d="M14756.4,3035.3h-0.7l-0.1-0.2c-0.4-0.9-1-1.7-1.8-2.3c-0.3-0.9-0.3-1.8,0-2.7
		c0-0.1,0-0.2-0.1-0.3s-0.2-0.1-0.3-0.1c-1.1,0.1-2.1,0.6-2.9,1.4c-0.1,0-0.3-0.1-0.4-0.1c-0.2,0.2-0.4,0.4-0.6,0.5
		c0.3,0.1,0.7,0.2,1,0.3c0.1,0,0.3,0,0.4-0.1c0.5-0.6,1.3-1.1,2.1-1.2c-0.2,0.9-0.2,1.9,0.2,2.7c0,0,0,0.1,0.1,0.1
		c0.7,0.6,1.3,1.3,1.7,2.1l0.2,0.4c0.1,0.1,0.2,0.2,0.3,0.2h0.9c0.3,0,0.5,0.2,0.5,0.5l0,0v2c0,0.3-0.2,0.5-0.5,0.5l0,0h-0.9
		c-0.1,0-0.2,0.1-0.3,0.2l-0.2,0.4c-0.3,0.7-0.8,1.4-1.4,1.9l-0.3,0.3c-0.1,0.1-0.1,0.2-0.1,0.3l0.6,2.1l-2.3,0.7l-0.4-1.4
		c0-0.1-0.2-0.2-0.3-0.2h-0.1l-0.6,0.2c-1.7,0.5-3.5,0.5-5.2,0l-0.6-0.2c-0.2,0-0.3,0.1-0.4,0.2l-0.4,1.3l-2.3-0.7l0.6-1.9
		c0-0.1,0-0.2-0.1-0.3l-0.3-0.3c-1.2-1-2-2.5-2-4.1c0-2.9,2.5-5.3,5.9-6c-0.2-0.2-0.4-0.3-0.5-0.5c-3.5,0.9-6,3.5-6,6.5
		c0,1.8,0.9,3.5,2.2,4.6l0.1,0.1l-0.5,1.8c0,0.1,0,0.3,0,0.4c0.1,0.1,0.2,0.2,0.3,0.3l2.5,0.7l0,0c0.1,0,0.1,0,0.2,0
		c0.3,0,0.5-0.2,0.6-0.4l0.3-1.1l0.3,0.1c1.8,0.5,3.7,0.4,5.5-0.1l0.3-0.1l0.4,1.2c0.1,0.3,0.4,0.5,0.7,0.4l2.5-0.7
		c0.1,0,0.3-0.1,0.3-0.3c0.1-0.1,0.1-0.3,0-0.4l-0.6-2l0.1-0.1c0.7-0.6,1.2-1.3,1.6-2.1l0.1-0.2h0.7c0.6,0,1.1-0.5,1.1-1.1v-2
		C14757.6,3035.8,14757.1,3035.3,14756.4,3035.3"/>
</g>
<path id="Trazado_1631" class="st17" d="M328.9,98.2c0-6.4-5.2-11.6-11.6-11.6l0,0l0,0c-6.4,0-11.6,5.2-11.7,11.6
	c0,1.6,0.3,3.1,0.9,4.5c1.2,2.8,3.4,5,6.2,6.2c1.4,0.6,3,0.9,4.5,0.9l0,0C323.7,109.9,328.9,104.6,328.9,98.2z M307,98.9h3.8
	c0.1,1.4,0.3,2.8,0.8,4.2h-3.4C307.5,101.8,307.1,100.4,307,98.9z M308.2,93.5h3.4c-0.5,1.3-0.8,2.7-0.8,4.1H307
	C307.1,96.1,307.5,94.7,308.2,93.5z M327.5,97.6h-3.7c-0.1-1.4-0.4-2.8-0.8-4.1h3.4C327,94.7,327.4,96.1,327.5,97.6L327.5,97.6z
	 M322.4,97.6H318v-4.1h3.5C322,94.8,322.3,96.2,322.4,97.6L322.4,97.6z M318,92.1v-3.4c1.1,1,2.1,2.1,2.8,3.4H318z M316.6,88.7v3.4
	h-2.8C314.5,90.8,315.5,89.7,316.6,88.7z M316.6,93.5v4.1h-4.4c0.1-1.4,0.4-2.8,0.9-4.1H316.6z M312.2,98.9h4.5v4.2h-3.5
	C312.5,101.8,312.2,100.4,312.2,98.9z M316.6,104.5v3.4c-1.1-1-2.1-2.1-2.8-3.4H316.6z M318,107.9v-3.4h2.8
	C320.1,105.7,319.1,106.9,318,107.9z M318,103.1v-4.2h4.5c-0.1,1.4-0.4,2.9-0.9,4.2H318z M323.8,98.9h3.7c-0.1,1.5-0.5,2.9-1.2,4.2
	H323C323.4,101.7,323.7,100.3,323.8,98.9L323.8,98.9z M325.5,92.1h-3.1c-0.7-1.4-1.7-2.7-2.8-3.8C321.9,88.8,324,90.2,325.5,92.1
	L325.5,92.1z M315,88.3c-1.2,1.1-2.1,2.4-2.8,3.8H309C310.5,90.2,312.7,88.8,315,88.3z M309.1,104.5h3.1c0.7,1.4,1.7,2.7,2.8,3.8
	C312.7,107.8,310.6,106.4,309.1,104.5z M319.6,108.3c1.2-1.1,2.1-2.4,2.8-3.8h3.1C324,106.4,321.9,107.7,319.6,108.3z"/>
<path id="Trazado_1622" class="st17" d="M343,90C343,90,342.9,90,343,90h-4.3c-2.1,0-3.8,1.7-3.8,3.8c0,2,1.5,3.7,3.5,3.8l1.3,5.2
	c0.2,0.7,0.8,1.2,1.5,1.2h0.9c0.8,0,1.5-0.7,1.5-1.5c0-0.1,0-0.2,0-0.4l-1.1-4.5h0.5c0,0,0,0,0.1,0c1.2,0,2.5,0.1,3.6,0.5
	c2.5,0.6,4.6,2.2,5.8,4.4c0.1,0.2,0.4,0.4,0.7,0.4c0.1,0,0.1,0,0.2,0c0.3-0.1,0.6-0.4,0.6-0.8v-5.9c1.2-0.1,2-1.1,2-2.3v-0.2
	c0-1.2-0.9-2.1-2-2.3v-5.9c0-0.4-0.4-0.8-0.8-0.8c-0.3,0-0.5,0.1-0.7,0.4c-1.3,2.2-3.4,3.8-5.8,4.4C345.5,89.9,344.2,90,343,90z
	 M342.5,102.9c-0.1,0.2-0.3,0.2-0.5,0.2h-0.9c-0.3,0-0.5-0.2-0.6-0.5l-1.2-5h2.2l0.3,1.3h-0.2c-0.3,0-0.5,0.2-0.5,0.5
	s0.2,0.5,0.5,0.5h0.4l0.2,0.9h-0.1c-0.3,0-0.5,0.2-0.5,0.5s0.2,0.5,0.5,0.5l0,0h0.4l0.1,0.6C342.6,102.5,342.6,102.7,342.5,102.9z
	 M341.8,96.8h-3.1c-1.6,0-2.9-1.3-2.9-2.9s1.3-2.9,2.9-2.9h3.8v3.9h-2.9c-0.3,0-0.5,0.2-0.5,0.5s0.2,0.5,0.5,0.5h2.8v1L341.8,96.8
	L341.8,96.8z M355.1,93.8V94c0,0.7-0.5,1.2-1.1,1.4v-2.9C354.6,92.5,355.1,93.1,355.1,93.8L355.1,93.8z M343.4,90.9
	c1.2,0,2.3-0.2,3.4-0.5c2.5-0.7,4.7-2.2,6.2-4.4v15.7c-1.4-2.2-3.6-3.8-6.2-4.4c-1.1-0.3-2.3-0.5-3.4-0.5
	C343.4,96.8,343.4,90.9,343.4,90.9z"/>
<path id="Trazado_1623" class="st17" d="M357.8,89.8c0.2-0.2,0.2-0.5,0-0.6c-0.2-0.2-0.5-0.2-0.6,0l0,0l-1.3,1.2
	c-0.2,0.2-0.2,0.5,0,0.6c0.2,0.2,0.5,0.2,0.6,0L357.8,89.8z"/>
<path id="Trazado_1624" class="st17" d="M357.5,98.6c0.3,0,0.5-0.2,0.5-0.5c0-0.1-0.1-0.3-0.2-0.3l-1.3-1.2c-0.2-0.2-0.5-0.2-0.6,0
	c-0.2,0.2-0.2,0.5,0,0.6l0,0l1.3,1.2C357.2,98.6,357.3,98.6,357.5,98.6z"/>
<path id="Trazado_1625" class="st17" d="M357.9,93.4h-1c-0.3,0-0.5,0.2-0.5,0.5s0.2,0.5,0.5,0.5h1c0.3,0,0.5-0.2,0.5-0.5
	C358.3,93.6,358.1,93.4,357.9,93.4L357.9,93.4z"/>
<path id="Trazado_1626" class="st17" d="M338.2,95.1C338.2,95.1,338.2,95,338.2,95.1c-0.1-0.2-0.2-0.2-0.2-0.2h-0.1
	c-0.1,0-0.1,0-0.2,0h-0.1h-0.1c-0.1,0-0.1,0.1-0.1,0.1v0.1v0.1v0.1v0.1v0.1v0.1c0,0,0,0,0.1,0.1l0.1,0.1h0.1c0.1,0,0.1,0,0.2,0h0.1
	h0.1c0,0,0,0,0.1-0.1l0.1-0.1v-0.1v-0.1C338.2,95.2,338.2,95.2,338.2,95.1L338.2,95.1z"/>
<g id="Grupo_2584" transform="translate(0 0)">
	<g>
		<g>
			<defs>
				<rect id="SVGID_00000061436204622720953770000000837008562203064226_" x="362" y="83.9" width="20.4" height="20.4"/>
			</defs>
			<clipPath id="SVGID_00000134954306019554568760000017490352538280882610_">
				<use xlink:href="#SVGID_00000061436204622720953770000000837008562203064226_"  style="overflow:visible;"/>
			</clipPath>
			<g id="Grupo_2583" style="clip-path:url(#SVGID_00000134954306019554568760000017490352538280882610_);">
				<path id="Trazado_1621" class="st17" d="M372.7,103.8c0,0.4-0.4,0.8-0.8,0.8h-9.1c-0.4,0-0.8-0.4-0.8-0.8V92.7
					c0-0.2,0.1-0.5,0.3-0.6l9.5-7.9c0.3-0.2,0.7-0.2,1,0l9.5,7.9c0.3,0.3,0.4,0.8,0.1,1.1c-0.3,0.3-0.8,0.4-1.1,0.1l-9-7.5l-8.7,7.3
					v9.9h8.3C372.4,103,372.7,103.3,372.7,103.8L372.7,103.8z M381.4,101.6c-1.1,1.2-2.4,2.2-3.9,2.9c-0.2,0.1-0.5,0.1-0.7,0
					c-1.5-0.7-2.8-1.7-3.9-2.9c-2.6-3.2-0.8-6.7,1.9-6.7c0.9,0,1.7,0.3,2.4,0.9c0.7-0.6,1.5-0.9,2.4-0.9
					C382.2,94.9,384,98.4,381.4,101.6L381.4,101.6z M379.4,96.5c-0.7,0-1.3,0.3-1.7,0.8c-0.2,0.4-0.7,0.5-1.1,0.2
					c-0.1-0.1-0.2-0.1-0.2-0.2c-0.4-0.5-1-0.8-1.7-0.8c-1.7,0-3.2,3.3,2.4,6.3C382.7,99.9,381.2,96.5,379.4,96.5L379.4,96.5z"/>
			</g>
		</g>
	</g>
</g>
<path id="Trazado_1630" class="st17" d="M406.6,105.3H401c-0.4,0-0.7-0.3-0.7-0.7v-5.7H397v5.7c0,0.4-0.3,0.7-0.7,0.7h-5.6
	c-0.4,0-0.7-0.3-0.7-0.7v-9.4h-1.6c-0.7,0-1.2-0.5-1.2-1.2c0-0.3,0.1-0.6,0.4-0.9l10.3-9.4c0.4-0.4,1.1-0.4,1.6,0l2.3,2.1v-0.4
	c0-0.4,0.3-0.7,0.7-0.7l0,0h4.7c0.4,0,0.7,0.3,0.7,0.7v5.9l1.9,1.8c0.5,0.4,0.5,1.2,0.1,1.7c-0.2,0.2-0.5,0.4-0.9,0.4h-1.6v9.4
	C407.3,105,407,105.3,406.6,105.3L406.6,105.3z M401.6,104h4.3v-9.4c0-0.4,0.3-0.7,0.7-0.7h1.9l-1.8-1.7c-0.1-0.1-0.2-0.3-0.2-0.5
	v-5.5h-3.3v1.2c0,0.4-0.3,0.7-0.7,0.7c-0.2,0-0.3-0.1-0.5-0.2l-3.4-3.1l-9.9,9h1.9c0.4,0,0.7,0.3,0.7,0.7v9.4h4.3v-5.7
	c0-0.4,0.3-0.7,0.7-0.7h4.7c0.4,0,0.7,0.3,0.7,0.7C401.6,98.2,401.6,104,401.6,104z"/>
<g id="Icon" transform="translate(-1709 -343)">
	<g id="Share_Button" transform="translate(1709 343)">
		<path id="Trazado_70" class="st0" d="M270.8,126.7c-0.6,0-1.3,0.2-1.7,0.7l-6.1-3.6c0.1-0.2,0.1-0.4,0.1-0.6s0-0.4-0.1-0.6
			l6.1-3.5c0.5,0.4,1.1,0.7,1.7,0.7c1.4,0,2.6-1.1,2.6-2.5v-0.1c0-1.4-1.2-2.6-2.6-2.6s-2.6,1.2-2.6,2.6c0,0.2,0,0.4,0.1,0.6
			l-6.1,3.5c-0.5-0.4-1.1-0.7-1.7-0.7c-1.4,0-2.6,1.1-2.6,2.6c0,1.4,1.1,2.6,2.6,2.6c0.6,0,1.3-0.2,1.7-0.7l6.1,3.6
			c-0.1,0.2-0.1,0.3-0.1,0.5c0,1.4,1.1,2.5,2.5,2.5s2.5-1.1,2.5-2.5C273.2,127.8,272.2,126.7,270.8,126.7L270.8,126.7z M270.8,116.3
			c0.5,0,0.9,0.4,0.8,0.9c0,0.5-0.4,0.9-0.9,0.8c-0.5,0-0.8-0.4-0.8-0.9C269.9,116.7,270.3,116.3,270.8,116.3L270.8,116.3z
			 M260.4,124c-0.4,0-0.8-0.3-0.9-0.8v-0.1c0-0.4,0.3-0.8,0.8-0.9h0.1c0.4,0,0.8,0.3,0.9,0.8v0.1C261.3,123.6,261,124,260.4,124
			C260.5,124,260.5,124,260.4,124z M270.8,130c-0.5,0-0.9-0.4-0.8-0.9s0.4-0.9,0.9-0.8c0.5,0,0.8,0.4,0.8,0.9
			C271.6,129.6,271.3,130,270.8,130L270.8,130z"/>
	</g>
</g>
<g>
	<path id="Trazado_178" class="st17" d="M13,43.5l-2.6-11h2l0.9,4.9c0.2,1.2,0.5,2.7,0.7,4l0,0c0.2-1.4,0.4-2.8,0.6-4l0.9-4.9h1.9
		l-2.6,11H13z"/>
	<path id="Trazado_179" class="st17" d="M25,37.9c0,4.1-1.5,5.8-3.5,5.8c-2.2,0-3.4-2.3-3.4-5.7c0-3.3,1.3-5.6,3.5-5.6
		C24,32.4,25,34.9,25,37.9 M20,38c0,2.4,0.5,4.1,1.6,4.1c1.2,0,1.5-2,1.5-4.2c0-2-0.3-4.1-1.5-4.1C20.4,33.9,20,35.7,20,38"/>
	<path id="Trazado_180" class="st17" d="M26.4,32.5h1.8V42h3v1.5h-4.8C26.4,43.5,26.4,32.5,26.4,32.5z"/>
	<path id="Trazado_181" class="st17" d="M33.9,32.5v7.3c0,1.8,0.6,2.4,1.3,2.4c0.8,0,1.3-0.6,1.3-2.4v-7.3h1.8v7
		c0,2.8-1.1,4.2-3.1,4.2c-2.1,0-3.1-1.4-3.1-4.1v-7h1.8V32.5z"/>
	<path id="Trazado_182" class="st17" d="M40.2,43.5v-11h1.7l1.9,4.7c0.4,1,1,2.4,1.3,3.5l0,0c-0.1-1.4-0.2-3.1-0.2-5.1v-3.1h1.6v11
		h-1.7l-1.9-4.7c-0.5-1.1-0.9-2.3-1.2-3.5l0,0c0.1,1.3,0.1,2.8,0.1,5.1v3.1H40.2z"/>
	<path id="Trazado_183" class="st17" d="M49.7,34.1h-2v-1.6h5.9v1.6h-2v9.4h-1.8L49.7,34.1z"/>
	<path id="Trazado_184" class="st17" d="M55.7,40.7l-0.6,2.9h-1.7l2.5-11H58l2.3,11h-1.7L58,40.7H55.7z M57.8,39.3l-0.5-2.5
		c-0.1-0.7-0.3-1.7-0.4-2.5l0,0c-0.1,0.8-0.3,1.8-0.4,2.5L56,39.3H57.8z"/>
	<path id="Trazado_185" class="st17" d="M61.7,32.7c0.7-0.1,1.4-0.2,2.2-0.2c1-0.1,2,0.2,2.8,0.8c1.2,1.3,1.1,3.3-0.1,4.5
		c-0.2,0.2-0.5,0.4-0.8,0.5l0,0c0.8,0.3,1.2,1,1.4,2.3c0.2,1,0.4,2,0.7,2.9H66c-0.3-0.9-0.5-1.8-0.6-2.7c-0.2-1.4-0.6-1.9-1.5-1.9
		h-0.4v4.6h-1.8V32.7z M63.5,37.6H64c1,0,1.8-0.8,1.8-1.8c0-0.1,0-0.1,0-0.2c0-1.1-0.4-1.8-1.6-1.8c-0.2,0-0.4,0-0.6,0.1L63.5,37.6z
		"/>
	<rect id="Rectángulo_40" x="69.1" y="32.5" class="st17" width="1.8" height="11"/>
	<path id="Trazado_186" class="st17" d="M79.3,37.9c0,4.1-1.5,5.8-3.5,5.8c-2.2,0-3.4-2.3-3.4-5.7c0-3.3,1.3-5.6,3.5-5.6
		C78.3,32.4,79.3,34.9,79.3,37.9 M74.3,38c0,2.4,0.5,4.1,1.6,4.1c1.2,0,1.5-2,1.5-4.2c0-2-0.3-4.1-1.5-4.1
		C74.7,33.9,74.3,35.7,74.3,38"/>
	<path id="Trazado_187" class="st18" d="M37.6,26l-0.9,3.8H36l2.7-11h0.7l2.7,11h-0.7l-1-3.8H37.6z M40.2,25.4l-0.7-3.1
		c-0.2-0.9-0.4-1.6-0.5-2.5l0,0c-0.1,0.9-0.3,1.7-0.5,2.5l-0.7,3.1H40.2z"/>
	<path id="Trazado_188" class="st18" d="M45,18.8v4.9h3.7v-4.9h0.7v11h-0.7v-5.5H45v5.5h-0.7v-11H45z"/>
	<path id="Trazado_189" class="st18" d="M57.7,24.3c0,4.1-1.4,5.6-3,5.6c-1.5,0-2.9-1.5-2.9-5.6s1.4-5.6,3.1-5.6
		C56.3,18.6,57.7,20.1,57.7,24.3 M52.5,24.3c0,2.1,0.4,5,2.2,5s2.2-2.9,2.2-5s-0.4-5-2.2-5S52.5,22.1,52.5,24.3"/>
	<path id="Trazado_190" class="st18" d="M60,18.9c0.5-0.2,1-0.2,1.5-0.2c1.4-0.2,2.8,0.8,3,2.2c0,0.2,0,0.4,0,0.6
		c0.1,1.3-0.7,2.4-1.9,2.9l0,0c0.9,0.2,1.3,1,1.6,2.6c0.1,0.9,0.3,1.8,0.6,2.7h-0.7c-0.3-0.9-0.5-1.8-0.6-2.8
		c-0.3-1.6-0.9-2.3-2.2-2.3h-0.6v5H60V18.9z M60.7,24.2h0.6c1.3,0,2.4-1,2.4-2.2c0-0.1,0-0.2,0-0.3c0-1.5-0.6-2.4-2.3-2.4
		c-0.3,0-0.5,0-0.8,0.1L60.7,24.2z"/>
	<path id="Trazado_191" class="st18" d="M66.9,18.9c0.5-0.2,1-0.2,1.5-0.2c1.4-0.2,2.8,0.8,3,2.2c0,0.2,0,0.4,0,0.6
		c0.1,1.3-0.7,2.4-1.9,2.9l0,0c0.9,0.2,1.3,1,1.6,2.6c0.1,0.9,0.3,1.8,0.6,2.7H71c-0.3-0.9-0.5-1.8-0.6-2.8
		c-0.3-1.6-0.9-2.3-2.2-2.3h-0.6v5h-0.7L66.9,18.9z M67.6,24.2h0.6c1.3,0,2.4-1,2.4-2.2c0-0.1,0-0.2,0-0.3c0-1.5-0.6-2.4-2.3-2.4
		c-0.3,0-0.5,0-0.8,0.1L67.6,24.2z"/>
	<path id="Trazado_192" class="st18" d="M79.3,24.3c0,4.1-1.4,5.6-3,5.6c-1.5,0-2.9-1.5-2.9-5.6s1.4-5.6,3.1-5.6
		C77.9,18.6,79.3,20.1,79.3,24.3 M74.1,24.3c0,2.1,0.4,5,2.2,5s2.2-2.9,2.2-5s-0.4-5-2.2-5S74.1,22.1,74.1,24.3"/>
	<rect id="Rectángulo_41" x="10.5" y="44.9" class="st17" width="68.8" height="0.7"/>
	<path id="Trazado_193_00000090972962296331758550000015172579669911485882_" class="st17" d="M28.1,18.2c0,0.3,0.3,0.6,0.6,0.6
		c0.3,0,0.6-0.3,0.6-0.6c0-0.3-0.3-0.6-0.6-0.6l0,0C28.3,17.6,28.1,17.9,28.1,18.2L28.1,18.2"/>
	<path id="Trazado_194" class="st17" d="M32,16.7c0.2,0.2,0.3,0.5,0.5,0.7h46.8v-0.7H32z"/>
	<path id="Trazado_195_00000026882695510953156510000004874472572820769706_" class="st17" d="M12.5,16.7h-2v0.7h1.6
		C12.2,17.2,12.4,16.9,12.5,16.7"/>
	<path id="Trazado_196_00000057864669350425815010000009996740431124077957_" class="st17" d="M25.1,15.4l0.2-0.7c-2-0.5-4-0.5-6,0
		l0.2,0.7C21.3,14.9,23.2,15,25.1,15.4"/>
	<path id="Trazado_197_00000036943093606510753230000010596749416304319407_" class="st17" d="M9.9,21.4c0-0.1,0.1-0.2,0.3-0.2l0,0
		c0.2,0,0.4-0.1,0.6-0.2c-0.2-0.1-0.4-0.3-0.6-0.5C10,20.3,9.9,20,9.9,19.7s0.2-0.6,0.5-0.7s0.6,0.1,0.8,0.3c0.4,0.4,0.5,1,0.3,1.5
		c0.1,0,0.2,0,0.4,0l0,0c0.1-0.1,0.2-0.2,0.3-0.1c0.1,0,0.2,0.1,0.2,0.2s0,0.2-0.1,0.3c-0.1,0.1-0.3,0.2-0.4,0.2
		c-0.2,0-0.4,0-0.7-0.1c-0.3,0.3-0.7,0.5-1.1,0.5l0,0C10.1,21.7,9.9,21.6,9.9,21.4 M10.5,19.5c-0.1,0-0.2,0.1-0.2,0.3
		c0,0.2,0.1,0.3,0.2,0.4c0.1,0.2,0.3,0.3,0.5,0.4c0.1-0.3,0.1-0.7-0.2-1C10.8,19.5,10.7,19.5,10.5,19.5
		C10.6,19.5,10.6,19.5,10.5,19.5"/>
	<path id="Trazado_198_00000147207610868070064210000010670967440278945428_" class="st18" d="M25.7,10.4c0-0.1,0-0.1,0-0.2
		c0-0.1-0.1-0.3-0.1-0.4c-0.4-1.3-1.5-2.2-2.9-2.4l0,0l0,0l0,0H22h-0.1c-0.1,0-0.2,0-0.2,0c-0.9,0.2-1.6,0.7-2.1,1.4
		c-1,1.5-0.7,3.5,0.8,4.6l0,0c0.6,0.4,1.2,0.6,1.9,0.6c1.5,0,2.9-1,3.3-2.5c0-0.1,0.1-0.2,0.1-0.4c0-0.1,0-0.1,0-0.2L25.7,10.4
		L25.7,10.4z M25.3,10.7c0,0.8-0.3,1.5-0.9,2.1c-0.6,0.6-1.3,0.9-2.1,0.9l0,0c-0.8,0-1.6-0.3-2.1-0.9c-0.6-0.5-0.9-1.3-0.9-2.1
		c0-1.6,1.4-2.9,3-2.9l0,0c0.8,0,1.6,0.3,2.1,0.9C25,9.2,25.3,9.9,25.3,10.7"/>
	<path id="Trazado_199_00000152952135718189005810000017404550110747048087_" class="st18" d="M22.3,8.2L22.3,8.2
		c-0.7,0-1.3,0.3-1.8,0.7c-1,1-1,2.5-0.1,3.5c0,0,0,0,0.1,0.1c0.5,0.5,1.1,0.7,1.8,0.7l0,0c0.7,0,1.3-0.3,1.8-0.7c1-1,1-2.5,0.1-3.5
		c0,0,0,0-0.1-0.1C23.6,8.5,23,8.2,22.3,8.2 M22.3,8.6L22.3,8.6c0.6,0,1.1,0.2,1.5,0.6c0.8,0.8,0.8,2.1,0,2.9c0,0,0,0-0.1,0.1
		c-0.4,0.4-1,0.6-1.5,0.6l0,0c-0.6,0-1.1-0.2-1.5-0.6c-0.8-0.8-0.8-2.1,0-2.9l0,0C21.1,8.8,21.7,8.6,22.3,8.6"/>
	<path id="Trazado_200_00000109015495606504443370000015070309023045143454_" class="st18" d="M21.9,10.7c0.1,0.1,0.2,0.1,0.3,0.2
		s0.2,0.1,0.4,0.2c0.1,0,0.1,0.1,0.1,0.2c0,0.1-0.1,0.2-0.2,0.2s-0.3,0-0.4,0s-0.2-0.1-0.2-0.2c0-0.1,0-0.1-0.1-0.2
		c-0.1-0.1-0.2-0.1-0.3,0c0,0.1-0.1,0.1,0,0.2c0,0.3,0.2,0.5,0.5,0.6c0.1,0,0.1,0.1,0.1,0.2s0.1,0.2,0.2,0.2l0,0h0.1
		c0,0,0.1-0.1,0.1-0.2V12l0,0h0.1c0.3-0.1,0.5-0.3,0.5-0.6s-0.1-0.5-0.3-0.7c-0.1,0-0.1-0.1-0.2-0.1l0,0c-0.1,0-0.1-0.1-0.2-0.1
		c-0.1-0.1-0.2-0.1-0.3-0.2c-0.1,0-0.1-0.1-0.1-0.2c0-0.1,0-0.2,0.1-0.2c0.1-0.1,0.3-0.1,0.4-0.1s0.2,0.2,0.3,0.3
		c0,0.1,0.1,0.2,0.2,0.2s0.2-0.1,0.2-0.2l0,0c0-0.3-0.2-0.5-0.5-0.6h-0.1l0,0l0,0c0-0.1,0-0.3-0.2-0.3l0,0c-0.2,0-0.2,0.2-0.2,0.3
		l0,0l0,0h-0.1c-0.3,0.1-0.5,0.4-0.5,0.7C21.5,10.4,21.6,10.6,21.9,10.7"/>
	<path id="Trazado_201_00000152226390439033145900000000862722184980926648_" class="st17" d="M32.8,18.5H32l-0.1-0.2
		c-0.5-1.1-1.2-2-2.1-2.8c-0.4-1-0.4-2.2,0-3.2c0-0.1,0-0.3-0.1-0.4c-0.1-0.1-0.2-0.1-0.4-0.1c-1.3,0.1-2.5,0.7-3.4,1.6
		c-0.2,0-0.3-0.1-0.5-0.1c-0.2,0.2-0.4,0.4-0.7,0.6c0.4,0.1,0.8,0.2,1.1,0.3c0.2,0.1,0.4,0,0.5-0.2c0.6-0.7,1.5-1.2,2.5-1.4
		c-0.3,1.1-0.2,2.2,0.2,3.2l0.1,0.1c0.8,0.7,1.5,1.6,2,2.5l0.2,0.4c0.1,0.1,0.2,0.2,0.4,0.2h1.1c0.3,0,0.6,0.2,0.6,0.6V22
		c0,0.3-0.3,0.6-0.6,0.6h-1.1c-0.2,0-0.3,0.1-0.4,0.2l-0.2,0.4c-0.4,0.9-1,1.6-1.7,2.3l-0.3,0.3C29,25.9,29,26,29,26.2l0.8,2.5
		L27,29.5L26.6,28c-0.1-0.2-0.2-0.3-0.4-0.3h-0.1L25.4,28c-2,0.5-4.2,0.6-6.2,0.1l-0.7-0.2c-0.2-0.1-0.4,0.1-0.5,0.3l-0.5,1.6
		L14.7,29l0.7-2.3c0-0.1,0-0.3-0.1-0.4L15,25.9c-1.5-1.2-2.4-3-2.4-4.9c0-3.4,3-6.3,7-7.1c-0.2-0.2-0.5-0.4-0.6-0.6
		c-4.2,1.1-7.2,4.1-7.2,7.7c0,2.1,1,4.1,2.7,5.4l0.2,0.2L14,28.8c-0.1,0.2,0,0.4,0.1,0.5c0.1,0.2,0.2,0.3,0.4,0.3l2.9,0.8l0,0
		c0.1,0,0.1,0,0.2,0c0.3,0,0.6-0.2,0.7-0.5l0.4-1.3l0.3,0.1c2.2,0.5,4.4,0.5,6.6-0.1l0.4-0.1l0.4,1.4c0.1,0.4,0.5,0.5,0.9,0.4
		l2.9-0.8c0.2,0,0.3-0.2,0.4-0.3c0.1-0.2,0.1-0.3,0.1-0.5L30,26.4l0.2-0.2c0.8-0.7,1.4-1.6,1.9-2.5l0.1-0.2H33
		c0.7,0,1.3-0.6,1.4-1.3v-2.4C34.2,19.1,33.6,18.5,32.8,18.5"/>
</g>
<path id="Trazado_68" class="st17" d="M441.9,216c-0.5,0.2-0.9,0.3-1.4,0.2c-2.2,0-3.5-1.8-3.5-4.7c0-3.6,2-4.9,3.7-4.9
	c0.4,0,0.9,0.1,1.3,0.2l-0.3,1.3c-0.3-0.1-0.6-0.2-0.9-0.2c-1,0-2.1,0.9-2.1,3.5c0,2.5,1,3.4,2.1,3.4c0.3,0,0.6-0.1,0.9-0.2
	L441.9,216z"/>
<path id="Trazado_69" class="st17" d="M446.8,211.9h-2.3v3h2.6v1.3H443v-9.4h4v1.3h-2.4v2.6h2.2V211.9z"/>
<path id="Trazado_70_00000058551319595584719990000003341875638195552407_" class="st17" d="M448.1,214.6c0.5,0.2,1,0.4,1.5,0.4
	c0.7,0.1,1.4-0.4,1.4-1.1c0-0.1,0-0.1,0-0.2c0-0.8-0.5-1.2-1.3-1.7c-1-0.5-1.7-1.5-1.8-2.6c0-1.4,1.1-2.6,2.5-2.6c0.1,0,0.2,0,0.3,0
	c0.5,0,1,0.1,1.4,0.3l-0.3,1.3c-0.4-0.2-0.8-0.3-1.2-0.3c-0.6-0.1-1.2,0.4-1.3,1v0.1c0,0.7,0.4,1.1,1.4,1.7c1,0.5,1.7,1.6,1.7,2.7
	c0,1.5-1.2,2.7-2.7,2.8c-0.1,0-0.2,0-0.3,0c-0.6,0-1.2-0.1-1.8-0.4L448.1,214.6z"/>
<path id="Trazado_71" class="st17" d="M455.2,213.7l-0.5,2.5h-1.5l2.2-9.4h1.8l2,9.4h-1.5l-0.5-2.5H455.2z M456.9,212.5l-0.4-2.1
	c-0.1-0.6-0.2-1.5-0.4-2.1l0,0c-0.1,0.7-0.2,1.5-0.4,2.1l-0.4,2.2h1.6V212.5z"/>
<path id="Trazado_72" class="st17" d="M460.2,216.2v-9.4h1.4l1.6,4c0.3,0.9,0.8,2.1,1.1,3l0,0c-0.1-1.2-0.2-2.7-0.2-4.3v-2.7h1.3
	v9.4H464l-1.6-4c-0.4-1-0.7-2-1-3l0,0c0.1,1.1,0.1,2.4,0.1,4.4v2.6H460.2z"/>
<path id="Trazado_73" class="st17" d="M468.4,208.1h-1.7v-1.4h5v1.4H470v8h-1.5v-8H468.4z"/>
<path id="Trazado_74" class="st17" d="M475.5,204.7l-1.8,1.5h-1.1l1.3-1.5H475.5z M474.2,216.2h-1.5v-9.4h1.5V216.2z"/>
<path id="Trazado_75" class="st17" d="M477.3,213.7l-0.5,2.5h-1.5l2.2-9.4h1.8l2,9.4h-1.5l-0.5-2.5H477.3z M479,212.5l-0.4-2.1
	c-0.1-0.6-0.2-1.5-0.4-2.1l0,0c-0.1,0.7-0.2,1.5-0.4,2.1l-0.4,2.2h1.6V212.5z"/>
<path id="Trazado_76" class="st17" d="M482.1,214.6c0.5,0.2,1,0.4,1.5,0.4c0.7,0.1,1.4-0.4,1.5-1.1c0-0.1,0-0.1,0-0.2
	c0-0.8-0.5-1.2-1.3-1.7c-1-0.5-1.7-1.5-1.8-2.6c0-1.4,1.1-2.6,2.5-2.6c0.1,0,0.2,0,0.3,0c0.5,0,1,0.1,1.4,0.3l-0.3,1.3
	c-0.4-0.2-0.8-0.3-1.2-0.3c-0.6-0.1-1.2,0.4-1.3,1v0.1c0,0.7,0.4,1.1,1.4,1.7c1,0.5,1.7,1.6,1.7,2.7c0,1.5-1.2,2.7-2.7,2.8
	c-0.1,0-0.2,0-0.3,0c-0.6,0-1.2-0.1-1.7-0.4L482.1,214.6z"/>
<path id="Trazado_77" class="st17" d="M435.4,217.4c-0.4,0.2-0.8,0.4-1.2,0.6l0,0h52.4v-0.6H435.4z"/>
<path id="Trazado_78" class="st17" d="M472.8,204.9h-36.5c0,0,0,0,0,0.1v0.2c0.1,0.1,0.1,0.2,0.2,0.3h35.8L472.8,204.9z"/>
<path id="Trazado_79" class="st17" d="M476.2,204.9l-0.7,0.6h11.1v-0.6H476.2z"/>
<path id="Trazado_80_00000172439862353429986740000006377718537868686517_" class="st17" d="M428.1,209l-1-0.2c0,0,0,0,0-0.1v-1.4
	c0-1.9-1.8-3.4-4-3.4c-2.2,0-4,1.5-4,3.4v1.5l-1,0.2c-0.5,0.1-1,0.6-1,1.1v6.9c0,0.6,0.5,1.1,1.2,1.1h9.6c0.6,0,1.1-0.5,1.2-1.1
	v-6.9C429.1,209.5,428.7,209.1,428.1,209 M425.2,209l2.9,0.6c0.3,0,0.4,0.3,0.5,0.5v6.9c0,0.3-0.2,0.5-0.5,0.5h-9.6
	c-0.3,0-0.5-0.2-0.5-0.5v-6.9c0-0.3,0.2-0.5,0.5-0.5l2.9-0.6C422.5,208.8,423.8,208.8,425.2,209 M426.5,208.7l-1-0.2v-1.1
	c-0.3-1.3-1.6-2.2-2.9-1.9c-1,0.2-1.7,1-1.9,1.9v1.1l-1,0.2v-1.4c0-1.5,1.5-2.8,3.4-2.8s3.4,1.2,3.4,2.8V208.7z M421.3,207.3
	c0.3-1,1.3-1.6,2.3-1.3c0.6,0.2,1.1,0.7,1.3,1.3v1c-1.2-0.2-2.4-0.2-3.6,0V207.3z"/>
<path id="Trazado_81_00000165927942015548742410000001480276882520947893_" class="st18" d="M422.1,213.8v1.3c0,0.2,0.2,0.4,0.4,0.4
	h1.3c0.2,0,0.4-0.2,0.4-0.4v-1.3c0.5-0.3,0.7-0.9,0.7-1.4s-0.2-0.9-0.5-1.3c-0.7-0.7-1.9-0.7-2.6,0.1c-0.3,0.4-0.5,0.8-0.5,1.3
	C421.4,213,421.6,213.5,422.1,213.8 M424,211.5c0.2,0.2,0.4,0.5,0.4,0.8c0,0.4-0.2,0.8-0.6,1c-0.1,0.1-0.1,0.1-0.1,0.3v1.3h-0.9
	v-1.3c0-0.1-0.1-0.2-0.2-0.3c-0.3-0.2-0.6-0.5-0.6-0.9c0-0.3,0.1-0.6,0.3-0.9c0.2-0.2,0.5-0.4,0.8-0.4
	C423.4,211.2,423.7,211.3,424,211.5"/>
<path id="Trazado_82_00000107576033162032171490000012487016477753719186_" class="st17" d="M435.9,205.9c0-0.5-0.3-0.9-0.7-1.2
	c0.4-0.3,0.7-0.7,0.7-1.2c0-1.5-3-2.7-7-2.7s-7,1.1-7,2.7v0.1c0.2,0,0.4-0.1,0.6-0.1l0,0c0-1,2.6-2.1,6.4-2.1c3.8,0,6.4,1.1,6.4,2.1
	s-2.6,2.1-6.4,2.1c-0.6,0-1.2,0-1.8-0.1c0.1,0.2,0.2,0.4,0.3,0.6c0.5,0,1,0.1,1.5,0.1c2,0.1,4-0.3,5.8-1.1c0.3,0.2,0.5,0.5,0.6,0.8
	c0,0.4-0.4,0.7-0.8,0.9c-1.8,0.8-3.7,1.2-5.7,1.1c-0.4,0-0.9,0-1.3,0v0.5l0.6,0.1h0.1c0.2,0,0.4,0,0.6,0c2,0.1,4-0.3,5.8-1.1
	c0.3,0.2,0.6,0.5,0.6,0.8c0,0.4-0.4,0.7-0.8,0.9l0,0l0,0c-1.6,0.8-3.3,1.1-5,1.1v0.6c1.8,0,3.6-0.4,5.2-1.1c0.3,0.2,0.6,0.5,0.6,0.8
	c0,0.4-0.4,0.7-0.8,1c-1.6,0.8-3.3,1.1-5,1.1v0.6c1.8,0,3.5-0.4,5.2-1.1c0.3,0.2,0.6,0.5,0.6,0.9c0,0.9-2.4,2-5.8,2.1v0.6
	c1.8,0,3.6-0.4,5.2-1.1c0.3,0.2,0.5,0.5,0.6,0.8c0,0.9-2.4,2-5.9,2.1c-0.1,0.2-0.2,0.4-0.4,0.6c3.9,0,6.9-1.2,6.9-2.7
	c0-0.5-0.3-0.9-0.7-1.2c0.4-0.3,0.7-0.7,0.7-1.2c-0.7-0.4-0.9-1.2-0.5-1.9c0.1-0.2,0.3-0.4,0.5-0.5c-0.7-0.4-0.9-1.2-0.5-1.9
	c0.1-0.2,0.3-0.4,0.5-0.5c-0.7-0.4-0.9-1.2-0.5-1.9C435.6,206.2,435.7,206,435.9,205.9"/>
<path id="Trazado_163_00000111168791771414369670000016848884554611988398_" class="st17" d="M428.1,209l-1-0.2c0,0,0,0,0-0.1v-1.4
	c0-1.9-1.8-3.4-4-3.4c-2.2,0-4,1.5-4,3.4v1.5l-1,0.2c-0.5,0.1-1,0.6-1,1.1v6.9c0,0.6,0.5,1.1,1.2,1.1h9.6c0.6,0,1.1-0.5,1.2-1.1
	v-6.9C429.1,209.5,428.7,209.1,428.1,209 M425.2,209l2.9,0.6c0.3,0,0.4,0.3,0.5,0.5v6.9c0,0.3-0.2,0.5-0.5,0.5h-9.6
	c-0.3,0-0.5-0.2-0.5-0.5v-6.9c0-0.3,0.2-0.5,0.5-0.5l2.9-0.6C422.5,208.8,423.8,208.8,425.2,209 M426.5,208.7l-1-0.2v-1.1
	c-0.3-1.3-1.6-2.2-2.9-1.9c-1,0.2-1.7,1-1.9,1.9v1.1l-1,0.2v-1.4c0-1.5,1.5-2.8,3.4-2.8s3.4,1.2,3.4,2.8V208.7z M421.3,207.3
	c0.3-1,1.3-1.6,2.3-1.3c0.6,0.2,1.1,0.7,1.3,1.3v1c-1.2-0.2-2.4-0.2-3.6,0V207.3z"/>
<path id="Trazado_164_00000023991913569062479730000010662693281810916019_" class="st18" d="M422.1,213.8v1.3
	c0,0.2,0.2,0.4,0.4,0.4h1.3c0.2,0,0.4-0.2,0.4-0.4v-1.3c0.5-0.3,0.7-0.9,0.7-1.4s-0.2-0.9-0.5-1.3c-0.7-0.7-1.9-0.7-2.6,0.1
	c-0.3,0.4-0.5,0.8-0.5,1.3C421.4,213,421.6,213.5,422.1,213.8 M424,211.5c0.2,0.2,0.4,0.5,0.4,0.8c0,0.4-0.2,0.8-0.6,1
	c-0.1,0.1-0.1,0.1-0.1,0.3v1.3h-0.9v-1.3c0-0.1-0.1-0.2-0.2-0.3c-0.3-0.2-0.6-0.5-0.6-0.9c0-0.3,0.1-0.6,0.3-0.9
	c0.2-0.2,0.5-0.4,0.8-0.4C423.4,211.2,423.7,211.3,424,211.5"/>
<g id="Grupo_2434" transform="translate(-7688.895 383.554)">
	<g id="Grupo_2433" transform="translate(7688.895 -383.554)">
		<g id="Grupo_18">
			<path id="Trazado_23" class="st17" d="M419.7,269.5v4.2h2.5v-4.2h1.7v10.2h-1.7v-4.5h-2.5v4.5H418v-10.2H419.7z"/>
			<rect id="Rectángulo_8" x="425.7" y="269.5" class="st17" width="1.7" height="10.2"/>
			<path id="Trazado_24" class="st17" d="M429.2,269.6c0.6-0.1,1.3-0.2,2-0.2c0.9-0.1,1.9,0.2,2.6,0.8c0.6,0.6,0.9,1.4,0.8,2.2
				c0,0.8-0.2,1.7-0.8,2.3c-0.7,0.7-1.6,1.1-2.5,1h-0.5v4h-1.6V269.6z M430.9,274.4c0.1,0,0.3,0,0.4,0c1.1,0,1.7-0.7,1.7-1.9
				c0-1-0.4-1.8-1.5-1.8c-0.2,0-0.4,0-0.6,0.1V274.4z"/>
			<path id="Trazado_25" class="st17" d="M441.8,274.4c0,3.8-1.4,5.4-3.2,5.4c-2.1,0-3.1-2.2-3.1-5.2c0-3.1,1.2-5.2,3.3-5.2
				C440.9,269.4,441.8,271.7,441.8,274.4 M437.2,274.6c0,2.2,0.4,3.8,1.5,3.8c1.1,0,1.4-1.8,1.4-3.9c0-1.8-0.3-3.8-1.4-3.8
				C437.6,270.8,437.2,272.4,437.2,274.6"/>
			<path id="Trazado_26" class="st17" d="M444.1,271h-1.9v-1.5h5.4v1.5h-1.8v8.7h-1.7V271z"/>
			<path id="Trazado_27" class="st17" d="M452.9,275h-2.5v3.2h2.8v1.4h-4.4v-10.2h4.3v1.4h-2.6v2.8h2.5L452.9,275z"/>
			<path id="Trazado_28" class="st17" d="M459.5,279.5c-0.5,0.2-1,0.3-1.5,0.3c-2.4,0-3.8-1.9-3.8-5.1c0-3.9,2.1-5.3,4-5.3
				c0.5,0,0.9,0.1,1.4,0.3l-0.3,1.4c-0.3-0.1-0.7-0.2-1-0.2c-1.1,0-2.3,1-2.3,3.8c0,2.7,1.1,3.7,2.3,3.7c0.4,0,0.7-0.1,1-0.2
				L459.5,279.5z"/>
			<path id="Trazado_29" class="st17" d="M462.3,277l-0.6,2.7h-1.6l2.3-10.2h1.9l2.2,10.2h-1.6l-0.6-2.7H462.3z M464.2,275.8
				l-0.4-2.3c-0.1-0.7-0.3-1.6-0.4-2.3l0,0c-0.1,0.7-0.3,1.7-0.4,2.3l-0.5,2.3H464.2z"/>
			<path id="Trazado_30" class="st17" d="M467.8,269.6c0.7-0.1,1.3-0.2,2-0.2c0.9-0.1,1.9,0.2,2.6,0.7c1.1,1.2,1,3-0.1,4.1
				c-0.2,0.2-0.5,0.4-0.7,0.5l0,0c0.7,0.3,1.1,0.9,1.3,2.1c0.1,0.9,0.4,1.8,0.7,2.7h-1.8c-0.3-0.8-0.4-1.6-0.5-2.5
				c-0.2-1.3-0.6-1.8-1.4-1.8h-0.4v4.2h-1.7V269.6z M469.4,274.2h0.4c0.9,0,1.6-0.7,1.6-1.6c0-0.1,0-0.1,0-0.2c0-1-0.4-1.7-1.5-1.7
				c-0.2,0-0.4,0-0.6,0.1L469.4,274.2z"/>
			<rect id="Rectángulo_9" x="474.7" y="269.5" class="st17" width="1.7" height="10.2"/>
			<path id="Trazado_31" class="st17" d="M484,274.4c0,3.8-1.4,5.4-3.2,5.4c-2.1,0-3.1-2.2-3.1-5.2c0-3.1,1.2-5.2,3.3-5.2
				C483.2,269.4,484,271.7,484,274.4 M479.4,274.6c0,2.2,0.4,3.8,1.5,3.8s1.4-1.8,1.4-3.9c0-1.8-0.3-3.8-1.4-3.8
				C479.8,270.8,479.4,272.4,479.4,274.6"/>
			<path id="Trazado_32" class="st18" d="M450,266.8c-0.5,0.2-1,0.3-1.5,0.3c-1.6,0-3.2-1.3-3.2-5.1c0-4.1,2-5.3,3.4-5.3
				c0.4,0,0.8,0.1,1.2,0.2l-0.2,0.6c-0.3-0.2-0.7-0.2-1.1-0.2c-1.1,0-2.6,1.1-2.6,4.6c0,3.6,1.3,4.6,2.6,4.6c0.4,0,0.8-0.1,1.2-0.3
				L450,266.8z"/>
			<path id="Trazado_33" class="st18" d="M451.9,256.9c0.5-0.1,0.9-0.2,1.4-0.2c1.3-0.2,2.6,0.7,2.8,2.1c0,0.2,0,0.4,0,0.5
				c0.1,1.2-0.6,2.3-1.7,2.7l0,0c0.8,0.2,1.2,1,1.5,2.5c0.1,0.8,0.3,1.7,0.6,2.5h-0.7c-0.3-0.8-0.5-1.7-0.6-2.6
				c-0.3-1.5-0.8-2.1-2-2.1h-0.6v4.7h-0.7V256.9z M452.6,261.8h0.6c1.2,0,2.2-0.9,2.2-2.1c0-0.1,0-0.2,0-0.2c0-1.4-0.6-2.2-2.1-2.2
				c-0.2,0-0.5,0-0.7,0.1V261.8z"/>
			<path id="Trazado_34" class="st18" d="M461.7,261.9h-2.8v4.5h3.2v0.6h-3.8v-10.2h3.6v0.6h-3v4h2.8V261.9z M462.3,254.6l-2,1.6
				h-0.6l1.6-1.6H462.3z"/>
			<path id="Trazado_35" class="st18" d="M464,256.9c0.4-0.1,0.9-0.2,1.3-0.2c0.8,0,1.6,0.2,2.2,0.7c0.8,0.6,1.4,1.9,1.4,4.1
				c0,2.5-0.6,3.6-1.1,4.3c-0.7,0.8-1.7,1.2-2.7,1.2c-0.4,0-0.8,0-1.1-0.1C464,266.9,464,256.9,464,256.9z M464.7,266.4
				c0.2,0,0.3,0,0.5,0c1.5,0,3.1-0.9,3.1-4.8c0-2.9-1-4.4-2.9-4.4c-0.2,0-0.4,0-0.7,0.1C464.7,257.3,464.7,266.4,464.7,266.4z"/>
			<rect id="Rectángulo_10" x="471.1" y="256.8" class="st18" width="0.7" height="10.2"/>
			<path id="Trazado_36" class="st18" d="M475.7,257.3h-2v-0.6h4.6v0.6h-2v9.6h-0.7L475.7,257.3z"/>
			<path id="Trazado_37" class="st18" d="M484.5,261.9c0,3.8-1.3,5.2-2.8,5.2c-1.4,0-2.7-1.4-2.7-5.2c0-3.8,1.3-5.2,2.8-5.2
				C483.3,256.6,484.5,258,484.5,261.9 M479.8,261.9c0,2,0.4,4.6,2.1,4.6c1.7,0,2-2.7,2-4.6c0-1.9-0.4-4.6-2-4.6
				S479.8,259.9,479.8,261.9"/>
			<path id="Trazado_38" class="st18" d="M427.4,258.4c0,1.4,0.6,2.7,1.7,3.5c-2.1,1.2-2.6,3.5-2.9,5.3c0,0.4,0.2,0.7,0.6,0.8l0,0
				h0.1c0.4,0,0.7-0.3,0.7-0.6c0.3-2.9,1.3-4.3,3.3-4.7c0.4-0.1,0.6-0.4,0.5-0.8c-0.1-0.3-0.2-0.5-0.5-0.5c-1.3-0.4-2.2-1.6-2.2-2.9
				c0.1-1.7,1.5-3.1,3.2-3c1.7,0.1,3,1.4,3,3c0,1.4-0.9,2.6-2.2,2.9c-0.4,0.1-0.6,0.5-0.5,0.8c0.1,0.2,0.3,0.4,0.5,0.5
				c2,0.4,3,1.9,3.3,4.7c0,0.4,0.4,0.7,0.8,0.6l0,0c0.4,0,0.7-0.4,0.6-0.8l0,0c-0.2-1.8-0.7-4.2-2.9-5.3c1.1-0.8,1.7-2.1,1.7-3.5
				c-0.1-2.5-2.2-4.5-4.7-4.4C429.4,254.1,427.5,256,427.4,258.4"/>
			<path id="Trazado_39" class="st18" d="M435.7,253.8c0.6-0.6,1.4-1,2.3-1c1.7,0,3.1,1.3,3.1,3.1c0,1.4-0.9,2.6-2.2,2.9
				c-0.4,0.1-0.6,0.5-0.5,0.8c0.1,0.2,0.3,0.4,0.5,0.5c2,0.4,3,1.9,3.3,4.7c0,0.4,0.3,0.6,0.7,0.6h0.1c0.4,0,0.7-0.4,0.6-0.8l0,0
				c-0.2-1.8-0.7-4.2-2.9-5.3c1.1-0.8,1.7-2.1,1.7-3.5c0-2.5-2.1-4.5-4.6-4.4c-1.3,0-2.5,0.5-3.4,1.4c-0.3,0.3-0.2,0.7,0,1l0,0
				C434.9,254.1,435.4,254.1,435.7,253.8"/>
			<path id="Trazado_40" class="st18" d="M421,265.5c0.4,0,0.7-0.3,0.7-0.6c0.3-2.9,1.3-4.3,3.3-4.7c0.4-0.1,0.6-0.4,0.5-0.8
				c-0.1-0.3-0.2-0.5-0.5-0.5c-1.3-0.4-2.2-1.6-2.2-2.9c0-1.7,1.4-3.1,3.1-3.1c0.9,0,1.7,0.4,2.3,1c0.3,0.3,0.7,0.3,1,0
				c0.3-0.2,0.3-0.7,0.1-1l0,0c-0.9-0.9-2.1-1.4-3.4-1.4c-2.5,0-4.5,2-4.6,4.4c0,1.4,0.6,2.7,1.7,3.5c-2.1,1.2-2.6,3.5-2.9,5.3
				C420.2,265.1,420.5,265.4,421,265.5C420.9,265.5,420.9,265.5,421,265.5C420.9,265.5,420.9,265.5,421,265.5"/>
			<path id="Trazado_41" class="st17" d="M445.6,252l-4.2-2.3v-5.8c0-0.3-0.2-0.5-0.5-0.5l0,0h-3.1c-0.3,0-0.5,0.2-0.5,0.5l0,0v3.5
				l-5.2-2.9c-0.1-0.1-0.3-0.1-0.5,0l-13.4,7.4c-0.2,0.1-0.3,0.4-0.2,0.6l0,0c0.1,0.1,0.2,0.2,0.4,0.2c0.1,0,0.2,0,0.2-0.1l13.2-7.3
				l5.6,3.1l0,0c0.1,0,0.1,0,0.2,0l0,0c0,0,0,0,0.1,0h0.1h0.1c0,0,0,0,0.1,0c0,0,0,0,0.1-0.1l0,0l0,0v-0.1v-0.1l0,0v-3.7h2.1v5.6
				c0,0.1,0,0.1,0,0.1v0.1c0,0,0,0,0,0.1c0,0,0,0,0.1,0.1l0,0l4.5,2.5c0.2,0.1,0.5,0,0.6-0.2C445.9,252.5,445.8,252.2,445.6,252
				L445.6,252"/>
			<path id="Trazado_42" class="st17" d="M459.6,254.8h-16.1c0,0.2,0.1,0.4,0.1,0.7h15.3L459.6,254.8z"/>
			<path id="Trazado_43" class="st17" d="M463.8,254.8l-0.8,0.7h21.6v-0.7H463.8z"/>
		</g>
	</g>
</g>
</svg>
