<?xml version="1.0" encoding="utf-8"?>
<!-- Generator: Adobe Illustrator 25.4.1, SVG Export Plug-In . SVG Version: 6.00 Build 0)  -->
<svg version="1.1" id="Capa_1" xmlns="http://www.w3.org/2000/svg" xmlns:xlink="http://www.w3.org/1999/xlink" x="0px" y="0px"
	 viewBox="0 0 316 44.1" style="enable-background:new 0 0 316 44.1;" xml:space="preserve">
<style type="text/css">
	.st0{fill:#FFFFFF;}
	.st1{fill:none;stroke:#FFFFFF;}
	.st2{fill:#D52D2C;}
	.st3{fill:#3262AC;}
	.st4{fill:#CAD52C;}
	.st5{fill:none;stroke:#FFFFFF;stroke-width:2;}
	.st6{fill:#FBFBFB;stroke:#3883C5;stroke-width:2;stroke-linecap:round;stroke-linejoin:round;}
	.st7{fill:#787887;}
	.st8{fill:#FDC430;}
	.st9{fill:#787887;stroke:#717070;}
	.st10{fill:none;}
	.st11{fill:none;stroke:#787887;stroke-width:1.5;}
	.st12{fill:none;stroke:#787887;stroke-linecap:round;stroke-linejoin:round;}
	.st13{clip-path:url(#SVGID_00000093176171381921798780000000175812340727396276_);}
	.st14{fill:none;stroke:#787887;stroke-width:3;stroke-linecap:round;stroke-linejoin:round;}
	.st15{fill:none;stroke:#3262AC;stroke-miterlimit:10;}
	.st16{enable-background:new    ;}
	.st17{fill:none;stroke:#787887;stroke-miterlimit:10;}
	.st18{fill:#1E3057;}
	.st19{fill:#0D99D6;}
	.st20{clip-path:url(#SVGID_00000118362279123681386930000007468608824458775466_);}
	.st21{fill:#213C7A;}
	.st22{fill:#203C79;}
	.st23{font-family:'TrebuchetMS-Bold';}
	.st24{font-size:12px;}
	.st25{font-size:10px;}
</style>
<path class="st0" d="M581.8,260.2c-4.4,0-7.8,3.6-7.8,8s3.6,7.8,8,7.8c4.3,0,7.8-3.6,7.8-7.9C589.8,263.7,586.2,260.2,581.8,260.2z"
	/>
<circle class="st1" cx="599.8" cy="268.1" r="6.9"/>
<circle id="Elipse_21_00000129188981388092743580000008886814880451973818_" class="st2" cx="581.9" cy="268.1" r="7.5"/>
<polygon class="st0" points="584.3,264.1 581.8,266.6 579.3,264.1 577.8,265.6 580.3,268.1 577.8,270.5 579.3,272 581.8,269.6 
	584.3,272 585.8,270.5 583.3,268.1 585.8,265.6 "/>
<g id="Hamburger_Icon">
	<g id="Hamburger_Icon-2">
		<path id="Trazado_11" class="st3" d="M515.2-58.9c0-1.1,0.6-2,1.3-2h16.9c0.7,0,1.2,0.9,1.2,2s-0.6,2-1.2,2h-16.9
			C515.8-56.9,515.2-57.8,515.2-58.9z"/>
		<path id="Trazado_1290" class="st3" d="M515.2-58.9c0-1.1,0.6-2,1.3-2h16.9c0.7,0,1.2,0.9,1.2,2s-0.6,2-1.2,2h-16.9
			C515.8-56.9,515.2-57.8,515.2-58.9z"/>
		<path id="Trazado_1291" class="st3" d="M515.2-51.7c0-0.9,0.6-1.7,1.3-1.7h16.9c0.7,0,1.2,0.7,1.2,1.7S534-50,533.4-50h-16.9
			C515.8-50,515.2-50.7,515.2-51.7z"/>
		<path id="Trazado_1292" class="st3" d="M515.2-66c0-1,0.6-1.9,1.3-1.9h16.9c0.7,0,1.2,0.8,1.2,1.9c0,1-0.6,1.9-1.2,1.9h-16.9
			C515.8-64.1,515.2-65,515.2-66z"/>
	</g>
</g>
<g>
	<g id="Elipse_21_00000122700021666481455410000011478136939818866572_">
		<circle class="st4" cx="561.7" cy="-58.9" r="12.5"/>
		<circle class="st5" cx="561.7" cy="-58.9" r="11.5"/>
	</g>
	<path id="Icon_awesome-check_00000110441766745699221180000003192436968001748644_" class="st0" d="M559.4-53l-4.7-4.7
		c-0.3-0.3-0.3-0.7,0-1l1-1c0.3-0.3,0.7-0.3,1,0l3.2,3.2l6.7-6.7c0.3-0.3,0.7-0.3,1,0l1,1c0.3,0.3,0.3,0.7,0,1l-8.3,8.3
		C560.1-52.7,559.7-52.7,559.4-53z"/>
</g>
<path id="Icon_metro-calendar" class="st3" d="M558.2-27.4h2.4v2.4h-2.4V-27.4z M561.8-27.4h2.4v2.4h-2.4V-27.4z M565.3-27.4h2.4
	v2.4h-2.4V-27.4z M554.7-20.3h2.4v2.4h-2.4V-20.3z M558.2-20.3h2.4v2.4h-2.4V-20.3z M561.8-20.3h2.4v2.4h-2.4V-20.3z M558.2-23.8
	h2.4v2.4h-2.4V-23.8z M561.8-23.8h2.4v2.4h-2.4V-23.8z M565.3-23.8h2.4v2.4h-2.4V-23.8z M554.7-23.8h2.4v2.4h-2.4V-23.8z
	 M567.7-34.4v1.2h-2.4v-1.2h-8.2v1.2h-2.4v-1.2h-2.4v18.8H570v-18.8H567.7L567.7-34.4z M568.8-16.8h-15.3v-13h15.3V-16.8z"/>
<g id="Grupo_2500" transform="translate(-114 -165.89)">
	<g>
		<g id="Grupo_2498" transform="translate(0 0)">
			<path id="Trazado_1475" class="st3" d="M702.3,138.8c-1.6,0-2.9,1.3-2.9,2.9c0,0.8,0.3,1.6,0.9,2.1v1.9c0,1.1,0.9,1.9,1.9,1.9
				s1.9-0.9,1.9-1.9l0,0v-1.9c1.2-1.1,1.3-2.9,0.2-4.1C703.9,139.2,703.1,138.8,702.3,138.8L702.3,138.8z M703,142.8l-0.3,0.2v2.7
				c0,0.2-0.2,0.4-0.4,0.4s-0.4-0.2-0.4-0.4l0,0V143l-0.3-0.2c-0.6-0.4-0.8-1.2-0.4-1.8c0.4-0.6,1.2-0.8,1.8-0.4
				c0.6,0.4,0.8,1.2,0.4,1.8C703.3,142.6,703.2,142.7,703,142.8L703,142.8z"/>
			<path id="Trazado_1476" class="st3" d="M709.1,135.3v-2.8c0-3.6-2.9-6.5-6.5-6.5h-0.8c-3.6,0-6.5,2.9-6.5,6.5v2.8
				c-1.4,0.6-2.3,1.9-2.3,3.4v9.2c0,2,1.6,3.6,3.6,3.6h11c2,0,3.6-1.6,3.6-3.6v-9.2C711.4,137.2,710.5,135.8,709.1,135.3
				L709.1,135.3z M697,132.5c0-2.7,2.2-4.9,4.9-4.9h0.8c2.7,0,4.9,2.2,4.9,4.9v2.5H706v-2.5c0-1.8-1.5-3.3-3.3-3.3h-0.8
				c-1.8,0-3.3,1.5-3.3,3.3v2.5H697V132.5z M704.4,135h-4.2v-2.5c0-1,0.8-1.7,1.7-1.7h0.8c1,0,1.7,0.8,1.7,1.7V135z M709.9,147.9
				c0,1.1-0.9,2.1-2.1,2.1h-11c-1.1,0-2.1-0.9-2.1-2.1v-9.2c0-1.1,0.9-2.1,2.1-2.1h11c1.1,0,2.1,0.9,2.1,2.1V147.9z"/>
		</g>
	</g>
</g>
<path id="Icon_awesome-wpforms" class="st3" d="M627.9-35.2v19.4c0,1.3-1,2.3-2.3,2.3c0,0,0,0-0.1,0h-19.4c-1.3,0-2.3-1-2.3-2.3l0,0
	v-19.4c0-1.3,1-2.3,2.3-2.3c0,0,0,0,0.1,0h19.4C626.9-37.5,627.9-36.5,627.9-35.2L627.9-35.2z M625.9-15.8v-19.4
	c0-0.2-0.1-0.3-0.3-0.3h-0.5l-5.9,4l-3.3-2.7l-3.3,2.7l-5.9-4h-0.5c-0.2,0-0.3,0.1-0.3,0.3v19.4c0,0.2,0.1,0.3,0.3,0.3h19.4
	C625.8-15.5,625.9-15.7,625.9-15.8z M612-29.3v2h-3.9v-2H612z M612-25.3v2h-3.9v-2H612z M612.6-33.2l2.9-2.3h-6.3L612.6-33.2z
	 M623.8-29.3v2h-10.5v-2H623.8z M623.8-25.3v2h-10.5v-2H623.8z M619.3-33.2l3.5-2.3h-6.3L619.3-33.2L619.3-33.2z M623.8-21.3v2h-5.3
	v-2H623.8z"/>
<path id="Icon_feather-shield" class="st6" d="M645.5-12.4c0,0,11-5.5,11-13.7v-9.6l-11-4.1l-11,4.1v9.6
	C634.5-17.9,645.5-12.4,645.5-12.4z"/>
<g id="Grupo_2623" transform="translate(-34.855 -231.845)">
	<path id="Trazado_1381" class="st7" d="M555.3,132.8c0,1.4,0.6,2.6,1.7,3.4c-2.1,1.2-2.6,3.5-2.8,5.3c0,0.4,0.2,0.7,0.6,0.7l0,0
		h0.1c0.3,0,0.6-0.3,0.7-0.6c0.3-2.8,1.3-4.2,3.3-4.7c0.4-0.1,0.6-0.4,0.5-0.8c-0.1-0.2-0.2-0.4-0.5-0.5c-1.3-0.4-2.2-1.5-2.2-2.9
		c0-1.7,1.5-3.1,3.2-3c1.6,0,3,1.4,3,3c0,1.3-0.9,2.5-2.2,2.9c-0.4,0.1-0.6,0.5-0.5,0.8c0.1,0.2,0.3,0.4,0.5,0.5
		c1.9,0.4,2.9,1.8,3.3,4.7c0,0.4,0.4,0.6,0.8,0.6c0.4,0,0.6-0.4,0.6-0.7l0,0c-0.2-1.8-0.7-4.1-2.8-5.3c1.1-0.8,1.7-2.1,1.7-3.4
		c-0.1-2.5-2.1-4.4-4.6-4.4C557.3,128.5,555.3,130.5,555.3,132.8"/>
	<path id="Trazado_1382" class="st7" d="M549,139.8c0.3,0,0.6-0.3,0.7-0.6c0.3-2.8,1.3-4.2,3.3-4.7c0.4-0.1,0.6-0.4,0.5-0.8
		c-0.1-0.2-0.2-0.4-0.5-0.5c-1.3-0.4-2.2-1.5-2.2-2.9c0-1.7,1.4-3,3.1-3c0.9,0,1.7,0.4,2.3,1c0.3,0.3,0.7,0.3,1,0
		c0.3-0.2,0.3-0.7,0.1-0.9l0,0c-0.9-0.9-2.1-1.4-3.3-1.4c-2.4,0-4.4,1.9-4.5,4.4c0,1.4,0.6,2.6,1.7,3.4c-2.1,1.2-2.6,3.5-2.8,5.3
		C548.2,139.4,548.5,139.7,549,139.8C548.9,139.8,548.9,139.8,549,139.8C548.9,139.8,548.9,139.8,549,139.8"/>
	<path id="Trazado_1383" class="st7" d="M563.4,128.3c0.6-0.6,1.4-1,2.3-1c1.7,0,3.1,1.3,3.1,3c0,1.3-0.9,2.5-2.2,2.9
		c-0.4,0.1-0.6,0.5-0.5,0.8c0.1,0.2,0.3,0.4,0.5,0.5c1.9,0.4,2.9,1.8,3.3,4.7c0,0.3,0.3,0.6,0.7,0.6h0.1c0.4,0,0.6-0.4,0.6-0.7l0,0
		c-0.2-1.8-0.7-4.1-2.8-5.3c1.1-0.8,1.7-2.1,1.7-3.4c0-2.4-2-4.4-4.5-4.4c-1.3,0-2.5,0.5-3.3,1.4c-0.3,0.3-0.2,0.7,0,0.9l0,0
		C562.7,128.6,563.1,128.6,563.4,128.3"/>
	<path id="Trazado_1384" class="st7" d="M573.2,126.5l-4.2-2.3v-5.7c0-0.3-0.2-0.5-0.5-0.5l0,0h-3c-0.3,0-0.5,0.2-0.5,0.5v3.5
		l-5.1-2.8c-0.1-0.1-0.3-0.1-0.5,0l-13.2,7.3c-0.2,0.1-0.3,0.4-0.2,0.6l0,0c0.1,0.1,0.2,0.2,0.4,0.2c0.1,0,0.2,0,0.2-0.1l13-7.2
		l5.6,3.1l0,0c0.1,0,0.1,0,0.2,0l0,0c0,0,0,0,0.1,0h0.1h0.1c0,0,0,0,0.1,0c0,0,0,0,0.1-0.1l0,0l0,0v-0.1v-0.1l0,0V119h2.1v5.5
		c0,0,0,0,0,0.1s0,0.1,0.1,0.2c0,0,0,0,0,0.1c0,0,0,0,0.1,0.1l0,0l4.4,2.4c0.2,0.1,0.5,0,0.6-0.2
		C573.5,126.9,573.4,126.7,573.2,126.5C573.2,126.6,573.2,126.5,573.2,126.5"/>
</g>
<g id="Grupo_141" transform="translate(0 0)">
	<g id="Grupo_135" transform="translate(0 0)">
		<path id="Trazado_172" class="st7" d="M567.2-104.1c0,0.3,0.2,0.6,0.6,0.6c0.3,0,0.6-0.2,0.6-0.6c0-0.3-0.2-0.6-0.6-0.6l0,0
			C567.5-104.7,567.2-104.4,567.2-104.1L567.2-104.1"/>
		<path id="Trazado_174" class="st7" d="M552.2-105.5h-2v0.7h1.5C551.9-105.1,552-105.3,552.2-105.5"/>
		<path id="Trazado_173" class="st7" d="M564.3-106.8l0.2-0.7c-1.9-0.5-3.9-0.5-5.8,0l0.2,0.7C560.7-107.2,562.6-107.2,564.3-106.8"
			/>
		<path id="Trazado_177" class="st7" d="M564.9-111.7c0-0.1,0-0.1,0-0.2s-0.1-0.3-0.1-0.4c-0.4-1.3-1.5-2.2-2.8-2.3l0,0l0,0l0,0
			h-0.7h-0.1c-0.1,0-0.2,0-0.2,0c-0.8,0.2-1.6,0.7-2.1,1.4c-1,1.4-0.6,3.4,0.8,4.4l0,0c0.6,0.4,1.2,0.6,1.9,0.6c1.5,0,2.8-1,3.2-2.4
			c0-0.1,0.1-0.2,0.1-0.4c0-0.1,0-0.1,0-0.2L564.9-111.7L564.9-111.7z M564.5-111.3c0,0.8-0.3,1.5-0.8,2c-0.6,0.5-1.3,0.8-2.1,0.8
			l0,0c-0.8,0-1.5-0.3-2.1-0.8c-0.5-0.5-0.9-1.2-0.9-2c0-1.6,1.3-2.9,2.9-2.8l0,0c0.8,0,1.5,0.3,2.1,0.8S564.5-112.1,564.5-111.3"/>
		<path id="Trazado_176" class="st7" d="M561.6-113.8L561.6-113.8c-0.7,0-1.3,0.3-1.8,0.7c-1,0.9-1,2.4-0.1,3.4c0,0,0,0,0.1,0.1
			c0.5,0.5,1.1,0.7,1.8,0.7l0,0c0.7,0,1.3-0.3,1.8-0.7c1-0.9,1-2.4,0.1-3.4c0,0,0,0-0.1-0.1C562.9-113.5,562.3-113.8,561.6-113.8
			 M561.6-113.4L561.6-113.4c0.6,0,1.1,0.2,1.5,0.6c0.8,0.8,0.8,2,0,2.8c0,0,0,0-0.1,0.1c-0.4,0.4-0.9,0.6-1.5,0.6l0,0
			c-0.6,0-1.1-0.2-1.5-0.6c-0.8-0.8-0.8-2,0-2.8l0,0C560.5-113.2,561.1-113.4,561.6-113.4"/>
		<path id="Trazado_175" class="st7" d="M561.2-111.3c0.1,0.1,0.2,0.1,0.3,0.2s0.2,0.1,0.3,0.2c0.1,0,0.1,0.1,0.1,0.2
			s-0.1,0.2-0.2,0.2c-0.1,0-0.3,0-0.4,0c-0.1,0-0.2-0.1-0.2-0.2s0-0.1-0.1-0.2s-0.2,0-0.3,0c0,0.1-0.1,0.1,0,0.2
			c0,0.3,0.2,0.5,0.4,0.5c0.1,0,0.1,0.1,0.1,0.1c0,0.1,0.1,0.2,0.2,0.2l0,0h0.1c0,0,0.1-0.1,0.1-0.2v-0.1l0,0h0.1
			c0.3-0.1,0.5-0.3,0.5-0.5c0-0.3-0.1-0.5-0.3-0.6c-0.1,0-0.1-0.1-0.2-0.1l0,0c-0.1,0-0.1-0.1-0.2-0.1c-0.1-0.1-0.2-0.1-0.3-0.2
			c-0.1,0-0.1-0.1-0.1-0.2s0-0.2,0.1-0.2c0.1-0.1,0.3-0.1,0.4-0.1c0.1,0,0.2,0.1,0.3,0.3c0,0.1,0.1,0.2,0.2,0.2
			c0.1,0,0.2-0.1,0.2-0.2c0-0.3-0.2-0.5-0.5-0.6h-0.1l0,0l0,0c0-0.1,0-0.3-0.2-0.3l0,0c-0.2,0-0.2,0.2-0.2,0.3l0,0l0,0h-0.1
			c-0.3,0.1-0.5,0.4-0.5,0.7C560.9-111.6,561-111.4,561.2-111.3"/>
		<path id="Trazado_171" class="st7" d="M571.9-103.7h-0.8L571-104c-0.5-1-1.2-1.9-2.1-2.7c-0.4-1-0.3-2.1,0-3.1
			c0-0.1,0-0.3-0.1-0.3c-0.1-0.1-0.2-0.1-0.3-0.1c-1.3,0.1-2.4,0.7-3.3,1.6c-0.2,0-0.3-0.1-0.5-0.1c-0.2,0.2-0.4,0.4-0.6,0.6
			c0.4,0.1,0.7,0.2,1.1,0.3c0.2,0.1,0.4,0,0.4-0.2c0.6-0.7,1.5-1.2,2.4-1.4c-0.3,1-0.2,2.2,0.2,3.1l0.1,0.1c0.8,0.7,1.5,1.5,1.9,2.5
			l0.2,0.4c0.1,0.1,0.2,0.2,0.3,0.2h1c0.3,0,0.6,0.2,0.6,0.5v2.3c0,0.3-0.3,0.6-0.6,0.5h-1c-0.1,0-0.3,0.1-0.3,0.2l-0.2,0.4
			c-0.4,0.8-1,1.6-1.6,2.2l-0.3,0.3c-0.1,0.1-0.1,0.2-0.1,0.4l0.7,2.4l-2.7,0.8l-0.5-1.6c-0.1-0.2-0.2-0.3-0.4-0.3h-0.1l-0.7,0.2
			c-2,0.5-4,0.6-6,0.1l-0.7-0.2c-0.2,0-0.4,0.1-0.5,0.2l-0.5,1.5l-2.7-0.8l0.7-2.2c0-0.1,0-0.3-0.1-0.4l-0.3-0.3
			c-1.4-1.2-2.3-2.9-2.3-4.7c0-3.3,2.9-6.1,6.8-6.9c-0.2-0.2-0.4-0.4-0.6-0.6c-4,1-7,4-7,7.5c0,2.1,1,4,2.6,5.3l0.2,0.1l-0.6,2.1
			c-0.1,0.2,0,0.3,0.1,0.5s0.2,0.3,0.4,0.3l2.8,0.8l0,0c0.1,0,0.1,0,0.2,0c0.3,0,0.6-0.2,0.6-0.5l0.4-1.3l0.3,0.1
			c2.1,0.5,4.3,0.5,6.4-0.1l0.3-0.1l0.4,1.3c0.1,0.3,0.5,0.5,0.8,0.4l2.8-0.8c0.2,0,0.3-0.2,0.4-0.3c0.1-0.1,0.1-0.3,0.1-0.5
			l-0.7-2.2l0.2-0.1c0.8-0.7,1.4-1.5,1.8-2.5l0.1-0.2h0.8c0.7,0,1.3-0.6,1.3-1.3v-2.3C573.2-103.2,572.6-103.8,571.9-103.7"/>
	</g>
</g>
<g>
	<path id="Trazado_80_00000121257661381014988110000018116535420182039974_" class="st7" d="M599.7-104.1l-1.4-0.3v-0.1v-1.9
		c0-2.5-2.4-4.6-5.4-4.6s-5.4,2.1-5.4,4.6v2l0,0l-1.4,0.3c-0.7,0.1-1.3,0.8-1.3,1.5v9.4c0,0.9,0.7,1.5,1.6,1.5h13.1
		c0.9,0,1.6-0.7,1.6-1.5v-9.4C601-103.3,600.5-103.9,599.7-104.1 M595.7-104l3.9,0.8c0.4,0.1,0.6,0.4,0.6,0.7v9.4
		c0,0.4-0.3,0.7-0.7,0.7h-13.1c-0.4,0-0.7-0.3-0.7-0.7v-9.4c0-0.4,0.3-0.7,0.6-0.7l3.9-0.8C592-104.3,593.9-104.3,595.7-104
		 M597.5-104.5l-1.3-0.3v-1.5c-0.4-1.8-2.1-3-3.9-2.6c-1.3,0.3-2.4,1.3-2.6,2.6v1.5l-1.3,0.3v-1.8c0-2.1,2.1-3.8,4.6-3.8
		s4.6,1.7,4.6,3.8L597.5-104.5z M590.5-106.3c0.4-1.4,1.8-2.2,3.1-1.8c0.9,0.2,1.6,0.9,1.8,1.8v1.4c-1.6-0.2-3.3-0.2-4.9,0
		L590.5-106.3L590.5-106.3z"/>
	<path id="Trazado_81_00000032610925790339497650000003304062407716352696_" class="st7" d="M591.5-97.5v1.8c0,0.3,0.3,0.6,0.6,0.6
		h1.7c0.3,0,0.6-0.3,0.6-0.6v-1.8c0.6-0.4,1-1.2,1-1.9c0-0.7-0.3-1.3-0.7-1.7c-1-0.9-2.6-0.9-3.5,0.1c-0.5,0.5-0.7,1.1-0.6,1.8
		C590.5-98.5,590.9-97.9,591.5-97.5 M594.1-100.6c0.3,0.3,0.5,0.7,0.5,1.1c0,0.6-0.3,1.1-0.8,1.4c-0.1,0.1-0.2,0.2-0.2,0.3v1.8h-1.2
		v-1.8c0-0.1-0.1-0.3-0.2-0.4c-0.5-0.2-0.8-0.7-0.8-1.3c0-0.4,0.1-0.9,0.4-1.2c0.3-0.3,0.7-0.5,1.2-0.5
		C593.3-101,593.7-100.9,594.1-100.6"/>
	<path id="Trazado_82_00000170959601308884974880000000549813460282830757_" class="st7" d="M610.4-108.2c0-0.7-0.4-1.3-0.9-1.6
		c0.5-0.4,0.9-1,0.9-1.6c0-2.1-4.1-3.6-9.6-3.6s-9.6,1.6-9.6,3.6v0.1c0.3-0.1,0.5-0.1,0.8-0.1l0,0c0-1.3,3.6-2.8,8.8-2.8
		s8.8,1.5,8.8,2.8s-3.6,2.8-8.8,2.8c-0.8,0-1.7,0-2.5-0.1c0.2,0.3,0.3,0.5,0.4,0.8c0.7,0.1,1.4,0.1,2.1,0.1c2.7,0.1,5.5-0.4,7.9-1.5
		c0.4,0.2,0.8,0.7,0.8,1.2s-0.6,1-1,1.3c-1.6,1-4.5,1.6-7.7,1.6c-0.6,0-1.2,0-1.8-0.1v0.6l0.8,0.2h0.1c0.3,0,0.6,0,0.8,0
		c2.7,0.1,5.4-0.4,7.9-1.5c0.4,0.2,0.8,0.7,0.8,1.2s-0.6,1-1,1.3l0,0l0,0c-2.1,1-4.5,1.6-6.9,1.5v0.8c2.4,0,4.9-0.5,7.1-1.5
		c0.4,0.2,0.8,0.7,0.8,1.2s-0.6,1-1.1,1.3c-2.1,1-4.5,1.5-6.9,1.5v0.8c2.4,0,4.8-0.5,7.1-1.5c0.4,0.3,0.9,0.7,0.9,1.2
		c0,1.3-3.2,2.7-7.9,2.8v0.8c2.4,0,4.9-0.5,7.1-1.5c0.4,0.2,0.8,0.7,0.8,1.2c0,1.3-3.3,2.7-8.1,2.8c-0.1,0.3-0.3,0.6-0.5,0.8
		c5.4,0,9.4-1.6,9.4-3.6c0-0.7-0.4-1.3-0.9-1.6c0.5-0.4,0.9-1,0.9-1.6c-0.9-0.5-1.2-1.6-0.7-2.6c0.2-0.3,0.4-0.6,0.7-0.7
		c-0.9-0.5-1.2-1.7-0.7-2.5c0.2-0.3,0.4-0.5,0.7-0.7c-0.9-0.5-1.2-1.7-0.7-2.5C609.9-107.8,610.1-108.1,610.4-108.2"/>
	<path id="Trazado_163_00000028301801452230880420000012054891796098955181_" class="st7" d="M599.7-104.1l-1.4-0.3v-0.1v-1.9
		c0-2.5-2.4-4.6-5.4-4.6s-5.4,2.1-5.4,4.6v2l0,0l-1.4,0.3c-0.7,0.1-1.3,0.8-1.3,1.5v9.4c0,0.9,0.7,1.5,1.6,1.5h13.1
		c0.9,0,1.6-0.7,1.6-1.5v-9.4C601-103.3,600.5-103.9,599.7-104.1 M595.7-104l3.9,0.8c0.4,0.1,0.6,0.4,0.6,0.7v9.4
		c0,0.4-0.3,0.7-0.7,0.7h-13.1c-0.4,0-0.7-0.3-0.7-0.7v-9.4c0-0.4,0.3-0.7,0.6-0.7l3.9-0.8C592-104.3,593.9-104.3,595.7-104
		 M597.5-104.5l-1.3-0.3v-1.5c-0.4-1.8-2.1-3-3.9-2.6c-1.3,0.3-2.4,1.3-2.6,2.6v1.5l-1.3,0.3v-1.8c0-2.1,2.1-3.8,4.6-3.8
		s4.6,1.7,4.6,3.8L597.5-104.5z M590.5-106.3c0.4-1.4,1.8-2.2,3.1-1.8c0.9,0.2,1.6,0.9,1.8,1.8v1.4c-1.6-0.2-3.3-0.2-4.9,0
		L590.5-106.3L590.5-106.3z"/>
	<path id="Trazado_164_00000116217559464009847390000011752938839023324059_" class="st7" d="M591.5-97.5v1.8c0,0.3,0.3,0.6,0.6,0.6
		h1.7c0.3,0,0.6-0.3,0.6-0.6v-1.8c0.6-0.4,1-1.2,1-1.9c0-0.7-0.3-1.3-0.7-1.7c-1-0.9-2.6-0.9-3.5,0.1c-0.5,0.5-0.7,1.1-0.6,1.8
		C590.5-98.5,590.9-97.9,591.5-97.5 M594.1-100.6c0.3,0.3,0.5,0.7,0.5,1.1c0,0.6-0.3,1.1-0.8,1.4c-0.1,0.1-0.2,0.2-0.2,0.3v1.8h-1.2
		v-1.8c0-0.1-0.1-0.3-0.2-0.4c-0.5-0.2-0.8-0.7-0.8-1.3c0-0.4,0.1-0.9,0.4-1.2c0.3-0.3,0.7-0.5,1.2-0.5
		C593.3-101,593.7-100.9,594.1-100.6"/>
</g>
<g>
	<circle id="Elipse_21" class="st2" cx="591" cy="-58.9" r="12.5"/>
	<path id="Icon_metro-cancel" class="st0" d="M591.2-72c-7.3,0.1-13.1,6-13,13.3s6,13.1,13.3,13c7.2-0.1,13-5.9,13-13.1
		C604.4-66.1,598.4-72,591.2-72z M591.2-48.2c-5.9-0.1-10.6-4.9-10.6-10.8s4.9-10.6,10.8-10.6c5.8,0.1,10.6,4.8,10.6,10.7
		C601.9-52.9,597.1-48.2,591.2-48.2L591.2-48.2z M595.3-65.4l-4.1,4.1l-4.1-4.1l-2.5,2.5l4.1,4.1l-4.1,4.1l2.5,2.5l4.1-4.1l4.1,4.1
		l2.5-2.5l-4.1-4.1l4.1-4.1L595.3-65.4z"/>
</g>
<g id="Elipse_66">
	<circle class="st8" cx="621.2" cy="-58.9" r="12.5"/>
	<circle class="st5" cx="621.2" cy="-58.9" r="11.5"/>
</g>
<path id="Icon_metro-warning" class="st0" d="M621.2-64.6l5.9,11.7h-11.8L621.2-64.6z M621.2-65.9c-0.4,0-0.7,0.3-0.8,0.6l-6,11.9
	c-0.5,0.8-0.1,1.5,0.9,1.5h11.9c0.9,0,1.3-0.7,0.9-1.5l0,0l-6-11.9C621.9-65.6,621.5-65.8,621.2-65.9L621.2-65.9z M622.1-54.5
	c0,0.5-0.4,0.9-0.9,0.9s-0.9-0.4-0.9-0.9s0.4-0.9,0.9-0.9l0,0C621.7-55.4,622-55,622.1-54.5L622.1-54.5z M621.2-56.2
	c-0.5,0-0.9-0.4-0.9-0.9v-2.6c0-0.5,0.4-0.9,0.8-0.9c0.5,0,0.9,0.4,0.9,0.8c0,0,0,0,0,0.1v2.6C622.1-56.6,621.7-56.2,621.2-56.2z"/>
<circle class="st8" cx="599.8" cy="268.1" r="7.2"/>
<path id="Icon_metro-warning_00000017504240785434152460000000386181538368305343_" class="st0" d="M599.8,264l3.5,7h-7.1L599.8,264
	z M599.8,263.2c-0.2,0-0.4,0.2-0.5,0.4l-3.6,7.2c-0.3,0.5,0,0.9,0.5,0.9h7.1c0.6,0,0.8-0.4,0.5-0.9l0,0l-3.6-7.2
	C600.2,263.4,600.1,263.3,599.8,263.2L599.8,263.2z M600.4,270.1c0,0.3-0.2,0.5-0.5,0.5s-0.5-0.2-0.5-0.5s0.2-0.5,0.5-0.5l0,0
	C600.1,269.6,600.4,269.8,600.4,270.1L600.4,270.1z M599.8,269c-0.3,0-0.5-0.2-0.5-0.5v-1.6c0-0.3,0.2-0.5,0.5-0.5s0.5,0.2,0.5,0.5
	l0,0v1.6C600.4,268.8,600.1,269,599.8,269z"/>
<path id="Shape_2" class="st7" d="M559.2-3.5c-0.3-0.2-0.7-0.2-0.9,0L548,5.3v10.3c0,1.2,1,2.1,2.2,2.1h5.7c0.4,0,0.7-0.3,0.7-0.7
	l0,0v-4.3c0.1-1.2,1.1-2.1,2.2-2.1c1.1,0,2,0.9,2.1,2.1V17c0,0.4,0.3,0.7,0.7,0.7h5.7c1.2,0,2.2-1,2.2-2.1l0,0V5.3L559.2-3.5z"/>
<path id="Shape_7" class="st9" d="M586.9,7.1c3,0,5.4-2.4,5.4-5.4s-2.4-5.4-5.4-5.4s-5.4,2.4-5.4,5.4l0,0
	C581.6,4.7,584,7.1,586.9,7.1L586.9,7.1z M590.7,8.4H590c-1.9,0.9-4.2,0.9-6.1,0h-0.7c-3.1,0-5.6,2.5-5.6,5.6v1.7c0,1.1,0.9,2,2,2
	h14.8c1.1,0,2-0.9,2-2V14C596.4,10.9,593.8,8.4,590.7,8.4L590.7,8.4z"/>
<path id="Trazado_1341" class="st7" d="M609.8,8.7c0.5,0,1,0.4,1,1l0,0l0,0c0,0.5-0.4,1-1,1s-1-0.4-1-1l0,0
	C608.8,9.2,609.2,8.7,609.8,8.7L609.8,8.7z M612.4,9.7L612.4,9.7c0,0.5,0.4,1,1,1s1-0.4,1-1l0,0c0-0.5-0.4-1-1-1
	S612.4,9.2,612.4,9.7z M614.3,16.8c0,0.5-0.4,1-1,1l0,0h-5.1c-2.1,0-3.9-1.8-3.9-3.9v-8c0-2.1,1.7-3.9,3.9-3.9h1.2v-3.4
	c0-3.2,2.6-5.8,5.8-5.8s5.8,2.6,5.8,5.8V2h1.2c2.1,0,3.9,1.8,3.9,3.9v1c0,0.5-0.4,1-1,1s-1-0.4-1-1v-1c0-1.1-0.9-1.9-1.9-2h-13.9
	c-1.1,0-1.9,0.9-1.9,2v8c0,1.1,0.9,1.9,1.9,2h5.1C613.8,15.8,614.3,16.3,614.3,16.8L614.3,16.8z M611.3,2h7.7v-3.4
	c0-2.1-1.8-3.8-3.9-3.8c-2.1,0-3.8,1.7-3.8,3.8V2z M627.3,13.6c0,0-0.1,0.2-0.2,0.3c-0.6,0.8-1.3,1.6-2.1,2.2
	c-1.1,1-2.6,1.6-4.1,1.6c-1.5-0.1-3-0.6-4.1-1.6c-0.8-0.7-1.5-1.4-2.1-2.2c-0.1-0.1-0.2-0.3-0.2-0.3c-0.2-0.3-0.2-0.8,0-1.1
	c0,0,0.2-0.2,0.2-0.3c0.6-0.8,1.3-1.6,2.1-2.2c1.1-1,2.6-1.6,4.1-1.6c1.5,0.1,3,0.6,4.1,1.6c0.8,0.7,1.5,1.4,2.1,2.2
	c0.1,0.1,0.2,0.3,0.2,0.3C627.6,12.8,627.6,13.3,627.3,13.6z M625.3,13.1c-1.5-1.8-3-2.8-4.5-2.8s-2.9,0.9-4.5,2.8
	c1.5,1.8,3,2.8,4.5,2.8S623.8,14.9,625.3,13.1z M620.9,11.2c-1,0-1.9,0.8-1.9,1.8s0.8,1.9,1.8,1.9s1.9-0.8,1.9-1.8l0,0
	C622.7,12,621.9,11.2,620.9,11.2L620.9,11.2z"/>
<g id="Grupo_2464" transform="translate(-6902 -2053)">
	<g id="Rectángulo_218" transform="translate(6902 2053)">
		<path class="st10" d="M638.5-6.1h11.7c1.7,0,3,1.3,3,3v16.8c0,1.7-1.3,3-3,3h-11.7c-1.7,0-3-1.3-3-3V-3.1
			C635.5-4.8,636.9-6.1,638.5-6.1z"/>
		<path class="st11" d="M638.5-5.4h11.7c1.2,0,2.2,1,2.2,2.2v16.8c0,1.2-1,2.2-2.2,2.2h-11.7c-1.2,0-2.2-1-2.2-2.2V-3.1
			C636.3-4.4,637.3-5.4,638.5-5.4z"/>
	</g>
	<line id="Línea_1" class="st11" x1="7540" y1="2052.6" x2="7551.8" y2="2052.6"/>
	<line id="Línea_2" class="st11" x1="7540" y1="2056.4" x2="7551.8" y2="2056.4"/>
	<line id="Línea_3" class="st11" x1="7541.1" y1="2060.2" x2="7546.1" y2="2060.2"/>
</g>
<g id="Grupo_2465" transform="translate(-92 -237.89)">
	<path id="Trazado_1350" class="st7" d="M766.2,232.5c-0.3,0-0.5,0.2-0.5,0.5s0.2,0.5,0.5,0.5s0.5-0.2,0.5-0.5
		S766.5,232.5,766.2,232.5z"/>
	<path id="Trazado_1351" class="st7" d="M756.1,242.7c0.3,0,0.5-0.2,0.5-0.5s-0.2-0.5-0.5-0.5s-0.5,0.2-0.5,0.5
		S755.9,242.7,756.1,242.7z"/>
	<path id="Trazado_1352" class="st7" d="M770.8,226.8c-5.1,0-9.4,3.5-9.7,8c-4.9,0.2-9.5,3.8-9.5,8.5c0,2,0.8,4,2.2,5.5
		c0.3,1.2-0.1,2.4-0.9,3.3c-0.2,0.2-0.2,0.6,0,0.8c0.1,0.1,0.3,0.2,0.4,0.2c1.6,0,3.2-0.6,4.4-1.8c1.3,0.4,2.6,0.6,4,0.6
		c5.1,0,9.3-3.5,9.7-8c1.2,0,2.3-0.3,3.4-0.6c1.2,1.1,2.7,1.8,4.4,1.8c0.3,0,0.6-0.3,0.6-0.6c0-0.2-0.1-0.3-0.2-0.4
		c-0.9-0.9-1.2-2.1-0.9-3.3c1.4-1.5,2.2-3.4,2.2-5.5C780.8,230.3,775.9,226.7,770.8,226.8L770.8,226.8z M761.7,250.7
		c-1.3,0-2.7-0.2-3.9-0.7c-0.2-0.1-0.5,0-0.6,0.1c-0.7,0.7-1.6,1.3-2.6,1.5c0.5-1,0.7-2.3,0.3-3.4c0-0.1-0.1-0.2-0.1-0.2
		c-1.3-1.3-2-3-2-4.8c0-4,4.1-7.4,8.9-7.4c4.6,0,8.6,3.2,8.6,7.4C770.2,247.4,766.4,250.7,761.7,250.7L761.7,250.7z M777.7,240.1
		c-0.1,0.1-0.1,0.2-0.1,0.2c-0.3,1.1-0.2,2.3,0.3,3.4c-1-0.2-1.9-0.8-2.6-1.5c-0.2-0.2-0.4-0.2-0.6-0.1c-1.1,0.4-2.2,0.6-3.4,0.7
		c-0.2-2.2-1.3-4.3-3.1-5.7h7.4c0.3,0,0.6-0.3,0.6-0.6s-0.3-0.6-0.6-0.6h-9.2c-1.3-0.7-2.8-1-4.2-1.1c0.3-3.8,4-6.9,8.5-6.9
		c4.8,0,8.9,3.4,8.9,7.4C779.7,237.1,778.9,238.8,777.7,240.1L777.7,240.1z"/>
	<path id="Trazado_1353" class="st7" d="M765.6,241.7h-6.4c-0.3,0-0.5,0.2-0.5,0.5s0.2,0.5,0.5,0.5h6.4c0.3,0,0.5-0.2,0.5-0.5
		S765.9,241.7,765.6,241.7L765.6,241.7z"/>
	<path id="Trazado_1354" class="st7" d="M765.4,245.1H757c-0.3,0-0.5,0.2-0.5,0.5s0.2,0.5,0.5,0.5h8.4c0.3,0,0.5-0.2,0.5-0.5
		S765.6,245.1,765.4,245.1L765.4,245.1z"/>
	<path id="Trazado_1355" class="st7" d="M775.5,232.5h-6.4c-0.3,0-0.5,0.2-0.5,0.5s0.2,0.5,0.5,0.5h6.4c0.3,0,0.5-0.2,0.5-0.5
		S775.8,232.5,775.5,232.5z"/>
</g>
<path id="Icon_feather-phone-call" class="st12" d="M710.6-6c2.4,0.5,4.3,2.3,4.7,4.7 M710.6-10.8c5,0.6,8.9,4.5,9.5,9.5 M718.9,8.2
	v3.6c0,1.3-1.1,2.4-2.4,2.4c-0.1,0-0.1,0-0.2,0c-3.7-0.4-7.2-1.7-10.3-3.7c-2.9-1.8-5.3-4.3-7.2-7.2c-2-3.1-3.3-6.7-3.7-10.4
	c-0.1-1.3,0.9-2.5,2.2-2.6c0.1,0,0.1,0,0.2,0h3.6c1.2,0,2.2,0.9,2.4,2.1c0.2,1.1,0.4,2.3,0.8,3.4c0.3,0.9,0.1,1.9-0.5,2.5l-1.5,1.5
	c1.7,3,4.2,5.5,7.2,7.2l1.5-1.5c0.7-0.7,1.6-0.9,2.5-0.5c1.1,0.4,2.2,0.7,3.4,0.8C718.1,5.9,719,7,718.9,8.2L718.9,8.2z"/>
<g id="Icon_ionic-ios-notifications-outline" transform="translate(-6.775 -3.93)">
	<path id="Trazado_1372" class="st7" d="M744,13c-0.4,0-0.8,0.3-0.9,0.7c-0.1,0.3-0.2,0.5-0.4,0.8c-0.3,0.3-0.7,0.5-1.1,0.4
		c-0.4,0-0.8-0.1-1.1-0.4c-0.2-0.2-0.3-0.5-0.4-0.8c-0.1-0.4-0.5-0.7-0.9-0.7l0,0c-0.5,0-0.9,0.4-0.9,0.9c0,0.1,0,0.1,0,0.2
		c0.3,1.6,1.7,2.7,3.3,2.6c1.6,0.1,3-1,3.3-2.6c0.1-0.5-0.2-1-0.7-1.1C744.1,13,744.1,13,744,13z"/>
	<path id="Trazado_1373" class="st7" d="M749.8,10.1c-0.8-1-2.4-1.6-2.4-6c0-4.5-2.2-6.4-4.2-6.8c-0.2,0-0.3-0.1-0.3-0.3v-0.1
		c0-0.7-0.6-1.2-1.3-1.2l0,0c-0.7,0-1.2,0.5-1.3,1.2V-3c0,0.2-0.1,0.2-0.3,0.3c-2,0.4-4.2,2.3-4.2,6.8c0,4.4-1.6,5-2.4,6
		c-0.3,0.4-0.2,1,0.2,1.3c0.2,0.1,0.4,0.2,0.7,0.2H749c0.5,0,1-0.4,1-0.9C750,10.5,750,10.3,749.8,10.1z M747.8,10.4h-12.2
		c-0.1,0-0.2-0.1-0.2-0.2c0-0.1,0-0.1,0.1-0.2c0.5-0.5,0.8-1,1.1-1.6c0.6-1.4,0.8-2.8,0.8-4.3c-0.1-1.5,0.3-3,1.1-4.2
		c0.5-0.7,1.2-1.2,2-1.3c0.4-0.1,0.7-0.2,1-0.5c0.2-0.2,0.4-0.2,0.6,0l0,0c0.3,0.3,0.6,0.4,1,0.5c0.8,0.2,1.5,0.7,2,1.3
		c0.8,1.3,1.2,2.7,1.1,4.2c-0.1,1.5,0.2,2.9,0.8,4.3c0.3,0.6,0.7,1.2,1.1,1.6c0.1,0.1,0.1,0.2,0,0.3
		C747.9,10.4,747.8,10.4,747.8,10.4L747.8,10.4z"/>
</g>
<path id="Trazado_1374" class="st7" d="M774.7,4.2c0-6.9-5.6-12.5-12.5-12.5l0,0l0,0c-6.9,0-12.6,5.6-12.6,12.5c0,1.7,0.3,3.3,1,4.9
	c1.3,3,3.7,5.4,6.7,6.7c1.5,0.7,3.2,1,4.9,1l0,0C769.2,16.8,774.7,11.2,774.7,4.2z M751.1,5h4.1c0.1,1.5,0.4,3.1,0.9,4.5h-3.7
	C751.7,8.1,751.2,6.5,751.1,5z M752.4-0.9h3.7c-0.5,1.4-0.8,2.9-0.9,4.4h-4.1C751.2,1.9,751.7,0.4,752.4-0.9L752.4-0.9z M773.2,3.5
	h-4c-0.1-1.5-0.4-3-0.9-4.4h3.6C772.7,0.4,773.1,1.9,773.2,3.5L773.2,3.5z M767.8,3.5H763v-4.4h3.8C767.3,0.5,767.7,2,767.8,3.5
	L767.8,3.5z M763-2.4v-3.7c1.2,1,2.3,2.3,3.1,3.7L763-2.4z M761.5-6.1v3.7h-3.1C759.2-3.8,760.3-5,761.5-6.1z M761.5-0.9v4.4h-4.8
	c0.1-1.5,0.4-3,1-4.4L761.5-0.9z M756.7,5h4.8v4.5h-3.8C757.1,8,756.8,6.5,756.7,5z M761.5,10.9v3.7c-1.2-1-2.3-2.3-3.1-3.7H761.5z
	 M763,14.6v-3.7h3.1C765.2,12.3,764.2,13.6,763,14.6z M763,9.5V5h4.8c-0.1,1.6-0.4,3.1-1,4.5H763z M769.2,5h4
	c-0.1,1.6-0.5,3.1-1.3,4.5h-3.6C768.9,8,769.2,6.5,769.2,5L769.2,5z M771-2.4h-3.3c-0.8-1.6-1.8-3-3.1-4.1
	C767.2-6,769.5-4.5,771-2.4L771-2.4z M759.8-6.5c-1.3,1.2-2.3,2.6-3.1,4.1h-3.4C754.9-4.5,757.2-6,759.8-6.5z M753.4,10.9h3.4
	c0.8,1.6,1.8,3,3,4.1C757.2,14.5,754.9,13,753.4,10.9z M764.7,15.1c1.3-1.2,2.3-2.6,3-4.1h3.3C769.5,13,767.2,14.5,764.7,15.1z"/>
<g id="Grupo_2490" transform="translate(0 0.365)">
	<g>
		<g>
			<defs>
				<rect id="SVGID_1_" x="778.3" y="-8.8" width="27" height="23"/>
			</defs>
			<clipPath id="SVGID_00000029726652980294633950000009895037686370524090_">
				<use xlink:href="#SVGID_1_"  style="overflow:visible;"/>
			</clipPath>
			
				<g id="Grupo_2458" transform="translate(0 -0.332)" style="clip-path:url(#SVGID_00000029726652980294633950000009895037686370524090_);">
				<path id="Trazado_1338" class="st7" d="M792.6,8.1c-0.2,0-0.3-0.1-0.4-0.2l-0.8-1.6l-1.7,0.3c-0.2,0-0.5-0.1-0.5-0.4
					c0-0.1,0-0.3,0.1-0.4l1.2-1.2L789.8,3c-0.1-0.2,0-0.5,0.2-0.6c0.1-0.1,0.3-0.1,0.4,0l1.6,0.8l1.2-1.2c0.2-0.2,0.4-0.2,0.6,0
					c0.1,0.1,0.1,0.2,0.1,0.4l-0.3,1.7l1.6,0.8c0.2,0.1,0.3,0.4,0.2,0.6c-0.1,0.1-0.2,0.2-0.3,0.2L793.3,6L793,7.7
					C793,7.9,792.9,8,792.6,8.1C792.7,8.1,792.6,8.1,792.6,8.1L792.6,8.1z M791.7,5.3c0.2,0,0.3,0.1,0.4,0.2l0.3,0.6l0.1-0.7
					c0-0.2,0.2-0.3,0.4-0.4l0.7-0.1L793,4.6c-0.2-0.1-0.3-0.3-0.2-0.5l0.1-0.7l-0.5,0.5c-0.1,0.1-0.3,0.2-0.5,0.1l-0.6-0.3l0.3,0.6
					c0.1,0.2,0.1,0.4-0.1,0.5L791,5.3L791.7,5.3C791.6,5.3,791.6,5.3,791.7,5.3L791.7,5.3z"/>
				<path id="Trazado_1339" class="st7" d="M804.6-1.4l-2.2-2.2l-0.3,0.3c-0.5,0.5-1.3,0.5-1.9,0c-0.5-0.5-0.5-1.3,0-1.9l0,0
					l0.3-0.3l-2.2-2.2c-0.5-0.5-1.4-0.5-1.9,0l0,0L795-6.1L794-7c-0.5-0.5-1.4-0.5-1.9,0l0,0L778.7,6.4c-0.5,0.5-0.5,1.4,0,1.9l0,0
					l2.2,2.2l0.3-0.3c0.5-0.5,1.3-0.5,1.9,0c0.5,0.5,0.5,1.4,0,1.9l0,0l-0.3,0.3l2.2,2.2c0.5,0.5,1.4,0.5,1.9,0l1.6-1.6l0.9,0.9
					c0.5,0.5,1.4,0.5,1.9,0l0,0l13.4-13.4C805.1-0.1,805.1-0.9,804.6-1.4L804.6-1.4z M786.2,13.9c-0.2,0.2-0.4,0.2-0.6,0l0,0
					l-1.6-1.6c0.7-1,0.4-2.4-0.6-3.1c-0.7-0.5-1.7-0.5-2.4,0l-1.6-1.6c-0.2-0.2-0.2-0.5,0-0.6l13.4-13.4c0.2-0.2,0.5-0.2,0.6,0l0,0
					l0.9,0.9L783.1,5.8c-0.5,0.5-0.5,1.4,0,1.9l2.2,2.2l0.3-0.3c0.5-0.5,1.4-0.5,1.9,0s0.5,1.4,0,1.9l-0.3,0.3l0.6,0.6L786.2,13.9z
					 M804-0.2l-13.4,13.4c-0.2,0.2-0.5,0.2-0.6,0l-1.6-1.6c0.7-1,0.4-2.4-0.6-3c-0.7-0.5-1.7-0.5-2.4,0L783.7,7
					c-0.2-0.2-0.2-0.5,0-0.6L797.1-7c0.2-0.2,0.5-0.2,0.6,0l0,0l1.6,1.6c-0.7,1-0.4,2.4,0.6,3c0.7,0.5,1.7,0.5,2.4,0l1.6,1.6
					C804.2-0.6,804.2-0.3,804-0.2L804-0.2z"/>
			</g>
		</g>
	</g>
</g>
<path id="Icon_map-bank" class="st7" d="M825.6,2.7c-1-0.7-2.2-1.2-3.4-1.4L821.1,1v-4.9l0.2,0.1c0.9,0.5,1.5,1.4,1.6,2.5h3.9
	c0-1.9-0.8-3.6-2.3-4.7c-1-0.7-2.1-1.2-3.3-1.4v-2.7h-3.6v2.6c-1.5,0.1-2.9,0.7-4,1.6c-1.3,1.1-2,2.7-1.9,4.3
	c-0.1,1.7,0.6,3.3,2,4.2c1.2,0.7,2.6,1.2,4,1.4v5.3c-0.6-0.1-1.2-0.5-1.6-1c-0.5-0.6-0.7-1.2-0.7-2h-3.9c-0.1,1.8,0.7,3.6,2.2,4.7
	c1.2,0.9,2.6,1.4,4,1.6v2h3.6v-2c1.5-0.1,3-0.7,4.2-1.7c1.3-1.1,2.1-2.7,2.1-4.4C827.5,5.1,826.8,3.7,825.6,2.7z M816.2-0.3
	c-0.6-0.3-1-0.9-0.9-1.6c0-0.7,0.3-1.4,1-1.8c0.4-0.2,0.8-0.4,1.2-0.5v4.3C817,0,816.6-0.1,816.2-0.3z M821.7,9.2
	c-0.2,0.1-0.4,0.1-0.6,0.2V4.9c0.5,0.1,1,0.3,1.5,0.6c0.5,0.3,0.9,0.9,0.9,1.5C823.5,8.1,822.7,9,821.7,9.2L821.7,9.2z"/>
<path id="Icon_ionic-md-download" class="st7" d="M848.4,1.1h-4.3v-6.4h-6.5v6.4h-4.3l7.6,7.5L848.4,1.1z M833.2,10.7v2.1h15.2v-2.1
	C848.4,10.7,833.2,10.7,833.2,10.7z"/>
<path id="Icon_material-payment" class="st7" d="M566.6,29.7h-16.7c-1.1,0-2.1,0.9-2.1,2.1l0,0v12.5c0,1.1,0.9,2.1,2.1,2.1l0,0h16.7
	c1.1,0,2.1-0.9,2.1-2.1l0,0V31.8C568.7,30.7,567.7,29.7,566.6,29.7L566.6,29.7z M566.6,44.3h-16.7V38h16.7V44.3z M566.6,33.9h-16.7
	v-2.1h16.7V33.9z"/>
<path id="Icon_awesome-building" class="st7" d="M596,47.6h-0.9V28.1c0-0.6-0.5-1-1-1l0,0h-14.4c-0.6,0-1,0.5-1,1v19.5h-0.9
	c-0.3,0-0.5,0.2-0.5,0.5l0,0V49h19.1v-0.9C596.5,47.9,596.3,47.6,596,47.6L596,47.6z M582.8,30.4c0-0.3,0.2-0.5,0.5-0.5h1.7
	c0.3,0,0.5,0.2,0.5,0.5l0,0v1.7c0,0.3-0.2,0.5-0.5,0.5h-1.7c-0.3,0-0.5-0.2-0.5-0.5V30.4z M582.8,34.5c0-0.3,0.2-0.5,0.5-0.5h1.7
	c0.3,0,0.5,0.2,0.5,0.5l0,0v1.7c0,0.3-0.2,0.5-0.5,0.5h-1.7c-0.3,0-0.5-0.2-0.5-0.5l0,0V34.5z M585.1,40.8h-1.7
	c-0.3,0-0.5-0.2-0.5-0.5l0,0v-1.7c0-0.3,0.2-0.5,0.5-0.5h1.7c0.3,0,0.5,0.2,0.5,0.5l0,0v1.7C585.6,40.6,585.3,40.8,585.1,40.8
	L585.1,40.8L585.1,40.8z M588.3,47.6h-2.7V44c0-0.3,0.2-0.5,0.5-0.5h1.7c0.3,0,0.5,0.2,0.5,0.5V47.6z M591,40.3
	c0,0.3-0.2,0.5-0.5,0.5h-1.7c-0.3,0-0.5-0.2-0.5-0.5v-1.7c0-0.3,0.2-0.5,0.5-0.5h1.7c0.3,0,0.5,0.2,0.5,0.5V40.3z M591,36.2
	c0,0.3-0.2,0.5-0.5,0.5h-1.7c-0.3,0-0.5-0.2-0.5-0.5v-1.7c0-0.3,0.2-0.5,0.5-0.5l0,0h1.7c0.3,0,0.5,0.2,0.5,0.5V36.2z M591,32.1
	c0,0.3-0.2,0.5-0.5,0.5h-1.7c-0.3,0-0.5-0.2-0.5-0.5v-1.7c0-0.3,0.2-0.5,0.5-0.5l0,0h1.7c0.3,0,0.5,0.2,0.5,0.5V32.1z"/>
<g id="Grupo_2489" transform="translate(-37.993 -15.328)">
	<g id="Icon_feather-book-open" transform="translate(39.493 16.828)">
		<path id="Trazado_1375" class="st14" d="M605.2,27.2h7.1c2.6,0,4.7,2.1,4.7,4.7l0,0v16.6c0-2-1.6-3.6-3.6-3.6h-8.3L605.2,27.2
			L605.2,27.2z"/>
		<path id="Trazado_1376" class="st14" d="M628.9,27.2h-7.1c-2.6,0-4.7,2.1-4.7,4.7l0,0v16.6c0-2,1.6-3.6,3.6-3.6l0,0h8.3
			L628.9,27.2z"/>
	</g>
</g>
<path id="Shape_13" class="st7" d="M642.9,46.7c-1,0-2-0.4-2.7-1.1c-0.7-0.8-1.2-1.8-1.2-2.9V30.6c0-1.1,0.4-2.1,1.2-2.8
	c0.7-0.8,1.7-1.2,2.7-1.2h5.9v2.5h-5.9c-0.8,0-1.4,0.7-1.4,1.4l0,0v12.1c0,0.8,0.6,1.5,1.4,1.5l0,0h5.9v2.5h-5.9V46.7z M652.4,44.7
	c-0.3-0.1-0.5-0.4-0.5-0.8v-3.8h-5.4c-0.6,0-1-0.5-1-1v-4.8c0-0.6,0.5-1,1-1h5.4v-3.8c0-0.4,0.3-0.8,0.8-0.8c0.2,0,0.4,0.1,0.5,0.2
	l7,7.2c0.3,0.3,0.3,0.8,0,1.1l-7,7.3c-0.1,0.1-0.3,0.2-0.5,0.2C652.6,44.7,652.5,44.7,652.4,44.7L652.4,44.7z"/>
<g id="Hamburger_Icon_00000167379193073895695260000013747475723738720161_">
	<g id="Hamburger_Icon-2_00000022552893056208219110000003413774105623943564_">
		<path id="Trazado_11_00000019650781392247429880000001550833776153144479_" class="st3" d="M489.8-58.4c0-1.1,0.6-2,1.3-2H508
			c0.7,0,1.2,0.9,1.2,2s-0.6,2-1.2,2h-16.9C490.4-56.4,489.8-57.3,489.8-58.4z"/>
		<path id="Trazado_1290_00000047759206796726563080000007030617159809476241_" class="st3" d="M489.8-58.4c0-1.1,0.6-2,1.3-2H508
			c0.7,0,1.2,0.9,1.2,2s-0.6,2-1.2,2h-16.9C490.4-56.4,489.8-57.3,489.8-58.4z"/>
		<path id="Trazado_1291_00000111167687858538567270000009980171718157960634_" class="st3" d="M489.8-51.2c0-0.9,0.6-1.7,1.3-1.7
			H508c0.7,0,1.2,0.7,1.2,1.7c0,0.9-0.6,1.7-1.2,1.7h-16.9C490.4-49.5,489.8-50.2,489.8-51.2z"/>
		<path id="Trazado_1292_00000127029685144603788110000009994733822614004098_" class="st3" d="M489.8-65.5c0-1,0.6-1.9,1.3-1.9H508
			c0.7,0,1.2,0.8,1.2,1.9s-0.6,1.9-1.2,1.9h-16.9C490.4-63.6,489.8-64.5,489.8-65.5z"/>
	</g>
</g>
<g id="Grupo_2461" transform="translate(0.299 0.213)">
	<path id="Trazado_1342" class="st3" d="M568.1,85.4h-13.5c-0.9,0-1.5-0.7-1.5-1.5v-9.3c0-0.9,0.7-1.5,1.5-1.5h13.5
		c0.9,0,1.5,0.7,1.5,1.5v9.3C569.6,84.7,568.9,85.4,568.1,85.4z M554.5,73.9c-0.4,0-0.8,0.3-0.8,0.8V84c0,0.4,0.3,0.8,0.8,0.8H568
		c0.4,0,0.8-0.3,0.8-0.8v-9.3c0-0.4-0.3-0.8-0.8-0.8H554.5z"/>
	<path id="Trazado_1343" class="st3" d="M569.2,78.1h-15.8c-0.2,0-0.4-0.1-0.4-0.3l0,0v-2.3c0-0.2,0.1-0.4,0.3-0.4l0,0h15.8
		c0.2,0,0.4,0.1,0.4,0.3l0,0v2.3C569.6,77.9,569.5,78.1,569.2,78.1L569.2,78.1z M553.8,77.3h15.1v-1.5h-15.1V77.3z"/>
	<path id="Trazado_1344" class="st3" d="M567.7,83.9h-5c-0.2,0-0.4-0.1-0.4-0.3l0,0v-2.7c0-0.2,0.1-0.4,0.3-0.4l0,0h5
		c0.2,0,0.4,0.1,0.4,0.3l0,0v2.7C568.1,83.7,567.9,83.9,567.7,83.9L567.7,83.9z M563,83.1h4.2v-1.9H563V83.1z"/>
	<path id="Trazado_1345" class="st3" d="M556.9,80H555c-0.2,0-0.4-0.2-0.4-0.4s0.2-0.4,0.4-0.4h1.9c0.2,0,0.4,0.2,0.4,0.4
		S557.1,80,556.9,80L556.9,80z"/>
	<path id="Trazado_1346" class="st3" d="M560.7,80h-2.5c-0.2,0-0.4-0.2-0.4-0.4s0.2-0.4,0.4-0.4h2.5c0.2,0,0.4,0.2,0.4,0.4
		S560.9,80,560.7,80z"/>
	<path id="Trazado_1347" class="st3" d="M558.8,81.6H555c-0.2,0-0.4-0.2-0.4-0.4s0.2-0.4,0.4-0.4h3.8c0.2,0,0.4,0.1,0.4,0.3l0,0
		C559.1,81.4,559,81.6,558.8,81.6z"/>
	<path id="Trazado_1348" class="st3" d="M560.7,81.6H560c-0.2,0-0.4-0.2-0.4-0.4s0.2-0.4,0.4-0.4h0.7c0.2,0,0.4,0.2,0.4,0.4
		S560.9,81.6,560.7,81.6L560.7,81.6z"/>
	<path id="Trazado_1349" class="st3" d="M566.1,88.5h-17.8c-0.2,0-0.4-0.1-0.4-0.3l0,0v-1.5c0-0.2,0.1-0.4,0.3-0.4l0,0h0.4V75.4
		h-1.5c-0.4,0-0.7-0.2-0.8-0.5s0-0.7,0.2-1l2-1.8v-4.4h-0.4c-0.2,0-0.4-0.2-0.4-0.4v-1.5c0-0.2,0.1-0.4,0.3-0.4l0,0h4.6
		c0.2,0,0.4,0.1,0.4,0.3l0,0v1.5c0,0.2-0.1,0.4-0.3,0.4l0,0h-0.4v1l3-2.7c0.9-0.9,2.4-0.9,3.3,0l8.1,7.1c0.1,0.1,0.2,0.3,0.1,0.4
		c-0.1,0.2-0.2,0.3-0.4,0.3h-12.2c-0.4,0-0.8,0.3-0.8,0.8v9.3c0,0.4,0.3,0.8,0.8,0.8H565c0.2,0,0.4,0.1,0.4,0.3l0,0v1.2h0.4
		c0.2,0,0.4,0.2,0.4,0.4V88C566.5,88.3,566.4,88.5,566.1,88.5C566.2,88.5,566.1,88.5,566.1,88.5z M548.8,87.7h17V87h-0.4
		c-0.2,0-0.4-0.1-0.4-0.3l0,0v-1.2h-10.4c-0.9,0-1.5-0.7-1.5-1.5v-9.3c0-0.9,0.7-1.5,1.5-1.5h11.1l-7.3-6.5c-0.6-0.6-1.6-0.6-2.2,0
		l-3.6,3.3c-0.2,0.1-0.4,0.1-0.5,0s-0.1-0.2-0.1-0.3v-2.3c0-0.2,0.1-0.4,0.3-0.4l0,0h0.4v-0.8h-3.9V67h0.4c0.2,0,0.4,0.1,0.4,0.3
		l0,0v5c0,0.1,0,0.2-0.1,0.3l-2.2,1.9v0.1c0,0,0,0,0.1,0h1.9c0.2,0,0.4,0.1,0.4,0.3l0,0v11.6c0,0.2-0.1,0.4-0.3,0.4l0,0H549v0.8
		H548.8z"/>
</g>
<g id="Grupo_2460" transform="translate(-55 -212.558)">
	<path id="Trazado_1333" class="st3" d="M648.2,287.2l0.6-0.6l0.6,0.6l-0.6,0.6L648.2,287.2z"/>
	<path id="Trazado_1334" class="st3" d="M647,285.9l0.6-0.6l0.6,0.6l-0.6,0.6L647,285.9z"/>
	<path id="Trazado_1335" class="st3" d="M645.7,284.7l0.6-0.6l0.6,0.6l-0.6,0.6L645.7,284.7z"/>
	<path id="Trazado_1336" class="st3" d="M650.7,289.7l0.6-0.6l0.6,0.6l-0.6,0.6L650.7,289.7z"/>
	<path id="Trazado_1337" class="st3" d="M649.5,288.4l0.6-0.6l0.6,0.6l-0.6,0.6L649.5,288.4z"/>
	<g id="Grupo_2459" transform="translate(55 212.89)">
		<g>
			<g id="Grupo_2458_00000057109052369476762810000006675841834833737883_" transform="translate(0 0)">
				<path id="Trazado_1338_00000105424002959075555950000006370108931856145336_" class="st3" d="M589.2,82.6
					c-0.2,0-0.3-0.1-0.4-0.2l-0.8-1.6l-1.7,0.3c-0.2,0-0.5-0.1-0.5-0.4c0-0.1,0-0.3,0.1-0.4l1.2-1.2l-0.8-1.6
					c-0.1-0.2,0-0.5,0.2-0.6c0.1-0.1,0.3-0.1,0.4,0l1.6,0.8l1.2-1.2c0.2-0.2,0.5-0.2,0.6,0c0.1,0.1,0.2,0.2,0.1,0.4l-0.3,1.7
					l1.6,0.8c0.2,0.1,0.3,0.4,0.2,0.6c-0.1,0.1-0.2,0.2-0.3,0.2l-1.7,0.3l-0.3,1.7C589.6,82.5,589.5,82.6,589.2,82.6
					C589.3,82.6,589.2,82.6,589.2,82.6L589.2,82.6z M588.3,79.9c0.2,0,0.3,0.1,0.4,0.2l0.3,0.6l0.1-0.7c0-0.2,0.2-0.3,0.4-0.4
					l0.7-0.1l-0.6-0.3c-0.2-0.1-0.3-0.3-0.2-0.5l0.1-0.7l-0.5,0.5c-0.1,0.1-0.3,0.2-0.5,0.1l-0.6-0.3l0.3,0.6
					c0.1,0.2,0.1,0.4-0.1,0.5l-0.5,0.5L588.3,79.9C588.2,79.9,588.2,79.9,588.3,79.9L588.3,79.9z"/>
				<path id="Trazado_1339_00000051343931626775863080000016770176638426383022_" class="st3" d="M601.3,73.1l-2.2-2.2l-0.3,0.3
					c-0.5,0.5-1.4,0.5-1.9,0s-0.5-1.4,0-1.9l0,0l0.3-0.3l-2.2-2.2c-0.5-0.5-1.4-0.5-1.9,0l0,0l-1.6,1.6l-0.9-0.9
					c-0.5-0.5-1.4-0.5-1.9,0l0,0L575.2,81c-0.5,0.5-0.5,1.4,0,1.9l0,0l2.2,2.2l0.3-0.3c0.5-0.5,1.4-0.5,1.9,0s0.5,1.4,0,1.9l0,0
					l-0.3,0.3l2.2,2.2c0.5,0.5,1.4,0.5,1.9,0l0,0l1.6-1.6l0.9,0.9c0.5,0.5,1.4,0.5,1.9,0l0,0L601.3,75
					C601.8,74.5,601.8,73.6,601.3,73.1L601.3,73.1L601.3,73.1z M582.8,88.5c-0.2,0.2-0.5,0.2-0.6,0l0,0l-1.6-1.6
					c0.7-1,0.4-2.4-0.6-3.1c-0.7-0.5-1.7-0.5-2.5,0l-1.6-1.6c-0.2-0.2-0.2-0.5,0-0.6l0,0l13.5-13.5c0.2-0.2,0.5-0.2,0.6,0l0,0l1,0.9
					l-11.3,11.3c-0.5,0.5-0.5,1.4,0,1.9l0,0l2.2,2.2l0.3-0.3c0.5-0.5,1.4-0.5,1.9,0s0.5,1.4,0,1.9l0,0l-0.3,0.3l0.6,0.6L582.8,88.5z
					 M600.7,74.3l-13.5,13.5c-0.2,0.2-0.5,0.2-0.6,0l0,0l-1.6-1.6c0.7-1,0.4-2.4-0.6-3.1c-0.7-0.5-1.7-0.5-2.4,0l-1.6-1.6
					c-0.2-0.2-0.2-0.5,0-0.6l0,0l13.5-13.5c0.2-0.2,0.5-0.2,0.6,0l0,0L596,69c-0.7,1-0.4,2.4,0.6,3.1c0.7,0.5,1.7,0.5,2.4,0l1.6,1.6
					C600.9,73.9,600.9,74.2,600.7,74.3L600.7,74.3L600.7,74.3z"/>
			</g>
		</g>
	</g>
</g>
<path id="Icon_feather-phone-call_00000068650561255578699720000000038707863935249045_" class="st15" d="M621.8,68.3
	c2.3,0.5,4.2,2.3,4.6,4.6 M621.8,63.6c4.9,0.5,8.8,4.4,9.3,9.3 M629.9,82.3v3.5c0,1.3-1,2.3-2.3,2.4c-0.1,0-0.1,0-0.2,0
	c-3.6-0.4-7.1-1.6-10.1-3.6c-2.8-1.8-5.2-4.2-7-7c-2-3.1-3.2-6.5-3.6-10.2c-0.1-1.3,0.8-2.4,2.1-2.5c0.1,0,0.1,0,0.2,0h3.5
	c1.2,0,2.2,0.9,2.3,2s0.4,2.2,0.8,3.3c0.3,0.9,0.1,1.8-0.5,2.5l-1.5,1.5c1.7,2.9,4.1,5.4,7,7l1.5-1.5c0.7-0.6,1.6-0.8,2.5-0.5
	c1.1,0.4,2.2,0.7,3.3,0.8C629.1,80.1,630,81.1,629.9,82.3z"/>
<path id="Icon_material-person-pin" class="st3" d="M657.5,63.7h-15.4c-1.2,0-2.2,1-2.2,2.2l0,0v15.4c0,1.2,1,2.2,2.2,2.2l0,0h4.4
	l3.3,3.3l3.3-3.3h4.4c1.2,0,2.2-1,2.2-2.2V65.9C659.6,64.7,658.7,63.7,657.5,63.7z M649.8,67.3c1.6,0,3,1.3,3,3s-1.3,3-3,3
	c-1.6,0-3-1.3-3-3C646.8,68.6,648.1,67.3,649.8,67.3z M656.4,79.1h-13.2v-1c0-2.2,4.4-3.4,6.6-3.4c2.2,0,6.6,1.2,6.6,3.4L656.4,79.1
	z"/>
<g>
	<path id="Shape_2_00000098915821844619272140000006932604565132637829_" class="st3" d="M582.6,105.7c-0.2-0.2-0.5-0.2-0.7,0
		l-7.5,6.4v7.6c0,0.9,0.7,1.6,1.6,1.6h4.2c0.3,0,0.5-0.2,0.5-0.5v-3.1c0-0.9,0.7-1.6,1.6-1.6c0.9,0,1.6,0.7,1.6,1.6l0,0v3.1
		c0,0.3,0.2,0.5,0.5,0.5h4.2c0.9,0,1.6-0.7,1.6-1.6v-7.6L582.6,105.7z"/>
	<text transform="matrix(1 0 0 1 573.0191 131.6959)" class="st3" style="font-family:'TrebuchetMS'; font-size:7.8918px;">Inicio</text>
</g>
<g>
	<path id="Shape_2_00000059286844449011535170000010626928920289075343_" class="st7" d="M555.5,105.7c-0.2-0.2-0.5-0.2-0.7,0
		l-7.5,6.4v7.6c0,0.9,0.7,1.6,1.6,1.6h4.2c0.3,0,0.5-0.2,0.5-0.5v-3.1c0-0.9,0.7-1.6,1.6-1.6s1.6,0.7,1.6,1.6l0,0v3.1
		c0,0.3,0.2,0.5,0.5,0.5h4.2c0.9,0,1.6-0.7,1.6-1.6v-7.6L555.5,105.7z"/>
	<text transform="matrix(1 0 0 1 545.965 131.6959)" style="fill:#575760; font-family:'TrebuchetMS'; font-size:7.8918px;">Inicio</text>
</g>
<g>
	<g class="st16">
		<path class="st7" d="M605.9,128.2v1.7h-0.6v-4.4c0.5,0,0.7,0,0.8,0c1.3,0,1.9,0.4,1.9,1.3c0,1-0.6,1.5-1.7,1.5
			C606.3,128.2,606.1,128.2,605.9,128.2z M605.9,126.1v1.6c0.3,0,0.4,0,0.4,0c0.7,0,1.1-0.3,1.1-0.9c0-0.5-0.4-0.8-1.2-0.8
			C606.1,126,606,126.1,605.9,126.1z"/>
		<path class="st7" d="M610.1,127.3c-0.1-0.1-0.2-0.1-0.4-0.1s-0.4,0.1-0.5,0.3c-0.1,0.2-0.2,0.4-0.2,0.7v1.8h-0.6v-3.2h0.6v0.5
			c0.2-0.4,0.5-0.6,0.9-0.6c0.1,0,0.2,0,0.4,0.1L610.1,127.3z"/>
		<path class="st7" d="M610.5,128.3c0-0.5,0.1-0.9,0.4-1.2c0.3-0.3,0.6-0.5,1-0.5c0.5,0,0.8,0.1,1.1,0.4s0.4,0.7,0.4,1.2
			c0,0.5-0.1,0.9-0.4,1.2s-0.6,0.4-1.1,0.4s-0.8-0.1-1.1-0.4C610.6,129.2,610.5,128.8,610.5,128.3z M611.1,128.3
			c0,0.8,0.3,1.2,0.8,1.2c0.3,0,0.5-0.1,0.6-0.3s0.2-0.5,0.2-0.9c0-0.8-0.3-1.2-0.8-1.2c-0.3,0-0.5,0.1-0.6,0.3
			C611.2,127.6,611.1,127.9,611.1,128.3z"/>
		<path class="st7" d="M616,129.9v-0.2c-0.2,0.2-0.5,0.3-0.9,0.3s-0.7-0.1-1-0.4s-0.4-0.7-0.4-1.1c0-0.5,0.1-0.9,0.4-1.2
			c0.3-0.3,0.6-0.5,1-0.5c0.3,0,0.6,0.1,0.7,0.2v-1.5h0.6v4.5H616V129.9z M616,127.4c-0.1-0.2-0.3-0.3-0.6-0.3s-0.5,0.1-0.7,0.3
			c-0.2,0.2-0.3,0.5-0.3,0.9c0,0.8,0.3,1.2,1,1.2c0.1,0,0.2,0,0.3-0.1s0.2-0.1,0.2-0.2L616,127.4L616,127.4z"/>
		<path class="st7" d="M617.9,126.7v2c0,0.5,0.2,0.7,0.6,0.7c0.2,0,0.4-0.1,0.5-0.2c0.2-0.1,0.3-0.2,0.3-0.4v-2.2h0.6v3.2h-0.6v-0.4
			c-0.1,0.1-0.2,0.2-0.4,0.3s-0.4,0.2-0.6,0.2c-0.3,0-0.6-0.1-0.8-0.3s-0.3-0.5-0.3-0.9v-2.1L617.9,126.7L617.9,126.7z"/>
		<path class="st7" d="M623.1,127l-0.3,0.4c-0.1-0.1-0.2-0.1-0.3-0.2s-0.3-0.1-0.4-0.1c-0.3,0-0.6,0.1-0.7,0.3
			c-0.2,0.2-0.3,0.5-0.3,0.9s0.1,0.7,0.3,0.9s0.4,0.3,0.8,0.3c0.3,0,0.5-0.1,0.8-0.3l0.2,0.5c-0.3,0.2-0.7,0.3-1.1,0.3
			c-0.4,0-0.8-0.1-1.1-0.4s-0.4-0.7-0.4-1.2s0.1-0.9,0.4-1.2c0.3-0.3,0.7-0.5,1.2-0.5c0.2,0,0.3,0,0.5,0.1S623,126.9,623.1,127z"/>
		<path class="st7" d="M623.9,127.2h-0.4v-0.4h0.4V126l0.6-0.2v0.9h0.9v0.4h-0.9v1.6c0,0.3,0,0.5,0.1,0.6s0.2,0.2,0.4,0.2
			c0.1,0,0.3,0,0.4-0.1l0.1,0.5c-0.2,0.1-0.5,0.1-0.8,0.1s-0.5-0.1-0.6-0.3c-0.2-0.2-0.3-0.4-0.3-0.7L623.9,127.2L623.9,127.2z"/>
		<path class="st7" d="M625.9,128.3c0-0.5,0.1-0.9,0.4-1.2c0.3-0.3,0.6-0.5,1-0.5c0.5,0,0.8,0.1,1.1,0.4s0.4,0.7,0.4,1.2
			c0,0.5-0.1,0.9-0.4,1.2s-0.6,0.4-1.1,0.4s-0.8-0.1-1.1-0.4C626.1,129.2,625.9,128.8,625.9,128.3z M626.5,128.3
			c0,0.8,0.3,1.2,0.8,1.2c0.3,0,0.5-0.1,0.6-0.3s0.2-0.5,0.2-0.9c0-0.8-0.3-1.2-0.8-1.2c-0.3,0-0.5,0.1-0.6,0.3
			C626.6,127.6,626.5,127.9,626.5,128.3z"/>
		<path class="st7" d="M629.2,129.7l0.2-0.5c0.3,0.2,0.6,0.3,0.8,0.3c0.3,0,0.5-0.1,0.5-0.4c0-0.2-0.2-0.4-0.5-0.5s-0.4-0.2-0.5-0.3
			s-0.2-0.1-0.2-0.2c-0.1-0.1-0.1-0.2-0.1-0.2s0-0.2,0-0.3c0-0.3,0.1-0.5,0.3-0.6s0.4-0.2,0.7-0.2c0.2,0,0.5,0.1,0.9,0.2l-0.2,0.5
			c-0.2-0.2-0.4-0.3-0.7-0.3c-0.1,0-0.2,0-0.3,0.1s-0.1,0.1-0.1,0.2c0,0.2,0.1,0.4,0.3,0.5l0.4,0.2c0.2,0.1,0.4,0.2,0.5,0.4
			c0.1,0.1,0.2,0.3,0.2,0.5c0,0.3-0.1,0.5-0.3,0.7s-0.5,0.2-0.8,0.2C629.8,130,629.5,129.9,629.2,129.7z"/>
	</g>
	<g id="Grupo_2444" transform="translate(-6889.528 -2053)">
		<g id="Rectángulo_218_00000068672389913697309440000006397855229397199524_" transform="translate(6902 2053)">
			<path class="st17" d="M603.1,109.7h5.4c1.1,0,2,0.9,2,2v8.1c0,1.1-0.9,2-2,2h-5.4c-1.1,0-2-0.9-2-2v-8.1
				C601.1,110.6,602,109.7,603.1,109.7z"/>
			<path class="st17" d="M603.1,110.2h5.4c0.8,0,1.5,0.7,1.5,1.5v8.1c0,0.8-0.7,1.5-1.5,1.5h-5.4c-0.8,0-1.5-0.7-1.5-1.5v-8.1
				C601.6,110.9,602.3,110.2,603.1,110.2z"/>
		</g>
		
			<line id="Línea_1_00000109740643489609401030000001599951685242473654_" class="st17" x1="7504.8" y1="2165.8" x2="7510.2" y2="2165.8"/>
		
			<line id="Línea_2_00000065782021636344459030000000940456387443764153_" class="st17" x1="7504.8" y1="2167.8" x2="7510.2" y2="2167.8"/>
		
			<line id="Línea_3_00000183928055493191241730000010879317270828705933_" class="st17" x1="7504.8" y1="2169.8" x2="7508.2" y2="2169.8"/>
	</g>
</g>
<g>
	<text transform="matrix(1 0 0 1 637.236 128.4023)" class="st3" style="font-family:'TrebuchetMS'; font-size:4.689px;">Certificados</text>
	<path id="Icon_ionic-md-download_00000152265023092650580440000012976264115534591124_" class="st3" d="M653.7,116.1h-2.3v-3.3H648
		v3.3h-2.3l4,3.9L653.7,116.1z M645.8,121.1v1.1h7.9v-1.1H645.8z"/>
</g>
<g>
	<g class="st16">
		<path class="st7" d="M668,126.3v1.1h-0.4v-2.9c0.3,0,0.5,0,0.5,0c0.8,0,1.3,0.3,1.3,0.9c0,0.7-0.4,1-1.1,1
			C668.2,126.3,668.1,126.3,668,126.3z M668,124.9v1.1c0.2,0,0.3,0,0.3,0c0.5,0,0.7-0.2,0.7-0.6s-0.3-0.5-0.8-0.5
			C668.1,124.9,668.1,124.9,668,124.9z"/>
		<path class="st7" d="M670.8,127.2c-0.2,0.2-0.4,0.3-0.7,0.3c-0.2,0-0.3-0.1-0.4-0.2c-0.1-0.1-0.2-0.3-0.2-0.5s0.1-0.4,0.3-0.5
			s0.4-0.2,0.7-0.2c0.1,0,0.2,0,0.3,0.1c0-0.3-0.2-0.5-0.5-0.5c-0.2,0-0.4,0.1-0.5,0.2l-0.2-0.3c0.1-0.1,0.2-0.1,0.3-0.2
			c0.1,0,0.2-0.1,0.4-0.1c0.3,0,0.5,0.1,0.7,0.2c0.1,0.1,0.2,0.4,0.2,0.7v0.8c0,0.2,0.1,0.3,0.2,0.4v0.2c-0.2,0-0.3,0-0.3-0.1
			S670.9,127.3,670.8,127.2z M670.8,126.4c-0.1,0-0.2,0-0.3,0c-0.2,0-0.3,0-0.5,0.1c-0.1,0.1-0.2,0.2-0.2,0.3c0,0.2,0.1,0.3,0.4,0.3
			c0.2,0,0.4-0.1,0.5-0.3L670.8,126.4L670.8,126.4z"/>
		<path class="st7" d="M671.7,128l0.2-0.3c0.2,0.1,0.4,0.2,0.6,0.2c0.2,0,0.3,0,0.4-0.1c0.1-0.1,0.1-0.1,0.1-0.2
			c0-0.2-0.1-0.3-0.4-0.3c0,0-0.1,0-0.2,0c-0.1,0-0.2,0-0.3,0c-0.3,0-0.5-0.1-0.5-0.3c0-0.1,0-0.1,0.1-0.2s0.2-0.1,0.3-0.1
			c-0.3-0.1-0.5-0.4-0.5-0.7c0-0.2,0.1-0.4,0.2-0.6c0.2-0.1,0.3-0.2,0.6-0.2c0.2,0,0.4,0,0.5,0.1l0.2-0.2l0.2,0.2l-0.2,0.2
			c0.1,0.1,0.1,0.3,0.1,0.5s-0.1,0.4-0.2,0.5c-0.1,0.1-0.3,0.2-0.5,0.3h-0.3H672c-0.1,0-0.1,0.1-0.1,0.1c0,0.1,0.1,0.1,0.2,0.1
			c0.1,0,0.1,0,0.3,0c0.1,0,0.2,0,0.3,0c0.2,0,0.4,0.1,0.5,0.2s0.2,0.2,0.2,0.4c0,0.2-0.1,0.4-0.3,0.5s-0.4,0.2-0.7,0.2
			c-0.1,0-0.3,0-0.4-0.1C671.9,128.2,671.8,128.1,671.7,128z M672.5,125.6c-0.1,0-0.2,0-0.3,0.1s-0.1,0.2-0.1,0.3
			c0,0.1,0,0.3,0.1,0.4s0.2,0.1,0.3,0.1s0.2,0,0.3-0.1s0.1-0.2,0.1-0.4c0-0.1,0-0.2-0.1-0.3C672.7,125.6,672.6,125.6,672.5,125.6z"
			/>
		<path class="st7" d="M673.7,126.4c0-0.3,0.1-0.6,0.3-0.8c0.2-0.2,0.4-0.3,0.7-0.3s0.5,0.1,0.7,0.3c0.2,0.2,0.3,0.5,0.3,0.8
			s-0.1,0.6-0.3,0.8c-0.2,0.2-0.4,0.3-0.7,0.3s-0.5-0.1-0.7-0.3S673.7,126.7,673.7,126.4z M674.1,126.4c0,0.5,0.2,0.8,0.6,0.8
			c0.2,0,0.3-0.1,0.4-0.2s0.2-0.3,0.2-0.6c0-0.5-0.2-0.8-0.6-0.8c-0.2,0-0.3,0.1-0.4,0.2C674.1,125.9,674.1,126.1,674.1,126.4z"/>
		<path class="st7" d="M675.9,127.3l0.1-0.4c0.2,0.1,0.4,0.2,0.5,0.2c0.2,0,0.4-0.1,0.4-0.3c0-0.1-0.1-0.3-0.3-0.4s-0.3-0.1-0.4-0.2
			c-0.1,0-0.1-0.1-0.2-0.1c0-0.1-0.1-0.1-0.1-0.2s0-0.1,0-0.2c0-0.2,0.1-0.3,0.2-0.4c0.1-0.1,0.3-0.1,0.5-0.1s0.4,0,0.6,0.1
			l-0.1,0.4c-0.2-0.1-0.3-0.2-0.5-0.2c-0.1,0-0.2,0-0.2,0.1c-0.1,0-0.1,0.1-0.1,0.2s0.1,0.2,0.2,0.3l0.3,0.1
			c0.2,0.1,0.3,0.2,0.4,0.3c0.1,0.1,0.1,0.2,0.1,0.4c0,0.2-0.1,0.3-0.2,0.4c-0.1,0.1-0.3,0.2-0.6,0.2
			C676.3,127.5,676.1,127.4,675.9,127.3z"/>
		<path class="st7" d="M680.7,126.4h-1.5c0,0.2,0.1,0.4,0.2,0.6c0.1,0.1,0.3,0.2,0.5,0.2s0.4-0.1,0.5-0.2l0.2,0.3
			c-0.1,0.1-0.1,0.1-0.3,0.2s-0.3,0.1-0.5,0.1c-0.3,0-0.5-0.1-0.7-0.3c-0.2-0.2-0.3-0.5-0.3-0.8c0-0.4,0.1-0.6,0.3-0.8
			c0.2-0.2,0.4-0.3,0.7-0.3s0.5,0.1,0.7,0.3c0.2,0.2,0.3,0.4,0.3,0.7C680.7,126.3,680.7,126.3,680.7,126.4z M679.8,125.6
			c-0.2,0-0.3,0.1-0.4,0.2c-0.1,0.1-0.2,0.2-0.2,0.4h1.2c0-0.2,0-0.3-0.1-0.4C680.1,125.6,680,125.6,679.8,125.6z"/>
		<path class="st7" d="M682.4,127.4v-1.2c0-0.2,0-0.4-0.1-0.5s-0.2-0.1-0.3-0.1s-0.2,0-0.3,0.1s-0.2,0.1-0.2,0.2v1.6h-0.4v-2.1h0.3
			l0.1,0.3c0.1-0.2,0.3-0.3,0.6-0.3c0.5,0,0.7,0.3,0.7,0.9v1.3h-0.4V127.4z"/>
		<path class="st7" d="M684.6,126.8v-2.4h0.4v2.3c0,0.1,0,0.2,0.1,0.3c0.1,0.1,0.2,0.1,0.3,0.1v0.3
			C684.9,127.5,684.6,127.3,684.6,126.8z"/>
		<path class="st7" d="M686,127.4v-1.8h-0.3v-0.3h0.7v2.1C686.4,127.4,686,127.4,686,127.4z M686.6,124.2l-0.5,0.7h-0.3l0.3-0.7
			H686.6z"/>
		<path class="st7" d="M688.3,127.4v-1.2c0-0.2,0-0.4-0.1-0.5s-0.2-0.1-0.3-0.1s-0.2,0-0.3,0.1s-0.2,0.1-0.2,0.2v1.6H687v-2.1h0.3
			l0.1,0.3c0.1-0.2,0.3-0.3,0.6-0.3c0.5,0,0.7,0.3,0.7,0.9v1.3h-0.4V127.4z"/>
		<path class="st7" d="M691,126.4h-1.5c0,0.2,0.1,0.4,0.2,0.6c0.1,0.1,0.3,0.2,0.5,0.2s0.4-0.1,0.5-0.2l0.2,0.3
			c-0.1,0.1-0.1,0.1-0.3,0.2s-0.3,0.1-0.5,0.1c-0.3,0-0.5-0.1-0.7-0.3c-0.2-0.2-0.3-0.5-0.3-0.8c0-0.4,0.1-0.6,0.3-0.8
			c0.2-0.2,0.4-0.3,0.7-0.3s0.5,0.1,0.7,0.3c0.2,0.2,0.3,0.4,0.3,0.7C691,126.3,691,126.3,691,126.4z M690.1,125.6
			c-0.2,0-0.3,0.1-0.4,0.2c-0.1,0.1-0.2,0.2-0.2,0.4h1.2c0-0.2,0-0.3-0.1-0.4C690.4,125.6,690.3,125.6,690.1,125.6z"/>
		<path class="st7" d="M692.6,127.2c-0.2,0.2-0.4,0.3-0.7,0.3c-0.2,0-0.3-0.1-0.4-0.2c-0.1-0.1-0.2-0.3-0.2-0.5s0.1-0.4,0.3-0.5
			s0.4-0.2,0.7-0.2c0.1,0,0.2,0,0.3,0.1c0-0.3-0.2-0.5-0.5-0.5c-0.2,0-0.4,0.1-0.5,0.2l-0.2-0.3c0.1-0.1,0.2-0.1,0.3-0.2
			c0.1,0,0.2-0.1,0.4-0.1c0.3,0,0.5,0.1,0.7,0.2c0.1,0.1,0.2,0.4,0.2,0.7v0.8c0,0.2,0.1,0.3,0.2,0.4v0.2c-0.2,0-0.3,0-0.3-0.1
			S692.7,127.3,692.6,127.2z M692.6,126.4c-0.1,0-0.2,0-0.3,0c-0.2,0-0.3,0-0.5,0.1c-0.1,0.1-0.2,0.2-0.2,0.3c0,0.2,0.1,0.3,0.4,0.3
			c0.2,0,0.4-0.1,0.5-0.3L692.6,126.4L692.6,126.4z"/>
	</g>
	<path id="Icon_material-payment_00000093163514079279099890000013171863866964217505_" class="st7" d="M684,114.5h-7.6
		c-0.5,0-0.9,0.4-0.9,0.9l0,0v5.7c0,0.5,0.4,0.9,0.9,0.9l0,0h7.6c0.5,0,0.9-0.4,0.9-0.9l0,0v-5.7C684.9,115,684.5,114.5,684,114.5
		L684,114.5z M684,121.2h-7.6v-2.8h7.6V121.2z M684,116.4h-7.6v-0.9h7.6V116.4z"/>
</g>
<g id="Grupo_2592" transform="translate(-14072.655 -2868.839)">
	<path id="Trazado_80" class="st18" d="M14630.6,3018.8l-1-0.2c0,0,0,0,0-0.1v-1.4c0-1.8-1.8-3.3-3.9-3.3c-2.2,0-3.9,1.5-3.9,3.3
		v1.4l0,0l-1,0.2c-0.5,0.1-0.9,0.5-0.9,1.1v6.7c0,0.6,0.5,1.1,1.1,1.1h9.4c0.6,0,1.1-0.5,1.1-1.1v-6.7
		C14631.5,3019.4,14631.1,3018.9,14630.6,3018.8 M14627.7,3018.8l2.8,0.6c0.3,0,0.4,0.3,0.4,0.5v6.7c0,0.3-0.2,0.5-0.5,0.5h-9.4
		c-0.3,0-0.5-0.2-0.5-0.5v-6.7c0-0.3,0.2-0.5,0.5-0.5l2.8-0.6C14625.1,3018.6,14626.4,3018.6,14627.7,3018.8 M14629,3018.5l-1-0.2
		v-1.1c-0.3-1.3-1.5-2.1-2.8-1.9c-1,0.2-1.7,0.9-1.9,1.9v1.1l-1,0.2v-1.3c0-1.5,1.5-2.7,3.3-2.7s3.3,1.2,3.3,2.7v1.3H14629z
		 M14624,3017.2c0.3-1,1.3-1.5,2.2-1.3c0.6,0.2,1.1,0.7,1.3,1.3v1c-1.2-0.2-2.3-0.2-3.5,0V3017.2z"/>
	<path id="Trazado_81" class="st19" d="M14624.7,3023.5v1.3c0,0.2,0.2,0.4,0.4,0.4h1.2c0.2,0,0.4-0.2,0.4-0.4v-1.3
		c0.4-0.3,0.7-0.8,0.7-1.4c0-0.5-0.2-0.9-0.5-1.2c-0.7-0.7-1.9-0.6-2.5,0.1c-0.3,0.3-0.5,0.8-0.5,1.3
		C14624,3022.8,14624.2,3023.2,14624.7,3023.5 M14626.5,3021.3c0.2,0.2,0.4,0.5,0.4,0.8c0,0.4-0.2,0.8-0.6,1
		c-0.1,0.1-0.1,0.1-0.1,0.2v1.3h-0.9v-1.3c0-0.1-0.1-0.2-0.2-0.3c-0.3-0.2-0.6-0.5-0.6-0.9c0-0.3,0.1-0.6,0.3-0.9
		c0.2-0.2,0.5-0.4,0.8-0.4C14626,3021,14626.3,3021.1,14626.5,3021.3"/>
	<path id="Trazado_82" class="st18" d="M14638.2,3015.8c0-0.5-0.3-0.9-0.7-1.2c0.4-0.3,0.6-0.7,0.7-1.2c0-1.5-3-2.6-6.9-2.6
		s-6.9,1.1-6.9,2.6v0.1c0.2,0,0.4-0.1,0.6-0.1l0,0c0-1,2.6-2,6.3-2s6.3,1.1,6.3,2s-2.6,2-6.3,2c-0.6,0-1.2,0-1.8-0.1
		c0.1,0.2,0.2,0.4,0.3,0.6c0.5,0,1,0.1,1.5,0.1c2,0.1,3.9-0.3,5.7-1.1c0.3,0.2,0.5,0.5,0.6,0.8c0,0.4-0.4,0.7-0.7,0.9
		c-1.7,0.8-3.6,1.2-5.5,1.1c-0.4,0-0.9,0-1.3,0v0.5l0.6,0.1h0.1c0.2,0,0.4,0,0.6,0c2,0.1,3.9-0.3,5.7-1.1c0.3,0.2,0.5,0.5,0.6,0.8
		c0,0.4-0.4,0.7-0.7,0.9l0,0l0,0c-1.5,0.7-3.2,1.1-4.9,1.1v0.6c1.8,0,3.5-0.4,5.1-1.1c0.3,0.2,0.5,0.5,0.6,0.8
		c0,0.4-0.4,0.7-0.8,0.9c-1.5,0.7-3.2,1.1-4.9,1.1v0.6c1.7,0,3.5-0.4,5.1-1.1c0.3,0.2,0.6,0.5,0.6,0.8c0,0.9-2.3,1.9-5.7,2v0.6
		c1.8,0,3.5-0.4,5.1-1.1c0.3,0.2,0.5,0.5,0.6,0.8c0,0.9-2.3,1.9-5.8,2c-0.1,0.2-0.2,0.4-0.4,0.6c3.8,0,6.7-1.1,6.7-2.6
		c0-0.5-0.3-0.9-0.7-1.2c0.4-0.3,0.6-0.7,0.7-1.2c-0.6-0.4-0.9-1.2-0.5-1.8c0.1-0.2,0.3-0.4,0.5-0.5c-0.6-0.4-0.9-1.2-0.5-1.8
		c0.1-0.2,0.3-0.4,0.5-0.5c-0.6-0.4-0.9-1.2-0.5-1.8C14637.9,3016.1,14638,3015.9,14638.2,3015.8"/>
	<path id="Trazado_163" class="st18" d="M14630.6,3018.8l-1-0.2c0,0,0,0,0-0.1v-1.4c0-1.8-1.8-3.3-3.9-3.3c-2.2,0-3.9,1.5-3.9,3.3
		v1.4l0,0l-1,0.2c-0.5,0.1-0.9,0.5-0.9,1.1v6.7c0,0.6,0.5,1.1,1.1,1.1h9.4c0.6,0,1.1-0.5,1.1-1.1v-6.7
		C14631.5,3019.4,14631.1,3018.9,14630.6,3018.8 M14627.7,3018.8l2.8,0.6c0.3,0,0.4,0.3,0.4,0.5v6.7c0,0.3-0.2,0.5-0.5,0.5h-9.4
		c-0.3,0-0.5-0.2-0.5-0.5v-6.7c0-0.3,0.2-0.5,0.5-0.5l2.8-0.6C14625.1,3018.6,14626.4,3018.6,14627.7,3018.8 M14629,3018.5l-1-0.2
		v-1.1c-0.3-1.3-1.5-2.1-2.8-1.9c-1,0.2-1.7,0.9-1.9,1.9v1.1l-1,0.2v-1.3c0-1.5,1.5-2.7,3.3-2.7s3.3,1.2,3.3,2.7v1.3H14629z
		 M14624,3017.2c0.3-1,1.3-1.5,2.2-1.3c0.6,0.2,1.1,0.7,1.3,1.3v1c-1.2-0.2-2.3-0.2-3.5,0V3017.2z"/>
	<path id="Trazado_164" class="st19" d="M14624.7,3023.5v1.3c0,0.2,0.2,0.4,0.4,0.4h1.2c0.2,0,0.4-0.2,0.4-0.4v-1.3
		c0.4-0.3,0.7-0.8,0.7-1.4c0-0.5-0.2-0.9-0.5-1.2c-0.7-0.7-1.9-0.6-2.5,0.1c-0.3,0.3-0.5,0.8-0.5,1.3
		C14624,3022.8,14624.2,3023.2,14624.7,3023.5 M14626.5,3021.3c0.2,0.2,0.4,0.5,0.4,0.8c0,0.4-0.2,0.8-0.6,1
		c-0.1,0.1-0.1,0.1-0.1,0.2v1.3h-0.9v-1.3c0-0.1-0.1-0.2-0.2-0.3c-0.3-0.2-0.6-0.5-0.6-0.9c0-0.3,0.1-0.6,0.3-0.9
		c0.2-0.2,0.5-0.4,0.8-0.4C14626,3021,14626.3,3021.1,14626.5,3021.3"/>
</g>
<g id="Grupo_2595" transform="translate(-14457.678 -2939.639)">
	<path id="Trazado_193" class="st18" d="M15043.8,3087.6c0,0.3,0.2,0.5,0.5,0.5s0.5-0.2,0.5-0.5s-0.2-0.5-0.5-0.5l0,0
		C15044.1,3087.1,15043.8,3087.3,15043.8,3087.6"/>
	<path id="Trazado_195" class="st18" d="M15030.8,3086.3h-1.7v0.6h1.3C15030.5,3086.7,15030.6,3086.5,15030.8,3086.3"/>
	<path id="Trazado_196" class="st18" d="M15041.3,3085.2l0.2-0.6c-1.7-0.4-3.4-0.4-5,0l0.1,0.6
		C15038.1,3084.8,15039.8,3084.8,15041.3,3085.2"/>
	<path id="Trazado_197" class="st18" d="M15028.6,3090.3c0-0.1,0.1-0.2,0.2-0.2l0,0c0.2,0,0.3-0.1,0.5-0.2c-0.2-0.1-0.4-0.3-0.5-0.5
		s-0.2-0.4-0.2-0.6c0-0.3,0.2-0.5,0.5-0.6s0.5,0,0.7,0.3c0.3,0.3,0.4,0.8,0.2,1.3c0.1,0,0.2,0,0.3,0l0,0c0-0.1,0.2-0.2,0.3-0.1
		c0.1,0,0.1,0.1,0.1,0.2c0,0.1,0,0.2-0.1,0.2c-0.1,0.1-0.2,0.1-0.3,0.1c-0.2,0-0.4,0-0.6-0.1c-0.2,0.2-0.6,0.4-0.9,0.4l0,0
		C15028.7,3090.5,15028.6,3090.4,15028.6,3090.3 M15029.1,3088.6c-0.1,0-0.1,0.1-0.1,0.2c0,0.1,0.1,0.3,0.2,0.4
		c0.1,0.2,0.3,0.3,0.4,0.4c0.1-0.3,0.1-0.6-0.2-0.8C15029.3,3088.7,15029.2,3088.6,15029.1,3088.6L15029.1,3088.6"/>
	<path id="Trazado_198" class="st19" d="M15041.8,3081c0-0.1,0-0.1,0-0.2c0-0.1,0-0.2-0.1-0.3c-0.3-1.1-1.3-1.9-2.4-2l0,0l0,0l0,0
		h-0.6h-0.1c-0.1,0-0.1,0-0.2,0c-0.7,0.1-1.4,0.6-1.8,1.2c-0.9,1.3-0.6,3,0.7,3.8l0,0c0.5,0.3,1.1,0.5,1.6,0.5
		c1.3,0,2.4-0.8,2.8-2.1c0-0.1,0.1-0.2,0.1-0.3v-0.1V3081L15041.8,3081z M15041.5,3081.2c0,0.7-0.3,1.3-0.7,1.7
		c-0.5,0.5-1.1,0.7-1.8,0.7l0,0c-0.7,0-1.3-0.3-1.8-0.7c-0.5-0.5-0.7-1.1-0.7-1.7c0-1.4,1.1-2.5,2.5-2.5l0,0c0.7,0,1.3,0.3,1.8,0.7
		C15041.2,3080,15041.5,3080.6,15041.5,3081.2"/>
	<path id="Trazado_199" class="st19" d="M15039,3079.1L15039,3079.1c-0.6,0-1.1,0.2-1.5,0.6c-0.8,0.8-0.8,2.1,0,2.9l0,0
		c0.4,0.4,1,0.6,1.5,0.6l0,0c0.6,0,1.1-0.2,1.5-0.6c0.8-0.8,0.8-2.1,0-2.9l0,0C15040.1,3079.3,15039.5,3079.1,15039,3079.1
		 M15039,3079.5L15039,3079.5c0.5,0,0.9,0.2,1.3,0.5c0.7,0.7,0.7,1.8,0,2.5l0,0c-0.3,0.3-0.8,0.5-1.3,0.5l0,0
		c-0.5,0-0.9-0.2-1.3-0.5c-0.7-0.7-0.7-1.8,0-2.5l0,0C15038,3079.6,15038.5,3079.5,15039,3079.5"/>
	<path id="Trazado_200" class="st19" d="M15038.6,3081.3c0.1,0,0.2,0.1,0.3,0.1s0.2,0.1,0.3,0.2c0.1,0,0.1,0.1,0.1,0.2
		c0,0.1,0,0.2-0.1,0.2s-0.2,0-0.4,0c-0.1,0-0.2-0.1-0.2-0.2c0-0.1,0-0.1-0.1-0.1c-0.1-0.1-0.2,0-0.2,0s0,0.1,0,0.2
		c0,0.2,0.2,0.4,0.4,0.5c0.1,0,0.1,0.1,0.1,0.1c0,0.1,0.1,0.2,0.2,0.2l0,0h0.1l0.1-0.1v-0.1l0,0h0.1c0.2-0.1,0.4-0.2,0.4-0.5
		c0-0.2-0.1-0.4-0.3-0.5c-0.1,0-0.1-0.1-0.2-0.1l0,0c0,0-0.1,0-0.1-0.1c-0.1,0-0.2-0.1-0.3-0.2c-0.1,0-0.1-0.1-0.1-0.2
		c0-0.1,0-0.1,0.1-0.2c0.1-0.1,0.2-0.1,0.4-0.1c0.1,0,0.2,0.1,0.2,0.2c0,0.1,0.1,0.2,0.2,0.2c0.1,0,0.2-0.1,0.2-0.2
		c0-0.2-0.2-0.5-0.4-0.5h-0.1l0,0l0,0c0-0.1,0-0.2-0.2-0.2l0,0c-0.2,0-0.2,0.1-0.2,0.2l0,0l0,0h-0.1c-0.3,0.1-0.4,0.3-0.4,0.6
		C15038.3,3081,15038.4,3081.2,15038.6,3081.3"/>
	<path id="Trazado_201" class="st18" d="M15047.9,3087.8h-0.7l-0.1-0.2c-0.4-0.9-1-1.7-1.8-2.3c-0.3-0.9-0.3-1.8,0-2.7
		c0-0.1,0-0.2-0.1-0.3s-0.2-0.1-0.3-0.1c-1.1,0.1-2.1,0.6-2.9,1.4c-0.1,0-0.3-0.1-0.4-0.1c-0.2,0.2-0.4,0.4-0.6,0.5
		c0.3,0.1,0.7,0.2,1,0.3c0.1,0,0.3,0,0.4-0.1c0.5-0.6,1.3-1.1,2.1-1.2c-0.2,0.9-0.2,1.9,0.2,2.7c0,0,0,0.1,0.1,0.1
		c0.7,0.6,1.3,1.3,1.7,2.1l0.2,0.4c0.1,0.1,0.2,0.2,0.3,0.2h0.9c0.3,0,0.5,0.2,0.5,0.5l0,0v2c0,0.3-0.2,0.5-0.5,0.5l0,0h-0.9
		c-0.1,0-0.2,0.1-0.3,0.2l-0.2,0.4c-0.3,0.7-0.8,1.4-1.4,1.9l-0.3,0.3c-0.1,0.1-0.1,0.2-0.1,0.3l0.6,2.1l-2.3,0.7l-0.4-1.4
		c0-0.1-0.2-0.2-0.3-0.2h-0.1l-0.6,0.2c-1.7,0.5-3.5,0.5-5.2,0l-0.6-0.2c-0.2,0-0.3,0.1-0.4,0.2l-0.4,1.3l-2.3-0.7l0.6-1.9
		c0-0.1,0-0.2-0.1-0.3l-0.3-0.3c-1.2-1-2-2.5-2-4.1c0-2.9,2.5-5.3,5.9-6c-0.2-0.2-0.4-0.3-0.5-0.5c-3.5,0.9-6,3.5-6,6.5
		c0,1.8,0.9,3.5,2.2,4.6l0.1,0.1l-0.5,1.8c0,0.1,0,0.3,0,0.4c0.1,0.1,0.2,0.2,0.3,0.3l2.5,0.7l0,0c0.1,0,0.1,0,0.2,0
		c0.3,0,0.5-0.2,0.6-0.4l0.3-1.1l0.3,0.1c1.8,0.5,3.7,0.4,5.5-0.1l0.3-0.1l0.4,1.2c0.1,0.3,0.4,0.5,0.7,0.4l2.5-0.7
		c0.1,0,0.3-0.1,0.3-0.3c0.1-0.1,0.1-0.3,0-0.4l-0.6-2l0.1-0.1c0.7-0.6,1.2-1.3,1.6-2.1l0.1-0.2h0.7c0.6,0,1.1-0.5,1.1-1.1v-2
		C15049,3088.3,15048.5,3087.8,15047.9,3087.8"/>
</g>
<path id="Trazado_1631" class="st18" d="M620.3,150.8c0-6.4-5.2-11.6-11.6-11.6l0,0l0,0c-6.4,0-11.6,5.2-11.7,11.6
	c0,1.6,0.3,3.1,0.9,4.5c1.2,2.8,3.4,5,6.2,6.2c1.4,0.6,3,0.9,4.5,0.9l0,0C615.1,162.4,620.3,157.2,620.3,150.8z M598.4,151.5h3.8
	c0.1,1.4,0.3,2.8,0.8,4.2h-3.4C598.9,154.4,598.5,152.9,598.4,151.5z M599.6,146h3.4c-0.5,1.3-0.8,2.7-0.8,4.1h-3.8
	C598.5,148.7,598.9,147.3,599.6,146z M618.9,150.1h-3.7c-0.1-1.4-0.4-2.8-0.8-4.1h3.4C618.4,147.3,618.8,148.7,618.9,150.1
	L618.9,150.1z M613.9,150.1h-4.4V146h3.5C613.5,147.3,613.8,148.7,613.9,150.1L613.9,150.1z M609.4,144.7v-3.4
	c1.1,1,2.1,2.1,2.8,3.4H609.4z M608,141.3v3.4h-2.8C605.9,143.4,606.9,142.2,608,141.3z M608,146v4.1h-4.4c0.1-1.4,0.4-2.8,0.9-4.1
	H608z M603.6,151.5h4.5v4.2h-3.5C604,154.3,603.7,152.9,603.6,151.5z M608,157v3.4c-1.1-1-2.1-2.1-2.8-3.4H608z M609.4,160.4V157
	h2.8C611.5,158.3,610.6,159.5,609.4,160.4z M609.4,155.6v-4.2h4.5c-0.1,1.4-0.4,2.9-0.9,4.2H609.4z M615.2,151.5h3.7
	c-0.1,1.5-0.5,2.9-1.2,4.2h-3.3C614.9,154.3,615.2,152.9,615.2,151.5L615.2,151.5z M616.9,144.7h-3.1c-0.7-1.4-1.7-2.7-2.8-3.8
	C613.3,141.4,615.4,142.7,616.9,144.7L616.9,144.7z M606.5,140.8c-1.2,1.1-2.1,2.4-2.8,3.8h-3.2C602,142.7,604.1,141.4,606.5,140.8z
	 M600.5,157h3.1c0.7,1.4,1.7,2.7,2.8,3.8C604.1,160.3,602,159,600.5,157z M611,160.8c1.2-1.1,2.1-2.4,2.8-3.8h3.1
	C615.4,158.9,613.3,160.3,611,160.8z"/>
<path id="Trazado_1622" class="st18" d="M634.4,142.6L634.4,142.6h-4.3c-2.1,0-3.8,1.7-3.8,3.8c0,2,1.5,3.7,3.5,3.8l1.3,5.2
	c0.2,0.7,0.8,1.2,1.5,1.2h0.9c0.8,0,1.5-0.7,1.5-1.5c0-0.1,0-0.2,0-0.4l-1.1-4.5h0.5c0,0,0,0,0.1,0c1.2,0,2.5,0.1,3.6,0.5
	c2.5,0.6,4.6,2.2,5.8,4.4c0.1,0.2,0.4,0.4,0.7,0.4c0.1,0,0.1,0,0.2,0c0.3-0.1,0.6-0.4,0.6-0.8v-5.9c1.2-0.1,2-1.1,2-2.3v-0.2
	c0-1.2-0.9-2.1-2-2.3v-5.9c0-0.4-0.4-0.8-0.8-0.8c-0.3,0-0.5,0.1-0.7,0.4c-1.3,2.2-3.4,3.8-5.8,4.4
	C636.9,142.4,635.7,142.6,634.4,142.6z M633.9,155.4c-0.1,0.2-0.3,0.2-0.5,0.2h-0.9c-0.3,0-0.5-0.2-0.6-0.5l-1.2-5h2.2l0.3,1.3H633
	c-0.3,0-0.5,0.2-0.5,0.5s0.2,0.5,0.5,0.5h0.4l0.2,0.9h-0.1c-0.3,0-0.5,0.2-0.5,0.5s0.2,0.5,0.5,0.5l0,0h0.4l0.1,0.6
	C634.1,155.1,634,155.3,633.9,155.4z M633.3,149.3h-3.1c-1.6,0-2.9-1.3-2.9-2.9c0-1.6,1.3-2.9,2.9-2.9h3.8v3.9h-2.9
	c-0.3,0-0.5,0.2-0.5,0.5s0.2,0.5,0.5,0.5h2.8v1h-0.6V149.3z M646.5,146.3v0.2c0,0.7-0.5,1.2-1.1,1.4V145
	C646,145.1,646.5,145.6,646.5,146.3L646.5,146.3z M634.9,143.5c1.2,0,2.3-0.2,3.4-0.5c2.5-0.7,4.7-2.2,6.2-4.4v15.7
	c-1.4-2.2-3.6-3.8-6.2-4.4c-1.1-0.3-2.3-0.5-3.4-0.5C634.9,149.3,634.9,143.5,634.9,143.5z"/>
<path id="Trazado_1623" class="st18" d="M649.2,142.4c0.2-0.2,0.2-0.5,0-0.6c-0.2-0.2-0.5-0.2-0.6,0l0,0l-1.3,1.2
	c-0.2,0.2-0.2,0.5,0,0.6c0.2,0.2,0.5,0.2,0.6,0L649.2,142.4z"/>
<path id="Trazado_1624" class="st18" d="M648.9,151.2c0.3,0,0.5-0.2,0.5-0.5c0-0.1-0.1-0.3-0.2-0.3l-1.3-1.2c-0.2-0.2-0.5-0.2-0.6,0
	c-0.2,0.2-0.2,0.5,0,0.6l0,0l1.3,1.2C648.7,151.1,648.8,151.2,648.9,151.2z"/>
<path id="Trazado_1625" class="st18" d="M649.3,145.9h-1c-0.3,0-0.5,0.2-0.5,0.5s0.2,0.5,0.5,0.5h1c0.3,0,0.5-0.2,0.5-0.5
	C649.8,146.1,649.6,145.9,649.3,145.9L649.3,145.9z"/>
<path id="Trazado_1626" class="st18" d="M629.6,147.6L629.6,147.6c-0.1-0.2-0.2-0.2-0.2-0.2h-0.1c-0.1,0-0.1,0-0.2,0H629h-0.1
	c-0.1,0-0.1,0.1-0.1,0.1v0.1v0.1v0.1v0.1v0.1v0.1c0,0,0,0,0.1,0.1l0.1,0.1h0.1c0.1,0,0.1,0,0.2,0h0.1h0.1c0,0,0,0,0.1-0.1l0.1-0.1
	V148v-0.1C629.7,147.8,629.7,147.8,629.6,147.6C629.7,147.7,629.6,147.7,629.6,147.6z"/>
<g id="Grupo_2584" transform="translate(0 0)">
	<g>
		<g>
			<defs>
				<rect id="SVGID_00000060003065845113672420000007666251041236882823_" x="653.4" y="136.5" width="20.4" height="20.4"/>
			</defs>
			<clipPath id="SVGID_00000148655321137063690320000007575552587031664015_">
				<use xlink:href="#SVGID_00000060003065845113672420000007666251041236882823_"  style="overflow:visible;"/>
			</clipPath>
			<g id="Grupo_2583" style="clip-path:url(#SVGID_00000148655321137063690320000007575552587031664015_);">
				<path id="Trazado_1621" class="st18" d="M664.1,156.3c0,0.4-0.4,0.8-0.8,0.8h-9.1c-0.4,0-0.8-0.4-0.8-0.8v-11.1
					c0-0.2,0.1-0.5,0.3-0.6l9.5-7.9c0.3-0.2,0.7-0.2,1,0l9.5,7.9c0.3,0.3,0.4,0.8,0.1,1.1c-0.3,0.3-0.8,0.4-1.1,0.1l-9-7.5l-8.7,7.3
					v9.9h8.3C663.8,155.5,664.1,155.9,664.1,156.3L664.1,156.3z M672.8,154.1c-1.1,1.2-2.4,2.2-3.9,2.9c-0.2,0.1-0.5,0.1-0.7,0
					c-1.5-0.7-2.8-1.7-3.9-2.9c-2.6-3.2-0.8-6.7,1.9-6.7c0.9,0,1.7,0.3,2.4,0.9c0.7-0.6,1.5-0.9,2.4-0.9
					C673.6,147.5,675.4,151,672.8,154.1L672.8,154.1z M670.9,149.1c-0.7,0-1.3,0.3-1.7,0.8c-0.2,0.4-0.7,0.5-1.1,0.2
					c-0.1-0.1-0.2-0.1-0.2-0.2c-0.4-0.5-1-0.8-1.7-0.8c-1.7,0-3.2,3.3,2.4,6.3C674.1,152.4,672.6,149.1,670.9,149.1L670.9,149.1z"/>
			</g>
		</g>
	</g>
</g>
<path id="Trazado_1630" class="st18" d="M698,157.9h-5.6c-0.4,0-0.7-0.3-0.7-0.7v-5.7h-3.3v5.7c0,0.4-0.3,0.7-0.7,0.7h-5.6
	c-0.4,0-0.7-0.3-0.7-0.7v-9.4h-1.6c-0.7,0-1.2-0.5-1.2-1.2c0-0.3,0.1-0.6,0.4-0.9l10.3-9.4c0.4-0.4,1.1-0.4,1.6,0l2.3,2.1V138
	c0-0.4,0.3-0.7,0.7-0.7l0,0h4.7c0.4,0,0.7,0.3,0.7,0.7v5.9l1.9,1.8c0.5,0.4,0.5,1.2,0.1,1.7c-0.2,0.2-0.5,0.4-0.9,0.4h-1.6v9.4
	C698.7,157.6,698.4,157.9,698,157.9L698,157.9z M693,156.5h4.3v-9.4c0-0.4,0.3-0.7,0.7-0.7h1.9l-1.8-1.7c-0.1-0.1-0.2-0.3-0.2-0.5
	v-5.5h-3.3v1.2c0,0.4-0.3,0.7-0.7,0.7c-0.2,0-0.3-0.1-0.5-0.2l-3.4-3.1l-9.9,9h1.9c0.4,0,0.7,0.3,0.7,0.7v9.4h4.3v-5.7
	c0-0.4,0.3-0.7,0.7-0.7h4.7c0.4,0,0.7,0.3,0.7,0.7C693,150.8,693,156.5,693,156.5z"/>
<g id="Icon" transform="translate(-1709 -343)">
	<g id="Share_Button" transform="translate(1709 343)">
		<path id="Trazado_70" class="st3" d="M562.2,179.2c-0.6,0-1.3,0.2-1.7,0.7l-6.1-3.6c0.1-0.2,0.1-0.4,0.1-0.6c0-0.2,0-0.4-0.1-0.6
			l6.1-3.5c0.5,0.4,1.1,0.7,1.7,0.7c1.4,0,2.6-1.1,2.6-2.5v-0.1c0-1.4-1.2-2.6-2.6-2.6c-1.4,0-2.6,1.2-2.6,2.6c0,0.2,0,0.4,0.1,0.6
			l-6.1,3.5c-0.5-0.4-1.1-0.7-1.7-0.7c-1.4,0-2.6,1.1-2.6,2.6c0,1.4,1.1,2.6,2.6,2.6c0.6,0,1.3-0.2,1.7-0.7l6.1,3.6
			c-0.1,0.2-0.1,0.3-0.1,0.5c0,1.4,1.1,2.5,2.5,2.5s2.5-1.1,2.5-2.5C564.7,180.4,563.6,179.3,562.2,179.2
			C562.3,179.2,562.2,179.2,562.2,179.2z M562.2,168.9c0.5,0,0.9,0.4,0.8,0.9c0,0.5-0.4,0.9-0.9,0.8c-0.5,0-0.8-0.4-0.8-0.9
			C561.4,169.3,561.8,168.9,562.2,168.9L562.2,168.9z M551.9,176.6c-0.4,0-0.8-0.3-0.9-0.8v-0.1c0-0.4,0.3-0.8,0.8-0.9h0.1
			c0.4,0,0.8,0.3,0.9,0.8v0.1C552.8,176.2,552.4,176.6,551.9,176.6L551.9,176.6z M562.2,182.6c-0.5,0-0.9-0.4-0.8-0.9
			c0-0.5,0.4-0.9,0.9-0.8c0.5,0,0.8,0.4,0.8,0.9C563.1,182.2,562.7,182.5,562.2,182.6L562.2,182.6z"/>
	</g>
</g>
<g>
	<path id="Trazado_178" class="st18" d="M543.3,234.1l-2.6-11h2l0.9,4.9c0.2,1.2,0.5,2.7,0.7,4l0,0c0.2-1.4,0.4-2.8,0.6-4l0.9-4.9
		h1.9l-2.6,11H543.3z"/>
	<path id="Trazado_179" class="st18" d="M555.3,228.5c0,4.1-1.5,5.8-3.5,5.8c-2.2,0-3.4-2.3-3.4-5.7c0-3.3,1.3-5.6,3.5-5.6
		C554.3,223,555.3,225.5,555.3,228.5 M550.3,228.6c0,2.4,0.5,4.1,1.6,4.1c1.2,0,1.5-2,1.5-4.2c0-2-0.3-4.1-1.5-4.1
		C550.7,224.5,550.3,226.3,550.3,228.6"/>
	<path id="Trazado_180" class="st18" d="M556.7,223.1h1.8v9.5h3v1.5h-4.8V223.1z"/>
	<path id="Trazado_181" class="st18" d="M564.2,223.1v7.3c0,1.8,0.6,2.4,1.3,2.4c0.8,0,1.3-0.6,1.3-2.4v-7.3h1.8v7
		c0,2.8-1.1,4.2-3.1,4.2c-2.1,0-3.1-1.4-3.1-4.1v-7L564.2,223.1L564.2,223.1z"/>
	<path id="Trazado_182" class="st18" d="M570.5,234.1v-11h1.7l1.9,4.7c0.4,1,1,2.4,1.3,3.5l0,0c-0.1-1.4-0.2-3.1-0.2-5.1v-3.1h1.6
		v11h-1.7l-1.9-4.7c-0.5-1.1-0.9-2.3-1.2-3.5l0,0c0.1,1.3,0.1,2.8,0.1,5.1v3.1H570.5z"/>
	<path id="Trazado_183" class="st18" d="M580,224.7h-2v-1.6h5.9v1.6h-2v9.4H580V224.7z"/>
	<path id="Trazado_184" class="st18" d="M586,231.2l-0.6,2.9h-1.7l2.5-11h2.1l2.3,11h-1.7l-0.6-2.9H586z M588.1,229.9l-0.5-2.5
		c-0.1-0.7-0.3-1.7-0.4-2.5l0,0c-0.1,0.8-0.3,1.8-0.4,2.5l-0.5,2.5H588.1z"/>
	<path id="Trazado_185" class="st18" d="M592,223.3c0.7-0.1,1.4-0.2,2.2-0.2c1-0.1,2,0.2,2.8,0.8c1.2,1.3,1.1,3.3-0.1,4.5
		c-0.2,0.2-0.5,0.4-0.8,0.5l0,0c0.8,0.3,1.2,1,1.4,2.3c0.2,1,0.4,2,0.7,2.9h-1.9c-0.3-0.9-0.5-1.8-0.6-2.7c-0.2-1.4-0.6-1.9-1.5-1.9
		h-0.4v4.6H592V223.3z M593.7,228.2h0.5c1,0,1.8-0.8,1.8-1.8c0-0.1,0-0.1,0-0.2c0-1.1-0.4-1.8-1.6-1.8c-0.2,0-0.4,0-0.6,0.1
		L593.7,228.2z"/>
	<rect id="Rectángulo_40" x="599.4" y="223.1" class="st18" width="1.8" height="11"/>
	<path id="Trazado_186" class="st18" d="M609.5,228.5c0,4.1-1.5,5.8-3.5,5.8c-2.2,0-3.4-2.3-3.4-5.7c0-3.3,1.3-5.6,3.5-5.6
		C608.6,223,609.5,225.5,609.5,228.5 M604.5,228.6c0,2.4,0.5,4.1,1.6,4.1c1.2,0,1.5-2,1.5-4.2c0-2-0.3-4.1-1.5-4.1
		C605,224.5,604.5,226.3,604.5,228.6"/>
	<path id="Trazado_187" class="st19" d="M567.9,216.6l-0.9,3.8h-0.7l2.7-11h0.7l2.7,11h-0.7l-0.9-3.8H567.9z M570.5,216l-0.7-3.1
		c-0.2-0.9-0.4-1.6-0.5-2.5h-0.1c-0.1,0.9-0.3,1.7-0.5,2.5L568,216H570.5z"/>
	<path id="Trazado_188" class="st19" d="M575.3,209.4v4.9h3.7v-4.9h0.7v11H579v-5.5h-3.7v5.5h-0.7v-11H575.3z"/>
	<path id="Trazado_189" class="st19" d="M587.9,214.9c0,4.1-1.4,5.6-3,5.6c-1.5,0-2.9-1.5-2.9-5.6s1.4-5.6,3.1-5.6
		C586.5,209.2,587.9,210.7,587.9,214.9 M582.8,214.9c0,2.1,0.4,5,2.2,5s2.2-2.9,2.2-5s-0.4-5-2.2-5S582.8,212.7,582.8,214.9"/>
	<path id="Trazado_190" class="st19" d="M590.3,209.5c0.5-0.2,1-0.2,1.5-0.2c1.4-0.2,2.8,0.8,3,2.2c0,0.2,0,0.4,0,0.6
		c0.1,1.3-0.7,2.4-1.9,2.9l0,0c0.9,0.2,1.3,1,1.6,2.6c0.1,0.9,0.3,1.8,0.6,2.7h-0.7c-0.3-0.9-0.5-1.8-0.6-2.8
		c-0.3-1.6-0.9-2.3-2.2-2.3H591v5h-0.7V209.5z M591,214.8h0.6c1.3,0,2.4-1,2.4-2.2c0-0.1,0-0.2,0-0.3c0-1.5-0.6-2.4-2.3-2.4
		c-0.3,0-0.5,0-0.8,0.1L591,214.8z"/>
	<path id="Trazado_191" class="st19" d="M597.2,209.5c0.5-0.2,1-0.2,1.5-0.2c1.4-0.2,2.8,0.8,3,2.2c0,0.2,0,0.4,0,0.6
		c0.1,1.3-0.7,2.4-1.9,2.9l0,0c0.9,0.2,1.3,1,1.6,2.6c0.1,0.9,0.3,1.8,0.6,2.7h-0.7c-0.3-0.9-0.5-1.8-0.6-2.8
		c-0.3-1.6-0.9-2.3-2.2-2.3h-0.6v5h-0.7L597.2,209.5z M597.9,214.8h0.6c1.3,0,2.4-1,2.4-2.2c0-0.1,0-0.2,0-0.3
		c0-1.5-0.6-2.4-2.3-2.4c-0.3,0-0.5,0-0.8,0.1L597.9,214.8z"/>
	<path id="Trazado_192" class="st19" d="M609.5,214.9c0,4.1-1.4,5.6-3,5.6c-1.5,0-2.9-1.5-2.9-5.6s1.4-5.6,3.1-5.6
		C608.1,209.2,609.5,210.7,609.5,214.9 M604.4,214.9c0,2.1,0.4,5,2.2,5s2.2-2.9,2.2-5s-0.4-5-2.2-5S604.4,212.7,604.4,214.9"/>
	<rect id="Rectángulo_41" x="540.8" y="235.5" class="st18" width="68.8" height="0.7"/>
	<path id="Trazado_193_00000090972962296331758550000015172579669911485882_" class="st18" d="M558.3,208.8c0,0.3,0.3,0.6,0.6,0.6
		s0.6-0.3,0.6-0.6s-0.3-0.6-0.6-0.6l0,0C558.6,208.2,558.3,208.5,558.3,208.8L558.3,208.8"/>
	<path id="Trazado_194" class="st18" d="M562.2,207.3c0.2,0.2,0.3,0.5,0.5,0.7h46.8v-0.7H562.2z"/>
	<path id="Trazado_195_00000026882695510953156510000004874472572820769706_" class="st18" d="M542.8,207.3h-2v0.7h1.6
		C542.5,207.8,542.6,207.5,542.8,207.3"/>
	<path id="Trazado_196_00000057864669350425815010000009996740431124077957_" class="st18" d="M555.4,206l0.2-0.7c-2-0.5-4-0.5-6,0
		l0.2,0.7C551.6,205.5,553.5,205.5,555.4,206"/>
	<path id="Trazado_197_00000036943093606510753230000010596749416304319407_" class="st18" d="M540.2,212c0-0.1,0.1-0.2,0.3-0.2l0,0
		c0.2,0,0.4-0.1,0.6-0.2c-0.2-0.1-0.4-0.3-0.6-0.5c-0.2-0.2-0.3-0.5-0.3-0.7c0-0.3,0.2-0.6,0.5-0.7c0.3-0.1,0.6,0.1,0.8,0.3
		c0.4,0.4,0.5,1,0.3,1.5c0.1,0,0.2,0,0.4,0l0,0c0.1-0.1,0.2-0.2,0.3-0.1c0.1,0,0.2,0.1,0.2,0.2c0,0.1,0,0.2-0.1,0.3
		s-0.3,0.2-0.4,0.2c-0.2,0-0.4,0-0.7-0.1c-0.3,0.3-0.7,0.5-1.1,0.5l0,0C540.3,212.3,540.2,212.2,540.2,212 M540.8,210.1
		c-0.1,0-0.2,0.1-0.2,0.3s0.1,0.3,0.2,0.4c0.1,0.2,0.3,0.3,0.5,0.4c0.1-0.3,0.1-0.7-0.2-1C541.1,210.1,541,210.1,540.8,210.1
		C540.9,210.1,540.8,210.1,540.8,210.1"/>
	<path id="Trazado_198_00000147207610868070064210000010670967440278945428_" class="st19" d="M556,201c0-0.1,0-0.1,0-0.2
		c0-0.1-0.1-0.3-0.1-0.4c-0.4-1.3-1.5-2.2-2.9-2.4l0,0l0,0l0,0h-0.7h-0.1c-0.1,0-0.2,0-0.2,0c-0.9,0.2-1.6,0.7-2.1,1.4
		c-1,1.5-0.7,3.5,0.8,4.6l0,0c0.6,0.4,1.2,0.6,1.9,0.6c1.5,0,2.9-1,3.3-2.5c0-0.1,0.1-0.2,0.1-0.4c0-0.1,0-0.1,0-0.2V201L556,201z
		 M555.5,201.3c0,0.8-0.3,1.5-0.9,2.1c-0.6,0.6-1.3,0.9-2.1,0.9l0,0c-0.8,0-1.6-0.3-2.1-0.9c-0.6-0.5-0.9-1.3-0.9-2.1
		c0-1.6,1.4-2.9,3-2.9l0,0c0.8,0,1.6,0.3,2.1,0.9C555.2,199.8,555.6,200.5,555.5,201.3"/>
	<path id="Trazado_199_00000152952135718189005810000017404550110747048087_" class="st19" d="M552.6,198.8L552.6,198.8
		c-0.7,0-1.3,0.3-1.8,0.7c-1,1-1,2.5-0.1,3.5c0,0,0,0,0.1,0.1c0.5,0.5,1.1,0.7,1.8,0.7l0,0c0.7,0,1.3-0.3,1.8-0.7c1-1,1-2.5,0.1-3.5
		c0,0,0,0-0.1-0.1C553.9,199,553.2,198.8,552.6,198.8 M552.5,199.2L552.5,199.2c0.6,0,1.1,0.2,1.5,0.6c0.8,0.8,0.8,2.1,0,2.9
		c0,0,0,0-0.1,0.1c-0.4,0.4-1,0.6-1.5,0.6l0,0c-0.6,0-1.1-0.2-1.5-0.6c-0.8-0.8-0.8-2.1,0-2.9l0,0
		C551.4,199.4,552,199.2,552.5,199.2"/>
	<path id="Trazado_200_00000109015495606504443370000015070309023045143454_" class="st19" d="M552.1,201.3c0.1,0.1,0.2,0.1,0.3,0.2
		s0.2,0.1,0.4,0.2c0.1,0,0.1,0.1,0.1,0.2c0,0.1-0.1,0.2-0.2,0.2c-0.1,0-0.3,0-0.4,0c-0.1,0-0.2-0.1-0.2-0.2c0-0.1,0-0.1-0.1-0.2
		c-0.1-0.1-0.2-0.1-0.3,0c0,0.1-0.1,0.1,0,0.2c0,0.3,0.2,0.5,0.5,0.6c0.1,0,0.1,0.1,0.1,0.2s0.1,0.2,0.2,0.2l0,0h0.1
		c0,0,0.1-0.1,0.1-0.2v-0.1l0,0h0.1c0.3-0.1,0.5-0.3,0.5-0.6s-0.1-0.5-0.3-0.7c-0.1,0-0.1-0.1-0.2-0.1l0,0c-0.1,0-0.1-0.1-0.2-0.1
		c-0.1-0.1-0.2-0.1-0.3-0.2c-0.1,0-0.1-0.1-0.1-0.2c0-0.1,0-0.2,0.1-0.2c0.1-0.1,0.3-0.1,0.4-0.1c0.1,0,0.2,0.2,0.3,0.3
		c0,0.1,0.1,0.2,0.2,0.2s0.2-0.1,0.2-0.2l0,0c0-0.3-0.2-0.5-0.5-0.6h-0.1l0,0l0,0c0-0.1,0-0.3-0.2-0.3l0,0c-0.2,0-0.2,0.2-0.2,0.3
		l0,0l0,0h-0.1c-0.3,0.1-0.5,0.4-0.5,0.7C551.8,201,551.9,201.2,552.1,201.3"/>
	<path id="Trazado_201_00000152226390439033145900000000862722184980926648_" class="st18" d="M563.1,209.1h-0.8l-0.1-0.2
		c-0.5-1.1-1.2-2-2.1-2.8c-0.4-1-0.4-2.2,0-3.2c0-0.1,0-0.3-0.1-0.4c-0.1-0.1-0.2-0.1-0.4-0.1c-1.3,0.1-2.5,0.7-3.4,1.6
		c-0.2,0-0.3-0.1-0.5-0.1c-0.2,0.2-0.4,0.4-0.7,0.6c0.4,0.1,0.8,0.2,1.2,0.3c0.2,0.1,0.4,0,0.5-0.2c0.6-0.7,1.5-1.2,2.5-1.4
		c-0.3,1.1-0.2,2.2,0.2,3.2l0.1,0.1c0.8,0.7,1.5,1.6,2,2.5l0.2,0.4c0.1,0.1,0.2,0.2,0.4,0.2h1.1c0.3,0,0.6,0.2,0.6,0.6v2.4
		c0,0.3-0.3,0.6-0.6,0.6H562c-0.2,0-0.3,0.1-0.4,0.2l-0.2,0.4c-0.4,0.9-1,1.6-1.7,2.3l-0.3,0.3c-0.1,0.1-0.1,0.2-0.1,0.4l0.8,2.5
		l-2.8,0.8l-0.5-1.7c-0.1-0.2-0.2-0.3-0.4-0.3h-0.1l-0.7,0.2c-2,0.5-4.2,0.6-6.2,0.1l-0.7-0.2c-0.2-0.1-0.4,0.1-0.5,0.3l-0.5,1.6
		l-2.8-0.8l0.7-2.3c0-0.1,0-0.3-0.1-0.4l-0.4-0.3c-1.5-1.2-2.4-3-2.4-4.9c0-3.4,3-6.2,7-7.1c-0.2-0.2-0.5-0.4-0.6-0.6
		c-4.2,1.1-7.2,4.1-7.2,7.7c0,2.1,1,4.1,2.7,5.4l0.2,0.2l-0.7,2.1c-0.1,0.2,0,0.4,0.1,0.5c0.1,0.2,0.2,0.3,0.4,0.3l2.9,0.8l0,0
		c0.1,0,0.1,0,0.2,0c0.3,0,0.6-0.2,0.7-0.5l0.4-1.3l0.3,0.1c2.2,0.5,4.4,0.5,6.6-0.1l0.4-0.1l0.4,1.4c0.1,0.4,0.5,0.5,0.9,0.4
		l2.9-0.8c0.2,0,0.3-0.2,0.4-0.3c0.1-0.2,0.1-0.3,0.1-0.5l-0.7-2.3l0.2-0.2c0.8-0.7,1.4-1.6,1.9-2.5l0.1-0.2h0.8
		c0.7,0,1.3-0.6,1.3-1.3v-2.4C564.5,209.7,563.9,209.1,563.1,209.1"/>
</g>
<g>
	<path id="Trazado_68" class="st18" d="M654.1,222.5c-0.5,0.2-0.9,0.3-1.4,0.2c-2.2,0-3.5-1.8-3.5-4.7c0-3.6,2-4.9,3.7-4.9
		c0.4,0,0.9,0.1,1.3,0.2l-0.3,1.3c-0.3-0.1-0.6-0.2-0.9-0.2c-1,0-2.1,0.9-2.1,3.5c0,2.5,1,3.4,2.1,3.4c0.3,0,0.6-0.1,0.9-0.2
		L654.1,222.5z"/>
	<path id="Trazado_69" class="st18" d="M659.1,218.4h-2.3v3h2.6v1.3h-4.1v-9.4h4v1.3h-2.4v2.6h2.3L659.1,218.4L659.1,218.4z"/>
	<path id="Trazado_70_00000058551319595584719990000003341875638195552407_" class="st18" d="M660.4,221.1c0.5,0.2,1,0.4,1.5,0.4
		c0.7,0.1,1.4-0.4,1.4-1.1c0-0.1,0-0.1,0-0.2c0-0.8-0.5-1.2-1.3-1.7c-1-0.5-1.7-1.5-1.8-2.6c0-1.4,1.1-2.6,2.5-2.6
		c0.1,0,0.2,0,0.3,0c0.5,0,1,0.1,1.4,0.3l-0.3,1.3c-0.4-0.2-0.8-0.3-1.2-0.3c-0.6-0.1-1.2,0.4-1.3,1v0.1c0,0.7,0.4,1.1,1.4,1.7
		c1,0.5,1.7,1.6,1.7,2.7c0,1.5-1.2,2.7-2.7,2.8c-0.1,0-0.2,0-0.3,0c-0.6,0-1.2-0.1-1.8-0.4L660.4,221.1z"/>
	<path id="Trazado_71" class="st18" d="M667.4,220.2l-0.5,2.5h-1.5l2.2-9.4h1.8l2,9.4h-1.5l-0.5-2.5H667.4z M669.2,219.1l-0.4-2.2
		c-0.1-0.6-0.2-1.5-0.4-2.1l0,0c-0.1,0.7-0.2,1.5-0.4,2.1l-0.4,2.2H669.2z"/>
	<path id="Trazado_72" class="st18" d="M672.5,222.7v-9.4h1.4l1.6,4c0.3,0.9,0.8,2.1,1.1,3l0,0c-0.1-1.2-0.2-2.7-0.2-4.3v-2.7h1.3
		v9.4h-1.4l-1.6-4c-0.4-1-0.7-2-1-3l0,0c0.1,1.1,0.1,2.4,0.1,4.4v2.6H672.5z"/>
	<path id="Trazado_73" class="st18" d="M680.6,214.6h-1.7v-1.4h5v1.4h-1.7v8h-1.5L680.6,214.6L680.6,214.6z"/>
	<path id="Trazado_74" class="st18" d="M687.8,211.2l-1.8,1.5h-1.1l1.3-1.5H687.8z M686.5,222.7H685v-9.4h1.5V222.7z"/>
	<path id="Trazado_75" class="st18" d="M689.5,220.2l-0.5,2.5h-1.5l2.2-9.4h1.8l2,9.4H692l-0.5-2.5H689.5z M691.3,219.1l-0.4-2.2
		c-0.1-0.6-0.2-1.5-0.4-2.1l0,0c-0.1,0.7-0.2,1.5-0.4,2.1l-0.4,2.2H691.3z"/>
	<path id="Trazado_76" class="st18" d="M694.4,221.1c0.5,0.2,1,0.4,1.5,0.4c0.7,0.1,1.4-0.4,1.5-1.1c0-0.1,0-0.1,0-0.2
		c0-0.8-0.5-1.2-1.3-1.7c-1-0.5-1.7-1.5-1.8-2.6c0-1.4,1.1-2.6,2.5-2.6c0.1,0,0.2,0,0.3,0c0.5,0,1,0.1,1.4,0.3l-0.3,1.3
		c-0.4-0.2-0.8-0.3-1.2-0.3c-0.6-0.1-1.2,0.4-1.3,1v0.1c0,0.7,0.4,1.1,1.4,1.7c1,0.5,1.7,1.6,1.7,2.7c0,1.5-1.2,2.7-2.7,2.8
		c-0.1,0-0.2,0-0.3,0c-0.6,0-1.2-0.1-1.7-0.4L694.4,221.1z"/>
	<path id="Trazado_77" class="st18" d="M647.7,223.9c-0.4,0.2-0.8,0.4-1.2,0.6l0,0h52.4v-0.6H647.7z"/>
	<path id="Trazado_78" class="st18" d="M685.1,211.5h-36.5c0,0,0,0,0,0.1v0.2c0.1,0.1,0.1,0.2,0.2,0.3h35.8L685.1,211.5z"/>
	<path id="Trazado_79" class="st18" d="M688.5,211.5l-0.7,0.6h11.1v-0.6H688.5z"/>
	<path id="Trazado_80_00000172439862353429986740000006377718537868686517_" class="st18" d="M640.4,215.5l-1-0.2c0,0,0,0,0-0.1
		v-1.4c0-1.9-1.8-3.4-4-3.4s-4,1.5-4,3.4v1.5l-1,0.2c-0.5,0.1-1,0.6-1,1.1v6.9c0,0.6,0.5,1.1,1.2,1.1h9.6c0.6,0,1.1-0.5,1.2-1.1
		v-6.9C641.3,216.1,640.9,215.6,640.4,215.5 M637.4,215.5l2.9,0.6c0.3,0,0.4,0.3,0.5,0.5v6.9c0,0.3-0.2,0.5-0.5,0.5h-9.6
		c-0.3,0-0.5-0.2-0.5-0.5v-6.9c0-0.3,0.2-0.5,0.5-0.5l2.9-0.6C634.7,215.3,636.1,215.3,637.4,215.5 M638.8,215.2l-1-0.2v-1.1
		c-0.3-1.3-1.6-2.2-2.9-1.9c-1,0.2-1.7,1-1.9,1.9v1.1l-1,0.2v-1.4c0-1.5,1.5-2.8,3.4-2.8s3.4,1.2,3.4,2.8V215.2z M633.6,213.8
		c0.3-1,1.3-1.6,2.3-1.3c0.6,0.2,1.1,0.7,1.3,1.3v1c-1.2-0.2-2.4-0.2-3.6,0V213.8z"/>
	<path id="Trazado_81_00000165927942015548742410000001480276882520947893_" class="st19" d="M634.3,220.3v1.3
		c0,0.2,0.2,0.4,0.4,0.4h1.2c0.2,0,0.4-0.2,0.4-0.4v-1.3c0.5-0.3,0.7-0.9,0.7-1.4s-0.2-0.9-0.5-1.3c-0.7-0.7-1.9-0.7-2.6,0.1
		c-0.3,0.4-0.5,0.8-0.5,1.3C633.6,219.5,633.9,220,634.3,220.3 M636.2,218.1c0.2,0.2,0.4,0.5,0.4,0.8c0,0.4-0.2,0.8-0.6,1
		c-0.1,0.1-0.1,0.1-0.1,0.3v1.3H635v-1.3c0-0.1-0.1-0.2-0.2-0.3c-0.3-0.2-0.6-0.5-0.6-0.9c0-0.3,0.1-0.6,0.3-0.9
		c0.2-0.2,0.5-0.4,0.8-0.4C635.7,217.7,636,217.8,636.2,218.1"/>
	<path id="Trazado_82_00000107576033162032171490000012487016477753719186_" class="st18" d="M648.2,212.4c0-0.5-0.3-0.9-0.7-1.2
		c0.4-0.3,0.7-0.7,0.7-1.2c0-1.5-3-2.7-7-2.7s-7,1.1-7,2.7v0.1c0.2,0,0.4-0.1,0.6-0.1l0,0c0-1,2.6-2.1,6.4-2.1s6.4,1.1,6.4,2.1
		s-2.6,2.1-6.4,2.1c-0.6,0-1.2,0-1.8-0.1c0.1,0.2,0.2,0.4,0.3,0.6c0.5,0,1,0.1,1.5,0.1c2,0.1,4-0.3,5.8-1.1c0.3,0.2,0.5,0.5,0.6,0.8
		c0,0.4-0.4,0.7-0.8,0.9c-1.8,0.8-3.7,1.2-5.7,1.1c-0.4,0-0.9,0-1.3,0v0.5l0.6,0.1h0.1c0.2,0,0.4,0,0.6,0c2,0.1,4-0.3,5.8-1.1
		c0.3,0.2,0.6,0.5,0.6,0.8c0,0.4-0.4,0.7-0.8,0.9l0,0l0,0c-1.6,0.8-3.3,1.1-5,1.1v0.6c1.8,0,3.6-0.4,5.2-1.1
		c0.3,0.2,0.6,0.5,0.6,0.8c0,0.4-0.4,0.7-0.8,1c-1.6,0.8-3.3,1.1-5,1.1v0.6c1.8,0,3.5-0.4,5.2-1.1c0.3,0.2,0.6,0.5,0.6,0.9
		c0,0.9-2.4,2-5.8,2.1v0.6c1.8,0,3.6-0.4,5.2-1.1c0.3,0.2,0.5,0.5,0.6,0.8c0,0.9-2.4,2-5.9,2.1c-0.1,0.2-0.2,0.4-0.4,0.6
		c3.9,0,6.9-1.2,6.9-2.7c0-0.5-0.3-0.9-0.7-1.2c0.4-0.3,0.7-0.7,0.7-1.2c-0.7-0.4-0.9-1.2-0.5-1.9c0.1-0.2,0.3-0.4,0.5-0.5
		c-0.7-0.4-0.9-1.2-0.5-1.9c0.1-0.2,0.3-0.4,0.5-0.5c-0.7-0.4-0.9-1.2-0.5-1.9C647.8,212.7,648,212.5,648.2,212.4"/>
	<path id="Trazado_163_00000111168791771414369670000016848884554611988398_" class="st18" d="M640.4,215.5l-1-0.2c0,0,0,0,0-0.1
		v-1.4c0-1.9-1.8-3.4-4-3.4s-4,1.5-4,3.4v1.5l-1,0.2c-0.5,0.1-1,0.6-1,1.1v6.9c0,0.6,0.5,1.1,1.2,1.1h9.6c0.6,0,1.1-0.5,1.2-1.1
		v-6.9C641.3,216.1,640.9,215.6,640.4,215.5 M637.4,215.5l2.9,0.6c0.3,0,0.4,0.3,0.5,0.5v6.9c0,0.3-0.2,0.5-0.5,0.5h-9.6
		c-0.3,0-0.5-0.2-0.5-0.5v-6.9c0-0.3,0.2-0.5,0.5-0.5l2.9-0.6C634.7,215.3,636.1,215.3,637.4,215.5 M638.8,215.2l-1-0.2v-1.1
		c-0.3-1.3-1.6-2.2-2.9-1.9c-1,0.2-1.7,1-1.9,1.9v1.1l-1,0.2v-1.4c0-1.5,1.5-2.8,3.4-2.8s3.4,1.2,3.4,2.8V215.2z M633.6,213.8
		c0.3-1,1.3-1.6,2.3-1.3c0.6,0.2,1.1,0.7,1.3,1.3v1c-1.2-0.2-2.4-0.2-3.6,0V213.8z"/>
	<path id="Trazado_164_00000023991913569062479730000010662693281810916019_" class="st19" d="M634.3,220.3v1.3
		c0,0.2,0.2,0.4,0.4,0.4h1.2c0.2,0,0.4-0.2,0.4-0.4v-1.3c0.5-0.3,0.7-0.9,0.7-1.4s-0.2-0.9-0.5-1.3c-0.7-0.7-1.9-0.7-2.6,0.1
		c-0.3,0.4-0.5,0.8-0.5,1.3C633.6,219.5,633.9,220,634.3,220.3 M636.2,218.1c0.2,0.2,0.4,0.5,0.4,0.8c0,0.4-0.2,0.8-0.6,1
		c-0.1,0.1-0.1,0.1-0.1,0.3v1.3H635v-1.3c0-0.1-0.1-0.2-0.2-0.3c-0.3-0.2-0.6-0.5-0.6-0.9c0-0.3,0.1-0.6,0.3-0.9
		c0.2-0.2,0.5-0.4,0.8-0.4C635.7,217.7,636,217.8,636.2,218.1"/>
</g>
<g id="Grupo_2434" transform="translate(-7688.895 383.554)">
	<g id="Grupo_2433" transform="translate(7688.895 -383.554)">
		<g id="Grupo_18">
			<path id="Trazado_23" class="st18" d="M712.3,223.2v4.2h2.5v-4.2h1.7v10.2h-1.7v-4.5h-2.5v4.5h-1.7v-10.2H712.3z"/>
			<rect id="Rectángulo_8" x="718.3" y="223.2" class="st18" width="1.7" height="10.2"/>
			<path id="Trazado_24" class="st18" d="M721.8,223.3c0.6-0.1,1.3-0.2,2-0.2c0.9-0.1,1.9,0.2,2.6,0.8c0.6,0.6,0.9,1.4,0.8,2.2
				c0,0.8-0.2,1.7-0.8,2.3c-0.7,0.7-1.6,1.1-2.5,1h-0.5v4h-1.6V223.3z M723.5,228.1c0.1,0,0.3,0,0.4,0c1.1,0,1.7-0.7,1.7-1.9
				c0-1-0.4-1.8-1.5-1.8c-0.2,0-0.4,0-0.6,0.1L723.5,228.1z"/>
			<path id="Trazado_25" class="st18" d="M734.4,228.2c0,3.8-1.4,5.4-3.2,5.4c-2.1,0-3.1-2.2-3.1-5.2c0-3.1,1.2-5.2,3.3-5.2
				C733.5,223.1,734.4,225.4,734.4,228.2 M729.8,228.3c0,2.2,0.4,3.8,1.5,3.8s1.4-1.8,1.4-3.9c0-1.8-0.3-3.8-1.4-3.8
				C730.2,224.5,729.8,226.2,729.8,228.3"/>
			<path id="Trazado_26" class="st18" d="M736.7,224.7h-1.9v-1.5h5.4v1.5h-1.9v8.7h-1.7v-8.7H736.7z"/>
			<path id="Trazado_27" class="st18" d="M745.5,228.7H743v3.2h2.8v1.4h-4.5v-10.2h4.3v1.4H743v2.8h2.5V228.7z"/>
			<path id="Trazado_28" class="st18" d="M752,233.2c-0.5,0.2-1,0.3-1.5,0.3c-2.4,0-3.8-1.9-3.8-5.1c0-3.9,2.1-5.3,4-5.3
				c0.5,0,0.9,0.1,1.4,0.3l-0.3,1.4c-0.3-0.1-0.7-0.2-1-0.2c-1.1,0-2.3,1-2.3,3.8c0,2.7,1.1,3.7,2.3,3.7c0.4,0,0.7-0.1,1-0.2
				L752,233.2z"/>
			<path id="Trazado_29" class="st18" d="M754.8,230.7l-0.6,2.7h-1.6l2.3-10.2h1.9l2.2,10.2h-1.6l-0.6-2.7H754.8z M756.8,229.5
				l-0.4-2.3c-0.1-0.7-0.3-1.6-0.4-2.3l0,0c-0.1,0.7-0.3,1.7-0.4,2.3l-0.5,2.3H756.8z"/>
			<path id="Trazado_30" class="st18" d="M760.3,223.3c0.7-0.1,1.3-0.2,2-0.2c0.9-0.1,1.9,0.2,2.6,0.7c1.1,1.2,1,3-0.1,4.1
				c-0.2,0.2-0.5,0.4-0.7,0.5l0,0c0.7,0.3,1.1,0.9,1.3,2.1c0.1,0.9,0.4,1.8,0.7,2.7h-1.7c-0.3-0.8-0.4-1.6-0.5-2.5
				c-0.2-1.3-0.6-1.8-1.4-1.8H762v4.2h-1.7V223.3z M762,227.9h0.4c0.9,0,1.6-0.7,1.6-1.6c0-0.1,0-0.1,0-0.2c0-1-0.4-1.7-1.5-1.7
				c-0.2,0-0.4,0-0.6,0.1L762,227.9z"/>
			<rect id="Rectángulo_9" x="767.2" y="223.2" class="st18" width="1.7" height="10.2"/>
			<path id="Trazado_31" class="st18" d="M776.6,228.2c0,3.8-1.4,5.4-3.2,5.4c-2.1,0-3.1-2.2-3.1-5.2c0-3.1,1.2-5.2,3.3-5.2
				C775.8,223.1,776.6,225.4,776.6,228.2 M772,228.3c0,2.2,0.4,3.8,1.5,3.8s1.4-1.8,1.4-3.9c0-1.8-0.3-3.8-1.4-3.8
				C772.4,224.5,772,226.2,772,228.3"/>
			<path id="Trazado_32" class="st19" d="M742.6,220.5c-0.5,0.2-1,0.3-1.5,0.3c-1.6,0-3.2-1.3-3.2-5.1c0-4.1,2-5.3,3.4-5.3
				c0.4,0,0.8,0.1,1.2,0.2l-0.2,0.6c-0.3-0.2-0.7-0.2-1.1-0.2c-1.1,0-2.6,1.1-2.6,4.6c0,3.6,1.3,4.6,2.6,4.6c0.4,0,0.8-0.1,1.2-0.3
				L742.6,220.5z"/>
			<path id="Trazado_33" class="st19" d="M744.5,210.6c0.5-0.1,0.9-0.2,1.4-0.2c1.3-0.2,2.6,0.7,2.8,2.1c0,0.2,0,0.4,0,0.5
				c0.1,1.2-0.6,2.3-1.7,2.7l0,0c0.8,0.2,1.2,1,1.5,2.5c0.1,0.8,0.3,1.7,0.6,2.5h-0.7c-0.3-0.8-0.5-1.7-0.6-2.6
				c-0.3-1.5-0.8-2.1-2-2.1h-0.6v4.7h-0.7V210.6z M745.2,215.5h0.6c1.2,0,2.2-0.9,2.2-2.1c0-0.1,0-0.2,0-0.2c0-1.4-0.6-2.2-2.1-2.2
				c-0.2,0-0.5,0-0.7,0.1V215.5z"/>
			<path id="Trazado_34" class="st19" d="M754.3,215.6h-2.8v4.5h3.2v0.6h-3.8v-10.2h3.6v0.6h-3v4h2.8V215.6z M754.9,208.3l-2,1.6
				h-0.6l1.6-1.6H754.9z"/>
			<path id="Trazado_35" class="st19" d="M756.6,210.6c0.4-0.1,0.9-0.2,1.3-0.2c0.8,0,1.6,0.2,2.2,0.7c0.8,0.6,1.4,1.9,1.4,4.1
				c0,2.5-0.6,3.6-1.1,4.3c-0.7,0.8-1.7,1.2-2.7,1.2c-0.4,0-0.8,0-1.1-0.1L756.6,210.6L756.6,210.6z M757.3,220.1c0.2,0,0.3,0,0.5,0
				c1.5,0,3.1-0.9,3.1-4.8c0-2.9-1-4.4-2.9-4.4c-0.2,0-0.4,0-0.7,0.1L757.3,220.1L757.3,220.1z"/>
			<rect id="Rectángulo_10" x="763.7" y="210.5" class="st19" width="0.7" height="10.2"/>
			<path id="Trazado_36" class="st19" d="M768.2,211h-2v-0.6h4.6v0.6h-2v9.6h-0.7L768.2,211z"/>
			<path id="Trazado_37" class="st19" d="M777.1,215.6c0,3.8-1.3,5.2-2.8,5.2c-1.4,0-2.7-1.4-2.7-5.2s1.3-5.2,2.8-5.2
				C775.8,210.4,777.1,211.7,777.1,215.6 M772.3,215.6c0,2,0.4,4.6,2.1,4.6s2-2.7,2-4.6s-0.4-4.6-2-4.6S772.3,213.6,772.3,215.6"/>
			<path id="Trazado_38" class="st19" d="M720,212.2c0,1.4,0.6,2.7,1.7,3.5c-2.1,1.2-2.6,3.5-2.9,5.3c0,0.4,0.2,0.7,0.6,0.8l0,0h0.1
				c0.4,0,0.7-0.3,0.7-0.6c0.3-2.9,1.3-4.3,3.3-4.7c0.4-0.1,0.6-0.4,0.5-0.8c-0.1-0.3-0.2-0.5-0.5-0.5c-1.3-0.4-2.2-1.6-2.2-2.9
				c0.1-1.7,1.5-3.1,3.2-3s3,1.4,3,3c0,1.4-0.9,2.6-2.2,2.9c-0.4,0.1-0.6,0.5-0.5,0.8c0.1,0.2,0.3,0.4,0.5,0.5c2,0.4,3,1.9,3.3,4.7
				c0,0.4,0.4,0.7,0.8,0.6l0,0c0.4,0,0.7-0.4,0.6-0.8l0,0c-0.2-1.8-0.7-4.2-2.9-5.3c1.1-0.8,1.7-2.1,1.7-3.5
				c-0.1-2.5-2.2-4.5-4.7-4.4C722,207.8,720,209.7,720,212.2"/>
			<path id="Trazado_39" class="st19" d="M728.2,207.5c0.6-0.6,1.4-1,2.3-1c1.7,0,3.1,1.3,3.1,3.1c0,1.4-0.9,2.6-2.2,2.9
				c-0.4,0.1-0.6,0.5-0.5,0.8c0.1,0.2,0.3,0.4,0.5,0.5c2,0.4,3,1.9,3.3,4.7c0,0.4,0.3,0.6,0.7,0.6h0.1c0.4,0,0.7-0.4,0.6-0.8l0,0
				c-0.2-1.8-0.7-4.2-2.9-5.3c1.1-0.8,1.7-2.1,1.7-3.5c0-2.5-2.1-4.5-4.6-4.4c-1.3,0-2.5,0.5-3.4,1.4c-0.3,0.3-0.2,0.7,0,1l0,0
				C727.5,207.8,728,207.8,728.2,207.5"/>
			<path id="Trazado_40" class="st19" d="M713.5,219.2c0.4,0,0.7-0.3,0.7-0.6c0.3-2.9,1.3-4.3,3.3-4.7c0.4-0.1,0.6-0.4,0.5-0.8
				c-0.1-0.3-0.2-0.5-0.5-0.5c-1.3-0.4-2.2-1.6-2.2-2.9c0-1.7,1.4-3.1,3.1-3.1c0.9,0,1.7,0.4,2.3,1c0.3,0.3,0.7,0.3,1,0
				c0.3-0.2,0.3-0.7,0.1-1l0,0c-0.9-0.9-2.1-1.4-3.4-1.4c-2.5,0-4.5,2-4.6,4.4c0,1.4,0.6,2.7,1.7,3.5c-2.1,1.2-2.6,3.5-2.9,5.3
				C712.8,218.8,713.1,219.2,713.5,219.2C713.4,219.2,713.5,219.2,713.5,219.2L713.5,219.2"/>
			<path id="Trazado_41" class="st18" d="M738.2,205.7l-4.2-2.3v-5.8c0-0.3-0.2-0.5-0.5-0.5l0,0h-3.1c-0.3,0-0.5,0.2-0.5,0.5l0,0
				v3.5l-5.2-2.9c-0.1-0.1-0.3-0.1-0.5,0l-13.4,7.4c-0.2,0.1-0.3,0.4-0.2,0.6l0,0c0.1,0.1,0.2,0.2,0.4,0.2c0.1,0,0.2,0,0.2-0.1
				l13.2-7.3l5.6,3.1l0,0c0.1,0,0.1,0,0.2,0l0,0c0,0,0,0,0.1,0h0.1h0.1c0,0,0,0,0.1,0c0,0,0,0,0.1-0.1l0,0l0,0v-0.1v-0.1l0,0v-3.9
				h2.1v5.6c0,0.1,0,0.1,0,0.1v0.1c0,0,0,0,0,0.1c0,0,0,0,0.1,0.1l0,0l4.5,2.5c0.2,0.1,0.5,0,0.6-0.2
				C738.5,206.2,738.4,205.9,738.2,205.7C738.2,205.8,738.2,205.8,738.2,205.7"/>
			<path id="Trazado_42" class="st18" d="M752.2,208.6h-16.1c0,0.2,0.1,0.4,0.1,0.7h15.3L752.2,208.6z"/>
			<path id="Trazado_43" class="st18" d="M756.4,208.6l-0.8,0.7h21.6v-0.7H756.4z"/>
		</g>
	</g>
</g>
<image style="overflow:visible;enable-background:new    ;" width="179" height="209" xlink:href="../Imagenes/Circulo_Pareja.png"  transform="matrix(0.4827 0 0 0.4827 616.1639 243.2099)">
</image>
<g>
	<g id="Elipse_21_00000035519393435242138860000002089906878092528524_">
		<circle class="st1" cx="557.7" cy="267.4" r="8.9"/>
		<circle class="st4" cx="557.7" cy="267.4" r="9.7"/>
	</g>
	<path id="Icon_awesome-check_00000016067727667940697930000011036420981038918571_" class="st0" d="M555.9,272l-3.6-3.6
		c-0.2-0.2-0.2-0.6,0-0.8l0.8-0.8c0.2-0.2,0.6-0.2,0.8,0l2.5,2.5l5.3-5.3c0.2-0.2,0.6-0.2,0.8,0l0.8,0.8c0.2,0.2,0.2,0.6,0,0.8
		l-6.4,6.4C556.5,272.2,556.2,272.2,555.9,272z"/>
</g>
<path id="Rectángulo_430" class="st21" d="M23.8,10.2h34c4.4,0,8,3.6,8,8v12c0,4.4-3.6,8-8,8h-34c-4.4,0-8-3.6-8-8v-12
	C15.8,13.8,19.4,10.2,23.8,10.2z"/>
<g id="Grupo_2545" transform="translate(58.206 92.522)">
	<g id="Grupo_2540" transform="translate(0 0)">
		<g id="Grupo_2523" transform="translate(67.631 19.051)">
			<g id="Grupo_2522" transform="translate(0 0)">
				<path id="Trazado_1514" class="st22" d="M25.7-80.3c-0.1-2.1-0.2-4.4-0.2-6.2h-0.1c-0.4,1.8-0.8,3.6-1.3,5.5l-1.9,7.4h-1.1
					l-1.8-7.1c-0.5-2-1-4-1.3-5.8h-0.1c0,1.8-0.1,4-0.2,6.3l-0.3,6.7h-1.6l0.9-15.8h1.9l1.8,7.2c0.5,2.1,0.9,3.6,1.3,5.4h0.1
					c0.3-1.8,0.7-3.3,1.2-5.4l1.8-7.2h2l0.9,15.8H26L25.7-80.3z"/>
				<path id="Trazado_1515" class="st22" d="M35.9-81h-4v5.9h4.5v1.6h-6.3v-15.8h6v1.6H32v5.2h4L35.9-81z"/>
				<path id="Trazado_1516" class="st22" d="M40.4-89.3h1.8V-78c0,3.5-1.4,4.6-3.7,4.6c-0.4,0-0.8,0-1.2-0.2l0.2-1.5
					c0.3,0.1,0.6,0.1,0.9,0.1c1.3,0,2-0.5,2-3V-89.3z"/>
				<path id="Trazado_1517" class="st22" d="M53.2-81.6c0,5.9-2,8.2-4.6,8.2s-4.4-2.8-4.4-8.1c0-5.2,1.9-8,4.6-8
					C51.5-89.5,53.2-86.6,53.2-81.6z M46.1-81.4c0,3.2,0.6,6.5,2.6,6.5s2.6-3.4,2.6-6.5c0-2.9-0.5-6.4-2.6-6.4
					C46.7-87.9,46.1-84.6,46.1-81.4L46.1-81.4z"/>
				<path id="Trazado_1518" class="st22" d="M55.3-89.1c0.8-0.2,1.7-0.3,2.6-0.3c1.3-0.1,2.6,0.3,3.6,1.1c0.8,0.8,1.2,2,1.1,3.1
					c0.1,1.7-0.9,3.4-2.5,4l0,0c1.2,0.4,1.8,1.5,2.1,3.5c0.2,1.4,0.5,2.7,0.9,4h-1.8c-0.4-1.3-0.7-2.6-0.8-3.9c-0.4-2.2-1-3-2.6-3
					h-0.7v6.9h-1.8L55.3-89.1z M57.1-81.8h0.7c1.6,0,2.9-1.2,2.9-2.8c0-0.1,0-0.2,0-0.3c0-1.8-0.7-2.9-2.7-3c-0.3,0-0.6,0-0.9,0.1
					V-81.8z"/>
				<path id="Trazado_1519" class="st22" d="M66.9-78.3l-1.1,4.7h-1.7l3.6-15.8h2l3.5,15.8h-1.8l-1.1-4.7H66.9z M70.2-79.7l-0.8-4
					c-0.2-1.1-0.4-2.4-0.6-3.6h-0.1c-0.2,1.2-0.4,2.5-0.6,3.6l-0.8,4H70.2z"/>
				<path id="Trazado_1520" class="st22" d="M78.9-89.1c0.8-0.2,1.6-0.3,2.4-0.3c1.3-0.1,2.7,0.3,3.7,1.2c1.2,1.1,2.1,3.1,2.1,6.4
					c0,3.6-0.9,5.6-1.9,6.6c-1.1,1.2-2.7,1.8-4.3,1.7c-0.7,0-1.3,0-2-0.2C78.9-73.7,78.9-89.1,78.9-89.1z M80.7-75
					c0.2,0,0.5,0.1,0.7,0c2,0,3.9-1.4,3.9-6.8c0-4-1.2-6.1-3.7-6.1c-0.3,0-0.6,0-0.8,0.1L80.7-75z"/>
				<path id="Trazado_1521" class="st22" d="M95-81h-4v5.9h4.5v1.6h-6.3v-15.8h6v1.6H91v5.2h4V-81z"/>
				<path id="Trazado_1522" class="st22" d="M103-73.6l-3.6-15.8h1.9l1.5,7.4c0.4,1.8,0.8,4,1.1,6.1h0.1c0.2-2,0.7-4.2,1.1-6.1
					l1.5-7.3h1.9l-3.7,15.8L103-73.6z"/>
				<path id="Trazado_1523" class="st22" d="M112-89.3v15.8h-1.8v-15.8H112z"/>
				<path id="Trazado_1524" class="st22" d="M117.5-73.6l-3.6-15.8h1.9l1.5,7.4c0.4,1.8,0.8,4,1.1,6.1h0.1c0.2-2,0.7-4.2,1.1-6.1
					l1.5-7.3h1.9l-3.7,15.8L117.5-73.6z"/>
				<path id="Trazado_1525" class="st22" d="M126.5-89.3v15.8h-1.8v-15.8H126.5z"/>
				<path id="Trazado_1526" class="st22" d="M135.1-81h-3.9v5.9h4.5v1.6h-6.3v-15.8h6v1.6h-4.2v5.2h4L135.1-81z"/>
				<path id="Trazado_1527" class="st22" d="M137.7-73.6v-15.8h1.7l2.9,7.4c0.7,1.7,1.5,3.8,2,5.5l0,0c-0.1-2.5-0.2-4.5-0.2-7.2
					v-5.6h1.6v15.8H144l-3-7.6c-0.7-1.8-1.3-3.5-1.9-5.4l0,0c0.1,2.1,0.2,4.1,0.2,7.5v5.4L137.7-73.6z"/>
				<path id="Trazado_1528" class="st22" d="M148.5-89.1c0.8-0.2,1.6-0.3,2.4-0.3c1.3-0.1,2.7,0.3,3.7,1.2c1.2,1.1,2.1,3.1,2.1,6.4
					c0,3.6-0.9,5.6-1.9,6.6c-1.1,1.2-2.7,1.8-4.3,1.7c-0.7,0-1.3,0-2-0.2V-89.1z M150.3-75c0.2,0,0.5,0.1,0.7,0c2,0,3.9-1.4,3.9-6.8
					c0-4-1.2-6.1-3.7-6.1c-0.3,0-0.6,0-0.8,0.1L150.3-75z"/>
				<path id="Trazado_1529" class="st22" d="M160.4-78.3l-1.1,4.7h-1.7l3.6-15.8h2l3.5,15.8h-1.8l-1.1-4.7H160.4z M163.6-79.7
					l-0.8-4c-0.2-1.1-0.4-2.4-0.6-3.6h-0.1c-0.2,1.2-0.4,2.5-0.6,3.6l-0.8,4H163.6z"/>
			</g>
		</g>
		<g id="Grupo_2526" transform="translate(0 0)">
			<g id="Grupo_2524" transform="translate(38.306 4.372)">
				<path id="Trazado_1530" class="st22" d="M41.7-86.6c0-0.1-0.1-0.2-0.1-0.2l-2.1-2.1c-0.4-0.4-0.9-0.6-1.5-0.6l0,0
					c-0.6,0-1.1,0.2-1.5,0.6L28-80.4l-1.2-1.2c0.5-0.5,0.5-1.3,0-1.8l-0.5-0.5c0,0,0-0.1-0.1-0.1l0,0v-0.1v-0.1h0.1l4.2-1.1
					c0.1,0,0.2-0.1,0.3-0.2c0.2-0.2,0.2-0.6,0-0.8l0,0l-2.2-2.1l0,0c-0.1,0-0.2,0-0.3,0L25-87.5c-0.8,0.2-1.5,0.5-2.2,0.9
					c-0.2,0.1-0.5,0.3-0.7,0.4c-0.2-0.2-0.5-0.3-0.9-0.3l0,0h-0.1l0,0c-0.3,0-0.6,0.2-0.8,0.4L19.2-85c-0.2,0.2-0.4,0.6-0.4,0.9l0,0
					c0,0.3,0.1,0.5,0.3,0.7l0,0c-0.2,0.2-0.4,0.6-0.4,0.9c0,0.1,0,0.2,0,0.3l-0.8,0.8c-0.1,0-0.2,0-0.3,0h-0.4L17-81.3
					c-0.1,0.1-0.2,0.1-0.3,0.2L16-80.4c-0.2,0.2-0.4,0.6-0.4,0.9s0.1,0.7,0.4,0.9l2.8,2.8c0.2,0.2,0.6,0.4,0.9,0.4l0,0
					c0.3,0,0.7-0.1,0.9-0.4l0.7-0.7c0.2-0.2,0.4-0.6,0.4-0.9c0-0.1,0-0.2,0-0.3l0.8-0.8c0.1,0,0.2,0,0.3,0c0.3,0,0.7-0.1,0.9-0.4
					l1.2,1.2L18.6-71c-0.8,0.8-0.8,2.1,0,3l4.6,4.6c0.4,0.4,0.9,0.6,1.5,0.6l0,0c0.6,0,1.1-0.2,1.5-0.6l4-4l0.2-0.3l0,0v-0.1l0,0
					l0,0l0,0l0,0l0,0l0,0l0,0l0,0l-0.2-0.6h0.6c0.1,0,0.3-0.1,0.4-0.2s0.1-0.3,0.1-0.4s0-0.1,0-0.1L31-69.9h0.6l4.4,4.4
					c0.4,0.4,0.9,0.6,1.4,0.6l0,0c0.5,0,1.1-0.2,1.4-0.6l1-1c0.4-0.4,0.6-0.9,0.6-1.4V-68c0-0.5-0.2-1.1-0.6-1.4l-5-5l0,0l-0.3-1
					h0.6c0.2,0,0.3-0.1,0.4-0.2l0.1-0.2l-0.2-0.9H36c0.3,0,0.5-0.3,0.5-0.6l0,0L36.3-78h0.6c0.3,0,0.5-0.3,0.5-0.6v-0.1l-0.2-0.6
					h0.6c0.3,0,0.5-0.3,0.5-0.6V-80l-0.2-0.6h0.6c0.2,0,0.4-0.2,0.5-0.4h0.1L39-81.9h0.6c0.3,0,0.5-0.3,0.5-0.6v-0.1L40-83.5h0.6
					c0.3,0,0.5-0.3,0.5-0.6l0,0v-0.1l-0.2-0.6h0.6c0.1,0,0.3-0.1,0.4-0.2l0.1-0.5L41.7-86.6z M20.1-84.3L20.1-84.3l1.1-1.1l0,0
					L20.1-84.3z M26-85.3c-0.4,0.1-0.8,0.5-0.9,0.9s0,0.9,0.3,1.2l0.5,0.5l0.1,0.1c0,0,0,0.1-0.1,0.1L23-79.6l-0.1,0.1
					c0,0-0.1,0-0.1-0.1L20-82.4l-0.1-0.1c0,0,0-0.1,0.1-0.1l1.8-1.8c1-1,2.3-1.7,3.6-2.1l2.9-0.8l1,1l0,0l0.1,0.1L26-85.3z
					 M21.7-79.1l-0.5,0.5L19-80.7l0.5-0.5L21.7-79.1z M20.7-77.2L20-76.5l-0.1,0.1c0,0-0.1,0-0.1-0.1L17-79.3l-0.1-0.1
					c0,0,0-0.1,0.1-0.1l0.7-0.7c0,0,0.1,0,0.1-0.1l0,0c0,0,0.1,0,0.1,0.1l2.8,2.8l0.1,0.1C20.8-77.3,20.8-77.2,20.7-77.2L20.7-77.2z
					 M27.2-79.6l-1.3,1.3l-1.2-1.2l1.3-1.3L27.2-79.6z M39.6-85.6c-0.1,0.1-0.1,0.3,0,0.4l0.2,0.6h-0.6c-0.1,0-0.1,0-0.2,0
					c-0.3,0.1-0.5,0.4-0.4,0.7l0,0l0.2,0.6h-0.6c-0.3,0-0.6,0.3-0.6,0.6c0,0.1,0,0.1,0,0.2l0.2,0.6h-0.6c-0.1,0-0.1,0-0.2,0
					c-0.3,0.1-0.5,0.4-0.4,0.7l0.2,0.6h-0.6c-0.1,0-0.1,0-0.2,0c-0.3,0.1-0.5,0.4-0.4,0.7l0,0l0.2,0.6h-0.6c-0.1,0-0.1,0-0.2,0
					c-0.3,0.1-0.5,0.4-0.4,0.7l0,0l0.2,0.6h-0.6c-0.1,0-0.1,0-0.2,0c-0.3,0.1-0.5,0.4-0.4,0.7l0.2,0.6h-0.6c-0.1,0-0.1,0-0.2,0
					c-0.3,0.1-0.5,0.4-0.4,0.7l0.2,0.6h-0.6c-0.1,0-0.1,0-0.2,0c-0.3,0.1-0.5,0.4-0.4,0.7l0.2,0.6h-0.6c-0.1,0-0.1,0-0.2,0
					c-0.3,0.1-0.5,0.4-0.4,0.7l0.2,0.6h-0.6c-0.1,0-0.1,0-0.2,0c-0.3,0.1-0.5,0.4-0.4,0.7l0.2,0.5h-0.2l0,0h-0.4c-0.1,0-0.1,0-0.2,0
					c-0.3,0.1-0.5,0.4-0.4,0.7l0.2,0.6h-0.6c-0.1,0-0.1,0-0.2,0s-0.2,0.1-0.2,0.2l-5.1-5.1l13.5-13.5c0.2-0.2,0.4-0.3,0.7-0.3
					s0.5,0.1,0.7,0.3l2,2v0.1H39c-0.1,0-0.1,0-0.2,0C39.8-85.9,39.7-85.8,39.6-85.6L39.6-85.6z M32.5-71.3c0.2,0,0.5-0.2,0.5-0.4
					h0.1l-0.3-0.9h0.6c0.3,0,0.5-0.3,0.5-0.6v-0.1L33.7-74l0,0l5.3,5.3c0.2,0.2,0.3,0.4,0.3,0.6l0,0c0,0.2-0.1,0.5-0.3,0.6l-1,1
					c-0.4,0.3-0.9,0.3-1.3,0l-4.8-4.8v-0.1L32.5-71.3z M29-67.8l-3.6,3.6C25.2-64.1,25-64,24.7-64l0,0c-0.3,0-0.5-0.1-0.7-0.3
					l-4.6-4.6c-0.4-0.4-0.4-1,0-1.4l3.6-3.6L29-67.8z"/>
				<path id="Trazado_1531" class="st22" d="M22.5-72.6L20-70.1c-0.2,0.2-0.2,0.6,0,0.8l4.5,4.5c0.1,0.1,0.3,0.2,0.4,0.2
					s0.3-0.1,0.4-0.2l2.5-2.5c0.2-0.2,0.2-0.6,0-0.8l-4.5-4.5C23-72.8,22.7-72.8,22.5-72.6z M21.2-69.7l1.7-1.7l3.7,3.7L24.9-66
					L21.2-69.7z"/>
			</g>
			<g id="Grupo_2525" transform="translate(11.562 0)">
				<path id="Trazado_1532" class="st22" d="M53.6-58.4c-0.4,0.4-0.9,0.6-1.4,0.8v1.9H35.7v-17.5h7l-0.4-0.4c-0.3-0.3-0.5-0.7-0.6-1
					h-3.5L28.5-82l8-5.9l9,6.7c0,0,0,0,0.1-0.1l0.9-0.9l-9.6-7.1c-0.2-0.2-0.6-0.2-0.8,0l-20,14.8c-0.3,0.2-0.4,0.7-0.2,1
					c0.1,0.2,0.3,0.3,0.6,0.3h2.4V-55c0,0.4,0.3,0.7,0.7,0.7l0,0h5.3c0.4,0,0.7-0.3,0.7-0.7l0,0v-10c0-1,0.7-1.8,1.7-1.8
					s1.8,0.7,1.8,1.7c0,0.1,0,0.1,0,0.2v10c0,0.4,0.3,0.7,0.7,0.7l0,0h23.1c0.4,0,0.7-0.3,0.7-0.7l0,0L53.6-58.4L53.6-58.4z
					 M34.3-55.8h-3.9v-9.3c0-1.7-1.4-3.2-3.2-3.2c-1.7,0-3.2,1.4-3.2,3.2l0,0v9.3h-3.9v-17.5h14.1L34.3-55.8z M19.5-74.7h-0.9
					l8.7-6.4l8.7,6.4H19.5z"/>
			</g>
			<path id="Trazado_1533" class="st22" d="M31-55.6H20.1v-15H31v-1.2H18.2l15.3-11.3l3.5,2.6l1-0.8l-4.1-3.1
				c-0.2-0.2-0.5-0.2-0.7,0L16-71.7c-0.3,0.2-0.3,0.6-0.1,0.8c0.1,0.2,0.3,0.2,0.5,0.2h2.5V-55c0,0.3,0.3,0.6,0.6,0.6l0,0H31V-55.6z
				"/>
		</g>
	</g>
</g>
<text transform="matrix(1 0 0 1 29.7712 32.8716)" class="st0 st23 st24">50%</text>
<text transform="matrix(1 0 0 1 21.2993 22.2056)" class="st0 st23 st25">Hasta un</text>
</svg>
