<?xml version="1.0" encoding="utf-8"?>
<!-- Generator: Adobe Illustrator 25.4.1, SVG Export Plug-In . SVG Version: 6.00 Build 0)  -->
<svg version="1.1" id="Capa_1" xmlns="http://www.w3.org/2000/svg" xmlns:xlink="http://www.w3.org/1999/xlink" x="0px" y="0px"
	 viewBox="0 0 31 31" style="enable-background:new 0 0 31 31;" xml:space="preserve">
<style type="text/css">
	.st0{fill:#3262AC;}
	.st1{fill:#CAD52C;}
	.st2{fill:none;stroke:#FFFFFF;stroke-width:2;}
	.st3{fill:#FFFFFF;}
	.st4{fill:#FBFBFB;stroke:#3883C5;stroke-width:2;stroke-linecap:round;stroke-linejoin:round;}
	.st5{fill:#787887;}
	.st6{fill:#D52D2C;}
	.st7{fill:#FDC430;}
	.st8{fill:#787887;stroke:#717070;}
	.st9{fill:none;}
	.st10{fill:none;stroke:#787887;stroke-width:1.5;}
	.st11{fill:none;stroke:#787887;stroke-linecap:round;stroke-linejoin:round;}
</style>
<g id="Hamburger_Icon">
	<g id="Hamburger_Icon-2">
		<path id="Trazado_11" class="st0" d="M69.7-18.3c0-1.1,0.6-2,1.3-2h16.9c0.7,0,1.2,0.9,1.2,2s-0.6,2-1.2,2H70.9
			C70.3-16.4,69.7-17.2,69.7-18.3z"/>
		<path id="Trazado_1290" class="st0" d="M69.7-18.3c0-1.1,0.6-2,1.3-2h16.9c0.7,0,1.2,0.9,1.2,2s-0.6,2-1.2,2H70.9
			C70.3-16.4,69.7-17.2,69.7-18.3z"/>
		<path id="Trazado_1291" class="st0" d="M69.7-11.1c0-0.9,0.6-1.7,1.3-1.7h16.9c0.7,0,1.2,0.7,1.2,1.7c0,0.9-0.6,1.7-1.2,1.7H70.9
			C70.2-9.4,69.7-10.2,69.7-11.1z"/>
		<path id="Trazado_1292" class="st0" d="M69.7-25.5c0-1,0.6-1.9,1.3-1.9h16.9c0.7,0,1.2,0.8,1.2,1.9s-0.6,1.9-1.2,1.9H70.9
			C70.2-23.6,69.7-24.4,69.7-25.5z"/>
	</g>
</g>
<g>
	<g id="Elipse_21_00000122700021666481455410000011478136939818866572_">
		<circle class="st1" cx="116.2" cy="-18.3" r="12.5"/>
		<circle class="st2" cx="116.2" cy="-18.3" r="11.5"/>
	</g>
	<path id="Icon_awesome-check_00000110441766745699221180000003192436968001748644_" class="st3" d="M113.9-12.4l-4.7-4.7
		c-0.3-0.3-0.3-0.7,0-1l1-1c0.3-0.3,0.7-0.3,1,0l3.2,3.2l6.7-6.7c0.3-0.3,0.7-0.3,1,0l1,1c0.3,0.3,0.3,0.7,0,1l-8.3,8.3
		C114.6-12.1,114.2-12.1,113.9-12.4z"/>
</g>
<path id="Icon_metro-calendar" class="st0" d="M112.7,13.2h2.4v2.4h-2.4V13.2z M116.3,13.2h2.4v2.4h-2.4V13.2z M119.8,13.2h2.4v2.4
	h-2.4V13.2z M109.2,20.2h2.4v2.4h-2.4L109.2,20.2z M112.7,20.2h2.4v2.4h-2.4L112.7,20.2z M116.3,20.2h2.4v2.4h-2.4L116.3,20.2z
	 M112.7,16.7h2.4v2.4h-2.4V16.7z M116.3,16.7h2.4v2.4h-2.4V16.7z M119.8,16.7h2.4v2.4h-2.4V16.7z M109.2,16.7h2.4v2.4h-2.4
	L109.2,16.7z M122.2,6.1v1.2h-2.4V6.1h-8.2v1.2h-2.4V6.1h-2.4V25h17.7V6.1L122.2,6.1L122.2,6.1z M123.3,23.8H108v-13h15.3V23.8z"/>
<g id="Grupo_2500" transform="translate(-114 -165.89)">
	<g>
		<g id="Grupo_2498" transform="translate(0 0)">
			<path id="Trazado_1475" class="st0" d="M256.8,179.4c-1.6,0-2.9,1.3-2.9,2.9c0,0.8,0.3,1.6,0.9,2.1v1.9c0,1.1,0.9,1.9,1.9,1.9
				c1.1,0,1.9-0.9,1.9-1.9c0,0,0,0,0,0v-1.9c1.2-1.1,1.3-2.9,0.2-4.1C258.3,179.7,257.6,179.4,256.8,179.4L256.8,179.4z
				 M257.5,183.4l-0.3,0.2v2.7c0,0.2-0.2,0.4-0.4,0.4c-0.2,0-0.4-0.2-0.4-0.4c0,0,0,0,0,0v-2.7l-0.3-0.2c-0.6-0.4-0.8-1.2-0.4-1.8
				c0.4-0.6,1.2-0.8,1.8-0.4s0.8,1.2,0.4,1.8C257.8,183.1,257.6,183.3,257.5,183.4L257.5,183.4z"/>
			<path id="Trazado_1476" class="st0" d="M263.6,175.8V173c0-3.6-2.9-6.5-6.5-6.5h-0.8c-3.6,0-6.5,2.9-6.5,6.5v2.8
				c-1.4,0.6-2.3,1.9-2.3,3.4v9.2c0,2,1.6,3.6,3.6,3.6h11c2,0,3.6-1.6,3.6-3.6v-9.2C265.9,177.7,265,176.4,263.6,175.8L263.6,175.8z
				 M251.4,173c0-2.7,2.2-4.9,4.9-4.9h0.8c2.7,0,4.9,2.2,4.9,4.9v2.5h-1.6V173c0-1.8-1.5-3.3-3.3-3.3h-0.8c-1.8,0-3.3,1.5-3.3,3.3
				v2.5h-1.6L251.4,173z M258.9,175.6h-4.2V173c0-1,0.8-1.7,1.7-1.7h0.8c1,0,1.7,0.8,1.7,1.7L258.9,175.6z M264.3,188.4
				c0,1.1-0.9,2.1-2.1,2.1h-11c-1.1,0-2.1-0.9-2.1-2.1v-9.2c0-1.1,0.9-2.1,2.1-2.1h11c1.1,0,2.1,0.9,2.1,2.1L264.3,188.4z"/>
		</g>
	</g>
</g>
<path id="Icon_awesome-wpforms" class="st0" d="M182.4,5.3v19.4c0,1.3-1,2.3-2.3,2.3c0,0,0,0-0.1,0h-19.4c-1.3,0-2.3-1-2.3-2.3
	c0,0,0,0,0,0V5.3c0-1.3,1-2.3,2.3-2.3c0,0,0,0,0.1,0h19.4C181.4,3,182.4,4,182.4,5.3C182.4,5.3,182.4,5.3,182.4,5.3z M180.4,24.7
	V5.3c0-0.2-0.1-0.3-0.3-0.3h-0.5l-5.9,4l-3.3-2.7L167.2,9l-5.9-4h-0.5c-0.2,0-0.3,0.1-0.3,0.3v19.4c0,0.2,0.1,0.3,0.3,0.3h19.4
	C180.3,25,180.4,24.9,180.4,24.7z M166.5,11.3v2h-3.9v-2H166.5z M166.5,15.3v2h-3.9v-2H166.5z M167.1,7.4L170,5h-6.3L167.1,7.4z
	 M178.3,11.3v2h-10.5v-2H178.3z M178.3,15.3v2h-10.5v-2H178.3z M173.8,7.4l3.5-2.3h-6.3L173.8,7.4L173.8,7.4z M178.3,19.2v2H173v-2
	H178.3z"/>
<path id="Icon_feather-shield" class="st4" d="M200,28.1c0,0,11-5.5,11-13.7V4.7l-11-4.1l-11,4.1v9.6C189,22.6,200,28.1,200,28.1z"
	/>
<g id="Grupo_2623" transform="translate(-34.855 -231.845)">
	<path id="Trazado_1381" class="st5" d="M109.8,173.4c0,1.4,0.6,2.6,1.7,3.4c-2.1,1.2-2.6,3.5-2.8,5.3c0,0.4,0.2,0.7,0.6,0.7
		c0,0,0,0,0,0c0,0,0.1,0,0.1,0c0.3,0,0.6-0.3,0.7-0.6c0.3-2.8,1.3-4.2,3.3-4.7c0.4-0.1,0.6-0.4,0.5-0.8c-0.1-0.2-0.2-0.4-0.5-0.5
		c-1.3-0.4-2.2-1.5-2.2-2.9c0-1.7,1.5-3.1,3.2-3c1.6,0,3,1.4,3,3c0,1.3-0.9,2.5-2.2,2.9c-0.4,0.1-0.6,0.5-0.5,0.8
		c0.1,0.2,0.3,0.4,0.5,0.5c1.9,0.4,2.9,1.8,3.3,4.7c0,0.4,0.4,0.6,0.8,0.6c0.4,0,0.6-0.4,0.6-0.7c0,0,0,0,0,0
		c-0.2-1.8-0.7-4.1-2.8-5.3c1.1-0.8,1.7-2.1,1.7-3.4c-0.1-2.5-2.1-4.4-4.6-4.4C111.7,169.1,109.8,171,109.8,173.4"/>
	<path id="Trazado_1382" class="st5" d="M103.4,180.3c0.3,0,0.6-0.3,0.7-0.6c0.3-2.8,1.3-4.2,3.3-4.7c0.4-0.1,0.6-0.4,0.5-0.8
		c-0.1-0.2-0.2-0.4-0.5-0.5c-1.3-0.4-2.2-1.5-2.2-2.9c0-1.7,1.4-3,3.1-3c0.9,0,1.7,0.4,2.3,1c0.3,0.3,0.7,0.3,1,0
		c0.3-0.2,0.3-0.7,0.1-0.9c0,0,0,0,0,0c-0.9-0.9-2.1-1.4-3.3-1.4c-2.4,0-4.4,1.9-4.5,4.4c0,1.4,0.6,2.6,1.7,3.4
		c-2.1,1.2-2.6,3.5-2.8,5.3C102.7,179.9,103,180.3,103.4,180.3C103.4,180.3,103.4,180.3,103.4,180.3
		C103.4,180.3,103.4,180.3,103.4,180.3"/>
	<path id="Trazado_1383" class="st5" d="M117.9,168.8c0.6-0.6,1.4-1,2.3-1c1.7,0,3.1,1.3,3.1,3c0,1.3-0.9,2.5-2.2,2.9
		c-0.4,0.1-0.6,0.5-0.5,0.8c0.1,0.2,0.3,0.4,0.5,0.5c1.9,0.4,2.9,1.8,3.3,4.7c0,0.3,0.3,0.6,0.7,0.6c0,0,0.1,0,0.1,0
		c0.4,0,0.6-0.4,0.6-0.7c0,0,0,0,0,0c-0.2-1.8-0.7-4.1-2.8-5.3c1.1-0.8,1.7-2.1,1.7-3.4c0-2.4-2-4.4-4.5-4.4c-1.3,0-2.5,0.5-3.3,1.4
		c-0.3,0.3-0.2,0.7,0,0.9c0,0,0,0,0,0C117.2,169.1,117.6,169.1,117.9,168.8"/>
	<path id="Trazado_1384" class="st5" d="M127.7,167.1l-4.2-2.3v-5.7c0-0.3-0.2-0.5-0.5-0.5c0,0,0,0,0,0h-3c-0.3,0-0.5,0.2-0.5,0.5
		v3.5l-5.1-2.8c-0.1-0.1-0.3-0.1-0.5,0l-13.2,7.3c-0.2,0.1-0.3,0.4-0.2,0.6c0,0,0,0,0,0c0.1,0.1,0.2,0.2,0.4,0.2
		c0.1,0,0.2,0,0.2-0.1l13-7.2l5.6,3.1c0,0,0,0,0,0c0.1,0,0.1,0,0.2,0c0,0,0,0,0,0c0,0,0,0,0.1,0c0,0,0.1,0,0.1,0c0,0,0.1,0,0.1,0
		c0,0,0,0,0.1,0c0,0,0,0,0.1-0.1c0,0,0,0,0,0c0,0,0,0,0,0c0,0,0-0.1,0-0.1c0,0,0-0.1,0-0.1c0,0,0,0,0,0v-3.8h2.1v5.5c0,0,0,0,0,0.1
		c0,0.1,0,0.1,0.1,0.2c0,0,0,0,0,0.1c0,0,0,0,0.1,0.1c0,0,0,0,0,0l4.4,2.4c0.2,0.1,0.5,0,0.6-0.2C128,167.5,127.9,167.2,127.7,167.1
		C127.7,167.1,127.7,167.1,127.7,167.1"/>
</g>
<g id="Grupo_141" transform="translate(0 0)">
	<g id="Grupo_135" transform="translate(0 0)">
		<path id="Trazado_172" class="st5" d="M121.7-63.5c0,0.3,0.2,0.6,0.6,0.6c0.3,0,0.6-0.2,0.6-0.6c0-0.3-0.2-0.6-0.6-0.6
			c0,0,0,0,0,0C122-64.1,121.7-63.9,121.7-63.5C121.7-63.5,121.7-63.5,121.7-63.5"/>
		<path id="Trazado_174" class="st5" d="M106.7-65h-2v0.7h1.5C106.4-64.5,106.5-64.8,106.7-65"/>
		<path id="Trazado_173" class="st5" d="M118.8-66.3L119-67c-1.9-0.5-3.9-0.5-5.8,0l0.2,0.7C115.2-66.7,117-66.7,118.8-66.3"/>
		<path id="Trazado_177" class="st5" d="M119.4-71.1c0-0.1,0-0.1,0-0.2c0-0.1-0.1-0.3-0.1-0.4c-0.4-1.3-1.5-2.2-2.8-2.3c0,0,0,0,0,0
			l0,0h0h-0.7l-0.1,0c-0.1,0-0.2,0-0.2,0c-0.8,0.2-1.6,0.7-2.1,1.4c-1,1.4-0.6,3.4,0.8,4.4c0,0,0,0,0,0c0.6,0.4,1.2,0.6,1.9,0.6
			c1.5,0,2.8-1,3.2-2.4c0-0.1,0.1-0.2,0.1-0.4c0-0.1,0-0.1,0-0.2L119.4-71.1L119.4-71.1z M119-70.8c0,0.8-0.3,1.5-0.8,2
			c-0.6,0.5-1.3,0.8-2.1,0.8h0c-0.8,0-1.5-0.3-2.1-0.8c-0.5-0.5-0.9-1.2-0.9-2c0-1.6,1.3-2.9,2.9-2.8h0c0.8,0,1.5,0.3,2.1,0.8
			C118.7-72.3,119-71.6,119-70.8"/>
		<path id="Trazado_176" class="st5" d="M116.1-73.2L116.1-73.2c-0.7,0-1.3,0.3-1.8,0.7c-1,0.9-1,2.4-0.1,3.4c0,0,0,0,0.1,0.1
			c0.5,0.5,1.1,0.7,1.8,0.7l0,0c0.7,0,1.3-0.3,1.8-0.7c1-0.9,1-2.4,0.1-3.4c0,0,0,0-0.1-0.1C117.4-73,116.8-73.2,116.1-73.2
			 M116.1-72.8L116.1-72.8c0.6,0,1.1,0.2,1.5,0.6c0.8,0.8,0.8,2,0,2.8c0,0,0,0-0.1,0.1c-0.4,0.4-0.9,0.6-1.5,0.6h0
			c-0.6,0-1.1-0.2-1.5-0.6c-0.8-0.8-0.8-2,0-2.8c0,0,0,0,0,0C115-72.6,115.6-72.8,116.1-72.8"/>
		<path id="Trazado_175" class="st5" d="M115.7-70.8c0.1,0.1,0.2,0.1,0.3,0.2s0.2,0.1,0.3,0.2c0.1,0,0.1,0.1,0.1,0.2
			c0,0.1-0.1,0.2-0.2,0.2c-0.1,0-0.3,0-0.4,0c-0.1,0-0.2-0.1-0.2-0.2c0-0.1,0-0.1-0.1-0.2c-0.1-0.1-0.2,0-0.3,0c0,0.1-0.1,0.1,0,0.2
			c0,0.3,0.2,0.5,0.4,0.5c0.1,0,0.1,0.1,0.1,0.1s0.1,0.2,0.2,0.2c0,0,0,0,0,0c0,0,0.1,0,0.1,0c0,0,0.1-0.1,0.1-0.2c0,0,0-0.1,0-0.1
			h0l0.1,0c0.3-0.1,0.5-0.3,0.5-0.5c0-0.3-0.1-0.5-0.3-0.6c-0.1,0-0.1-0.1-0.2-0.1l0,0c-0.1,0-0.1-0.1-0.2-0.1
			c-0.1-0.1-0.2-0.1-0.3-0.2c-0.1,0-0.1-0.1-0.1-0.2c0-0.1,0-0.2,0.1-0.2c0.1-0.1,0.3-0.1,0.4-0.1c0.1,0,0.2,0.1,0.3,0.3
			c0,0.1,0.1,0.2,0.2,0.2s0.2-0.1,0.2-0.2c0-0.3-0.2-0.5-0.5-0.6c0,0-0.1,0-0.1,0h0c0,0,0,0,0,0c0-0.1,0-0.3-0.2-0.3l0,0
			c-0.2,0-0.2,0.2-0.2,0.3c0,0,0,0,0,0h0c0,0-0.1,0-0.1,0c-0.3,0.1-0.5,0.4-0.5,0.7C115.4-71.1,115.5-70.9,115.7-70.8"/>
		<path id="Trazado_171" class="st5" d="M126.4-63.2h-0.8l-0.1-0.2c-0.5-1-1.2-1.9-2.1-2.7c-0.4-1-0.3-2.1,0-3.1
			c0-0.1,0-0.3-0.1-0.3c-0.1-0.1-0.2-0.1-0.3-0.1c-1.3,0.1-2.4,0.7-3.3,1.6c-0.2,0-0.3-0.1-0.5-0.1c-0.2,0.2-0.4,0.4-0.6,0.6
			c0.4,0.1,0.7,0.2,1.1,0.3c0.2,0.1,0.4,0,0.4-0.2c0.6-0.7,1.5-1.2,2.4-1.4c-0.3,1-0.2,2.2,0.2,3.1c0,0,0.1,0.1,0.1,0.1
			c0.8,0.7,1.5,1.5,1.9,2.5l0.2,0.4c0.1,0.1,0.2,0.2,0.3,0.2h1c0.3,0,0.6,0.2,0.6,0.5v2.3c0,0.3-0.3,0.6-0.6,0.5h-1
			c-0.1,0-0.3,0.1-0.3,0.2l-0.2,0.4c-0.4,0.8-1,1.6-1.6,2.2l-0.3,0.3c-0.1,0.1-0.1,0.2-0.1,0.4l0.7,2.4l-2.7,0.8l-0.5-1.6
			c-0.1-0.2-0.2-0.3-0.4-0.3c0,0-0.1,0-0.1,0l-0.7,0.2c-2,0.5-4,0.6-6,0.1l-0.7-0.2c-0.2,0-0.4,0.1-0.5,0.2l-0.5,1.5l-2.7-0.8
			l0.7-2.2c0-0.1,0-0.3-0.1-0.4l-0.3-0.3c-1.4-1.2-2.3-2.9-2.3-4.7c0-3.3,2.9-6.1,6.8-6.9c-0.2-0.2-0.4-0.4-0.6-0.6c-4,1-7,4-7,7.5
			c0,2.1,1,4,2.6,5.3l0.2,0.1l-0.6,2.1c-0.1,0.2,0,0.3,0.1,0.5c0.1,0.2,0.2,0.3,0.4,0.3l2.8,0.8l0,0c0.1,0,0.1,0,0.2,0
			c0.3,0,0.6-0.2,0.6-0.5l0.4-1.3l0.3,0.1c2.1,0.5,4.3,0.5,6.4-0.1l0.3-0.1l0.4,1.3c0.1,0.3,0.5,0.5,0.8,0.4l2.8-0.8
			c0.2,0,0.3-0.2,0.4-0.3c0.1-0.1,0.1-0.3,0.1-0.5l-0.7-2.2l0.2-0.1c0.8-0.7,1.4-1.5,1.8-2.5l0.1-0.2h0.8c0.7,0,1.3-0.6,1.3-1.3
			v-2.3C127.7-62.6,127.1-63.2,126.4-63.2"/>
	</g>
</g>
<g>
	<path id="Trazado_80_00000121257661381014988110000018116535420182039974_" class="st5" d="M154.2-63.5l-1.4-0.3c0,0,0-0.1,0-0.1
		v-1.9c0-2.5-2.4-4.6-5.4-4.6s-5.4,2.1-5.4,4.6v2v0l-1.4,0.3c-0.7,0.1-1.3,0.8-1.3,1.5v9.4c0,0.9,0.7,1.5,1.6,1.5h13.1
		c0.9,0,1.6-0.7,1.6-1.5V-62C155.5-62.8,155-63.4,154.2-63.5 M150.2-63.5l3.9,0.8c0.4,0.1,0.6,0.4,0.6,0.7v9.4
		c0,0.4-0.3,0.7-0.7,0.7h-13.1c-0.4,0-0.7-0.3-0.7-0.7V-62c0-0.4,0.3-0.7,0.6-0.7l3.9-0.8C146.5-63.8,148.4-63.8,150.2-63.5 M152-64
		l-1.3-0.3v-1.5c-0.4-1.8-2.1-3-3.9-2.6c-1.3,0.3-2.4,1.3-2.6,2.6v1.5l-1.3,0.3v-1.8c0-2.1,2.1-3.8,4.6-3.8s4.6,1.7,4.6,3.8L152-64z
		 M145-65.8c0.4-1.4,1.8-2.2,3.1-1.8c0.9,0.2,1.6,0.9,1.8,1.8v1.4c-1.6-0.2-3.3-0.2-4.9,0V-65.8z"/>
	<path id="Trazado_81_00000032610925790339497650000003304062407716352696_" class="st5" d="M146-56.9v1.8c0,0.3,0.3,0.6,0.6,0.6
		h1.7c0.3,0,0.6-0.3,0.6-0.6v-1.8c0.6-0.4,1-1.2,1-1.9c0-0.7-0.3-1.3-0.7-1.7c-1-0.9-2.6-0.9-3.5,0.1c-0.5,0.5-0.7,1.1-0.6,1.8
		C145-58,145.4-57.3,146-56.9 M148.5-60c0.3,0.3,0.5,0.7,0.5,1.1c0,0.6-0.3,1.1-0.8,1.4c-0.1,0.1-0.2,0.2-0.2,0.3v1.8h-1.2v-1.8
		c0-0.1-0.1-0.3-0.2-0.4c-0.5-0.2-0.8-0.7-0.8-1.3c0-0.4,0.1-0.9,0.4-1.2c0.3-0.3,0.7-0.5,1.2-0.5C147.8-60.5,148.2-60.3,148.5-60"
		/>
	<path id="Trazado_82_00000170959601308884974880000000549813460282830757_" class="st5" d="M164.9-67.7c0-0.7-0.4-1.3-0.9-1.6
		c0.5-0.4,0.9-1,0.9-1.6c0-2.1-4.1-3.6-9.6-3.6s-9.6,1.6-9.6,3.6c0,0,0,0.1,0,0.1c0.3-0.1,0.5-0.1,0.8-0.1l0,0
		c0-1.3,3.6-2.8,8.8-2.8s8.8,1.5,8.8,2.8s-3.6,2.8-8.8,2.8c-0.8,0-1.7,0-2.5-0.1c0.2,0.3,0.3,0.5,0.4,0.8c0.7,0.1,1.4,0.1,2.1,0.1
		c2.7,0.1,5.5-0.4,7.9-1.5c0.4,0.2,0.8,0.7,0.8,1.2c0,0.5-0.6,1-1,1.3c-1.6,1-4.5,1.6-7.7,1.6c-0.6,0-1.2,0-1.8-0.1v0.6l0.8,0.2
		c0,0,0.1,0,0.1,0c0.3,0,0.6,0,0.8,0c2.7,0.1,5.4-0.4,7.9-1.5c0.4,0.2,0.8,0.7,0.8,1.2c0,0.5-0.6,1-1,1.3l0,0l0,0
		c-2.1,1-4.5,1.6-6.9,1.5v0.8c2.4,0,4.9-0.5,7.1-1.5c0.4,0.2,0.8,0.7,0.8,1.2c0,0.5-0.6,1-1.1,1.3c-2.1,1-4.5,1.5-6.9,1.5v0.8
		c2.4,0,4.8-0.5,7.1-1.5c0.4,0.3,0.9,0.7,0.9,1.2c0,1.3-3.2,2.7-7.9,2.8v0.8c2.4,0,4.9-0.5,7.1-1.5c0.4,0.2,0.8,0.7,0.8,1.2
		c0,1.3-3.3,2.7-8.1,2.8c-0.1,0.3-0.3,0.6-0.5,0.8c5.4,0,9.4-1.6,9.4-3.6c0-0.7-0.4-1.3-0.9-1.6c0.5-0.4,0.9-1,0.9-1.6
		c-0.9-0.5-1.2-1.6-0.7-2.6c0.2-0.3,0.4-0.6,0.7-0.7c-0.9-0.5-1.2-1.7-0.7-2.5c0.2-0.3,0.4-0.5,0.7-0.7c-0.9-0.5-1.2-1.7-0.7-2.5
		C164.4-67.3,164.6-67.5,164.9-67.7"/>
	<path id="Trazado_163_00000028301801452230880420000012054891796098955181_" class="st5" d="M154.2-63.5l-1.4-0.3c0,0,0-0.1,0-0.1
		v-1.9c0-2.5-2.4-4.6-5.4-4.6s-5.4,2.1-5.4,4.6v2v0l-1.4,0.3c-0.7,0.1-1.3,0.8-1.3,1.5v9.4c0,0.9,0.7,1.5,1.6,1.5h13.1
		c0.9,0,1.6-0.7,1.6-1.5V-62C155.5-62.8,155-63.4,154.2-63.5 M150.2-63.5l3.9,0.8c0.4,0.1,0.6,0.4,0.6,0.7v9.4
		c0,0.4-0.3,0.7-0.7,0.7h-13.1c-0.4,0-0.7-0.3-0.7-0.7V-62c0-0.4,0.3-0.7,0.6-0.7l3.9-0.8C146.5-63.8,148.4-63.8,150.2-63.5 M152-64
		l-1.3-0.3v-1.5c-0.4-1.8-2.1-3-3.9-2.6c-1.3,0.3-2.4,1.3-2.6,2.6v1.5l-1.3,0.3v-1.8c0-2.1,2.1-3.8,4.6-3.8s4.6,1.7,4.6,3.8L152-64z
		 M145-65.8c0.4-1.4,1.8-2.2,3.1-1.8c0.9,0.2,1.6,0.9,1.8,1.8v1.4c-1.6-0.2-3.3-0.2-4.9,0V-65.8z"/>
	<path id="Trazado_164_00000116217559464009847390000011752938839023324059_" class="st5" d="M146-56.9v1.8c0,0.3,0.3,0.6,0.6,0.6
		h1.7c0.3,0,0.6-0.3,0.6-0.6v-1.8c0.6-0.4,1-1.2,1-1.9c0-0.7-0.3-1.3-0.7-1.7c-1-0.9-2.6-0.9-3.5,0.1c-0.5,0.5-0.7,1.1-0.6,1.8
		C145-58,145.4-57.3,146-56.9 M148.5-60c0.3,0.3,0.5,0.7,0.5,1.1c0,0.6-0.3,1.1-0.8,1.4c-0.1,0.1-0.2,0.2-0.2,0.3v1.8h-1.2v-1.8
		c0-0.1-0.1-0.3-0.2-0.4c-0.5-0.2-0.8-0.7-0.8-1.3c0-0.4,0.1-0.9,0.4-1.2c0.3-0.3,0.7-0.5,1.2-0.5C147.8-60.5,148.2-60.3,148.5-60"
		/>
</g>
<g>
	<circle id="Elipse_21" class="st6" cx="145.5" cy="-18.3" r="12.5"/>
	<path id="Icon_metro-cancel" class="st3" d="M145.6-31.4c-7.3,0.1-13.1,6-13,13.3c0.1,7.3,6,13.1,13.3,13c7.2-0.1,13-5.9,13-13.1
		C158.9-25.6,152.9-31.5,145.6-31.4z M145.6-7.6c-5.9-0.1-10.6-4.9-10.6-10.8c0.1-5.9,4.9-10.6,10.8-10.6
		c5.8,0.1,10.6,4.8,10.6,10.7C156.4-12.4,151.6-7.6,145.6-7.6C145.6-7.6,145.6-7.6,145.6-7.6z M149.8-24.9l-4.1,4.1l-4.1-4.1
		l-2.5,2.5l4.1,4.1l-4.1,4.1l2.5,2.5l4.1-4.1l4.1,4.1l2.5-2.5l-4.1-4.1l4.1-4.1L149.8-24.9z"/>
</g>
<g id="Elipse_66">
	<circle class="st7" cx="175.7" cy="-18.3" r="12.5"/>
	<circle class="st2" cx="175.7" cy="-18.3" r="11.5"/>
</g>
<path id="Icon_metro-warning" class="st3" d="M175.7-24.1l5.9,11.7h-11.8L175.7-24.1z M175.7-25.3c-0.4,0-0.7,0.3-0.8,0.6l-6,11.9
	c-0.5,0.8-0.1,1.5,0.9,1.5h11.9c0.9,0,1.3-0.7,0.9-1.5l0,0l-6-11.9C176.4-25.1,176-25.3,175.7-25.3L175.7-25.3z M176.5-13.9
	c0,0.5-0.4,0.9-0.9,0.9c-0.5,0-0.9-0.4-0.9-0.9c0-0.5,0.4-0.9,0.9-0.9l0,0C176.1-14.8,176.5-14.4,176.5-13.9L176.5-13.9z
	 M175.7-15.7c-0.5,0-0.9-0.4-0.9-0.9v-2.6c0-0.5,0.4-0.9,0.8-0.9c0.5,0,0.9,0.4,0.9,0.8c0,0,0,0,0,0.1v2.6
	C176.5-16.1,176.1-15.7,175.7-15.7z"/>
<path id="Shape_2" class="st5" d="M113.7,37c-0.3-0.2-0.7-0.2-0.9,0l-10.3,8.8v10.3c0,1.2,1,2.1,2.2,2.1h5.7c0.4,0,0.7-0.3,0.7-0.7
	c0,0,0,0,0,0v-4.3c0.1-1.2,1.1-2.1,2.2-2.1c1.1,0,2,0.9,2.1,2.1v4.3c0,0.4,0.3,0.7,0.7,0.7h5.7c1.2,0,2.2-1,2.2-2.1c0,0,0,0,0,0
	V45.8L113.7,37z"/>
<path id="Shape_7" class="st8" d="M141.4,47.6c3,0,5.4-2.4,5.4-5.4s-2.4-5.4-5.4-5.4c-3,0-5.4,2.4-5.4,5.4l0,0
	C136,45.2,138.4,47.6,141.4,47.6C141.4,47.6,141.4,47.6,141.4,47.6z M145.2,49h-0.7c-1.9,0.9-4.2,0.9-6.1,0h-0.7
	c-3.1,0-5.6,2.5-5.6,5.6v1.7c0,1.1,0.9,2,2,2h14.8c1.1,0,2-0.9,2-2v-1.7C150.8,51.5,148.3,48.9,145.2,49C145.2,49,145.2,49,145.2,49
	z"/>
<path id="Trazado_1341" class="st5" d="M164.3,49.3c0.5,0,1,0.4,1,1c0,0,0,0,0,0l0,0c0,0.5-0.4,1-1,1s-1-0.4-1-1l0,0
	C163.3,49.7,163.7,49.3,164.3,49.3C164.3,49.3,164.3,49.3,164.3,49.3z M166.9,50.2L166.9,50.2c0,0.5,0.4,1,1,1c0.5,0,1-0.4,1-1l0,0
	c0-0.5-0.4-1-1-1C167.4,49.3,166.9,49.7,166.9,50.2z M168.8,57.4c0,0.5-0.4,1-1,1c0,0,0,0,0,0h-5.1c-2.1,0-3.9-1.8-3.9-3.9v-8
	c0-2.1,1.7-3.9,3.9-3.9h1.2v-3.4c0-3.2,2.6-5.8,5.8-5.8c3.2,0,5.8,2.6,5.8,5.8v3.4h1.2c2.1,0,3.9,1.8,3.9,3.9v1c0,0.5-0.4,1-1,1
	s-1-0.4-1-1v-1c0-1.1-0.9-1.9-1.9-2h-13.9c-1.1,0-1.9,0.9-1.9,2v8c0,1.1,0.9,1.9,1.9,2h5.1C168.3,56.4,168.8,56.8,168.8,57.4
	L168.8,57.4z M165.8,42.5h7.7v-3.4c0-2.1-1.8-3.8-3.9-3.8c-2.1,0-3.8,1.7-3.8,3.8V42.5z M181.8,54.2c0,0-0.1,0.2-0.2,0.3
	c-0.6,0.8-1.3,1.6-2.1,2.2c-1.1,1-2.6,1.6-4.1,1.6c-1.5-0.1-3-0.6-4.1-1.6c-0.8-0.7-1.5-1.4-2.1-2.2c-0.1-0.1-0.2-0.3-0.2-0.3
	c-0.2-0.3-0.2-0.8,0-1.1c0,0,0.2-0.2,0.2-0.3c0.6-0.8,1.3-1.6,2.1-2.2c1.1-1,2.6-1.6,4.1-1.6c1.5,0.1,3,0.6,4.1,1.6
	c0.8,0.7,1.5,1.4,2.1,2.2c0.1,0.1,0.2,0.3,0.2,0.3C182.1,53.4,182.1,53.8,181.8,54.2z M179.8,53.6c-1.5-1.8-3-2.8-4.5-2.8
	c-1.4,0-2.9,0.9-4.5,2.8c1.5,1.8,3,2.8,4.5,2.8C176.8,56.4,178.3,55.5,179.8,53.6z M175.4,51.7c-1,0-1.9,0.8-1.9,1.8
	c0,1,0.8,1.9,1.8,1.9c1,0,1.9-0.8,1.9-1.8c0,0,0,0,0,0C177.2,52.6,176.4,51.8,175.4,51.7C175.4,51.7,175.4,51.7,175.4,51.7z"/>
<g id="Grupo_2464" transform="translate(-6902 -2053)">
	<g id="Rectángulo_218" transform="translate(6902 2053)">
		<path class="st9" d="M193,34.4h11.7c1.7,0,3,1.3,3,3v16.8c0,1.7-1.3,3-3,3H193c-1.7,0-3-1.3-3-3V37.4
			C190,35.8,191.4,34.4,193,34.4z"/>
		<path class="st10" d="M193,35.2h11.7c1.2,0,2.2,1,2.2,2.2v16.8c0,1.2-1,2.2-2.2,2.2H193c-1.2,0-2.2-1-2.2-2.2V37.4
			C190.8,36.2,191.8,35.2,193,35.2z"/>
	</g>
	<line id="Línea_1" class="st10" x1="7094.5" y1="2093.1" x2="7106.2" y2="2093.1"/>
	<line id="Línea_2" class="st10" x1="7094.5" y1="2096.9" x2="7106.2" y2="2096.9"/>
	<line id="Línea_3" class="st10" x1="7095.6" y1="2100.7" x2="7100.6" y2="2100.7"/>
</g>
<g id="Grupo_2465" transform="translate(-92 -237.89)">
	<path id="Trazado_1350" class="st5" d="M320.7,273c-0.3,0-0.5,0.2-0.5,0.5s0.2,0.5,0.5,0.5s0.5-0.2,0.5-0.5S321,273,320.7,273z"/>
	<path id="Trazado_1351" class="st5" d="M310.6,283.2c0.3,0,0.5-0.2,0.5-0.5s-0.2-0.5-0.5-0.5c-0.3,0-0.5,0.2-0.5,0.5
		S310.4,283.2,310.6,283.2z"/>
	<path id="Trazado_1352" class="st5" d="M325.3,267.3c-5.1,0-9.4,3.5-9.7,8c-4.9,0.2-9.5,3.8-9.5,8.5c0,2,0.8,4,2.2,5.5
		c0.3,1.2-0.1,2.4-0.9,3.3c-0.2,0.2-0.2,0.6,0,0.8c0.1,0.1,0.3,0.2,0.4,0.2c1.6,0,3.2-0.6,4.4-1.8c1.3,0.4,2.6,0.6,4,0.6
		c5.1,0,9.3-3.5,9.7-8c1.2,0,2.3-0.3,3.4-0.6c1.2,1.1,2.7,1.8,4.4,1.8c0.3,0,0.6-0.3,0.6-0.6c0-0.2-0.1-0.3-0.2-0.4
		c-0.9-0.9-1.2-2.1-0.9-3.3c1.4-1.5,2.2-3.4,2.2-5.5C335.3,270.9,330.3,267.3,325.3,267.3L325.3,267.3z M316.1,291.2
		c-1.3,0-2.7-0.2-3.9-0.7c-0.2-0.1-0.5,0-0.6,0.1c-0.7,0.7-1.6,1.3-2.6,1.5c0.5-1,0.7-2.3,0.3-3.4c0-0.1-0.1-0.2-0.1-0.2
		c-1.3-1.3-2-3-2-4.8c0-4,4.1-7.4,8.9-7.4c4.6,0,8.6,3.2,8.6,7.4C324.7,287.9,320.9,291.2,316.1,291.2L316.1,291.2z M332.2,280.6
		c-0.1,0.1-0.1,0.2-0.1,0.2c-0.3,1.1-0.2,2.3,0.3,3.4c-1-0.2-1.9-0.8-2.6-1.5c-0.2-0.2-0.4-0.2-0.6-0.1c-1.1,0.4-2.2,0.6-3.4,0.7
		c-0.2-2.2-1.3-4.3-3.1-5.7h7.4c0.3,0,0.6-0.3,0.6-0.6c0-0.3-0.3-0.6-0.6-0.6H321c-1.3-0.7-2.8-1-4.2-1.1c0.3-3.8,4-6.9,8.5-6.9
		c4.8,0,8.9,3.4,8.9,7.4C334.1,277.6,333.4,279.4,332.2,280.6L332.2,280.6z"/>
	<path id="Trazado_1353" class="st5" d="M320.1,282.2h-6.4c-0.3,0-0.5,0.2-0.5,0.5c0,0.3,0.2,0.5,0.5,0.5h6.4c0.3,0,0.5-0.2,0.5-0.5
		C320.6,282.4,320.4,282.2,320.1,282.2L320.1,282.2z"/>
	<path id="Trazado_1354" class="st5" d="M319.8,285.6h-8.4c-0.3,0-0.5,0.2-0.5,0.5c0,0.3,0.2,0.5,0.5,0.5h8.4c0.3,0,0.5-0.2,0.5-0.5
		C320.3,285.9,320.1,285.6,319.8,285.6L319.8,285.6z"/>
	<path id="Trazado_1355" class="st5" d="M330,273h-6.4c-0.3,0-0.5,0.2-0.5,0.5c0,0.3,0.2,0.5,0.5,0.5h6.4c0.3,0,0.5-0.2,0.5-0.5
		C330.5,273.3,330.3,273,330,273z"/>
</g>
<path id="Icon_feather-phone-call" class="st11" d="M18.5,7.8c2.4,0.5,4.3,2.3,4.7,4.7 M18.5,3c5,0.6,8.9,4.5,9.5,9.5 M26.8,22v3.6
	c0,1.3-1.1,2.4-2.4,2.4c-0.1,0-0.1,0-0.2,0c-3.7-0.4-7.2-1.7-10.3-3.7c-2.9-1.8-5.3-4.3-7.2-7.2c-2-3.1-3.3-6.7-3.7-10.4
	C2.9,5.5,3.9,4.3,5.2,4.2c0.1,0,0.1,0,0.2,0H9c1.2,0,2.2,0.9,2.4,2.1c0.2,1.1,0.4,2.3,0.8,3.4c0.3,0.9,0.1,1.9-0.5,2.5l-1.5,1.5
	c1.7,3,4.2,5.5,7.2,7.2l1.5-1.5c0.7-0.7,1.6-0.9,2.5-0.5c1.1,0.4,2.2,0.7,3.4,0.8C25.9,19.8,26.8,20.8,26.8,22L26.8,22z"/>
</svg>
