<?xml version="1.0" encoding="utf-8"?>
<!-- Generator: Adobe Illustrator 25.4.1, SVG Export Plug-In . SVG Version: 6.00 Build 0)  -->
<svg version="1.1" id="Capa_1" xmlns="http://www.w3.org/2000/svg" xmlns:xlink="http://www.w3.org/1999/xlink" x="0px" y="0px"
	 viewBox="0 0 31 31" style="enable-background:new 0 0 31 31;" xml:space="preserve">
<style type="text/css">
	.st0{fill:#3262AC;}
	.st1{fill:#CAD52C;}
	.st2{fill:none;stroke:#FFFFFF;stroke-width:2;}
	.st3{fill:#FFFFFF;}
	.st4{fill:#FBFBFB;stroke:#3883C5;stroke-width:2;stroke-linecap:round;stroke-linejoin:round;}
	.st5{fill:#787887;}
	.st6{fill:#D52D2C;}
	.st7{fill:#FDC430;}
	.st8{fill:#787887;stroke:#717070;}
	.st9{fill:none;}
	.st10{fill:none;stroke:#787887;stroke-width:1.5;}
	.st11{fill:none;stroke:#787887;stroke-linecap:round;stroke-linejoin:round;}
	.st12{clip-path:url(#SVGID_00000119083293964976755060000015639636882735985828_);}
	.st13{fill:none;stroke:#787887;stroke-width:3;stroke-linecap:round;stroke-linejoin:round;}
	.st14{fill:none;stroke:#3262AC;stroke-miterlimit:10;}
	.st15{enable-background:new    ;}
	.st16{fill:none;stroke:#787887;stroke-miterlimit:10;}
	.st17{fill:#1E3057;}
	.st18{fill:#0D99D6;}
</style>
<g id="Hamburger_Icon">
	<g id="Hamburger_Icon-2">
		<path id="Trazado_11" class="st0" d="M69.7-18.3c0-1.1,0.6-2,1.3-2h16.9c0.7,0,1.2,0.9,1.2,2s-0.6,2-1.2,2H70.9
			C70.3-16.4,69.7-17.2,69.7-18.3z"/>
		<path id="Trazado_1290" class="st0" d="M69.7-18.3c0-1.1,0.6-2,1.3-2h16.9c0.7,0,1.2,0.9,1.2,2s-0.6,2-1.2,2H70.9
			C70.3-16.4,69.7-17.2,69.7-18.3z"/>
		<path id="Trazado_1291" class="st0" d="M69.7-11.1c0-0.9,0.6-1.7,1.3-1.7h16.9c0.7,0,1.2,0.7,1.2,1.7c0,0.9-0.6,1.7-1.2,1.7H70.9
			C70.2-9.4,69.7-10.2,69.7-11.1z"/>
		<path id="Trazado_1292" class="st0" d="M69.7-25.5c0-1,0.6-1.9,1.3-1.9h16.9c0.7,0,1.2,0.8,1.2,1.9s-0.6,1.9-1.2,1.9H70.9
			C70.2-23.6,69.7-24.4,69.7-25.5z"/>
	</g>
</g>
<g>
	<g id="Elipse_21_00000122700021666481455410000011478136939818866572_">
		<circle class="st1" cx="116.2" cy="-18.3" r="12.5"/>
		<circle class="st2" cx="116.2" cy="-18.3" r="11.5"/>
	</g>
	<path id="Icon_awesome-check_00000110441766745699221180000003192436968001748644_" class="st3" d="M113.9-12.4l-4.7-4.7
		c-0.3-0.3-0.3-0.7,0-1l1-1c0.3-0.3,0.7-0.3,1,0l3.2,3.2l6.7-6.7c0.3-0.3,0.7-0.3,1,0l1,1c0.3,0.3,0.3,0.7,0,1l-8.3,8.3
		C114.6-12.1,114.2-12.1,113.9-12.4z"/>
</g>
<path id="Icon_metro-calendar" class="st0" d="M112.7,13.2h2.4v2.4h-2.4V13.2z M116.3,13.2h2.4v2.4h-2.4V13.2z M119.8,13.2h2.4v2.4
	h-2.4V13.2z M109.2,20.2h2.4v2.4h-2.4L109.2,20.2z M112.7,20.2h2.4v2.4h-2.4L112.7,20.2z M116.3,20.2h2.4v2.4h-2.4L116.3,20.2z
	 M112.7,16.7h2.4v2.4h-2.4V16.7z M116.3,16.7h2.4v2.4h-2.4V16.7z M119.8,16.7h2.4v2.4h-2.4V16.7z M109.2,16.7h2.4v2.4h-2.4
	L109.2,16.7z M122.2,6.1v1.2h-2.4V6.1h-8.2v1.2h-2.4V6.1h-2.4V25h17.7V6.1L122.2,6.1L122.2,6.1z M123.3,23.8H108v-13h15.3V23.8z"/>
<g id="Grupo_2500" transform="translate(-114 -165.89)">
	<g>
		<g id="Grupo_2498" transform="translate(0 0)">
			<path id="Trazado_1475" class="st0" d="M256.8,179.4c-1.6,0-2.9,1.3-2.9,2.9c0,0.8,0.3,1.6,0.9,2.1v1.9c0,1.1,0.9,1.9,1.9,1.9
				c1.1,0,1.9-0.9,1.9-1.9c0,0,0,0,0,0v-1.9c1.2-1.1,1.3-2.9,0.2-4.1C258.3,179.7,257.6,179.4,256.8,179.4L256.8,179.4z
				 M257.5,183.4l-0.3,0.2v2.7c0,0.2-0.2,0.4-0.4,0.4c-0.2,0-0.4-0.2-0.4-0.4c0,0,0,0,0,0v-2.7l-0.3-0.2c-0.6-0.4-0.8-1.2-0.4-1.8
				c0.4-0.6,1.2-0.8,1.8-0.4s0.8,1.2,0.4,1.8C257.8,183.1,257.6,183.3,257.5,183.4L257.5,183.4z"/>
			<path id="Trazado_1476" class="st0" d="M263.6,175.8V173c0-3.6-2.9-6.5-6.5-6.5h-0.8c-3.6,0-6.5,2.9-6.5,6.5v2.8
				c-1.4,0.6-2.3,1.9-2.3,3.4v9.2c0,2,1.6,3.6,3.6,3.6h11c2,0,3.6-1.6,3.6-3.6v-9.2C265.9,177.7,265,176.4,263.6,175.8L263.6,175.8z
				 M251.4,173c0-2.7,2.2-4.9,4.9-4.9h0.8c2.7,0,4.9,2.2,4.9,4.9v2.5h-1.6V173c0-1.8-1.5-3.3-3.3-3.3h-0.8c-1.8,0-3.3,1.5-3.3,3.3
				v2.5h-1.6L251.4,173z M258.9,175.6h-4.2V173c0-1,0.8-1.7,1.7-1.7h0.8c1,0,1.7,0.8,1.7,1.7L258.9,175.6z M264.3,188.4
				c0,1.1-0.9,2.1-2.1,2.1h-11c-1.1,0-2.1-0.9-2.1-2.1v-9.2c0-1.1,0.9-2.1,2.1-2.1h11c1.1,0,2.1,0.9,2.1,2.1L264.3,188.4z"/>
		</g>
	</g>
</g>
<path id="Icon_awesome-wpforms" class="st0" d="M182.4,5.3v19.4c0,1.3-1,2.3-2.3,2.3c0,0,0,0-0.1,0h-19.4c-1.3,0-2.3-1-2.3-2.3
	c0,0,0,0,0,0V5.3c0-1.3,1-2.3,2.3-2.3c0,0,0,0,0.1,0h19.4C181.4,3,182.4,4,182.4,5.3C182.4,5.3,182.4,5.3,182.4,5.3z M180.4,24.7
	V5.3c0-0.2-0.1-0.3-0.3-0.3h-0.5l-5.9,4l-3.3-2.7L167.2,9l-5.9-4h-0.5c-0.2,0-0.3,0.1-0.3,0.3v19.4c0,0.2,0.1,0.3,0.3,0.3h19.4
	C180.3,25,180.4,24.9,180.4,24.7z M166.5,11.3v2h-3.9v-2H166.5z M166.5,15.3v2h-3.9v-2H166.5z M167.1,7.4L170,5h-6.3L167.1,7.4z
	 M178.3,11.3v2h-10.5v-2H178.3z M178.3,15.3v2h-10.5v-2H178.3z M173.8,7.4l3.5-2.3h-6.3L173.8,7.4L173.8,7.4z M178.3,19.2v2H173v-2
	H178.3z"/>
<path id="Icon_feather-shield" class="st4" d="M200,28.1c0,0,11-5.5,11-13.7V4.7l-11-4.1l-11,4.1v9.6C189,22.6,200,28.1,200,28.1z"
	/>
<g id="Grupo_2623" transform="translate(-34.855 -231.845)">
	<path id="Trazado_1381" class="st5" d="M109.8,173.4c0,1.4,0.6,2.6,1.7,3.4c-2.1,1.2-2.6,3.5-2.8,5.3c0,0.4,0.2,0.7,0.6,0.7
		c0,0,0,0,0,0c0,0,0.1,0,0.1,0c0.3,0,0.6-0.3,0.7-0.6c0.3-2.8,1.3-4.2,3.3-4.7c0.4-0.1,0.6-0.4,0.5-0.8c-0.1-0.2-0.2-0.4-0.5-0.5
		c-1.3-0.4-2.2-1.5-2.2-2.9c0-1.7,1.5-3.1,3.2-3c1.6,0,3,1.4,3,3c0,1.3-0.9,2.5-2.2,2.9c-0.4,0.1-0.6,0.5-0.5,0.8
		c0.1,0.2,0.3,0.4,0.5,0.5c1.9,0.4,2.9,1.8,3.3,4.7c0,0.4,0.4,0.6,0.8,0.6c0.4,0,0.6-0.4,0.6-0.7c0,0,0,0,0,0
		c-0.2-1.8-0.7-4.1-2.8-5.3c1.1-0.8,1.7-2.1,1.7-3.4c-0.1-2.5-2.1-4.4-4.6-4.4C111.7,169.1,109.8,171,109.8,173.4"/>
	<path id="Trazado_1382" class="st5" d="M103.4,180.3c0.3,0,0.6-0.3,0.7-0.6c0.3-2.8,1.3-4.2,3.3-4.7c0.4-0.1,0.6-0.4,0.5-0.8
		c-0.1-0.2-0.2-0.4-0.5-0.5c-1.3-0.4-2.2-1.5-2.2-2.9c0-1.7,1.4-3,3.1-3c0.9,0,1.7,0.4,2.3,1c0.3,0.3,0.7,0.3,1,0
		c0.3-0.2,0.3-0.7,0.1-0.9c0,0,0,0,0,0c-0.9-0.9-2.1-1.4-3.3-1.4c-2.4,0-4.4,1.9-4.5,4.4c0,1.4,0.6,2.6,1.7,3.4
		c-2.1,1.2-2.6,3.5-2.8,5.3C102.7,179.9,103,180.3,103.4,180.3C103.4,180.3,103.4,180.3,103.4,180.3
		C103.4,180.3,103.4,180.3,103.4,180.3"/>
	<path id="Trazado_1383" class="st5" d="M117.9,168.8c0.6-0.6,1.4-1,2.3-1c1.7,0,3.1,1.3,3.1,3c0,1.3-0.9,2.5-2.2,2.9
		c-0.4,0.1-0.6,0.5-0.5,0.8c0.1,0.2,0.3,0.4,0.5,0.5c1.9,0.4,2.9,1.8,3.3,4.7c0,0.3,0.3,0.6,0.7,0.6c0,0,0.1,0,0.1,0
		c0.4,0,0.6-0.4,0.6-0.7c0,0,0,0,0,0c-0.2-1.8-0.7-4.1-2.8-5.3c1.1-0.8,1.7-2.1,1.7-3.4c0-2.4-2-4.4-4.5-4.4c-1.3,0-2.5,0.5-3.3,1.4
		c-0.3,0.3-0.2,0.7,0,0.9c0,0,0,0,0,0C117.2,169.1,117.6,169.1,117.9,168.8"/>
	<path id="Trazado_1384" class="st5" d="M127.7,167.1l-4.2-2.3v-5.7c0-0.3-0.2-0.5-0.5-0.5c0,0,0,0,0,0h-3c-0.3,0-0.5,0.2-0.5,0.5
		v3.5l-5.1-2.8c-0.1-0.1-0.3-0.1-0.5,0l-13.2,7.3c-0.2,0.1-0.3,0.4-0.2,0.6c0,0,0,0,0,0c0.1,0.1,0.2,0.2,0.4,0.2
		c0.1,0,0.2,0,0.2-0.1l13-7.2l5.6,3.1c0,0,0,0,0,0c0.1,0,0.1,0,0.2,0c0,0,0,0,0,0c0,0,0,0,0.1,0c0,0,0.1,0,0.1,0c0,0,0.1,0,0.1,0
		c0,0,0,0,0.1,0c0,0,0,0,0.1-0.1c0,0,0,0,0,0c0,0,0,0,0,0c0,0,0-0.1,0-0.1c0,0,0-0.1,0-0.1c0,0,0,0,0,0v-3.8h2.1v5.5c0,0,0,0,0,0.1
		c0,0.1,0,0.1,0.1,0.2c0,0,0,0,0,0.1c0,0,0,0,0.1,0.1c0,0,0,0,0,0l4.4,2.4c0.2,0.1,0.5,0,0.6-0.2C128,167.5,127.9,167.2,127.7,167.1
		C127.7,167.1,127.7,167.1,127.7,167.1"/>
</g>
<g id="Grupo_141" transform="translate(0 0)">
	<g id="Grupo_135" transform="translate(0 0)">
		<path id="Trazado_172" class="st5" d="M121.7-63.5c0,0.3,0.2,0.6,0.6,0.6c0.3,0,0.6-0.2,0.6-0.6c0-0.3-0.2-0.6-0.6-0.6
			c0,0,0,0,0,0C122-64.1,121.7-63.9,121.7-63.5C121.7-63.5,121.7-63.5,121.7-63.5"/>
		<path id="Trazado_174" class="st5" d="M106.7-65h-2v0.7h1.5C106.4-64.5,106.5-64.8,106.7-65"/>
		<path id="Trazado_173" class="st5" d="M118.8-66.3L119-67c-1.9-0.5-3.9-0.5-5.8,0l0.2,0.7C115.2-66.7,117-66.7,118.8-66.3"/>
		<path id="Trazado_177" class="st5" d="M119.4-71.1c0-0.1,0-0.1,0-0.2c0-0.1-0.1-0.3-0.1-0.4c-0.4-1.3-1.5-2.2-2.8-2.3c0,0,0,0,0,0
			l0,0h0h-0.7l-0.1,0c-0.1,0-0.2,0-0.2,0c-0.8,0.2-1.6,0.7-2.1,1.4c-1,1.4-0.6,3.4,0.8,4.4c0,0,0,0,0,0c0.6,0.4,1.2,0.6,1.9,0.6
			c1.5,0,2.8-1,3.2-2.4c0-0.1,0.1-0.2,0.1-0.4c0-0.1,0-0.1,0-0.2L119.4-71.1L119.4-71.1z M119-70.8c0,0.8-0.3,1.5-0.8,2
			c-0.6,0.5-1.3,0.8-2.1,0.8h0c-0.8,0-1.5-0.3-2.1-0.8c-0.5-0.5-0.9-1.2-0.9-2c0-1.6,1.3-2.9,2.9-2.8h0c0.8,0,1.5,0.3,2.1,0.8
			C118.7-72.3,119-71.6,119-70.8"/>
		<path id="Trazado_176" class="st5" d="M116.1-73.2L116.1-73.2c-0.7,0-1.3,0.3-1.8,0.7c-1,0.9-1,2.4-0.1,3.4c0,0,0,0,0.1,0.1
			c0.5,0.5,1.1,0.7,1.8,0.7l0,0c0.7,0,1.3-0.3,1.8-0.7c1-0.9,1-2.4,0.1-3.4c0,0,0,0-0.1-0.1C117.4-73,116.8-73.2,116.1-73.2
			 M116.1-72.8L116.1-72.8c0.6,0,1.1,0.2,1.5,0.6c0.8,0.8,0.8,2,0,2.8c0,0,0,0-0.1,0.1c-0.4,0.4-0.9,0.6-1.5,0.6h0
			c-0.6,0-1.1-0.2-1.5-0.6c-0.8-0.8-0.8-2,0-2.8c0,0,0,0,0,0C115-72.6,115.6-72.8,116.1-72.8"/>
		<path id="Trazado_175" class="st5" d="M115.7-70.8c0.1,0.1,0.2,0.1,0.3,0.2s0.2,0.1,0.3,0.2c0.1,0,0.1,0.1,0.1,0.2
			c0,0.1-0.1,0.2-0.2,0.2c-0.1,0-0.3,0-0.4,0c-0.1,0-0.2-0.1-0.2-0.2c0-0.1,0-0.1-0.1-0.2c-0.1-0.1-0.2,0-0.3,0c0,0.1-0.1,0.1,0,0.2
			c0,0.3,0.2,0.5,0.4,0.5c0.1,0,0.1,0.1,0.1,0.1s0.1,0.2,0.2,0.2c0,0,0,0,0,0c0,0,0.1,0,0.1,0c0,0,0.1-0.1,0.1-0.2c0,0,0-0.1,0-0.1
			h0l0.1,0c0.3-0.1,0.5-0.3,0.5-0.5c0-0.3-0.1-0.5-0.3-0.6c-0.1,0-0.1-0.1-0.2-0.1l0,0c-0.1,0-0.1-0.1-0.2-0.1
			c-0.1-0.1-0.2-0.1-0.3-0.2c-0.1,0-0.1-0.1-0.1-0.2c0-0.1,0-0.2,0.1-0.2c0.1-0.1,0.3-0.1,0.4-0.1c0.1,0,0.2,0.1,0.3,0.3
			c0,0.1,0.1,0.2,0.2,0.2s0.2-0.1,0.2-0.2c0-0.3-0.2-0.5-0.5-0.6c0,0-0.1,0-0.1,0h0c0,0,0,0,0,0c0-0.1,0-0.3-0.2-0.3l0,0
			c-0.2,0-0.2,0.2-0.2,0.3c0,0,0,0,0,0h0c0,0-0.1,0-0.1,0c-0.3,0.1-0.5,0.4-0.5,0.7C115.4-71.1,115.5-70.9,115.7-70.8"/>
		<path id="Trazado_171" class="st5" d="M126.4-63.2h-0.8l-0.1-0.2c-0.5-1-1.2-1.9-2.1-2.7c-0.4-1-0.3-2.1,0-3.1
			c0-0.1,0-0.3-0.1-0.3c-0.1-0.1-0.2-0.1-0.3-0.1c-1.3,0.1-2.4,0.7-3.3,1.6c-0.2,0-0.3-0.1-0.5-0.1c-0.2,0.2-0.4,0.4-0.6,0.6
			c0.4,0.1,0.7,0.2,1.1,0.3c0.2,0.1,0.4,0,0.4-0.2c0.6-0.7,1.5-1.2,2.4-1.4c-0.3,1-0.2,2.2,0.2,3.1c0,0,0.1,0.1,0.1,0.1
			c0.8,0.7,1.5,1.5,1.9,2.5l0.2,0.4c0.1,0.1,0.2,0.2,0.3,0.2h1c0.3,0,0.6,0.2,0.6,0.5v2.3c0,0.3-0.3,0.6-0.6,0.5h-1
			c-0.1,0-0.3,0.1-0.3,0.2l-0.2,0.4c-0.4,0.8-1,1.6-1.6,2.2l-0.3,0.3c-0.1,0.1-0.1,0.2-0.1,0.4l0.7,2.4l-2.7,0.8l-0.5-1.6
			c-0.1-0.2-0.2-0.3-0.4-0.3c0,0-0.1,0-0.1,0l-0.7,0.2c-2,0.5-4,0.6-6,0.1l-0.7-0.2c-0.2,0-0.4,0.1-0.5,0.2l-0.5,1.5l-2.7-0.8
			l0.7-2.2c0-0.1,0-0.3-0.1-0.4l-0.3-0.3c-1.4-1.2-2.3-2.9-2.3-4.7c0-3.3,2.9-6.1,6.8-6.9c-0.2-0.2-0.4-0.4-0.6-0.6c-4,1-7,4-7,7.5
			c0,2.1,1,4,2.6,5.3l0.2,0.1l-0.6,2.1c-0.1,0.2,0,0.3,0.1,0.5c0.1,0.2,0.2,0.3,0.4,0.3l2.8,0.8l0,0c0.1,0,0.1,0,0.2,0
			c0.3,0,0.6-0.2,0.6-0.5l0.4-1.3l0.3,0.1c2.1,0.5,4.3,0.5,6.4-0.1l0.3-0.1l0.4,1.3c0.1,0.3,0.5,0.5,0.8,0.4l2.8-0.8
			c0.2,0,0.3-0.2,0.4-0.3c0.1-0.1,0.1-0.3,0.1-0.5l-0.7-2.2l0.2-0.1c0.8-0.7,1.4-1.5,1.8-2.5l0.1-0.2h0.8c0.7,0,1.3-0.6,1.3-1.3
			v-2.3C127.7-62.6,127.1-63.2,126.4-63.2"/>
	</g>
</g>
<g>
	<path id="Trazado_80_00000121257661381014988110000018116535420182039974_" class="st5" d="M154.2-63.5l-1.4-0.3c0,0,0-0.1,0-0.1
		v-1.9c0-2.5-2.4-4.6-5.4-4.6s-5.4,2.1-5.4,4.6v2v0l-1.4,0.3c-0.7,0.1-1.3,0.8-1.3,1.5v9.4c0,0.9,0.7,1.5,1.6,1.5h13.1
		c0.9,0,1.6-0.7,1.6-1.5V-62C155.5-62.8,155-63.4,154.2-63.5 M150.2-63.5l3.9,0.8c0.4,0.1,0.6,0.4,0.6,0.7v9.4
		c0,0.4-0.3,0.7-0.7,0.7h-13.1c-0.4,0-0.7-0.3-0.7-0.7V-62c0-0.4,0.3-0.7,0.6-0.7l3.9-0.8C146.5-63.8,148.4-63.8,150.2-63.5 M152-64
		l-1.3-0.3v-1.5c-0.4-1.8-2.1-3-3.9-2.6c-1.3,0.3-2.4,1.3-2.6,2.6v1.5l-1.3,0.3v-1.8c0-2.1,2.1-3.8,4.6-3.8s4.6,1.7,4.6,3.8L152-64z
		 M145-65.8c0.4-1.4,1.8-2.2,3.1-1.8c0.9,0.2,1.6,0.9,1.8,1.8v1.4c-1.6-0.2-3.3-0.2-4.9,0V-65.8z"/>
	<path id="Trazado_81_00000032610925790339497650000003304062407716352696_" class="st5" d="M146-56.9v1.8c0,0.3,0.3,0.6,0.6,0.6
		h1.7c0.3,0,0.6-0.3,0.6-0.6v-1.8c0.6-0.4,1-1.2,1-1.9c0-0.7-0.3-1.3-0.7-1.7c-1-0.9-2.6-0.9-3.5,0.1c-0.5,0.5-0.7,1.1-0.6,1.8
		C145-58,145.4-57.3,146-56.9 M148.5-60c0.3,0.3,0.5,0.7,0.5,1.1c0,0.6-0.3,1.1-0.8,1.4c-0.1,0.1-0.2,0.2-0.2,0.3v1.8h-1.2v-1.8
		c0-0.1-0.1-0.3-0.2-0.4c-0.5-0.2-0.8-0.7-0.8-1.3c0-0.4,0.1-0.9,0.4-1.2c0.3-0.3,0.7-0.5,1.2-0.5C147.8-60.5,148.2-60.3,148.5-60"
		/>
	<path id="Trazado_82_00000170959601308884974880000000549813460282830757_" class="st5" d="M164.9-67.7c0-0.7-0.4-1.3-0.9-1.6
		c0.5-0.4,0.9-1,0.9-1.6c0-2.1-4.1-3.6-9.6-3.6s-9.6,1.6-9.6,3.6c0,0,0,0.1,0,0.1c0.3-0.1,0.5-0.1,0.8-0.1l0,0
		c0-1.3,3.6-2.8,8.8-2.8s8.8,1.5,8.8,2.8s-3.6,2.8-8.8,2.8c-0.8,0-1.7,0-2.5-0.1c0.2,0.3,0.3,0.5,0.4,0.8c0.7,0.1,1.4,0.1,2.1,0.1
		c2.7,0.1,5.5-0.4,7.9-1.5c0.4,0.2,0.8,0.7,0.8,1.2c0,0.5-0.6,1-1,1.3c-1.6,1-4.5,1.6-7.7,1.6c-0.6,0-1.2,0-1.8-0.1v0.6l0.8,0.2
		c0,0,0.1,0,0.1,0c0.3,0,0.6,0,0.8,0c2.7,0.1,5.4-0.4,7.9-1.5c0.4,0.2,0.8,0.7,0.8,1.2c0,0.5-0.6,1-1,1.3l0,0l0,0
		c-2.1,1-4.5,1.6-6.9,1.5v0.8c2.4,0,4.9-0.5,7.1-1.5c0.4,0.2,0.8,0.7,0.8,1.2c0,0.5-0.6,1-1.1,1.3c-2.1,1-4.5,1.5-6.9,1.5v0.8
		c2.4,0,4.8-0.5,7.1-1.5c0.4,0.3,0.9,0.7,0.9,1.2c0,1.3-3.2,2.7-7.9,2.8v0.8c2.4,0,4.9-0.5,7.1-1.5c0.4,0.2,0.8,0.7,0.8,1.2
		c0,1.3-3.3,2.7-8.1,2.8c-0.1,0.3-0.3,0.6-0.5,0.8c5.4,0,9.4-1.6,9.4-3.6c0-0.7-0.4-1.3-0.9-1.6c0.5-0.4,0.9-1,0.9-1.6
		c-0.9-0.5-1.2-1.6-0.7-2.6c0.2-0.3,0.4-0.6,0.7-0.7c-0.9-0.5-1.2-1.7-0.7-2.5c0.2-0.3,0.4-0.5,0.7-0.7c-0.9-0.5-1.2-1.7-0.7-2.5
		C164.4-67.3,164.6-67.5,164.9-67.7"/>
	<path id="Trazado_163_00000028301801452230880420000012054891796098955181_" class="st5" d="M154.2-63.5l-1.4-0.3c0,0,0-0.1,0-0.1
		v-1.9c0-2.5-2.4-4.6-5.4-4.6s-5.4,2.1-5.4,4.6v2v0l-1.4,0.3c-0.7,0.1-1.3,0.8-1.3,1.5v9.4c0,0.9,0.7,1.5,1.6,1.5h13.1
		c0.9,0,1.6-0.7,1.6-1.5V-62C155.5-62.8,155-63.4,154.2-63.5 M150.2-63.5l3.9,0.8c0.4,0.1,0.6,0.4,0.6,0.7v9.4
		c0,0.4-0.3,0.7-0.7,0.7h-13.1c-0.4,0-0.7-0.3-0.7-0.7V-62c0-0.4,0.3-0.7,0.6-0.7l3.9-0.8C146.5-63.8,148.4-63.8,150.2-63.5 M152-64
		l-1.3-0.3v-1.5c-0.4-1.8-2.1-3-3.9-2.6c-1.3,0.3-2.4,1.3-2.6,2.6v1.5l-1.3,0.3v-1.8c0-2.1,2.1-3.8,4.6-3.8s4.6,1.7,4.6,3.8L152-64z
		 M145-65.8c0.4-1.4,1.8-2.2,3.1-1.8c0.9,0.2,1.6,0.9,1.8,1.8v1.4c-1.6-0.2-3.3-0.2-4.9,0V-65.8z"/>
	<path id="Trazado_164_00000116217559464009847390000011752938839023324059_" class="st5" d="M146-56.9v1.8c0,0.3,0.3,0.6,0.6,0.6
		h1.7c0.3,0,0.6-0.3,0.6-0.6v-1.8c0.6-0.4,1-1.2,1-1.9c0-0.7-0.3-1.3-0.7-1.7c-1-0.9-2.6-0.9-3.5,0.1c-0.5,0.5-0.7,1.1-0.6,1.8
		C145-58,145.4-57.3,146-56.9 M148.5-60c0.3,0.3,0.5,0.7,0.5,1.1c0,0.6-0.3,1.1-0.8,1.4c-0.1,0.1-0.2,0.2-0.2,0.3v1.8h-1.2v-1.8
		c0-0.1-0.1-0.3-0.2-0.4c-0.5-0.2-0.8-0.7-0.8-1.3c0-0.4,0.1-0.9,0.4-1.2c0.3-0.3,0.7-0.5,1.2-0.5C147.8-60.5,148.2-60.3,148.5-60"
		/>
</g>
<g>
	<circle id="Elipse_21" class="st6" cx="145.5" cy="-18.3" r="12.5"/>
	<path id="Icon_metro-cancel" class="st3" d="M145.6-31.4c-7.3,0.1-13.1,6-13,13.3c0.1,7.3,6,13.1,13.3,13c7.2-0.1,13-5.9,13-13.1
		C158.9-25.6,152.9-31.5,145.6-31.4z M145.6-7.6c-5.9-0.1-10.6-4.9-10.6-10.8c0.1-5.9,4.9-10.6,10.8-10.6
		c5.8,0.1,10.6,4.8,10.6,10.7C156.4-12.4,151.6-7.6,145.6-7.6C145.6-7.6,145.6-7.6,145.6-7.6z M149.8-24.9l-4.1,4.1l-4.1-4.1
		l-2.5,2.5l4.1,4.1l-4.1,4.1l2.5,2.5l4.1-4.1l4.1,4.1l2.5-2.5l-4.1-4.1l4.1-4.1L149.8-24.9z"/>
</g>
<g id="Elipse_66">
	<circle class="st7" cx="175.7" cy="-18.3" r="12.5"/>
	<circle class="st2" cx="175.7" cy="-18.3" r="11.5"/>
</g>
<path id="Icon_metro-warning" class="st3" d="M175.7-24.1l5.9,11.7h-11.8L175.7-24.1z M175.7-25.3c-0.4,0-0.7,0.3-0.8,0.6l-6,11.9
	c-0.5,0.8-0.1,1.5,0.9,1.5h11.9c0.9,0,1.3-0.7,0.9-1.5l0,0l-6-11.9C176.4-25.1,176-25.3,175.7-25.3L175.7-25.3z M176.5-13.9
	c0,0.5-0.4,0.9-0.9,0.9c-0.5,0-0.9-0.4-0.9-0.9c0-0.5,0.4-0.9,0.9-0.9l0,0C176.1-14.8,176.5-14.4,176.5-13.9L176.5-13.9z
	 M175.7-15.7c-0.5,0-0.9-0.4-0.9-0.9v-2.6c0-0.5,0.4-0.9,0.8-0.9c0.5,0,0.9,0.4,0.9,0.8c0,0,0,0,0,0.1v2.6
	C176.5-16.1,176.1-15.7,175.7-15.7z"/>
<path id="Shape_2" class="st5" d="M113.7,37c-0.3-0.2-0.7-0.2-0.9,0l-10.3,8.8v10.3c0,1.2,1,2.1,2.2,2.1h5.7c0.4,0,0.7-0.3,0.7-0.7
	c0,0,0,0,0,0v-4.3c0.1-1.2,1.1-2.1,2.2-2.1c1.1,0,2,0.9,2.1,2.1v4.3c0,0.4,0.3,0.7,0.7,0.7h5.7c1.2,0,2.2-1,2.2-2.1c0,0,0,0,0,0
	V45.8L113.7,37z"/>
<path id="Shape_7" class="st8" d="M141.4,47.6c3,0,5.4-2.4,5.4-5.4s-2.4-5.4-5.4-5.4c-3,0-5.4,2.4-5.4,5.4l0,0
	C136,45.2,138.4,47.6,141.4,47.6C141.4,47.6,141.4,47.6,141.4,47.6z M145.2,49h-0.7c-1.9,0.9-4.2,0.9-6.1,0h-0.7
	c-3.1,0-5.6,2.5-5.6,5.6v1.7c0,1.1,0.9,2,2,2h14.8c1.1,0,2-0.9,2-2v-1.7C150.8,51.5,148.3,48.9,145.2,49C145.2,49,145.2,49,145.2,49
	z"/>
<path id="Trazado_1341" class="st5" d="M164.3,49.3c0.5,0,1,0.4,1,1c0,0,0,0,0,0l0,0c0,0.5-0.4,1-1,1s-1-0.4-1-1l0,0
	C163.3,49.7,163.7,49.3,164.3,49.3C164.3,49.3,164.3,49.3,164.3,49.3z M166.9,50.2L166.9,50.2c0,0.5,0.4,1,1,1c0.5,0,1-0.4,1-1l0,0
	c0-0.5-0.4-1-1-1C167.4,49.3,166.9,49.7,166.9,50.2z M168.8,57.4c0,0.5-0.4,1-1,1c0,0,0,0,0,0h-5.1c-2.1,0-3.9-1.8-3.9-3.9v-8
	c0-2.1,1.7-3.9,3.9-3.9h1.2v-3.4c0-3.2,2.6-5.8,5.8-5.8c3.2,0,5.8,2.6,5.8,5.8v3.4h1.2c2.1,0,3.9,1.8,3.9,3.9v1c0,0.5-0.4,1-1,1
	s-1-0.4-1-1v-1c0-1.1-0.9-1.9-1.9-2h-13.9c-1.1,0-1.9,0.9-1.9,2v8c0,1.1,0.9,1.9,1.9,2h5.1C168.3,56.4,168.8,56.8,168.8,57.4
	L168.8,57.4z M165.8,42.5h7.7v-3.4c0-2.1-1.8-3.8-3.9-3.8c-2.1,0-3.8,1.7-3.8,3.8V42.5z M181.8,54.2c0,0-0.1,0.2-0.2,0.3
	c-0.6,0.8-1.3,1.6-2.1,2.2c-1.1,1-2.6,1.6-4.1,1.6c-1.5-0.1-3-0.6-4.1-1.6c-0.8-0.7-1.5-1.4-2.1-2.2c-0.1-0.1-0.2-0.3-0.2-0.3
	c-0.2-0.3-0.2-0.8,0-1.1c0,0,0.2-0.2,0.2-0.3c0.6-0.8,1.3-1.6,2.1-2.2c1.1-1,2.6-1.6,4.1-1.6c1.5,0.1,3,0.6,4.1,1.6
	c0.8,0.7,1.5,1.4,2.1,2.2c0.1,0.1,0.2,0.3,0.2,0.3C182.1,53.4,182.1,53.8,181.8,54.2z M179.8,53.6c-1.5-1.8-3-2.8-4.5-2.8
	c-1.4,0-2.9,0.9-4.5,2.8c1.5,1.8,3,2.8,4.5,2.8C176.8,56.4,178.3,55.5,179.8,53.6z M175.4,51.7c-1,0-1.9,0.8-1.9,1.8
	c0,1,0.8,1.9,1.8,1.9c1,0,1.9-0.8,1.9-1.8c0,0,0,0,0,0C177.2,52.6,176.4,51.8,175.4,51.7C175.4,51.7,175.4,51.7,175.4,51.7z"/>
<g id="Grupo_2464" transform="translate(-6902 -2053)">
	<g id="Rectángulo_218" transform="translate(6902 2053)">
		<path class="st9" d="M193,34.4h11.7c1.7,0,3,1.3,3,3v16.8c0,1.7-1.3,3-3,3H193c-1.7,0-3-1.3-3-3V37.4
			C190,35.8,191.4,34.4,193,34.4z"/>
		<path class="st10" d="M193,35.2h11.7c1.2,0,2.2,1,2.2,2.2v16.8c0,1.2-1,2.2-2.2,2.2H193c-1.2,0-2.2-1-2.2-2.2V37.4
			C190.8,36.2,191.8,35.2,193,35.2z"/>
	</g>
	<line id="Línea_1" class="st10" x1="7094.5" y1="2093.1" x2="7106.2" y2="2093.1"/>
	<line id="Línea_2" class="st10" x1="7094.5" y1="2096.9" x2="7106.2" y2="2096.9"/>
	<line id="Línea_3" class="st10" x1="7095.6" y1="2100.7" x2="7100.6" y2="2100.7"/>
</g>
<g id="Grupo_2465" transform="translate(-92 -237.89)">
	<path id="Trazado_1350" class="st5" d="M320.7,273c-0.3,0-0.5,0.2-0.5,0.5s0.2,0.5,0.5,0.5s0.5-0.2,0.5-0.5S321,273,320.7,273z"/>
	<path id="Trazado_1351" class="st5" d="M310.6,283.2c0.3,0,0.5-0.2,0.5-0.5s-0.2-0.5-0.5-0.5c-0.3,0-0.5,0.2-0.5,0.5
		S310.4,283.2,310.6,283.2z"/>
	<path id="Trazado_1352" class="st5" d="M325.3,267.3c-5.1,0-9.4,3.5-9.7,8c-4.9,0.2-9.5,3.8-9.5,8.5c0,2,0.8,4,2.2,5.5
		c0.3,1.2-0.1,2.4-0.9,3.3c-0.2,0.2-0.2,0.6,0,0.8c0.1,0.1,0.3,0.2,0.4,0.2c1.6,0,3.2-0.6,4.4-1.8c1.3,0.4,2.6,0.6,4,0.6
		c5.1,0,9.3-3.5,9.7-8c1.2,0,2.3-0.3,3.4-0.6c1.2,1.1,2.7,1.8,4.4,1.8c0.3,0,0.6-0.3,0.6-0.6c0-0.2-0.1-0.3-0.2-0.4
		c-0.9-0.9-1.2-2.1-0.9-3.3c1.4-1.5,2.2-3.4,2.2-5.5C335.3,270.9,330.3,267.3,325.3,267.3L325.3,267.3z M316.1,291.2
		c-1.3,0-2.7-0.2-3.9-0.7c-0.2-0.1-0.5,0-0.6,0.1c-0.7,0.7-1.6,1.3-2.6,1.5c0.5-1,0.7-2.3,0.3-3.4c0-0.1-0.1-0.2-0.1-0.2
		c-1.3-1.3-2-3-2-4.8c0-4,4.1-7.4,8.9-7.4c4.6,0,8.6,3.2,8.6,7.4C324.7,287.9,320.9,291.2,316.1,291.2L316.1,291.2z M332.2,280.6
		c-0.1,0.1-0.1,0.2-0.1,0.2c-0.3,1.1-0.2,2.3,0.3,3.4c-1-0.2-1.9-0.8-2.6-1.5c-0.2-0.2-0.4-0.2-0.6-0.1c-1.1,0.4-2.2,0.6-3.4,0.7
		c-0.2-2.2-1.3-4.3-3.1-5.7h7.4c0.3,0,0.6-0.3,0.6-0.6c0-0.3-0.3-0.6-0.6-0.6H321c-1.3-0.7-2.8-1-4.2-1.1c0.3-3.8,4-6.9,8.5-6.9
		c4.8,0,8.9,3.4,8.9,7.4C334.1,277.6,333.4,279.4,332.2,280.6L332.2,280.6z"/>
	<path id="Trazado_1353" class="st5" d="M320.1,282.2h-6.4c-0.3,0-0.5,0.2-0.5,0.5c0,0.3,0.2,0.5,0.5,0.5h6.4c0.3,0,0.5-0.2,0.5-0.5
		C320.6,282.4,320.4,282.2,320.1,282.2L320.1,282.2z"/>
	<path id="Trazado_1354" class="st5" d="M319.8,285.6h-8.4c-0.3,0-0.5,0.2-0.5,0.5c0,0.3,0.2,0.5,0.5,0.5h8.4c0.3,0,0.5-0.2,0.5-0.5
		C320.3,285.9,320.1,285.6,319.8,285.6L319.8,285.6z"/>
	<path id="Trazado_1355" class="st5" d="M330,273h-6.4c-0.3,0-0.5,0.2-0.5,0.5c0,0.3,0.2,0.5,0.5,0.5h6.4c0.3,0,0.5-0.2,0.5-0.5
		C330.5,273.3,330.3,273,330,273z"/>
</g>
<path id="Icon_feather-phone-call" class="st11" d="M265.1,34.5c2.4,0.5,4.3,2.3,4.7,4.7 M265.1,29.7c5,0.6,8.9,4.5,9.5,9.5
	 M273.4,48.7v3.6c0,1.3-1.1,2.4-2.4,2.4c-0.1,0-0.1,0-0.2,0c-3.7-0.4-7.2-1.7-10.3-3.7c-2.9-1.8-5.3-4.3-7.2-7.2
	c-2-3.1-3.3-6.7-3.7-10.4c-0.1-1.3,0.9-2.5,2.2-2.6c0.1,0,0.1,0,0.2,0h3.6c1.2,0,2.2,0.9,2.4,2.1c0.2,1.1,0.4,2.3,0.8,3.4
	c0.3,0.9,0.1,1.9-0.5,2.5l-1.5,1.5c1.7,3,4.2,5.5,7.2,7.2l1.5-1.5c0.7-0.7,1.6-0.9,2.5-0.5c1.1,0.4,2.2,0.7,3.4,0.8
	C272.6,46.5,273.4,47.5,273.4,48.7L273.4,48.7z"/>
<g id="Icon_ionic-ios-notifications-outline" transform="translate(-6.775 -3.93)">
	<path id="Trazado_1372" class="st5" d="M298.5,53.5c-0.4,0-0.8,0.3-0.9,0.7c-0.1,0.3-0.2,0.5-0.4,0.8c-0.3,0.3-0.7,0.5-1.1,0.4
		c-0.4,0-0.8-0.1-1.1-0.4c-0.2-0.2-0.3-0.5-0.4-0.8c-0.1-0.4-0.5-0.7-0.9-0.7l0,0c-0.5,0-0.9,0.4-0.9,0.9c0,0.1,0,0.1,0,0.2
		c0.3,1.6,1.7,2.7,3.3,2.6c1.6,0.1,3-1,3.3-2.6c0.1-0.5-0.2-1-0.7-1.1C298.6,53.5,298.6,53.5,298.5,53.5z"/>
	<path id="Trazado_1373" class="st5" d="M304.3,50.7c-0.8-1-2.4-1.6-2.4-6c0-4.5-2.2-6.4-4.2-6.8c-0.2,0-0.3-0.1-0.3-0.3v-0.1
		c0-0.7-0.6-1.2-1.3-1.2h0c-0.7,0-1.2,0.5-1.3,1.2v0.1c0,0.2-0.1,0.2-0.3,0.3c-2,0.4-4.2,2.3-4.2,6.8c0,4.4-1.6,5-2.4,6
		c-0.3,0.4-0.2,1,0.2,1.3c0.2,0.1,0.4,0.2,0.7,0.2h14.7c0.5,0,1-0.4,1-0.9C304.5,51.1,304.5,50.8,304.3,50.7z M302.3,50.9H290
		c-0.1,0-0.2-0.1-0.2-0.2c0-0.1,0-0.1,0.1-0.2c0.5-0.5,0.8-1,1.1-1.6c0.6-1.4,0.8-2.8,0.8-4.3c-0.1-1.5,0.3-3,1.1-4.2
		c0.5-0.7,1.2-1.2,2-1.3c0.4-0.1,0.7-0.2,1-0.5c0.2-0.2,0.4-0.2,0.6,0c0,0,0,0,0,0c0.3,0.3,0.6,0.4,1,0.5c0.8,0.2,1.5,0.7,2,1.3
		c0.8,1.3,1.2,2.7,1.1,4.2c-0.1,1.5,0.2,2.9,0.8,4.3c0.3,0.6,0.7,1.2,1.1,1.6c0.1,0.1,0.1,0.2,0,0.3
		C302.4,50.9,302.3,50.9,302.3,50.9L302.3,50.9z"/>
</g>
<path id="Trazado_1374" class="st5" d="M329.2,44.8c0-6.9-5.6-12.5-12.5-12.5c0,0,0,0,0,0h0c-6.9,0-12.6,5.6-12.6,12.5
	c0,1.7,0.3,3.3,1,4.9c1.3,3,3.7,5.4,6.7,6.7c1.5,0.7,3.2,1,4.9,1l0,0C323.6,57.3,329.2,51.7,329.2,44.8z M305.6,45.5h4.1
	c0.1,1.5,0.4,3.1,0.9,4.5h-3.7C306.1,48.6,305.7,47.1,305.6,45.5z M306.9,39.6h3.7c-0.5,1.4-0.8,2.9-0.9,4.4h-4.1
	C305.7,42.5,306.1,41,306.9,39.6L306.9,39.6z M327.7,44h-4c-0.1-1.5-0.4-3-0.9-4.4h3.6C327.2,41,327.6,42.5,327.7,44L327.7,44z
	 M322.3,44h-4.8v-4.4h3.8C321.8,41,322.2,42.5,322.3,44L322.3,44z M317.4,38.2v-3.7c1.2,1,2.3,2.3,3.1,3.7L317.4,38.2z M316,34.5
	v3.7h-3.1C313.7,36.7,314.7,35.5,316,34.5z M316,39.6V44h-4.8c0.1-1.5,0.4-3,1-4.4L316,39.6z M311.2,45.5h4.8V50h-3.8
	C311.6,48.6,311.2,47.1,311.2,45.5z M316,51.5v3.7c-1.2-1-2.3-2.3-3.1-3.7H316z M317.4,55.2v-3.7h3.1
	C319.7,52.9,318.7,54.1,317.4,55.2z M317.4,50v-4.5h4.8c-0.1,1.6-0.4,3.1-1,4.5L317.4,50z M323.7,45.5h4c-0.1,1.6-0.5,3.1-1.3,4.5
	h-3.6C323.4,48.6,323.7,47,323.7,45.5L323.7,45.5z M325.5,38.2h-3.3c-0.8-1.6-1.8-3-3-4.1C321.7,34.6,324,36.1,325.5,38.2
	L325.5,38.2z M314.3,34c-1.3,1.2-2.3,2.6-3.1,4.1h-3.4C309.4,36,311.7,34.6,314.3,34z M307.8,51.5h3.4c0.8,1.6,1.8,3,3,4.1
	C311.7,55.1,309.4,53.6,307.8,51.5z M319.2,55.6c1.3-1.2,2.3-2.6,3-4.1h3.3C323.9,53.6,321.7,55,319.2,55.6z"/>
<g id="Grupo_2490" transform="translate(0 0.365)">
	<g>
		<defs>
			<rect id="SVGID_1_" x="332.8" y="32" width="27" height="23"/>
		</defs>
		<clipPath id="SVGID_00000165925459433519789920000017030405013220824720_">
			<use xlink:href="#SVGID_1_"  style="overflow:visible;"/>
		</clipPath>
		
			<g id="Grupo_2458" transform="translate(0 -0.332)" style="clip-path:url(#SVGID_00000165925459433519789920000017030405013220824720_);">
			<path id="Trazado_1338" class="st5" d="M347.1,48.6c-0.2,0-0.3-0.1-0.4-0.2l-0.8-1.6l-1.7,0.3c-0.2,0-0.5-0.1-0.5-0.4
				c0-0.1,0-0.3,0.1-0.4l1.2-1.2l-0.8-1.6c-0.1-0.2,0-0.5,0.2-0.6c0.1-0.1,0.3-0.1,0.4,0l1.6,0.8l1.2-1.2c0.2-0.2,0.4-0.2,0.6,0
				c0.1,0.1,0.1,0.2,0.1,0.4l-0.3,1.7l1.6,0.8c0.2,0.1,0.3,0.4,0.2,0.6c-0.1,0.1-0.2,0.2-0.3,0.2l-1.7,0.3l-0.3,1.7
				C347.5,48.4,347.4,48.6,347.1,48.6C347.1,48.6,347.1,48.6,347.1,48.6L347.1,48.6z M346.2,45.9c0.2,0,0.3,0.1,0.4,0.2l0.3,0.6
				l0.1-0.7c0-0.2,0.2-0.3,0.4-0.4l0.7-0.1l-0.6-0.3c-0.2-0.1-0.3-0.3-0.2-0.5l0.1-0.7l-0.5,0.5c-0.1,0.1-0.3,0.2-0.5,0.1l-0.6-0.3
				L346,45c0.1,0.2,0.1,0.4-0.1,0.5l-0.5,0.5L346.2,45.9C346.1,45.9,346.1,45.9,346.2,45.9L346.2,45.9z"/>
			<path id="Trazado_1339" class="st5" d="M359.1,39.1l-2.2-2.2l-0.3,0.3c-0.5,0.5-1.3,0.5-1.9,0s-0.5-1.3,0-1.9c0,0,0,0,0,0
				l0.3-0.3l-2.2-2.2c-0.5-0.5-1.4-0.5-1.9,0c0,0,0,0,0,0l-1.6,1.6l-0.9-0.9c-0.5-0.5-1.4-0.5-1.9,0c0,0,0,0,0,0L333.2,47
				c-0.5,0.5-0.5,1.4,0,1.9c0,0,0,0,0,0l2.2,2.2l0.3-0.3c0.5-0.5,1.3-0.5,1.9,0c0.5,0.5,0.5,1.4,0,1.9c0,0,0,0,0,0l-0.3,0.3l2.2,2.2
				c0.5,0.5,1.4,0.5,1.9,0l1.6-1.6l0.9,0.9c0.5,0.5,1.4,0.5,1.9,0c0,0,0,0,0,0L359.1,41C359.6,40.5,359.6,39.6,359.1,39.1
				C359.1,39.1,359.1,39.1,359.1,39.1z M340.7,54.4c-0.2,0.2-0.4,0.2-0.6,0c0,0,0,0,0,0l-1.6-1.6c0.7-1,0.4-2.4-0.6-3.1
				c-0.7-0.5-1.7-0.5-2.4,0l-1.6-1.6c-0.2-0.2-0.2-0.5,0-0.6l13.4-13.4c0.2-0.2,0.5-0.2,0.6,0c0,0,0,0,0,0l0.9,0.9l-11.3,11.3
				c-0.5,0.5-0.5,1.4,0,1.9l2.2,2.2l0.3-0.3c0.5-0.5,1.4-0.5,1.9,0c0.5,0.5,0.5,1.4,0,1.9l-0.3,0.3l0.6,0.6L340.7,54.4z M358.5,40.4
				L345,53.8c-0.2,0.2-0.5,0.2-0.6,0l-1.6-1.6c0.7-1,0.4-2.4-0.6-3c-0.7-0.5-1.7-0.5-2.4,0l-1.6-1.6c-0.2-0.2-0.2-0.5,0-0.6
				l13.4-13.4c0.2-0.2,0.5-0.2,0.6,0c0,0,0,0,0,0l1.6,1.6c-0.7,1-0.4,2.4,0.6,3c0.7,0.5,1.7,0.5,2.4,0l1.6,1.6
				C358.7,39.9,358.7,40.2,358.5,40.4L358.5,40.4z"/>
		</g>
	</g>
</g>
<path id="Icon_map-bank" class="st5" d="M380.1,43.2c-1-0.7-2.2-1.2-3.4-1.4l-1.1-0.3v-4.9l0.2,0.1c0.9,0.5,1.5,1.4,1.6,2.5h3.9
	c0-1.9-0.8-3.6-2.3-4.7c-1-0.7-2.1-1.2-3.3-1.4v-2.7h-3.6V33c-1.5,0.1-2.9,0.7-4,1.6c-1.3,1.1-2,2.7-1.9,4.3c-0.1,1.7,0.6,3.3,2,4.2
	c1.2,0.7,2.6,1.2,4,1.4v5.3c-0.6-0.1-1.2-0.5-1.6-1c-0.5-0.6-0.7-1.2-0.7-2h-3.9c-0.1,1.8,0.7,3.6,2.2,4.7c1.2,0.9,2.6,1.4,4,1.6v2
	h3.6v-2c1.5-0.1,3-0.7,4.2-1.7c1.3-1.1,2.1-2.7,2.1-4.4C381.9,45.7,381.3,44.2,380.1,43.2z M370.7,40.2c-0.6-0.3-1-0.9-0.9-1.6
	c0-0.7,0.3-1.4,1-1.8c0.4-0.2,0.8-0.4,1.2-0.5v4.3C371.5,40.6,371.1,40.4,370.7,40.2z M376.2,49.8c-0.2,0.1-0.4,0.1-0.6,0.2v-4.5
	c0.5,0.1,1,0.3,1.5,0.6c0.5,0.3,0.9,0.9,0.9,1.5C377.9,48.6,377.2,49.5,376.2,49.8L376.2,49.8z"/>
<path id="Icon_ionic-md-download" class="st5" d="M402.9,41.6h-4.3v-6.4H392v6.4h-4.3l7.6,7.5L402.9,41.6z M387.7,51.3v2.1h15.2
	v-2.1H387.7z"/>
<path id="Icon_material-payment" class="st5" d="M121.1,70.3h-16.7c-1.1,0-2.1,0.9-2.1,2.1c0,0,0,0,0,0l0,12.5
	c0,1.1,0.9,2.1,2.1,2.1c0,0,0,0,0,0h16.7c1.1,0,2.1-0.9,2.1-2.1c0,0,0,0,0,0V72.3C123.2,71.2,122.2,70.3,121.1,70.3
	C121.1,70.3,121.1,70.3,121.1,70.3z M121.1,84.9h-16.7v-6.3h16.7V84.9z M121.1,74.4h-16.7v-2.1h16.7V74.4z"/>
<path id="Icon_awesome-building" class="st5" d="M150.5,88.2h-0.9V68.7c0-0.6-0.5-1-1-1c0,0,0,0,0,0h-14.4c-0.6,0-1,0.5-1,1v19.5
	h-0.9c-0.3,0-0.5,0.2-0.5,0.5c0,0,0,0,0,0v0.9H151v-0.9C151,88.4,150.8,88.2,150.5,88.2L150.5,88.2z M137.3,70.9
	c0-0.3,0.2-0.5,0.5-0.5h1.7c0.3,0,0.5,0.2,0.5,0.5c0,0,0,0,0,0v1.7c0,0.3-0.2,0.5-0.5,0.5h-1.7c-0.3,0-0.5-0.2-0.5-0.5V70.9z
	 M137.3,75c0-0.3,0.2-0.5,0.5-0.5h1.7c0.3,0,0.5,0.2,0.5,0.5l0,0v1.7c0,0.3-0.2,0.5-0.5,0.5h-1.7c-0.3,0-0.5-0.2-0.5-0.5l0,0V75z
	 M139.5,81.3h-1.7c-0.3,0-0.5-0.2-0.5-0.5l0,0v-1.7c0-0.3,0.2-0.5,0.5-0.5h1.7c0.3,0,0.5,0.2,0.5,0.5l0,0v1.7
	C140.1,81.1,139.8,81.3,139.5,81.3C139.5,81.3,139.5,81.3,139.5,81.3L139.5,81.3z M142.8,88.2h-2.7v-3.6c0-0.3,0.2-0.5,0.5-0.5h1.7
	c0.3,0,0.5,0.2,0.5,0.5L142.8,88.2z M145.5,80.8c0,0.3-0.2,0.5-0.5,0.5h-1.7c-0.3,0-0.5-0.2-0.5-0.5v-1.7c0-0.3,0.2-0.5,0.5-0.5h1.7
	c0.3,0,0.5,0.2,0.5,0.5V80.8z M145.5,76.7c0,0.3-0.2,0.5-0.5,0.5h-1.7c-0.3,0-0.5-0.2-0.5-0.5V75c0-0.3,0.2-0.5,0.5-0.5l0,0h1.7
	c0.3,0,0.5,0.2,0.5,0.5V76.7z M145.5,72.6c0,0.3-0.2,0.5-0.5,0.5h-1.7c-0.3,0-0.5-0.2-0.5-0.5v-1.7c0-0.3,0.2-0.5,0.5-0.5l0,0h1.7
	c0.3,0,0.5,0.2,0.5,0.5V72.6z"/>
<g id="Grupo_2489" transform="translate(-37.993 -15.328)">
	<g id="Icon_feather-book-open" transform="translate(39.493 16.828)">
		<path id="Trazado_1375" class="st13" d="M159.6,67.8h7.1c2.6,0,4.7,2.1,4.7,4.7c0,0,0,0,0,0v16.6c0-2-1.6-3.6-3.6-3.6h-8.3V67.8z"
			/>
		<path id="Trazado_1376" class="st13" d="M183.4,67.8h-7.1c-2.6,0-4.7,2.1-4.7,4.7c0,0,0,0,0,0v16.6c0-2,1.6-3.6,3.6-3.6l0,0h8.3
			L183.4,67.8z"/>
	</g>
</g>
<path id="Shape_13" class="st5" d="M197.4,87.3c-1,0-2-0.4-2.7-1.1c-0.7-0.8-1.2-1.8-1.2-2.9V71.2c0-1.1,0.4-2.1,1.2-2.8
	c0.7-0.8,1.7-1.2,2.7-1.2h5.9v2.5h-5.9c-0.8,0-1.4,0.7-1.4,1.4c0,0,0,0,0,0v12.1c0,0.8,0.6,1.5,1.4,1.5c0,0,0,0,0,0h5.9v2.5H197.4z
	 M206.9,85.2c-0.3-0.1-0.5-0.4-0.5-0.8v-3.8H201c-0.6,0-1-0.5-1-1v-4.8c0-0.6,0.5-1,1-1h5.4V70c0-0.4,0.3-0.8,0.8-0.8
	c0.2,0,0.4,0.1,0.5,0.2l7,7.2c0.3,0.3,0.3,0.8,0,1.1l-7,7.3c-0.1,0.1-0.3,0.2-0.5,0.2C207.1,85.3,207,85.3,206.9,85.2L206.9,85.2z"
	/>
<g id="Hamburger_Icon_00000167379193073895695260000013747475723738720161_">
	<g id="Hamburger_Icon-2_00000022552893056208219110000003413774105623943564_">
		<path id="Trazado_11_00000019650781392247429880000001550833776153144479_" class="st0" d="M44.3-17.8c0-1.1,0.6-2,1.3-2h16.9
			c0.7,0,1.2,0.9,1.2,2s-0.6,2-1.2,2H45.6C44.9-15.9,44.3-16.7,44.3-17.8z"/>
		<path id="Trazado_1290_00000047759206796726563080000007030617159809476241_" class="st0" d="M44.3-17.8c0-1.1,0.6-2,1.3-2h16.9
			c0.7,0,1.2,0.9,1.2,2s-0.6,2-1.2,2H45.6C44.9-15.9,44.3-16.7,44.3-17.8z"/>
		<path id="Trazado_1291_00000111167687858538567270000009980171718157960634_" class="st0" d="M44.3-10.6c0-0.9,0.6-1.7,1.3-1.7
			h16.9c0.7,0,1.2,0.7,1.2,1.7c0,0.9-0.6,1.7-1.2,1.7H45.6C44.9-8.9,44.3-9.7,44.3-10.6z"/>
		<path id="Trazado_1292_00000127029685144603788110000009994733822614004098_" class="st0" d="M44.3-25c0-1,0.6-1.9,1.3-1.9h16.9
			c0.7,0,1.2,0.8,1.2,1.9s-0.6,1.9-1.2,1.9H45.6C44.9-23.1,44.3-23.9,44.3-25z"/>
	</g>
</g>
<g id="Grupo_2461" transform="translate(0.299 0.213)">
	<path id="Trazado_1342" class="st0" d="M122.5,126H109c-0.9,0-1.5-0.7-1.5-1.5v-9.3c0-0.9,0.7-1.5,1.5-1.5h13.5
		c0.9,0,1.5,0.7,1.5,1.5v9.3C124.1,125.3,123.4,126,122.5,126z M109,114.4c-0.4,0-0.8,0.3-0.8,0.8v9.3c0,0.4,0.3,0.8,0.8,0.8h13.5
		c0.4,0,0.8-0.3,0.8-0.8v-9.3c0-0.4-0.3-0.8-0.8-0.8L109,114.4z"/>
	<path id="Trazado_1343" class="st0" d="M123.7,118.6h-15.8c-0.2,0-0.4-0.1-0.4-0.3c0,0,0,0,0,0v-2.3c0-0.2,0.1-0.4,0.3-0.4
		c0,0,0,0,0,0h15.8c0.2,0,0.4,0.1,0.4,0.3c0,0,0,0,0,0v2.3C124.1,118.5,123.9,118.6,123.7,118.6
		C123.7,118.6,123.7,118.6,123.7,118.6z M108.3,117.9h15.1v-1.5h-15.1V117.9z"/>
	<path id="Trazado_1344" class="st0" d="M122.2,124.4h-5c-0.2,0-0.4-0.1-0.4-0.3c0,0,0,0,0,0v-2.7c0-0.2,0.1-0.4,0.3-0.4
		c0,0,0,0,0,0h5c0.2,0,0.4,0.1,0.4,0.3c0,0,0,0,0,0v2.7C122.6,124.2,122.4,124.4,122.2,124.4C122.2,124.4,122.2,124.4,122.2,124.4z
		 M117.5,123.7h4.2v-1.9h-4.2V123.7z"/>
	<path id="Trazado_1345" class="st0" d="M111.3,120.6h-1.9c-0.2,0-0.4-0.2-0.4-0.4s0.2-0.4,0.4-0.4h1.9c0.2,0,0.4,0.2,0.4,0.4
		S111.6,120.6,111.3,120.6L111.3,120.6z"/>
	<path id="Trazado_1346" class="st0" d="M115.2,120.6h-2.5c-0.2,0-0.4-0.2-0.4-0.4s0.2-0.4,0.4-0.4h2.5c0.2,0,0.4,0.2,0.4,0.4
		S115.4,120.6,115.2,120.6z"/>
	<path id="Trazado_1347" class="st0" d="M113.2,122.1h-3.8c-0.2,0-0.4-0.2-0.4-0.4s0.2-0.4,0.4-0.4h3.8c0.2,0,0.4,0.1,0.4,0.3
		c0,0,0,0,0,0C113.6,121.9,113.5,122.1,113.2,122.1z"/>
	<path id="Trazado_1348" class="st0" d="M115.2,122.1h-0.7c-0.2,0-0.4-0.2-0.4-0.4s0.2-0.4,0.4-0.4h0.7c0.2,0,0.4,0.2,0.4,0.4
		S115.4,122.1,115.2,122.1L115.2,122.1z"/>
	<path id="Trazado_1349" class="st0" d="M120.6,129.1h-17.8c-0.2,0-0.4-0.1-0.4-0.3c0,0,0,0,0,0v-1.5c0-0.2,0.1-0.4,0.3-0.4
		c0,0,0,0,0,0h0.4v-10.8h-1.5c-0.4,0-0.7-0.2-0.8-0.5c-0.1-0.3,0-0.7,0.2-1l2-1.8v-4.4h-0.4c-0.2,0-0.4-0.2-0.4-0.4v-1.5
		c0-0.2,0.1-0.4,0.3-0.4c0,0,0,0,0,0h4.6c0.2,0,0.4,0.1,0.4,0.3c0,0,0,0,0,0v1.5c0,0.2-0.1,0.4-0.3,0.4c0,0,0,0,0,0h-0.4v1l3-2.7
		c0.9-0.9,2.4-0.9,3.3,0l8.1,7.1c0.1,0.1,0.2,0.3,0.1,0.4c-0.1,0.2-0.2,0.3-0.4,0.3H109c-0.4,0-0.8,0.3-0.8,0.8v9.3
		c0,0.4,0.3,0.8,0.8,0.8h10.8c0.2,0,0.4,0.1,0.4,0.3c0,0,0,0,0,0v1.2h0.4c0.2,0,0.4,0.2,0.4,0.4v1.5
		C121,128.9,120.9,129.1,120.6,129.1C120.6,129.1,120.6,129.1,120.6,129.1z M103.2,128.3h17v-0.8h-0.4c-0.2,0-0.4-0.1-0.4-0.3
		c0,0,0,0,0,0V126H109c-0.9,0-1.5-0.7-1.5-1.5v-9.3c0-0.9,0.7-1.5,1.5-1.5h11.1l-7.3-6.5c-0.6-0.6-1.6-0.6-2.2,0l-3.6,3.3
		c-0.2,0.1-0.4,0.1-0.5,0c-0.1-0.1-0.1-0.2-0.1-0.3v-2.3c0-0.2,0.1-0.4,0.3-0.4c0,0,0,0,0,0h0.4v-0.8h-3.9v0.8h0.4
		c0.2,0,0.4,0.1,0.4,0.3c0,0,0,0,0,0v5c0,0.1,0,0.2-0.1,0.3l-2.2,1.9c0,0,0,0.1,0,0.1c0,0,0,0,0.1,0h1.9c0.2,0,0.4,0.1,0.4,0.3
		c0,0,0,0,0,0v11.6c0,0.2-0.1,0.4-0.3,0.4c0,0,0,0,0,0h-0.4V128.3z"/>
</g>
<g id="Grupo_2460" transform="translate(-55 -212.558)">
	<path id="Trazado_1333" class="st0" d="M202.7,327.7l0.6-0.6l0.6,0.6l-0.6,0.6L202.7,327.7z"/>
	<path id="Trazado_1334" class="st0" d="M201.4,326.5l0.6-0.6l0.6,0.6l-0.6,0.6L201.4,326.5z"/>
	<path id="Trazado_1335" class="st0" d="M200.2,325.2l0.6-0.6l0.6,0.6l-0.6,0.6L200.2,325.2z"/>
	<path id="Trazado_1336" class="st0" d="M205.2,330.2l0.6-0.6l0.6,0.6l-0.6,0.6L205.2,330.2z"/>
	<path id="Trazado_1337" class="st0" d="M204,329l0.6-0.6l0.6,0.6l-0.6,0.6L204,329z"/>
	<g id="Grupo_2459" transform="translate(55 212.89)">
		<g>
			<g id="Grupo_2458_00000057109052369476762810000006675841834833737883_" transform="translate(0 0)">
				<path id="Trazado_1338_00000105424002959075555950000006370108931856145336_" class="st0" d="M143.7,123.2
					c-0.2,0-0.3-0.1-0.4-0.2l-0.8-1.6l-1.7,0.3c-0.2,0-0.5-0.1-0.5-0.4c0-0.1,0-0.3,0.1-0.4l1.2-1.2l-0.8-1.6
					c-0.1-0.2,0-0.5,0.2-0.6c0.1-0.1,0.3-0.1,0.4,0l1.6,0.8l1.2-1.2c0.2-0.2,0.5-0.2,0.6,0c0.1,0.1,0.2,0.2,0.1,0.4l-0.3,1.7
					l1.6,0.8c0.2,0.1,0.3,0.4,0.2,0.6c-0.1,0.1-0.2,0.2-0.3,0.2l-1.7,0.3l-0.3,1.7C144.1,123,144,123.2,143.7,123.2
					C143.8,123.2,143.7,123.2,143.7,123.2L143.7,123.2z M142.8,120.4c0.2,0,0.3,0.1,0.4,0.2l0.3,0.6l0.1-0.7c0-0.2,0.2-0.3,0.4-0.4
					l0.7-0.1l-0.6-0.3c-0.2-0.1-0.3-0.3-0.2-0.5l0.1-0.7l-0.5,0.5c-0.1,0.1-0.3,0.2-0.5,0.1l-0.6-0.3l0.3,0.6
					c0.1,0.2,0.1,0.4-0.1,0.5l-0.5,0.5L142.8,120.4C142.7,120.4,142.7,120.4,142.8,120.4L142.8,120.4z"/>
				<path id="Trazado_1339_00000051343931626775863080000016770176638426383022_" class="st0" d="M155.8,113.6l-2.2-2.2l-0.3,0.3
					c-0.5,0.5-1.4,0.5-1.9,0s-0.5-1.4,0-1.9l0,0l0.3-0.3l-2.2-2.2c-0.5-0.5-1.4-0.5-1.9,0c0,0,0,0,0,0l-1.6,1.6l-0.9-0.9
					c-0.5-0.5-1.4-0.5-1.9,0c0,0,0,0,0,0l-13.5,13.5c-0.5,0.5-0.5,1.4,0,1.9c0,0,0,0,0,0l2.2,2.2l0.3-0.3c0.5-0.5,1.4-0.5,1.9,0
					c0.5,0.5,0.5,1.4,0,1.9c0,0,0,0,0,0l-0.3,0.3l2.2,2.2c0.5,0.5,1.4,0.5,1.9,0c0,0,0,0,0,0l1.6-1.6l0.9,0.9c0.5,0.5,1.4,0.5,1.9,0
					c0,0,0,0,0,0l13.5-13.5C156.3,115,156.3,114.2,155.8,113.6C155.8,113.6,155.8,113.6,155.8,113.6L155.8,113.6z M137.2,129.1
					c-0.2,0.2-0.5,0.2-0.6,0c0,0,0,0,0,0l-1.6-1.6c0.7-1,0.4-2.4-0.6-3.1c-0.7-0.5-1.7-0.5-2.5,0l-1.6-1.6c-0.2-0.2-0.2-0.5,0-0.6
					c0,0,0,0,0,0l13.5-13.5c0.2-0.2,0.5-0.2,0.6,0c0,0,0,0,0,0l0.9,0.9l-11.3,11.3c-0.5,0.5-0.5,1.4,0,1.9c0,0,0,0,0,0l2.2,2.2
					l0.3-0.3c0.5-0.5,1.4-0.5,1.9,0c0.5,0.5,0.5,1.4,0,1.9l0,0l-0.3,0.3l0.6,0.6L137.2,129.1z M155.2,114.9l-13.5,13.5
					c-0.2,0.2-0.5,0.2-0.6,0c0,0,0,0,0,0l-1.6-1.6c0.7-1,0.4-2.4-0.6-3.1c-0.7-0.5-1.7-0.5-2.4,0l-1.6-1.6c-0.2-0.2-0.2-0.5,0-0.6
					c0,0,0,0,0,0l13.5-13.5c0.2-0.2,0.5-0.2,0.6,0c0,0,0,0,0,0l1.6,1.6c-0.7,1-0.4,2.4,0.6,3.1c0.7,0.5,1.7,0.5,2.4,0l1.6,1.6
					C155.3,114.4,155.3,114.7,155.2,114.9C155.2,114.9,155.2,114.9,155.2,114.9L155.2,114.9z"/>
			</g>
		</g>
	</g>
</g>
<path id="Icon_feather-phone-call_00000068650561255578699720000000038707863935249045_" class="st14" d="M176.3,108.9
	c2.3,0.5,4.2,2.3,4.6,4.6 M176.3,104.2c4.9,0.5,8.8,4.4,9.3,9.3 M184.4,122.8v3.5c0,1.3-1,2.3-2.3,2.4c-0.1,0-0.1,0-0.2,0
	c-3.6-0.4-7.1-1.6-10.1-3.6c-2.8-1.8-5.2-4.2-7-7c-2-3.1-3.2-6.5-3.6-10.2c-0.1-1.3,0.8-2.4,2.1-2.5c0.1,0,0.1,0,0.2,0h3.5
	c1.2,0,2.2,0.9,2.3,2c0.1,1.1,0.4,2.2,0.8,3.3c0.3,0.9,0.1,1.8-0.5,2.5l-1.5,1.5c1.7,2.9,4.1,5.4,7,7l1.5-1.5
	c0.7-0.6,1.6-0.8,2.5-0.5c1.1,0.4,2.2,0.7,3.3,0.8C183.6,120.6,184.5,121.6,184.4,122.8z"/>
<path id="Icon_material-person-pin" class="st0" d="M211.9,104.2h-15.4c-1.2,0-2.2,1-2.2,2.2c0,0,0,0,0,0v15.4c0,1.2,1,2.2,2.2,2.2
	c0,0,0,0,0,0h4.4l3.3,3.3l3.3-3.3h4.4c1.2,0,2.2-1,2.2-2.2v-15.4C214.1,105.2,213.2,104.2,211.9,104.2z M204.2,107.8
	c1.6,0,3,1.3,3,3c0,1.6-1.3,3-3,3s-3-1.3-3-3C201.3,109.2,202.6,107.8,204.2,107.8z M210.8,119.6h-13.2v-1c0-2.2,4.4-3.4,6.6-3.4
	c2.2,0,6.6,1.2,6.6,3.4L210.8,119.6z"/>
<g>
	<path id="Shape_2_00000098915821844619272140000006932604565132637829_" class="st0" d="M137.1,146.3c-0.2-0.2-0.5-0.2-0.7,0
		l-7.5,6.4v7.6c0,0.9,0.7,1.6,1.6,1.6h4.2c0.3,0,0.5-0.2,0.5-0.5v-3.1c0-0.9,0.7-1.6,1.6-1.6s1.6,0.7,1.6,1.6l0,0v3.1
		c0,0.3,0.2,0.5,0.5,0.5h4.2c0.9,0,1.6-0.7,1.6-1.6v-7.6L137.1,146.3z"/>
	<text transform="matrix(1 0 0 1 127.5055 172.2395)" class="st0" style="font-family:'TrebuchetMS'; font-size:7.8918px;">Inicio</text>
</g>
<g>
	<path id="Shape_2_00000059286844449011535170000010626928920289075343_" class="st5" d="M110,146.3c-0.2-0.2-0.5-0.2-0.7,0
		l-7.5,6.4v7.6c0,0.9,0.7,1.6,1.6,1.6h4.2c0.3,0,0.5-0.2,0.5-0.5v-3.1c0-0.9,0.7-1.6,1.6-1.6s1.6,0.7,1.6,1.6l0,0v3.1
		c0,0.3,0.2,0.5,0.5,0.5h4.2c0.9,0,1.6-0.7,1.6-1.6v-7.6L110,146.3z"/>
	<text transform="matrix(1 0 0 1 100.4513 172.2395)" style="fill:#575760; font-family:'TrebuchetMS'; font-size:7.8918px;">Inicio</text>
</g>
<g>
	<g class="st15">
		<path class="st5" d="M160.4,168.8v1.7h-0.6v-4.4c0.5,0,0.7,0,0.8,0c1.3,0,1.9,0.4,1.9,1.3c0,1-0.6,1.5-1.7,1.5
			C160.7,168.8,160.6,168.8,160.4,168.8z M160.4,166.6v1.6c0.3,0,0.4,0,0.4,0c0.7,0,1.1-0.3,1.1-0.9c0-0.5-0.4-0.8-1.2-0.8
			C160.6,166.6,160.5,166.6,160.4,166.6z"/>
		<path class="st5" d="M164.6,167.8c-0.1-0.1-0.2-0.1-0.4-0.1c-0.2,0-0.4,0.1-0.5,0.3c-0.1,0.2-0.2,0.4-0.2,0.7v1.8h-0.6v-3.2h0.6
			v0.5c0.2-0.4,0.5-0.6,0.9-0.6c0.1,0,0.2,0,0.4,0.1L164.6,167.8z"/>
		<path class="st5" d="M165,168.8c0-0.5,0.1-0.9,0.4-1.2c0.3-0.3,0.6-0.5,1-0.5c0.5,0,0.8,0.1,1.1,0.4c0.3,0.3,0.4,0.7,0.4,1.2
			c0,0.5-0.1,0.9-0.4,1.2s-0.6,0.4-1.1,0.4c-0.5,0-0.8-0.1-1.1-0.4C165.1,169.7,165,169.3,165,168.8z M165.6,168.8
			c0,0.8,0.3,1.2,0.8,1.2c0.3,0,0.5-0.1,0.6-0.3s0.2-0.5,0.2-0.9c0-0.8-0.3-1.2-0.8-1.2c-0.3,0-0.5,0.1-0.6,0.3
			C165.7,168.2,165.6,168.5,165.6,168.8z"/>
		<path class="st5" d="M170.5,170.4v-0.2c-0.2,0.2-0.5,0.3-0.9,0.3c-0.4,0-0.7-0.1-1-0.4s-0.4-0.7-0.4-1.1c0-0.5,0.1-0.9,0.4-1.2
			c0.3-0.3,0.6-0.5,1-0.5c0.3,0,0.6,0.1,0.7,0.2v-1.5h0.6v4.5H170.5z M170.5,168c-0.1-0.2-0.3-0.3-0.6-0.3c-0.3,0-0.5,0.1-0.7,0.3
			c-0.2,0.2-0.3,0.5-0.3,0.9c0,0.8,0.3,1.2,1,1.2c0.1,0,0.2,0,0.3-0.1s0.2-0.1,0.2-0.2V168z"/>
		<path class="st5" d="M172.4,167.3v2c0,0.5,0.2,0.7,0.6,0.7c0.2,0,0.4-0.1,0.5-0.2c0.2-0.1,0.3-0.2,0.3-0.4v-2.2h0.6v3.2h-0.6V170
			c-0.1,0.1-0.2,0.2-0.4,0.3s-0.4,0.2-0.6,0.2c-0.3,0-0.6-0.1-0.8-0.3c-0.2-0.2-0.3-0.5-0.3-0.9v-2.1H172.4z"/>
		<path class="st5" d="M177.6,167.5l-0.3,0.4c-0.1-0.1-0.2-0.1-0.3-0.2c-0.1-0.1-0.3-0.1-0.4-0.1c-0.3,0-0.6,0.1-0.7,0.3
			c-0.2,0.2-0.3,0.5-0.3,0.9c0,0.4,0.1,0.7,0.3,0.9c0.2,0.2,0.4,0.3,0.8,0.3c0.3,0,0.5-0.1,0.8-0.3l0.2,0.5
			c-0.3,0.2-0.7,0.3-1.1,0.3c-0.4,0-0.8-0.1-1.1-0.4s-0.4-0.7-0.4-1.2c0-0.5,0.1-0.9,0.4-1.2c0.3-0.3,0.7-0.5,1.2-0.5
			c0.2,0,0.3,0,0.5,0.1S177.5,167.4,177.6,167.5z"/>
		<path class="st5" d="M178.4,167.7h-0.4v-0.4h0.4v-0.7l0.6-0.2v0.9h0.9v0.4H179v1.6c0,0.3,0,0.5,0.1,0.6c0.1,0.1,0.2,0.2,0.4,0.2
			c0.1,0,0.3,0,0.4-0.1l0.1,0.5c-0.2,0.1-0.5,0.1-0.8,0.1c-0.3,0-0.5-0.1-0.6-0.3c-0.2-0.2-0.3-0.4-0.3-0.7V167.7z"/>
		<path class="st5" d="M180.4,168.8c0-0.5,0.1-0.9,0.4-1.2c0.3-0.3,0.6-0.5,1-0.5c0.5,0,0.8,0.1,1.1,0.4c0.3,0.3,0.4,0.7,0.4,1.2
			c0,0.5-0.1,0.9-0.4,1.2s-0.6,0.4-1.1,0.4c-0.5,0-0.8-0.1-1.1-0.4C180.6,169.7,180.4,169.3,180.4,168.8z M181,168.8
			c0,0.8,0.3,1.2,0.8,1.2c0.3,0,0.5-0.1,0.6-0.3s0.2-0.5,0.2-0.9c0-0.8-0.3-1.2-0.8-1.2c-0.3,0-0.5,0.1-0.6,0.3
			C181.1,168.2,181,168.5,181,168.8z"/>
		<path class="st5" d="M183.7,170.2l0.2-0.5c0.3,0.2,0.6,0.3,0.8,0.3c0.3,0,0.5-0.1,0.5-0.4c0-0.2-0.2-0.4-0.5-0.5
			c-0.3-0.1-0.4-0.2-0.5-0.3c-0.1-0.1-0.2-0.1-0.2-0.2c-0.1-0.1-0.1-0.2-0.1-0.2s0-0.2,0-0.3c0-0.3,0.1-0.5,0.3-0.6
			c0.2-0.1,0.4-0.2,0.7-0.2c0.2,0,0.5,0.1,0.9,0.2l-0.2,0.5c-0.2-0.2-0.4-0.3-0.7-0.3c-0.1,0-0.2,0-0.3,0.1s-0.1,0.1-0.1,0.2
			c0,0.2,0.1,0.4,0.3,0.5l0.4,0.2c0.2,0.1,0.4,0.2,0.5,0.4c0.1,0.1,0.2,0.3,0.2,0.5c0,0.3-0.1,0.5-0.3,0.7s-0.5,0.2-0.8,0.2
			C184.3,170.5,184,170.4,183.7,170.2z"/>
	</g>
	<g id="Grupo_2444" transform="translate(-6889.528 -2053)">
		<g id="Rectángulo_218_00000068672389913697309440000006397855229397199524_" transform="translate(6902 2053)">
			<path class="st16" d="M157.6,150.3h5.4c1.1,0,2,0.9,2,2v8.1c0,1.1-0.9,2-2,2h-5.4c-1.1,0-2-0.9-2-2v-8.1
				C155.6,151.2,156.5,150.3,157.6,150.3z"/>
			<path class="st16" d="M157.6,150.8h5.4c0.8,0,1.5,0.7,1.5,1.5v8.1c0,0.8-0.7,1.5-1.5,1.5h-5.4c-0.8,0-1.5-0.7-1.5-1.5v-8.1
				C156.1,151.5,156.8,150.8,157.6,150.8z"/>
		</g>
		
			<line id="Línea_1_00000109740643489609401030000001599951685242473654_" class="st16" x1="7059.3" y1="2206.3" x2="7064.7" y2="2206.3"/>
		
			<line id="Línea_2_00000065782021636344459030000000940456387443764153_" class="st16" x1="7059.3" y1="2208.4" x2="7064.7" y2="2208.4"/>
		
			<line id="Línea_3_00000183928055493191241730000010879317270828705933_" class="st16" x1="7059.3" y1="2210.4" x2="7062.6" y2="2210.4"/>
	</g>
</g>
<g>
	<text transform="matrix(1 0 0 1 191.7224 168.9459)" class="st0" style="font-family:'TrebuchetMS'; font-size:4.689px;">Certificados</text>
	<path id="Icon_ionic-md-download_00000152265023092650580440000012976264115534591124_" class="st0" d="M208.2,156.7h-2.3v-3.3
		h-3.4v3.3h-2.3l4,3.9L208.2,156.7z M200.3,161.7v1.1h7.9v-1.1H200.3z"/>
</g>
<g>
	<g class="st15">
		<path class="st5" d="M222.5,166.9v1.1h-0.4v-2.9c0.3,0,0.5,0,0.5,0c0.8,0,1.3,0.3,1.3,0.9c0,0.7-0.4,1-1.1,1
			C222.7,166.9,222.6,166.9,222.5,166.9z M222.5,165.4v1.1c0.2,0,0.3,0,0.3,0c0.5,0,0.7-0.2,0.7-0.6c0-0.4-0.3-0.5-0.8-0.5
			C222.6,165.4,222.6,165.4,222.5,165.4z"/>
		<path class="st5" d="M225.3,167.7c-0.2,0.2-0.4,0.3-0.7,0.3c-0.2,0-0.3-0.1-0.4-0.2c-0.1-0.1-0.2-0.3-0.2-0.5
			c0-0.2,0.1-0.4,0.3-0.5c0.2-0.1,0.4-0.2,0.7-0.2c0.1,0,0.2,0,0.3,0.1c0-0.3-0.2-0.5-0.5-0.5c-0.2,0-0.4,0.1-0.5,0.2l-0.2-0.3
			c0.1-0.1,0.2-0.1,0.3-0.2c0.1,0,0.2-0.1,0.4-0.1c0.3,0,0.5,0.1,0.7,0.2s0.2,0.4,0.2,0.7v0.8c0,0.2,0.1,0.3,0.2,0.4v0.2
			c-0.2,0-0.3,0-0.3-0.1C225.4,167.9,225.4,167.8,225.3,167.7z M225.3,166.9c-0.1,0-0.2,0-0.3,0c-0.2,0-0.3,0-0.5,0.1
			c-0.1,0.1-0.2,0.2-0.2,0.3c0,0.2,0.1,0.3,0.4,0.3c0.2,0,0.4-0.1,0.5-0.3V166.9z"/>
		<path class="st5" d="M226.2,168.6l0.2-0.3c0.2,0.1,0.4,0.2,0.6,0.2c0.2,0,0.3,0,0.4-0.1c0.1-0.1,0.1-0.1,0.1-0.2
			c0-0.2-0.1-0.3-0.4-0.3c0,0-0.1,0-0.2,0c-0.1,0-0.2,0-0.3,0c-0.3,0-0.5-0.1-0.5-0.3c0-0.1,0-0.1,0.1-0.2c0.1-0.1,0.2-0.1,0.3-0.1
			c-0.3-0.1-0.5-0.4-0.5-0.7c0-0.2,0.1-0.4,0.2-0.6c0.2-0.1,0.3-0.2,0.6-0.2c0.2,0,0.4,0,0.5,0.1l0.2-0.2l0.2,0.2l-0.2,0.2
			c0.1,0.1,0.1,0.3,0.1,0.5c0,0.2-0.1,0.4-0.2,0.5c-0.1,0.1-0.3,0.2-0.5,0.3l-0.3,0c0,0-0.1,0-0.1,0c-0.1,0-0.1,0.1-0.1,0.1
			c0,0.1,0.1,0.1,0.2,0.1c0.1,0,0.1,0,0.3,0c0.1,0,0.2,0,0.3,0c0.2,0,0.4,0.1,0.5,0.2c0.1,0.1,0.2,0.2,0.2,0.4
			c0,0.2-0.1,0.4-0.3,0.5c-0.2,0.1-0.4,0.2-0.7,0.2c-0.1,0-0.3,0-0.4-0.1C226.4,168.7,226.3,168.6,226.2,168.6z M227,166.1
			c-0.1,0-0.2,0-0.3,0.1c-0.1,0.1-0.1,0.2-0.1,0.3c0,0.1,0,0.3,0.1,0.4c0.1,0.1,0.2,0.1,0.3,0.1c0.1,0,0.2,0,0.3-0.1
			c0.1-0.1,0.1-0.2,0.1-0.4c0-0.1,0-0.2-0.1-0.3C227.2,166.2,227.1,166.1,227,166.1z"/>
		<path class="st5" d="M228.2,166.9c0-0.3,0.1-0.6,0.3-0.8c0.2-0.2,0.4-0.3,0.7-0.3c0.3,0,0.5,0.1,0.7,0.3c0.2,0.2,0.3,0.5,0.3,0.8
			c0,0.3-0.1,0.6-0.3,0.8c-0.2,0.2-0.4,0.3-0.7,0.3c-0.3,0-0.5-0.1-0.7-0.3C228.3,167.5,228.2,167.3,228.2,166.9z M228.6,166.9
			c0,0.5,0.2,0.8,0.6,0.8c0.2,0,0.3-0.1,0.4-0.2s0.2-0.3,0.2-0.6c0-0.5-0.2-0.8-0.6-0.8c-0.2,0-0.3,0.1-0.4,0.2
			C228.6,166.5,228.6,166.7,228.6,166.9z"/>
		<path class="st5" d="M230.4,167.9l0.1-0.4c0.2,0.1,0.4,0.2,0.5,0.2c0.2,0,0.4-0.1,0.4-0.3c0-0.1-0.1-0.3-0.3-0.4
			c-0.2-0.1-0.3-0.1-0.4-0.2c-0.1,0-0.1-0.1-0.2-0.1c0-0.1-0.1-0.1-0.1-0.2c0-0.1,0-0.1,0-0.2c0-0.2,0.1-0.3,0.2-0.4
			c0.1-0.1,0.3-0.1,0.5-0.1c0.2,0,0.4,0,0.6,0.1l-0.1,0.4c-0.2-0.1-0.3-0.2-0.5-0.2c-0.1,0-0.2,0-0.2,0.1c-0.1,0-0.1,0.1-0.1,0.2
			c0,0.1,0.1,0.2,0.2,0.3l0.3,0.1c0.2,0.1,0.3,0.2,0.4,0.3c0.1,0.1,0.1,0.2,0.1,0.4c0,0.2-0.1,0.3-0.2,0.4c-0.1,0.1-0.3,0.2-0.6,0.2
			C230.8,168,230.6,168,230.4,167.9z"/>
		<path class="st5" d="M235.2,167h-1.5c0,0.2,0.1,0.4,0.2,0.6c0.1,0.1,0.3,0.2,0.5,0.2c0.2,0,0.4-0.1,0.5-0.2l0.2,0.3
			c-0.1,0.1-0.1,0.1-0.3,0.2c-0.2,0.1-0.3,0.1-0.5,0.1c-0.3,0-0.5-0.1-0.7-0.3c-0.2-0.2-0.3-0.5-0.3-0.8c0-0.4,0.1-0.6,0.3-0.8
			c0.2-0.2,0.4-0.3,0.7-0.3c0.3,0,0.5,0.1,0.7,0.3c0.2,0.2,0.3,0.4,0.3,0.7C235.2,166.8,235.2,166.9,235.2,167z M234.3,166.1
			c-0.2,0-0.3,0.1-0.4,0.2c-0.1,0.1-0.2,0.2-0.2,0.4h1.2c0-0.2,0-0.3-0.1-0.4C234.6,166.2,234.5,166.1,234.3,166.1z"/>
		<path class="st5" d="M236.9,168v-1.2c0-0.2,0-0.4-0.1-0.5c-0.1-0.1-0.2-0.1-0.3-0.1c-0.1,0-0.2,0-0.3,0.1s-0.2,0.1-0.2,0.2v1.6
			h-0.4v-2.1h0.3l0.1,0.3c0.1-0.2,0.3-0.3,0.6-0.3c0.5,0,0.7,0.3,0.7,0.9v1.3H236.9z"/>
		<path class="st5" d="M239.1,167.4V165h0.4v2.3c0,0.1,0,0.2,0.1,0.3c0.1,0.1,0.2,0.1,0.3,0.1v0.3
			C239.4,168,239.1,167.8,239.1,167.4z"/>
		<path class="st5" d="M240.5,168v-1.8h-0.3v-0.3h0.7v2.1H240.5z M241.1,164.8l-0.5,0.7h-0.3l0.3-0.7H241.1z"/>
		<path class="st5" d="M242.8,168v-1.2c0-0.2,0-0.4-0.1-0.5c-0.1-0.1-0.2-0.1-0.3-0.1c-0.1,0-0.2,0-0.3,0.1s-0.2,0.1-0.2,0.2v1.6
			h-0.4v-2.1h0.3l0.1,0.3c0.1-0.2,0.3-0.3,0.6-0.3c0.5,0,0.7,0.3,0.7,0.9v1.3H242.8z"/>
		<path class="st5" d="M245.5,167h-1.5c0,0.2,0.1,0.4,0.2,0.6c0.1,0.1,0.3,0.2,0.5,0.2c0.2,0,0.4-0.1,0.5-0.2l0.2,0.3
			c-0.1,0.1-0.1,0.1-0.3,0.2c-0.2,0.1-0.3,0.1-0.5,0.1c-0.3,0-0.5-0.1-0.7-0.3c-0.2-0.2-0.3-0.5-0.3-0.8c0-0.4,0.1-0.6,0.3-0.8
			c0.2-0.2,0.4-0.3,0.7-0.3c0.3,0,0.5,0.1,0.7,0.3c0.2,0.2,0.3,0.4,0.3,0.7C245.5,166.8,245.5,166.9,245.5,167z M244.6,166.1
			c-0.2,0-0.3,0.1-0.4,0.2c-0.1,0.1-0.2,0.2-0.2,0.4h1.2c0-0.2,0-0.3-0.1-0.4C244.9,166.2,244.7,166.1,244.6,166.1z"/>
		<path class="st5" d="M247.1,167.7c-0.2,0.2-0.4,0.3-0.7,0.3c-0.2,0-0.3-0.1-0.4-0.2c-0.1-0.1-0.2-0.3-0.2-0.5
			c0-0.2,0.1-0.4,0.3-0.5c0.2-0.1,0.4-0.2,0.7-0.2c0.1,0,0.2,0,0.3,0.1c0-0.3-0.2-0.5-0.5-0.5c-0.2,0-0.4,0.1-0.5,0.2l-0.2-0.3
			c0.1-0.1,0.2-0.1,0.3-0.2c0.1,0,0.2-0.1,0.4-0.1c0.3,0,0.5,0.1,0.7,0.2s0.2,0.4,0.2,0.7v0.8c0,0.2,0.1,0.3,0.2,0.4v0.2
			c-0.2,0-0.3,0-0.3-0.1C247.2,167.9,247.1,167.8,247.1,167.7z M247.1,166.9c-0.1,0-0.2,0-0.3,0c-0.2,0-0.3,0-0.5,0.1
			c-0.1,0.1-0.2,0.2-0.2,0.3c0,0.2,0.1,0.3,0.4,0.3c0.2,0,0.4-0.1,0.5-0.3V166.9z"/>
	</g>
	<path id="Icon_material-payment_00000093163514079279099890000013171863866964217505_" class="st5" d="M238.5,155.1h-7.6
		c-0.5,0-0.9,0.4-0.9,0.9c0,0,0,0,0,0l0,5.7c0,0.5,0.4,0.9,0.9,0.9c0,0,0,0,0,0h7.6c0.5,0,0.9-0.4,0.9-0.9c0,0,0,0,0,0V156
		C239.4,155.5,239,155.1,238.5,155.1C238.5,155.1,238.5,155.1,238.5,155.1z M238.5,161.7h-7.6v-2.8h7.6V161.7z M238.5,157h-7.6V156
		h7.6V157z"/>
</g>
<g id="Grupo_2592" transform="translate(-14072.655 -2868.839)">
	<path id="Trazado_80" class="st17" d="M14187.8,3062.2l-1.2-0.2c0,0,0,0,0-0.1v-1.7c0-2.3-2.2-4.1-4.9-4.1s-4.9,1.8-4.9,4.1v1.8v0
		l-1.2,0.2c-0.7,0.1-1.2,0.7-1.2,1.4v8.4c0,0.8,0.6,1.4,1.4,1.4h11.7c0.8,0,1.4-0.6,1.4-1.4v-8.4
		C14188.9,3062.8,14188.4,3062.3,14187.8,3062.2 M14184.1,3062.2l3.5,0.7c0.3,0,0.5,0.3,0.6,0.6v8.4c0,0.4-0.3,0.6-0.7,0.6h-11.7
		c-0.4,0-0.7-0.3-0.7-0.6v-8.4c0-0.3,0.2-0.6,0.6-0.6l3.5-0.7C14180.9,3061.9,14182.5,3061.9,14184.1,3062.2 M14185.8,3061.8
		l-1.2-0.2v-1.4c-0.3-1.6-1.9-2.7-3.5-2.4c-1.2,0.2-2.1,1.2-2.4,2.4v1.4l-1.2,0.2v-1.7c0-1.9,1.9-3.4,4.1-3.4c2.3,0,4.1,1.5,4.1,3.4
		V3061.8z M14179.5,3060.1c0.3-1.2,1.6-1.9,2.8-1.6c0.8,0.2,1.4,0.8,1.6,1.6v1.3c-1.5-0.2-2.9-0.2-4.4,0V3060.1z"/>
	<path id="Trazado_81" class="st18" d="M14180.4,3068.1v1.6c0,0.3,0.2,0.5,0.5,0.5h1.5c0.3,0,0.5-0.2,0.5-0.5v-1.6
		c0.6-0.4,0.9-1,0.9-1.7c0-0.6-0.2-1.1-0.7-1.5c-0.9-0.8-2.3-0.8-3.2,0.1c-0.4,0.4-0.6,1-0.6,1.6
		C14179.5,3067.1,14179.8,3067.7,14180.4,3068.1 M14182.7,3065.3c0.3,0.3,0.4,0.6,0.4,1c0,0.5-0.3,1-0.7,1.2
		c-0.1,0.1-0.2,0.2-0.2,0.3v1.6h-1.1v-1.6c0-0.1-0.1-0.3-0.2-0.3c-0.4-0.2-0.7-0.6-0.7-1.1c0-0.4,0.1-0.8,0.4-1.1
		c0.3-0.3,0.6-0.5,1-0.5C14182,3064.9,14182.4,3065,14182.7,3065.3"/>
	<path id="Trazado_82" class="st17" d="M14197.3,3058.4c0-0.6-0.3-1.1-0.8-1.5c0.5-0.3,0.8-0.9,0.8-1.5c0-1.9-3.7-3.3-8.6-3.3
		c-4.9,0-8.6,1.4-8.6,3.3c0,0,0,0.1,0,0.1c0.2-0.1,0.5-0.1,0.7-0.1l0,0c0-1.2,3.2-2.6,7.9-2.6c4.6,0,7.9,1.3,7.9,2.6
		s-3.2,2.6-7.9,2.6c-0.8,0-1.5,0-2.3-0.1c0.1,0.2,0.3,0.5,0.4,0.7c0.6,0,1.2,0.1,1.9,0.1c2.5,0.1,4.9-0.4,7.1-1.4
		c0.4,0.2,0.7,0.6,0.7,1c0,0.5-0.5,0.9-0.9,1.2c-2.2,1-4.5,1.5-6.9,1.4c-0.6,0-1.1,0-1.6-0.1v0.6l0.8,0.2c0,0,0.1,0,0.1,0
		c0.2,0,0.5,0,0.7,0c2.4,0.1,4.9-0.4,7.1-1.4c0.4,0.2,0.7,0.6,0.8,1c0,0.5-0.5,0.9-0.9,1.2h0l0,0c-1.9,0.9-4,1.4-6.2,1.4v0.7
		c2.2,0,4.4-0.5,6.4-1.4c0.4,0.2,0.7,0.6,0.8,1c0,0.5-0.5,0.9-1,1.2c-1.9,0.9-4,1.4-6.2,1.4v0.7c2.2,0,4.3-0.5,6.3-1.4
		c0.4,0.3,0.8,0.6,0.8,1.1c0,1.1-2.9,2.4-7.1,2.5v0.7c2.2,0,4.4-0.4,6.4-1.4c0.4,0.2,0.7,0.6,0.7,1c0,1.2-2.9,2.4-7.2,2.5
		c-0.1,0.3-0.3,0.5-0.5,0.7c4.8,0,8.4-1.4,8.4-3.3c0-0.6-0.3-1.1-0.8-1.5c0.5-0.3,0.8-0.9,0.8-1.5c-0.8-0.5-1.1-1.5-0.6-2.3
		c0.2-0.3,0.4-0.5,0.6-0.6c-0.8-0.5-1.1-1.5-0.6-2.3c0.1-0.3,0.4-0.5,0.6-0.6c-0.8-0.5-1.1-1.5-0.6-2.3
		C14196.9,3058.8,14197.1,3058.5,14197.3,3058.4"/>
	<path id="Trazado_163" class="st17" d="M14187.8,3062.2l-1.2-0.2c0,0,0,0,0-0.1v-1.7c0-2.3-2.2-4.1-4.9-4.1s-4.9,1.8-4.9,4.1v1.8v0
		l-1.2,0.2c-0.7,0.1-1.2,0.7-1.2,1.4v8.4c0,0.8,0.6,1.4,1.4,1.4h11.7c0.8,0,1.4-0.6,1.4-1.4v-8.4
		C14188.9,3062.8,14188.4,3062.3,14187.8,3062.2 M14184.1,3062.2l3.5,0.7c0.3,0,0.5,0.3,0.6,0.6v8.4c0,0.4-0.3,0.6-0.7,0.6h-11.7
		c-0.4,0-0.7-0.3-0.7-0.6v-8.4c0-0.3,0.2-0.6,0.6-0.6l3.5-0.7C14180.9,3061.9,14182.5,3061.9,14184.1,3062.2 M14185.8,3061.8
		l-1.2-0.2v-1.4c-0.3-1.6-1.9-2.7-3.5-2.4c-1.2,0.2-2.1,1.2-2.4,2.4v1.4l-1.2,0.2v-1.7c0-1.9,1.9-3.4,4.1-3.4c2.3,0,4.1,1.5,4.1,3.4
		V3061.8z M14179.5,3060.1c0.3-1.2,1.6-1.9,2.8-1.6c0.8,0.2,1.4,0.8,1.6,1.6v1.3c-1.5-0.2-2.9-0.2-4.4,0V3060.1z"/>
	<path id="Trazado_164" class="st18" d="M14180.4,3068.1v1.6c0,0.3,0.2,0.5,0.5,0.5h1.5c0.3,0,0.5-0.2,0.5-0.5v-1.6
		c0.6-0.4,0.9-1,0.9-1.7c0-0.6-0.2-1.1-0.7-1.5c-0.9-0.8-2.3-0.8-3.2,0.1c-0.4,0.4-0.6,1-0.6,1.6
		C14179.5,3067.1,14179.8,3067.7,14180.4,3068.1 M14182.7,3065.3c0.3,0.3,0.4,0.6,0.4,1c0,0.5-0.3,1-0.7,1.2
		c-0.1,0.1-0.2,0.2-0.2,0.3v1.6h-1.1v-1.6c0-0.1-0.1-0.3-0.2-0.3c-0.4-0.2-0.7-0.6-0.7-1.1c0-0.4,0.1-0.8,0.4-1.1
		c0.3-0.3,0.6-0.5,1-0.5C14182,3064.9,14182.4,3065,14182.7,3065.3"/>
</g>
<g id="Grupo_2595" transform="translate(-14457.678 -2939.639)">
	<path id="Trazado_193" class="st17" d="M14479.5,2954.4c0,0.4,0.3,0.6,0.6,0.7c0.4,0,0.6-0.3,0.7-0.6c0-0.4-0.3-0.6-0.6-0.7
		c0,0,0,0,0,0C14479.8,2953.8,14479.6,2954,14479.5,2954.4"/>
	<path id="Trazado_195" class="st17" d="M14463.2,2952.8h-2.2v0.8h1.7C14462.9,2953.3,14463,2953.1,14463.2,2952.8"/>
	<path id="Trazado_196" class="st17" d="M14476.4,2951.4l0.2-0.8c-2.1-0.5-4.2-0.5-6.3,0l0.2,0.8
		C14472.4,2950.9,14474.5,2951,14476.4,2951.4"/>
	<path id="Trazado_197" class="st17" d="M14460.4,2957.8c0-0.1,0.1-0.3,0.3-0.3c0,0,0,0,0,0c0.2,0,0.4-0.1,0.6-0.2
		c-0.2-0.1-0.5-0.3-0.6-0.6c-0.2-0.2-0.3-0.5-0.3-0.8c0-0.4,0.2-0.7,0.6-0.8c0.3-0.1,0.7,0.1,0.9,0.3c0.4,0.4,0.5,1,0.3,1.6
		c0.1,0,0.2,0,0.4,0c0,0,0,0,0,0c0.1-0.1,0.2-0.2,0.4-0.1c0.1,0,0.2,0.1,0.2,0.2c0,0.1,0,0.2-0.1,0.3c-0.1,0.1-0.3,0.2-0.4,0.2
		c-0.2,0-0.5,0-0.7-0.1c-0.3,0.3-0.7,0.5-1.1,0.5l0,0C14460.6,2958.1,14460.5,2958,14460.4,2957.8 M14461.1,2955.7
		c-0.1,0-0.2,0.2-0.2,0.3c0,0.2,0.1,0.3,0.2,0.5c0.1,0.2,0.3,0.3,0.5,0.5c0.1-0.4,0.1-0.8-0.2-1
		C14461.4,2955.8,14461.3,2955.7,14461.1,2955.7C14461.1,2955.7,14461.1,2955.7,14461.1,2955.7"/>
	<path id="Trazado_198" class="st18" d="M14477,2946.1c0-0.1,0-0.1,0-0.2c0-0.1-0.1-0.3-0.1-0.4c-0.4-1.4-1.6-2.4-3-2.5c0,0,0,0,0,0
		l0,0h0h-0.7l-0.1,0c-0.1,0-0.2,0-0.2,0c-0.9,0.2-1.7,0.7-2.3,1.5c-1.1,1.6-0.7,3.7,0.9,4.8c0,0,0,0,0,0c0.6,0.4,1.3,0.6,2.1,0.7
		c1.6,0,3-1.1,3.5-2.6c0-0.1,0.1-0.3,0.1-0.4c0-0.1,0-0.1,0-0.2L14477,2946.1L14477,2946.1z M14476.6,2946.5c0,0.8-0.3,1.6-0.9,2.2
		c-0.6,0.6-1.4,0.9-2.2,0.9h0c-0.8,0-1.6-0.3-2.2-0.9c-0.6-0.6-0.9-1.4-0.9-2.2c0-1.7,1.4-3.1,3.2-3.1h0c0.8,0,1.6,0.3,2.2,0.9
		C14476.3,2944.9,14476.6,2945.7,14476.6,2946.5"/>
	<path id="Trazado_199" class="st18" d="M14473.5,2943.8L14473.5,2943.8c-0.7,0-1.4,0.3-1.9,0.8c-1,1-1.1,2.7-0.1,3.7
		c0,0,0,0,0.1,0.1c0.5,0.5,1.2,0.8,1.9,0.8l0,0c0.7,0,1.4-0.3,1.9-0.8c1-1,1.1-2.7,0.1-3.7c0,0,0,0-0.1-0.1
		C14474.9,2944.1,14474.2,2943.8,14473.5,2943.8 M14473.4,2944.3L14473.4,2944.3c0.6,0,1.2,0.2,1.6,0.7c0.9,0.8,0.9,2.2,0,3.1
		c0,0,0,0-0.1,0.1c-0.4,0.4-1,0.6-1.6,0.6h0c-0.6,0-1.2-0.2-1.6-0.7c-0.9-0.8-0.9-2.2,0-3.1c0,0,0,0,0.1-0.1
		C14472.3,2944.5,14472.8,2944.3,14473.4,2944.3"/>
	<path id="Trazado_200" class="st18" d="M14473,2946.5c0.1,0.1,0.2,0.1,0.3,0.2c0.1,0.1,0.2,0.1,0.4,0.2c0.1,0,0.1,0.1,0.1,0.2
		c0,0.1-0.1,0.2-0.2,0.2c-0.2,0-0.3,0-0.5,0c-0.1,0-0.2-0.1-0.2-0.2c0-0.1,0-0.1-0.1-0.2c-0.1-0.1-0.2-0.1-0.3,0
		c0,0.1-0.1,0.1,0,0.2c0,0.3,0.2,0.5,0.5,0.6c0.1,0,0.2,0.1,0.1,0.2c0,0.1,0.1,0.2,0.2,0.2c0,0,0,0,0,0c0,0,0.1,0,0.1,0
		c0.1,0,0.1-0.1,0.1-0.2c0,0,0-0.1,0-0.1l0,0l0.1,0c0.3-0.1,0.5-0.3,0.5-0.6c0-0.3-0.1-0.6-0.3-0.7c-0.1,0-0.1-0.1-0.2-0.1l0,0
		c-0.1,0-0.1-0.1-0.2-0.1c-0.1-0.1-0.2-0.1-0.4-0.2c-0.1,0-0.1-0.1-0.1-0.2c0-0.1,0-0.2,0.1-0.2c0.1-0.1,0.3-0.1,0.4-0.1
		c0.1,0,0.2,0.2,0.3,0.3c0,0.1,0.1,0.2,0.2,0.2c0.1,0,0.2-0.1,0.2-0.2c0-0.3-0.2-0.6-0.5-0.6c0,0-0.1,0-0.1,0h0c0,0,0,0,0,0
		c0-0.1,0-0.3-0.2-0.3l0,0c-0.2,0-0.2,0.2-0.2,0.3c0,0,0,0,0,0h0c0,0-0.1,0-0.1,0c-0.3,0.1-0.5,0.4-0.5,0.7
		C14472.6,2946.2,14472.8,2946.4,14473,2946.5"/>
	<path id="Trazado_201" class="st17" d="M14484.6,2954.7h-0.9l-0.1-0.2c-0.5-1.1-1.3-2.1-2.2-2.9c-0.4-1.1-0.4-2.3,0-3.4
		c0-0.1,0-0.3-0.1-0.4c-0.1-0.1-0.2-0.2-0.4-0.1c-1.4,0.1-2.6,0.8-3.6,1.7c-0.2-0.1-0.3-0.1-0.5-0.1c-0.2,0.2-0.4,0.5-0.7,0.6
		c0.4,0.1,0.8,0.2,1.2,0.3c0.2,0.1,0.4,0,0.5-0.2c0.7-0.8,1.6-1.3,2.6-1.5c-0.3,1.1-0.2,2.3,0.2,3.4c0,0,0.1,0.1,0.1,0.1
		c0.9,0.7,1.6,1.6,2.1,2.7l0.2,0.5c0.1,0.1,0.2,0.2,0.4,0.2h1.1c0.3,0,0.6,0.3,0.6,0.6c0,0,0,0,0,0v2.5c0,0.3-0.3,0.6-0.6,0.6
		c0,0,0,0,0,0h-1.1c-0.2,0-0.3,0.1-0.4,0.2l-0.2,0.5c-0.4,0.9-1,1.7-1.8,2.4l-0.4,0.3c-0.1,0.1-0.2,0.3-0.1,0.4l0.8,2.6l-2.9,0.8
		l-0.5-1.8c-0.1-0.2-0.2-0.3-0.4-0.3c0,0-0.1,0-0.1,0l-0.8,0.2c-2.1,0.6-4.4,0.6-6.5,0.1l-0.7-0.2c-0.2-0.1-0.4,0.1-0.5,0.3
		l-0.5,1.7l-2.9-0.8l0.7-2.4c0-0.1,0-0.3-0.1-0.4l-0.4-0.3c-1.6-1.3-2.5-3.1-2.5-5.1c0-3.6,3.2-6.6,7.4-7.5
		c-0.2-0.2-0.5-0.4-0.7-0.7c-4.4,1.1-7.6,4.3-7.6,8.1c0.1,2.2,1.1,4.3,2.8,5.7l0.2,0.2l-0.7,2.3c-0.1,0.2,0,0.4,0.1,0.5
		c0.1,0.2,0.2,0.3,0.4,0.3l3.1,0.9l0,0c0.1,0,0.1,0,0.2,0c0.3,0,0.6-0.2,0.7-0.5l0.4-1.4l0.4,0.1c2.3,0.6,4.7,0.5,6.9-0.1l0.4-0.1
		l0.4,1.5c0.1,0.4,0.5,0.6,0.9,0.5l3.1-0.9c0.2-0.1,0.3-0.2,0.4-0.3c0.1-0.2,0.1-0.4,0.1-0.5l-0.7-2.4l0.2-0.2
		c0.8-0.7,1.5-1.7,2-2.7l0.1-0.2h0.9c0.8,0,1.4-0.6,1.4-1.4v-2.5C14486,2955.4,14485.4,2954.7,14484.6,2954.7"/>
</g>
</svg>
